%
M48
M72
T01C0.0400
T02C0.0440
T03C0.1260
T04C0.1300
%
T01
X1680Y1680
X1680Y2680
X1680Y3680
X1680Y4680
X1680Y5680
X1680Y6680
X1680Y7680
X1680Y8680
X1680Y9680
X1680Y10680
X37180Y3180
X38180Y3180
X38180Y2180
X37180Y2180
X37180Y4180
X38180Y4180
X38180Y5180
X37180Y5180
X37180Y6180
X38180Y6180
X38180Y7180
X37180Y7180
X37180Y8180
X38180Y8180
X38180Y9180
X37180Y9180
X37180Y10180
X38180Y10180
X38180Y11180
X37180Y11180
T02
X6180Y10180
X7180Y10180
X8180Y10180
X12680Y10180
X13680Y10180
X14680Y10180
X19180Y10180
X20180Y10180
X21180Y10180
X25680Y10180
X26680Y10180
X27680Y10180
X31680Y10180
X32680Y10180
X33680Y10180
T03
X10680Y4180
X23680Y4180
X29680Y9680
X23680Y9680
X17180Y9680
X10180Y9680
T04
X7180Y3280
X13680Y3280
X20180Y3280
X26680Y3280
X32680Y3280
M30
