G75*
%MOIN*%
%OFA0B0*%
%FSLAX24Y24*%
%IPPOS*%
%LPD*%
%AMOC8*
5,1,8,0,0,1.08239X$1,22.5*
%
%ADD10C,0.0000*%
D10*
X000180Y000180D02*
X000180Y013176D01*
X039550Y013176D01*
X039550Y000180D01*
X000180Y000180D01*
X006530Y003280D02*
X006532Y003330D01*
X006538Y003380D01*
X006548Y003430D01*
X006561Y003478D01*
X006578Y003526D01*
X006599Y003572D01*
X006623Y003616D01*
X006651Y003658D01*
X006682Y003698D01*
X006716Y003735D01*
X006753Y003770D01*
X006792Y003801D01*
X006833Y003830D01*
X006877Y003855D01*
X006923Y003877D01*
X006970Y003895D01*
X007018Y003909D01*
X007067Y003920D01*
X007117Y003927D01*
X007167Y003930D01*
X007218Y003929D01*
X007268Y003924D01*
X007318Y003915D01*
X007366Y003903D01*
X007414Y003886D01*
X007460Y003866D01*
X007505Y003843D01*
X007548Y003816D01*
X007588Y003786D01*
X007626Y003753D01*
X007661Y003717D01*
X007694Y003678D01*
X007723Y003637D01*
X007749Y003594D01*
X007772Y003549D01*
X007791Y003502D01*
X007806Y003454D01*
X007818Y003405D01*
X007826Y003355D01*
X007830Y003305D01*
X007830Y003255D01*
X007826Y003205D01*
X007818Y003155D01*
X007806Y003106D01*
X007791Y003058D01*
X007772Y003011D01*
X007749Y002966D01*
X007723Y002923D01*
X007694Y002882D01*
X007661Y002843D01*
X007626Y002807D01*
X007588Y002774D01*
X007548Y002744D01*
X007505Y002717D01*
X007460Y002694D01*
X007414Y002674D01*
X007366Y002657D01*
X007318Y002645D01*
X007268Y002636D01*
X007218Y002631D01*
X007167Y002630D01*
X007117Y002633D01*
X007067Y002640D01*
X007018Y002651D01*
X006970Y002665D01*
X006923Y002683D01*
X006877Y002705D01*
X006833Y002730D01*
X006792Y002759D01*
X006753Y002790D01*
X006716Y002825D01*
X006682Y002862D01*
X006651Y002902D01*
X006623Y002944D01*
X006599Y002988D01*
X006578Y003034D01*
X006561Y003082D01*
X006548Y003130D01*
X006538Y003180D01*
X006532Y003230D01*
X006530Y003280D01*
X013030Y003280D02*
X013032Y003330D01*
X013038Y003380D01*
X013048Y003430D01*
X013061Y003478D01*
X013078Y003526D01*
X013099Y003572D01*
X013123Y003616D01*
X013151Y003658D01*
X013182Y003698D01*
X013216Y003735D01*
X013253Y003770D01*
X013292Y003801D01*
X013333Y003830D01*
X013377Y003855D01*
X013423Y003877D01*
X013470Y003895D01*
X013518Y003909D01*
X013567Y003920D01*
X013617Y003927D01*
X013667Y003930D01*
X013718Y003929D01*
X013768Y003924D01*
X013818Y003915D01*
X013866Y003903D01*
X013914Y003886D01*
X013960Y003866D01*
X014005Y003843D01*
X014048Y003816D01*
X014088Y003786D01*
X014126Y003753D01*
X014161Y003717D01*
X014194Y003678D01*
X014223Y003637D01*
X014249Y003594D01*
X014272Y003549D01*
X014291Y003502D01*
X014306Y003454D01*
X014318Y003405D01*
X014326Y003355D01*
X014330Y003305D01*
X014330Y003255D01*
X014326Y003205D01*
X014318Y003155D01*
X014306Y003106D01*
X014291Y003058D01*
X014272Y003011D01*
X014249Y002966D01*
X014223Y002923D01*
X014194Y002882D01*
X014161Y002843D01*
X014126Y002807D01*
X014088Y002774D01*
X014048Y002744D01*
X014005Y002717D01*
X013960Y002694D01*
X013914Y002674D01*
X013866Y002657D01*
X013818Y002645D01*
X013768Y002636D01*
X013718Y002631D01*
X013667Y002630D01*
X013617Y002633D01*
X013567Y002640D01*
X013518Y002651D01*
X013470Y002665D01*
X013423Y002683D01*
X013377Y002705D01*
X013333Y002730D01*
X013292Y002759D01*
X013253Y002790D01*
X013216Y002825D01*
X013182Y002862D01*
X013151Y002902D01*
X013123Y002944D01*
X013099Y002988D01*
X013078Y003034D01*
X013061Y003082D01*
X013048Y003130D01*
X013038Y003180D01*
X013032Y003230D01*
X013030Y003280D01*
X019530Y003280D02*
X019532Y003330D01*
X019538Y003380D01*
X019548Y003430D01*
X019561Y003478D01*
X019578Y003526D01*
X019599Y003572D01*
X019623Y003616D01*
X019651Y003658D01*
X019682Y003698D01*
X019716Y003735D01*
X019753Y003770D01*
X019792Y003801D01*
X019833Y003830D01*
X019877Y003855D01*
X019923Y003877D01*
X019970Y003895D01*
X020018Y003909D01*
X020067Y003920D01*
X020117Y003927D01*
X020167Y003930D01*
X020218Y003929D01*
X020268Y003924D01*
X020318Y003915D01*
X020366Y003903D01*
X020414Y003886D01*
X020460Y003866D01*
X020505Y003843D01*
X020548Y003816D01*
X020588Y003786D01*
X020626Y003753D01*
X020661Y003717D01*
X020694Y003678D01*
X020723Y003637D01*
X020749Y003594D01*
X020772Y003549D01*
X020791Y003502D01*
X020806Y003454D01*
X020818Y003405D01*
X020826Y003355D01*
X020830Y003305D01*
X020830Y003255D01*
X020826Y003205D01*
X020818Y003155D01*
X020806Y003106D01*
X020791Y003058D01*
X020772Y003011D01*
X020749Y002966D01*
X020723Y002923D01*
X020694Y002882D01*
X020661Y002843D01*
X020626Y002807D01*
X020588Y002774D01*
X020548Y002744D01*
X020505Y002717D01*
X020460Y002694D01*
X020414Y002674D01*
X020366Y002657D01*
X020318Y002645D01*
X020268Y002636D01*
X020218Y002631D01*
X020167Y002630D01*
X020117Y002633D01*
X020067Y002640D01*
X020018Y002651D01*
X019970Y002665D01*
X019923Y002683D01*
X019877Y002705D01*
X019833Y002730D01*
X019792Y002759D01*
X019753Y002790D01*
X019716Y002825D01*
X019682Y002862D01*
X019651Y002902D01*
X019623Y002944D01*
X019599Y002988D01*
X019578Y003034D01*
X019561Y003082D01*
X019548Y003130D01*
X019538Y003180D01*
X019532Y003230D01*
X019530Y003280D01*
X026030Y003280D02*
X026032Y003330D01*
X026038Y003380D01*
X026048Y003430D01*
X026061Y003478D01*
X026078Y003526D01*
X026099Y003572D01*
X026123Y003616D01*
X026151Y003658D01*
X026182Y003698D01*
X026216Y003735D01*
X026253Y003770D01*
X026292Y003801D01*
X026333Y003830D01*
X026377Y003855D01*
X026423Y003877D01*
X026470Y003895D01*
X026518Y003909D01*
X026567Y003920D01*
X026617Y003927D01*
X026667Y003930D01*
X026718Y003929D01*
X026768Y003924D01*
X026818Y003915D01*
X026866Y003903D01*
X026914Y003886D01*
X026960Y003866D01*
X027005Y003843D01*
X027048Y003816D01*
X027088Y003786D01*
X027126Y003753D01*
X027161Y003717D01*
X027194Y003678D01*
X027223Y003637D01*
X027249Y003594D01*
X027272Y003549D01*
X027291Y003502D01*
X027306Y003454D01*
X027318Y003405D01*
X027326Y003355D01*
X027330Y003305D01*
X027330Y003255D01*
X027326Y003205D01*
X027318Y003155D01*
X027306Y003106D01*
X027291Y003058D01*
X027272Y003011D01*
X027249Y002966D01*
X027223Y002923D01*
X027194Y002882D01*
X027161Y002843D01*
X027126Y002807D01*
X027088Y002774D01*
X027048Y002744D01*
X027005Y002717D01*
X026960Y002694D01*
X026914Y002674D01*
X026866Y002657D01*
X026818Y002645D01*
X026768Y002636D01*
X026718Y002631D01*
X026667Y002630D01*
X026617Y002633D01*
X026567Y002640D01*
X026518Y002651D01*
X026470Y002665D01*
X026423Y002683D01*
X026377Y002705D01*
X026333Y002730D01*
X026292Y002759D01*
X026253Y002790D01*
X026216Y002825D01*
X026182Y002862D01*
X026151Y002902D01*
X026123Y002944D01*
X026099Y002988D01*
X026078Y003034D01*
X026061Y003082D01*
X026048Y003130D01*
X026038Y003180D01*
X026032Y003230D01*
X026030Y003280D01*
X032030Y003280D02*
X032032Y003330D01*
X032038Y003380D01*
X032048Y003430D01*
X032061Y003478D01*
X032078Y003526D01*
X032099Y003572D01*
X032123Y003616D01*
X032151Y003658D01*
X032182Y003698D01*
X032216Y003735D01*
X032253Y003770D01*
X032292Y003801D01*
X032333Y003830D01*
X032377Y003855D01*
X032423Y003877D01*
X032470Y003895D01*
X032518Y003909D01*
X032567Y003920D01*
X032617Y003927D01*
X032667Y003930D01*
X032718Y003929D01*
X032768Y003924D01*
X032818Y003915D01*
X032866Y003903D01*
X032914Y003886D01*
X032960Y003866D01*
X033005Y003843D01*
X033048Y003816D01*
X033088Y003786D01*
X033126Y003753D01*
X033161Y003717D01*
X033194Y003678D01*
X033223Y003637D01*
X033249Y003594D01*
X033272Y003549D01*
X033291Y003502D01*
X033306Y003454D01*
X033318Y003405D01*
X033326Y003355D01*
X033330Y003305D01*
X033330Y003255D01*
X033326Y003205D01*
X033318Y003155D01*
X033306Y003106D01*
X033291Y003058D01*
X033272Y003011D01*
X033249Y002966D01*
X033223Y002923D01*
X033194Y002882D01*
X033161Y002843D01*
X033126Y002807D01*
X033088Y002774D01*
X033048Y002744D01*
X033005Y002717D01*
X032960Y002694D01*
X032914Y002674D01*
X032866Y002657D01*
X032818Y002645D01*
X032768Y002636D01*
X032718Y002631D01*
X032667Y002630D01*
X032617Y002633D01*
X032567Y002640D01*
X032518Y002651D01*
X032470Y002665D01*
X032423Y002683D01*
X032377Y002705D01*
X032333Y002730D01*
X032292Y002759D01*
X032253Y002790D01*
X032216Y002825D01*
X032182Y002862D01*
X032151Y002902D01*
X032123Y002944D01*
X032099Y002988D01*
X032078Y003034D01*
X032061Y003082D01*
X032048Y003130D01*
X032038Y003180D01*
X032032Y003230D01*
X032030Y003280D01*
M02*
