G75*
%MOIN*%
%OFA0B0*%
%FSLAX24Y24*%
%IPPOS*%
%LPD*%
%AMOC8*
5,1,8,0,0,1.08239X$1,22.5*
%
%ADD10C,0.0000*%
%ADD11C,0.0660*%
%ADD12OC8,0.0740*%
%ADD13C,0.0740*%
%ADD14C,0.0760*%
%ADD15C,0.0160*%
%ADD16R,0.1660X0.1660*%
D10*
X000180Y000180D02*
X000180Y013176D01*
X039550Y013176D01*
X039550Y000180D01*
X000180Y000180D01*
X006530Y003280D02*
X006532Y003330D01*
X006538Y003380D01*
X006548Y003430D01*
X006561Y003478D01*
X006578Y003526D01*
X006599Y003572D01*
X006623Y003616D01*
X006651Y003658D01*
X006682Y003698D01*
X006716Y003735D01*
X006753Y003770D01*
X006792Y003801D01*
X006833Y003830D01*
X006877Y003855D01*
X006923Y003877D01*
X006970Y003895D01*
X007018Y003909D01*
X007067Y003920D01*
X007117Y003927D01*
X007167Y003930D01*
X007218Y003929D01*
X007268Y003924D01*
X007318Y003915D01*
X007366Y003903D01*
X007414Y003886D01*
X007460Y003866D01*
X007505Y003843D01*
X007548Y003816D01*
X007588Y003786D01*
X007626Y003753D01*
X007661Y003717D01*
X007694Y003678D01*
X007723Y003637D01*
X007749Y003594D01*
X007772Y003549D01*
X007791Y003502D01*
X007806Y003454D01*
X007818Y003405D01*
X007826Y003355D01*
X007830Y003305D01*
X007830Y003255D01*
X007826Y003205D01*
X007818Y003155D01*
X007806Y003106D01*
X007791Y003058D01*
X007772Y003011D01*
X007749Y002966D01*
X007723Y002923D01*
X007694Y002882D01*
X007661Y002843D01*
X007626Y002807D01*
X007588Y002774D01*
X007548Y002744D01*
X007505Y002717D01*
X007460Y002694D01*
X007414Y002674D01*
X007366Y002657D01*
X007318Y002645D01*
X007268Y002636D01*
X007218Y002631D01*
X007167Y002630D01*
X007117Y002633D01*
X007067Y002640D01*
X007018Y002651D01*
X006970Y002665D01*
X006923Y002683D01*
X006877Y002705D01*
X006833Y002730D01*
X006792Y002759D01*
X006753Y002790D01*
X006716Y002825D01*
X006682Y002862D01*
X006651Y002902D01*
X006623Y002944D01*
X006599Y002988D01*
X006578Y003034D01*
X006561Y003082D01*
X006548Y003130D01*
X006538Y003180D01*
X006532Y003230D01*
X006530Y003280D01*
X013030Y003280D02*
X013032Y003330D01*
X013038Y003380D01*
X013048Y003430D01*
X013061Y003478D01*
X013078Y003526D01*
X013099Y003572D01*
X013123Y003616D01*
X013151Y003658D01*
X013182Y003698D01*
X013216Y003735D01*
X013253Y003770D01*
X013292Y003801D01*
X013333Y003830D01*
X013377Y003855D01*
X013423Y003877D01*
X013470Y003895D01*
X013518Y003909D01*
X013567Y003920D01*
X013617Y003927D01*
X013667Y003930D01*
X013718Y003929D01*
X013768Y003924D01*
X013818Y003915D01*
X013866Y003903D01*
X013914Y003886D01*
X013960Y003866D01*
X014005Y003843D01*
X014048Y003816D01*
X014088Y003786D01*
X014126Y003753D01*
X014161Y003717D01*
X014194Y003678D01*
X014223Y003637D01*
X014249Y003594D01*
X014272Y003549D01*
X014291Y003502D01*
X014306Y003454D01*
X014318Y003405D01*
X014326Y003355D01*
X014330Y003305D01*
X014330Y003255D01*
X014326Y003205D01*
X014318Y003155D01*
X014306Y003106D01*
X014291Y003058D01*
X014272Y003011D01*
X014249Y002966D01*
X014223Y002923D01*
X014194Y002882D01*
X014161Y002843D01*
X014126Y002807D01*
X014088Y002774D01*
X014048Y002744D01*
X014005Y002717D01*
X013960Y002694D01*
X013914Y002674D01*
X013866Y002657D01*
X013818Y002645D01*
X013768Y002636D01*
X013718Y002631D01*
X013667Y002630D01*
X013617Y002633D01*
X013567Y002640D01*
X013518Y002651D01*
X013470Y002665D01*
X013423Y002683D01*
X013377Y002705D01*
X013333Y002730D01*
X013292Y002759D01*
X013253Y002790D01*
X013216Y002825D01*
X013182Y002862D01*
X013151Y002902D01*
X013123Y002944D01*
X013099Y002988D01*
X013078Y003034D01*
X013061Y003082D01*
X013048Y003130D01*
X013038Y003180D01*
X013032Y003230D01*
X013030Y003280D01*
X019530Y003280D02*
X019532Y003330D01*
X019538Y003380D01*
X019548Y003430D01*
X019561Y003478D01*
X019578Y003526D01*
X019599Y003572D01*
X019623Y003616D01*
X019651Y003658D01*
X019682Y003698D01*
X019716Y003735D01*
X019753Y003770D01*
X019792Y003801D01*
X019833Y003830D01*
X019877Y003855D01*
X019923Y003877D01*
X019970Y003895D01*
X020018Y003909D01*
X020067Y003920D01*
X020117Y003927D01*
X020167Y003930D01*
X020218Y003929D01*
X020268Y003924D01*
X020318Y003915D01*
X020366Y003903D01*
X020414Y003886D01*
X020460Y003866D01*
X020505Y003843D01*
X020548Y003816D01*
X020588Y003786D01*
X020626Y003753D01*
X020661Y003717D01*
X020694Y003678D01*
X020723Y003637D01*
X020749Y003594D01*
X020772Y003549D01*
X020791Y003502D01*
X020806Y003454D01*
X020818Y003405D01*
X020826Y003355D01*
X020830Y003305D01*
X020830Y003255D01*
X020826Y003205D01*
X020818Y003155D01*
X020806Y003106D01*
X020791Y003058D01*
X020772Y003011D01*
X020749Y002966D01*
X020723Y002923D01*
X020694Y002882D01*
X020661Y002843D01*
X020626Y002807D01*
X020588Y002774D01*
X020548Y002744D01*
X020505Y002717D01*
X020460Y002694D01*
X020414Y002674D01*
X020366Y002657D01*
X020318Y002645D01*
X020268Y002636D01*
X020218Y002631D01*
X020167Y002630D01*
X020117Y002633D01*
X020067Y002640D01*
X020018Y002651D01*
X019970Y002665D01*
X019923Y002683D01*
X019877Y002705D01*
X019833Y002730D01*
X019792Y002759D01*
X019753Y002790D01*
X019716Y002825D01*
X019682Y002862D01*
X019651Y002902D01*
X019623Y002944D01*
X019599Y002988D01*
X019578Y003034D01*
X019561Y003082D01*
X019548Y003130D01*
X019538Y003180D01*
X019532Y003230D01*
X019530Y003280D01*
X026030Y003280D02*
X026032Y003330D01*
X026038Y003380D01*
X026048Y003430D01*
X026061Y003478D01*
X026078Y003526D01*
X026099Y003572D01*
X026123Y003616D01*
X026151Y003658D01*
X026182Y003698D01*
X026216Y003735D01*
X026253Y003770D01*
X026292Y003801D01*
X026333Y003830D01*
X026377Y003855D01*
X026423Y003877D01*
X026470Y003895D01*
X026518Y003909D01*
X026567Y003920D01*
X026617Y003927D01*
X026667Y003930D01*
X026718Y003929D01*
X026768Y003924D01*
X026818Y003915D01*
X026866Y003903D01*
X026914Y003886D01*
X026960Y003866D01*
X027005Y003843D01*
X027048Y003816D01*
X027088Y003786D01*
X027126Y003753D01*
X027161Y003717D01*
X027194Y003678D01*
X027223Y003637D01*
X027249Y003594D01*
X027272Y003549D01*
X027291Y003502D01*
X027306Y003454D01*
X027318Y003405D01*
X027326Y003355D01*
X027330Y003305D01*
X027330Y003255D01*
X027326Y003205D01*
X027318Y003155D01*
X027306Y003106D01*
X027291Y003058D01*
X027272Y003011D01*
X027249Y002966D01*
X027223Y002923D01*
X027194Y002882D01*
X027161Y002843D01*
X027126Y002807D01*
X027088Y002774D01*
X027048Y002744D01*
X027005Y002717D01*
X026960Y002694D01*
X026914Y002674D01*
X026866Y002657D01*
X026818Y002645D01*
X026768Y002636D01*
X026718Y002631D01*
X026667Y002630D01*
X026617Y002633D01*
X026567Y002640D01*
X026518Y002651D01*
X026470Y002665D01*
X026423Y002683D01*
X026377Y002705D01*
X026333Y002730D01*
X026292Y002759D01*
X026253Y002790D01*
X026216Y002825D01*
X026182Y002862D01*
X026151Y002902D01*
X026123Y002944D01*
X026099Y002988D01*
X026078Y003034D01*
X026061Y003082D01*
X026048Y003130D01*
X026038Y003180D01*
X026032Y003230D01*
X026030Y003280D01*
X032030Y003280D02*
X032032Y003330D01*
X032038Y003380D01*
X032048Y003430D01*
X032061Y003478D01*
X032078Y003526D01*
X032099Y003572D01*
X032123Y003616D01*
X032151Y003658D01*
X032182Y003698D01*
X032216Y003735D01*
X032253Y003770D01*
X032292Y003801D01*
X032333Y003830D01*
X032377Y003855D01*
X032423Y003877D01*
X032470Y003895D01*
X032518Y003909D01*
X032567Y003920D01*
X032617Y003927D01*
X032667Y003930D01*
X032718Y003929D01*
X032768Y003924D01*
X032818Y003915D01*
X032866Y003903D01*
X032914Y003886D01*
X032960Y003866D01*
X033005Y003843D01*
X033048Y003816D01*
X033088Y003786D01*
X033126Y003753D01*
X033161Y003717D01*
X033194Y003678D01*
X033223Y003637D01*
X033249Y003594D01*
X033272Y003549D01*
X033291Y003502D01*
X033306Y003454D01*
X033318Y003405D01*
X033326Y003355D01*
X033330Y003305D01*
X033330Y003255D01*
X033326Y003205D01*
X033318Y003155D01*
X033306Y003106D01*
X033291Y003058D01*
X033272Y003011D01*
X033249Y002966D01*
X033223Y002923D01*
X033194Y002882D01*
X033161Y002843D01*
X033126Y002807D01*
X033088Y002774D01*
X033048Y002744D01*
X033005Y002717D01*
X032960Y002694D01*
X032914Y002674D01*
X032866Y002657D01*
X032818Y002645D01*
X032768Y002636D01*
X032718Y002631D01*
X032667Y002630D01*
X032617Y002633D01*
X032567Y002640D01*
X032518Y002651D01*
X032470Y002665D01*
X032423Y002683D01*
X032377Y002705D01*
X032333Y002730D01*
X032292Y002759D01*
X032253Y002790D01*
X032216Y002825D01*
X032182Y002862D01*
X032151Y002902D01*
X032123Y002944D01*
X032099Y002988D01*
X032078Y003034D01*
X032061Y003082D01*
X032048Y003130D01*
X032038Y003180D01*
X032032Y003230D01*
X032030Y003280D01*
D11*
X031680Y009850D02*
X031680Y010510D01*
X032680Y010510D02*
X032680Y009850D01*
X033680Y009850D02*
X033680Y010510D01*
X027680Y010510D02*
X027680Y009850D01*
X026680Y009850D02*
X026680Y010510D01*
X025680Y010510D02*
X025680Y009850D01*
X021180Y009850D02*
X021180Y010510D01*
X020180Y010510D02*
X020180Y009850D01*
X019180Y009850D02*
X019180Y010510D01*
X014680Y010510D02*
X014680Y009850D01*
X013680Y009850D02*
X013680Y010510D01*
X012680Y010510D02*
X012680Y009850D01*
X008180Y009850D02*
X008180Y010510D01*
X007180Y010510D02*
X007180Y009850D01*
X006180Y009850D02*
X006180Y010510D01*
D12*
X037180Y010180D03*
X038180Y010180D03*
X038180Y011180D03*
X037180Y011180D03*
X037180Y009180D03*
X038180Y009180D03*
X038180Y008180D03*
X037180Y008180D03*
X037180Y007180D03*
X038180Y007180D03*
X038180Y006180D03*
X037180Y006180D03*
X037180Y005180D03*
X038180Y005180D03*
X038180Y004180D03*
X037180Y004180D03*
X037180Y003180D03*
X038180Y003180D03*
X038180Y002180D03*
X037180Y002180D03*
D13*
X001680Y001680D03*
X001680Y002680D03*
X001680Y003680D03*
X001680Y004680D03*
X001680Y005680D03*
X001680Y006680D03*
X001680Y007680D03*
X001680Y008680D03*
X001680Y009680D03*
X001680Y010680D03*
D14*
X008180Y010180D02*
X008180Y011180D01*
X008180Y011680D01*
X008680Y011680D01*
X019680Y011680D01*
X020180Y011680D01*
X035180Y011680D01*
X035680Y011180D01*
X035680Y009680D01*
X036180Y009180D01*
X037180Y008180D01*
X037680Y008680D01*
X037680Y009180D01*
X038180Y009180D01*
X038180Y008180D01*
X037180Y008180D01*
X037180Y009180D01*
X037680Y008680D01*
X037680Y009180D02*
X037180Y009180D01*
X036180Y009180D01*
X032680Y010180D02*
X032680Y007180D01*
X032180Y007180D01*
X028180Y007180D01*
X027680Y007680D01*
X027680Y007180D01*
X028180Y007180D01*
X027680Y007680D02*
X027680Y010180D01*
X026680Y010680D02*
X026680Y007680D01*
X026680Y007180D01*
X026180Y007180D01*
X026680Y007680D01*
X026180Y007180D02*
X015180Y007180D01*
X014680Y007180D01*
X014680Y007680D01*
X015180Y007180D01*
X014680Y007680D02*
X014680Y010180D01*
X019680Y011680D02*
X020180Y011180D01*
X020180Y010180D01*
X020180Y011680D01*
X030680Y010180D02*
X031680Y010180D01*
X031680Y010680D01*
X032680Y010180D02*
X032680Y007680D01*
X032180Y007180D01*
X036180Y006180D02*
X037180Y006180D01*
X038180Y006180D01*
X038180Y005180D01*
X037680Y005680D01*
X037180Y005180D02*
X036180Y005180D01*
X037180Y005180D02*
X037180Y006180D01*
X038180Y006180D02*
X038680Y006180D01*
X038680Y005180D01*
X038180Y005180D01*
X037180Y005180D01*
X008680Y011680D02*
X008180Y011180D01*
D15*
X007560Y011117D02*
X002106Y011117D01*
X002026Y011197D02*
X001801Y011290D01*
X001559Y011290D01*
X001334Y011197D01*
X001163Y011026D01*
X001070Y010801D01*
X001070Y010559D01*
X001163Y010334D01*
X001317Y010180D01*
X001163Y010026D01*
X001070Y009801D01*
X001070Y009559D01*
X001163Y009334D01*
X001317Y009180D01*
X001163Y009026D01*
X001070Y008801D01*
X001070Y008559D01*
X001163Y008334D01*
X001317Y008180D01*
X001163Y008026D01*
X001070Y007801D01*
X001070Y007559D01*
X001163Y007334D01*
X001317Y007180D01*
X001163Y007026D01*
X001070Y006801D01*
X001070Y006559D01*
X001163Y006334D01*
X001317Y006180D01*
X001163Y006026D01*
X001152Y006000D01*
X001116Y006000D01*
X000999Y005951D01*
X000660Y005613D01*
X000660Y012696D01*
X039070Y012696D01*
X039070Y000660D01*
X003113Y000660D01*
X003313Y000860D01*
X034244Y000860D01*
X034361Y000909D01*
X034451Y000999D01*
X035361Y001909D01*
X035451Y001999D01*
X035500Y002116D01*
X035500Y005744D01*
X035451Y005861D01*
X034000Y007313D01*
X034000Y009366D01*
X034003Y009367D01*
X034163Y009527D01*
X034250Y009737D01*
X034250Y010623D01*
X034163Y010833D01*
X034003Y010993D01*
X033842Y011060D01*
X034923Y011060D01*
X035060Y010923D01*
X035060Y009557D01*
X035154Y009329D01*
X035654Y008829D01*
X036810Y007673D01*
X036570Y007433D01*
X036570Y006927D01*
X036860Y006638D01*
X036630Y006408D01*
X036630Y006200D01*
X037160Y006200D01*
X037160Y006160D01*
X036630Y006160D01*
X036630Y005952D01*
X036902Y005680D01*
X036630Y005408D01*
X036630Y005200D01*
X037160Y005200D01*
X037160Y006160D01*
X037200Y006160D01*
X037200Y006200D01*
X037730Y006200D01*
X038160Y006200D01*
X038160Y006160D01*
X038200Y006160D01*
X038200Y006200D01*
X038730Y006200D01*
X038730Y006408D01*
X038500Y006638D01*
X038790Y006927D01*
X038790Y007433D01*
X038550Y007673D01*
X038706Y007829D01*
X038716Y007853D01*
X038790Y007927D01*
X038790Y008033D01*
X038800Y008057D01*
X038800Y009303D01*
X038790Y009327D01*
X038790Y009433D01*
X038716Y009507D01*
X038706Y009531D01*
X038550Y009687D01*
X038790Y009927D01*
X038790Y010433D01*
X038543Y010680D01*
X038790Y010927D01*
X038790Y011433D01*
X038433Y011790D01*
X037927Y011790D01*
X037680Y011543D01*
X037433Y011790D01*
X036927Y011790D01*
X036570Y011433D01*
X036570Y010927D01*
X036817Y010680D01*
X036570Y010433D01*
X036570Y009927D01*
X036697Y009800D01*
X036437Y009800D01*
X036300Y009937D01*
X036300Y011303D01*
X036206Y011531D01*
X036031Y011706D01*
X035531Y012206D01*
X035303Y012300D01*
X008057Y012300D01*
X007829Y012206D01*
X007654Y012031D01*
X007560Y011803D01*
X007560Y010936D01*
X007503Y010993D01*
X007293Y011080D01*
X007067Y011080D01*
X006857Y010993D01*
X006697Y010833D01*
X006680Y010792D01*
X006663Y010833D01*
X006503Y010993D01*
X006293Y011080D01*
X006067Y011080D01*
X005857Y010993D01*
X005697Y010833D01*
X005610Y010623D01*
X005610Y009737D01*
X005697Y009527D01*
X005857Y009367D01*
X006067Y009280D01*
X006293Y009280D01*
X006503Y009367D01*
X006663Y009527D01*
X006680Y009568D01*
X006697Y009527D01*
X006857Y009367D01*
X007067Y009280D01*
X007293Y009280D01*
X007503Y009367D01*
X007663Y009527D01*
X007680Y009568D01*
X007697Y009527D01*
X007857Y009367D01*
X008067Y009280D01*
X008293Y009280D01*
X008503Y009367D01*
X008663Y009527D01*
X008750Y009737D01*
X008750Y009936D01*
X008800Y010057D01*
X008800Y010923D01*
X008937Y011060D01*
X012518Y011060D01*
X012357Y010993D01*
X012197Y010833D01*
X012110Y010623D01*
X012110Y009737D01*
X012197Y009527D01*
X012357Y009367D01*
X012360Y009366D01*
X012360Y007813D01*
X012047Y007500D01*
X003616Y007500D01*
X003499Y007451D01*
X003409Y007361D01*
X002909Y006861D01*
X002860Y006744D01*
X002860Y003313D01*
X002547Y003000D01*
X002208Y003000D01*
X002197Y003026D01*
X002043Y003180D01*
X002197Y003334D01*
X002290Y003559D01*
X002290Y003801D01*
X002197Y004026D01*
X002043Y004180D01*
X002197Y004334D01*
X002290Y004559D01*
X002290Y004801D01*
X002197Y005026D01*
X002043Y005180D01*
X002197Y005334D01*
X002290Y005559D01*
X002290Y005801D01*
X002197Y006026D01*
X002043Y006180D01*
X002197Y006334D01*
X002290Y006559D01*
X002290Y006801D01*
X002197Y007026D01*
X002043Y007180D01*
X002197Y007334D01*
X002290Y007559D01*
X002290Y007801D01*
X002197Y008026D01*
X002043Y008180D01*
X002197Y008334D01*
X002290Y008559D01*
X002290Y008801D01*
X002197Y009026D01*
X002043Y009180D01*
X002197Y009334D01*
X002290Y009559D01*
X002290Y009801D01*
X002197Y010026D01*
X002043Y010180D01*
X002197Y010334D01*
X002290Y010559D01*
X002290Y010801D01*
X002197Y011026D01*
X002026Y011197D01*
X001838Y011275D02*
X007560Y011275D01*
X007560Y011434D02*
X000660Y011434D01*
X000660Y011592D02*
X007560Y011592D01*
X007560Y011751D02*
X000660Y011751D01*
X000660Y011909D02*
X007604Y011909D01*
X007691Y012068D02*
X000660Y012068D01*
X000660Y012226D02*
X007878Y012226D01*
X007560Y010958D02*
X007538Y010958D01*
X006822Y010958D02*
X006538Y010958D01*
X006677Y010800D02*
X006683Y010800D01*
X005822Y010958D02*
X002225Y010958D01*
X002290Y010800D02*
X005683Y010800D01*
X005617Y010641D02*
X002290Y010641D01*
X002258Y010483D02*
X005610Y010483D01*
X005610Y010324D02*
X002187Y010324D01*
X002057Y010166D02*
X005610Y010166D01*
X005610Y010007D02*
X002205Y010007D01*
X002270Y009849D02*
X005610Y009849D01*
X005629Y009690D02*
X002290Y009690D01*
X002279Y009532D02*
X005695Y009532D01*
X005851Y009373D02*
X002213Y009373D01*
X002077Y009215D02*
X012360Y009215D01*
X012360Y009056D02*
X002167Y009056D01*
X002250Y008898D02*
X012360Y008898D01*
X012360Y008739D02*
X002290Y008739D01*
X002290Y008581D02*
X012360Y008581D01*
X012360Y008422D02*
X002233Y008422D01*
X002126Y008264D02*
X012360Y008264D01*
X012360Y008105D02*
X002118Y008105D01*
X002230Y007947D02*
X012360Y007947D01*
X012335Y007788D02*
X002290Y007788D01*
X002290Y007630D02*
X012177Y007630D01*
X012180Y007180D02*
X012680Y007680D01*
X012680Y010180D01*
X012110Y010166D02*
X008800Y010166D01*
X008800Y010324D02*
X012110Y010324D01*
X012110Y010483D02*
X008800Y010483D01*
X008800Y010641D02*
X012117Y010641D01*
X012183Y010800D02*
X008800Y010800D01*
X008835Y010958D02*
X012322Y010958D01*
X014842Y011060D02*
X019018Y011060D01*
X018857Y010993D01*
X018697Y010833D01*
X018610Y010623D01*
X018610Y009737D01*
X018697Y009527D01*
X018857Y009367D01*
X019067Y009280D01*
X019293Y009280D01*
X019503Y009367D01*
X019663Y009527D01*
X019680Y009568D01*
X019697Y009527D01*
X019857Y009367D01*
X020067Y009280D01*
X020293Y009280D01*
X020503Y009367D01*
X020663Y009527D01*
X020680Y009568D01*
X020697Y009527D01*
X020857Y009367D01*
X021067Y009280D01*
X021293Y009280D01*
X021503Y009367D01*
X021663Y009527D01*
X021750Y009737D01*
X021750Y010623D01*
X021663Y010833D01*
X021503Y010993D01*
X021342Y011060D01*
X025518Y011060D01*
X025357Y010993D01*
X025197Y010833D01*
X025110Y010623D01*
X025110Y009737D01*
X025197Y009527D01*
X025357Y009367D01*
X025567Y009280D01*
X025793Y009280D01*
X026003Y009367D01*
X026060Y009424D01*
X026060Y007937D01*
X025923Y007800D01*
X015437Y007800D01*
X015300Y007937D01*
X015300Y010303D01*
X015250Y010424D01*
X015250Y010623D01*
X015163Y010833D01*
X015003Y010993D01*
X014842Y011060D01*
X015038Y010958D02*
X018822Y010958D01*
X018683Y010800D02*
X015177Y010800D01*
X015243Y010641D02*
X018617Y010641D01*
X018610Y010483D02*
X015250Y010483D01*
X015291Y010324D02*
X018610Y010324D01*
X018610Y010166D02*
X015300Y010166D01*
X015300Y010007D02*
X018610Y010007D01*
X018610Y009849D02*
X015300Y009849D01*
X015300Y009690D02*
X018629Y009690D01*
X018695Y009532D02*
X015300Y009532D01*
X015300Y009373D02*
X018851Y009373D01*
X019509Y009373D02*
X019851Y009373D01*
X019695Y009532D02*
X019665Y009532D01*
X020509Y009373D02*
X020851Y009373D01*
X020695Y009532D02*
X020665Y009532D01*
X021509Y009373D02*
X025351Y009373D01*
X025195Y009532D02*
X021665Y009532D01*
X021731Y009690D02*
X025129Y009690D01*
X025110Y009849D02*
X021750Y009849D01*
X021750Y010007D02*
X025110Y010007D01*
X025110Y010166D02*
X021750Y010166D01*
X021750Y010324D02*
X025110Y010324D01*
X025110Y010483D02*
X021750Y010483D01*
X021743Y010641D02*
X025117Y010641D01*
X025183Y010800D02*
X021677Y010800D01*
X021538Y010958D02*
X025322Y010958D01*
X027842Y011060D02*
X032518Y011060D01*
X032357Y010993D01*
X032197Y010833D01*
X032148Y010715D01*
X032116Y010777D01*
X032069Y010842D01*
X032012Y010899D01*
X031947Y010946D01*
X031876Y010983D01*
X031799Y011007D01*
X031720Y011020D01*
X031710Y011020D01*
X031710Y010210D01*
X031650Y010210D01*
X031650Y011020D01*
X031640Y011020D01*
X031561Y011007D01*
X031484Y010983D01*
X031413Y010946D01*
X031348Y010899D01*
X031291Y010842D01*
X031244Y010777D01*
X031207Y010706D01*
X031183Y010629D01*
X031170Y010550D01*
X031170Y010210D01*
X031650Y010210D01*
X031650Y010150D01*
X031710Y010150D01*
X031710Y009340D01*
X031720Y009340D01*
X031799Y009353D01*
X031876Y009377D01*
X031947Y009414D01*
X032012Y009461D01*
X032060Y009509D01*
X032060Y007937D01*
X031923Y007800D01*
X028437Y007800D01*
X028300Y007937D01*
X028300Y010303D01*
X028250Y010424D01*
X028250Y010623D01*
X028163Y010833D01*
X028003Y010993D01*
X027842Y011060D01*
X028038Y010958D02*
X031436Y010958D01*
X031650Y010958D02*
X031710Y010958D01*
X031924Y010958D02*
X032322Y010958D01*
X032183Y010800D02*
X032100Y010800D01*
X031710Y010800D02*
X031650Y010800D01*
X031650Y010641D02*
X031710Y010641D01*
X031710Y010483D02*
X031650Y010483D01*
X031650Y010324D02*
X031710Y010324D01*
X031650Y010166D02*
X028300Y010166D01*
X028291Y010324D02*
X031170Y010324D01*
X031170Y010483D02*
X028250Y010483D01*
X028243Y010641D02*
X031186Y010641D01*
X031260Y010800D02*
X028177Y010800D01*
X028300Y010007D02*
X031170Y010007D01*
X031170Y010150D02*
X031170Y009810D01*
X031183Y009731D01*
X031207Y009654D01*
X031244Y009583D01*
X031291Y009518D01*
X031348Y009461D01*
X031413Y009414D01*
X031484Y009377D01*
X031561Y009353D01*
X031640Y009340D01*
X031650Y009340D01*
X031650Y010150D01*
X031170Y010150D01*
X031650Y010007D02*
X031710Y010007D01*
X031710Y009849D02*
X031650Y009849D01*
X031650Y009690D02*
X031710Y009690D01*
X031710Y009532D02*
X031650Y009532D01*
X031650Y009373D02*
X031710Y009373D01*
X031862Y009373D02*
X032060Y009373D01*
X031498Y009373D02*
X028300Y009373D01*
X028300Y009532D02*
X031281Y009532D01*
X031196Y009690D02*
X028300Y009690D01*
X028300Y009849D02*
X031170Y009849D01*
X032060Y009215D02*
X028300Y009215D01*
X028300Y009056D02*
X032060Y009056D01*
X032060Y008898D02*
X028300Y008898D01*
X028300Y008739D02*
X032060Y008739D01*
X032060Y008581D02*
X028300Y008581D01*
X028300Y008422D02*
X032060Y008422D01*
X032060Y008264D02*
X028300Y008264D01*
X028300Y008105D02*
X032060Y008105D01*
X032060Y007947D02*
X028300Y007947D01*
X026060Y007947D02*
X015300Y007947D01*
X015300Y008105D02*
X026060Y008105D01*
X026060Y008264D02*
X015300Y008264D01*
X015300Y008422D02*
X026060Y008422D01*
X026060Y008581D02*
X015300Y008581D01*
X015300Y008739D02*
X026060Y008739D01*
X026060Y008898D02*
X015300Y008898D01*
X015300Y009056D02*
X026060Y009056D01*
X026060Y009215D02*
X015300Y009215D01*
X014060Y009215D02*
X013000Y009215D01*
X013000Y009056D02*
X014060Y009056D01*
X014060Y008898D02*
X013000Y008898D01*
X013000Y008739D02*
X014060Y008739D01*
X014060Y008581D02*
X013000Y008581D01*
X013000Y008422D02*
X014060Y008422D01*
X014060Y008264D02*
X013000Y008264D01*
X013000Y008105D02*
X014060Y008105D01*
X014060Y007947D02*
X013000Y007947D01*
X013000Y007788D02*
X014060Y007788D01*
X014060Y007630D02*
X013000Y007630D01*
X013000Y007616D02*
X013000Y009366D01*
X013003Y009367D01*
X013163Y009527D01*
X013180Y009568D01*
X013197Y009527D01*
X013357Y009367D01*
X013567Y009280D01*
X013793Y009280D01*
X014003Y009367D01*
X014060Y009424D01*
X014060Y007057D01*
X014154Y006829D01*
X014329Y006654D01*
X014557Y006560D01*
X026803Y006560D01*
X027031Y006654D01*
X027180Y006803D01*
X027329Y006654D01*
X027557Y006560D01*
X032803Y006560D01*
X033031Y006654D01*
X033206Y006829D01*
X033300Y007057D01*
X033300Y007303D01*
X033300Y009424D01*
X033357Y009367D01*
X033360Y009366D01*
X033360Y007116D01*
X033409Y006999D01*
X033499Y006909D01*
X034860Y005547D01*
X034860Y002313D01*
X034047Y001500D01*
X033339Y001500D01*
X033410Y001519D01*
X033840Y001768D01*
X034192Y002120D01*
X034441Y002550D01*
X034570Y003031D01*
X034570Y003529D01*
X034441Y004010D01*
X034192Y004440D01*
X033840Y004792D01*
X033410Y005041D01*
X032929Y005170D01*
X032431Y005170D01*
X031950Y005041D01*
X031520Y004792D01*
X031168Y004440D01*
X030919Y004010D01*
X030790Y003529D01*
X030790Y003031D01*
X030919Y002550D01*
X031168Y002120D01*
X031520Y001768D01*
X031950Y001519D01*
X032021Y001500D01*
X003116Y001500D01*
X002999Y001451D01*
X002909Y001361D01*
X002547Y001000D01*
X001313Y001000D01*
X001000Y001313D01*
X001000Y005047D01*
X001225Y005272D01*
X001317Y005180D01*
X001163Y005026D01*
X001070Y004801D01*
X001070Y004559D01*
X001163Y004334D01*
X001317Y004180D01*
X001163Y004026D01*
X001070Y003801D01*
X001070Y003559D01*
X001163Y003334D01*
X001317Y003180D01*
X001163Y003026D01*
X001070Y002801D01*
X001070Y002559D01*
X001163Y002334D01*
X001317Y002180D01*
X001163Y002026D01*
X001070Y001801D01*
X001070Y001559D01*
X001163Y001334D01*
X001334Y001163D01*
X001559Y001070D01*
X001801Y001070D01*
X002026Y001163D01*
X002197Y001334D01*
X002290Y001559D01*
X002290Y001801D01*
X002197Y002026D01*
X002043Y002180D01*
X002197Y002334D01*
X002208Y002360D01*
X002744Y002360D01*
X002861Y002409D01*
X003361Y002909D01*
X003451Y002999D01*
X003500Y003116D01*
X003500Y006547D01*
X003813Y006860D01*
X012244Y006860D01*
X012361Y006909D01*
X012861Y007409D01*
X012951Y007499D01*
X013000Y007616D01*
X012924Y007471D02*
X014060Y007471D01*
X014060Y007313D02*
X012765Y007313D01*
X012607Y007154D02*
X014060Y007154D01*
X014085Y006996D02*
X012448Y006996D01*
X012180Y007180D02*
X003680Y007180D01*
X003180Y006680D01*
X003180Y003180D01*
X002680Y002680D01*
X001680Y002680D01*
X001070Y002716D02*
X001000Y002716D01*
X001000Y002558D02*
X001070Y002558D01*
X001136Y002399D02*
X001000Y002399D01*
X001000Y002241D02*
X001257Y002241D01*
X001219Y002082D02*
X001000Y002082D01*
X001000Y001924D02*
X001121Y001924D01*
X001070Y001765D02*
X001000Y001765D01*
X001000Y001607D02*
X001070Y001607D01*
X001116Y001448D02*
X001000Y001448D01*
X001023Y001290D02*
X001208Y001290D01*
X001182Y001131D02*
X001411Y001131D01*
X001949Y001131D02*
X002678Y001131D01*
X002837Y001290D02*
X002152Y001290D01*
X002244Y001448D02*
X002995Y001448D01*
X003180Y001180D02*
X034180Y001180D01*
X035180Y002180D01*
X035180Y005680D01*
X033680Y007180D01*
X033680Y010180D01*
X034250Y010166D02*
X035060Y010166D01*
X035060Y010324D02*
X034250Y010324D01*
X034250Y010483D02*
X035060Y010483D01*
X035060Y010641D02*
X034243Y010641D01*
X034177Y010800D02*
X035060Y010800D01*
X035025Y010958D02*
X034038Y010958D01*
X035986Y011751D02*
X036888Y011751D01*
X036729Y011592D02*
X036145Y011592D01*
X036246Y011434D02*
X036571Y011434D01*
X036570Y011275D02*
X036300Y011275D01*
X036300Y011117D02*
X036570Y011117D01*
X036570Y010958D02*
X036300Y010958D01*
X036300Y010800D02*
X036698Y010800D01*
X036778Y010641D02*
X036300Y010641D01*
X036300Y010483D02*
X036620Y010483D01*
X036570Y010324D02*
X036300Y010324D01*
X036300Y010166D02*
X036570Y010166D01*
X036570Y010007D02*
X036300Y010007D01*
X036388Y009849D02*
X036649Y009849D01*
X035136Y009373D02*
X034009Y009373D01*
X034165Y009532D02*
X035070Y009532D01*
X035060Y009690D02*
X034231Y009690D01*
X034250Y009849D02*
X035060Y009849D01*
X035060Y010007D02*
X034250Y010007D01*
X033351Y009373D02*
X033300Y009373D01*
X033300Y009215D02*
X033360Y009215D01*
X033360Y009056D02*
X033300Y009056D01*
X033300Y008898D02*
X033360Y008898D01*
X033360Y008739D02*
X033300Y008739D01*
X033300Y008581D02*
X033360Y008581D01*
X033360Y008422D02*
X033300Y008422D01*
X033300Y008264D02*
X033360Y008264D01*
X033360Y008105D02*
X033300Y008105D01*
X033300Y007947D02*
X033360Y007947D01*
X033360Y007788D02*
X033300Y007788D01*
X033300Y007630D02*
X033360Y007630D01*
X033360Y007471D02*
X033300Y007471D01*
X033300Y007313D02*
X033360Y007313D01*
X033360Y007154D02*
X033300Y007154D01*
X033275Y006996D02*
X033412Y006996D01*
X033499Y006909D02*
X033499Y006909D01*
X033570Y006837D02*
X033209Y006837D01*
X033055Y006679D02*
X033729Y006679D01*
X033887Y006520D02*
X003500Y006520D01*
X003500Y006362D02*
X034046Y006362D01*
X034204Y006203D02*
X003500Y006203D01*
X003500Y006045D02*
X034363Y006045D01*
X034521Y005886D02*
X003500Y005886D01*
X002860Y005886D02*
X002255Y005886D01*
X002178Y006045D02*
X002860Y006045D01*
X002860Y006203D02*
X002066Y006203D01*
X002208Y006362D02*
X002860Y006362D01*
X002860Y006520D02*
X002274Y006520D01*
X002290Y006679D02*
X002860Y006679D01*
X002899Y006837D02*
X002275Y006837D01*
X002210Y006996D02*
X003043Y006996D01*
X003201Y007154D02*
X002069Y007154D01*
X002175Y007313D02*
X003360Y007313D01*
X003546Y007471D02*
X002254Y007471D01*
X001291Y007154D02*
X000660Y007154D01*
X000660Y006996D02*
X001150Y006996D01*
X001085Y006837D02*
X000660Y006837D01*
X000660Y006679D02*
X001070Y006679D01*
X001086Y006520D02*
X000660Y006520D01*
X000660Y006362D02*
X001152Y006362D01*
X001294Y006203D02*
X000660Y006203D01*
X000660Y006045D02*
X001182Y006045D01*
X000933Y005886D02*
X000660Y005886D01*
X000660Y005728D02*
X000775Y005728D01*
X001180Y005680D02*
X000680Y005180D01*
X000680Y001180D01*
X001180Y000680D01*
X002680Y000680D01*
X003180Y001180D01*
X003267Y000814D02*
X039070Y000814D01*
X039070Y000973D02*
X034425Y000973D01*
X034451Y000999D02*
X034451Y000999D01*
X034584Y001131D02*
X039070Y001131D01*
X039070Y001290D02*
X034742Y001290D01*
X034901Y001448D02*
X039070Y001448D01*
X039070Y001607D02*
X038469Y001607D01*
X038433Y001570D02*
X037927Y001570D01*
X037680Y001817D01*
X037433Y001570D01*
X036927Y001570D01*
X036570Y001927D01*
X036570Y002433D01*
X036817Y002680D01*
X036570Y002927D01*
X036570Y003433D01*
X036817Y003680D01*
X036570Y003927D01*
X036570Y004433D01*
X036860Y004722D01*
X036630Y004952D01*
X036630Y005160D01*
X037160Y005160D01*
X037160Y005200D01*
X037200Y005200D01*
X037730Y005200D01*
X038160Y005200D01*
X038160Y006160D01*
X037200Y006160D01*
X037200Y005630D01*
X037200Y005200D01*
X037200Y005160D01*
X038160Y005160D01*
X038160Y005200D01*
X038200Y005200D01*
X038730Y005200D01*
X038730Y005408D01*
X038458Y005680D01*
X038730Y005952D01*
X038730Y006160D01*
X038200Y006160D01*
X038200Y005630D01*
X038200Y005200D01*
X038200Y005160D01*
X038730Y005160D01*
X038730Y004952D01*
X038500Y004722D01*
X038790Y004433D01*
X038790Y003927D01*
X038543Y003680D01*
X038790Y003433D01*
X038790Y002927D01*
X038543Y002680D01*
X038790Y002433D01*
X038790Y001927D01*
X038433Y001570D01*
X037891Y001607D02*
X037469Y001607D01*
X037628Y001765D02*
X037732Y001765D01*
X036891Y001607D02*
X035059Y001607D01*
X035218Y001765D02*
X036732Y001765D01*
X036574Y001924D02*
X035376Y001924D01*
X035361Y001909D02*
X035361Y001909D01*
X035486Y002082D02*
X036570Y002082D01*
X036570Y002241D02*
X035500Y002241D01*
X035500Y002399D02*
X036570Y002399D01*
X036695Y002558D02*
X035500Y002558D01*
X035500Y002716D02*
X036781Y002716D01*
X036623Y002875D02*
X035500Y002875D01*
X035500Y003033D02*
X036570Y003033D01*
X036570Y003192D02*
X035500Y003192D01*
X035500Y003350D02*
X036570Y003350D01*
X036646Y003509D02*
X035500Y003509D01*
X035500Y003667D02*
X036804Y003667D01*
X036672Y003826D02*
X035500Y003826D01*
X035500Y003984D02*
X036570Y003984D01*
X036570Y004143D02*
X035500Y004143D01*
X035500Y004301D02*
X036570Y004301D01*
X036597Y004460D02*
X035500Y004460D01*
X035500Y004618D02*
X036755Y004618D01*
X036806Y004777D02*
X035500Y004777D01*
X035500Y004935D02*
X036647Y004935D01*
X036630Y005094D02*
X035500Y005094D01*
X035500Y005252D02*
X036630Y005252D01*
X036633Y005411D02*
X035500Y005411D01*
X035500Y005569D02*
X036791Y005569D01*
X036855Y005728D02*
X035500Y005728D01*
X035427Y005886D02*
X036696Y005886D01*
X036630Y006045D02*
X035268Y006045D01*
X035110Y006203D02*
X036630Y006203D01*
X036630Y006362D02*
X034951Y006362D01*
X034793Y006520D02*
X036742Y006520D01*
X036819Y006679D02*
X034634Y006679D01*
X034476Y006837D02*
X036660Y006837D01*
X036570Y006996D02*
X034317Y006996D01*
X034159Y007154D02*
X036570Y007154D01*
X036570Y007313D02*
X034000Y007313D01*
X034000Y007471D02*
X036608Y007471D01*
X036767Y007630D02*
X034000Y007630D01*
X034000Y007788D02*
X036695Y007788D01*
X036537Y007947D02*
X034000Y007947D01*
X034000Y008105D02*
X036378Y008105D01*
X036220Y008264D02*
X034000Y008264D01*
X034000Y008422D02*
X036061Y008422D01*
X035903Y008581D02*
X034000Y008581D01*
X034000Y008739D02*
X035744Y008739D01*
X035654Y008829D02*
X035654Y008829D01*
X035586Y008898D02*
X034000Y008898D01*
X034000Y009056D02*
X035427Y009056D01*
X035269Y009215D02*
X034000Y009215D01*
X038553Y009690D02*
X039070Y009690D01*
X039070Y009532D02*
X038705Y009532D01*
X038790Y009373D02*
X039070Y009373D01*
X039070Y009215D02*
X038800Y009215D01*
X038800Y009056D02*
X039070Y009056D01*
X039070Y008898D02*
X038800Y008898D01*
X038800Y008739D02*
X039070Y008739D01*
X039070Y008581D02*
X038800Y008581D01*
X038800Y008422D02*
X039070Y008422D01*
X039070Y008264D02*
X038800Y008264D01*
X038800Y008105D02*
X039070Y008105D01*
X039070Y007947D02*
X038790Y007947D01*
X038665Y007788D02*
X039070Y007788D01*
X039070Y007630D02*
X038593Y007630D01*
X038752Y007471D02*
X039070Y007471D01*
X039070Y007313D02*
X038790Y007313D01*
X038790Y007154D02*
X039070Y007154D01*
X039070Y006996D02*
X038790Y006996D01*
X038700Y006837D02*
X039070Y006837D01*
X039070Y006679D02*
X038541Y006679D01*
X038618Y006520D02*
X039070Y006520D01*
X039070Y006362D02*
X038730Y006362D01*
X038730Y006203D02*
X039070Y006203D01*
X039070Y006045D02*
X038730Y006045D01*
X038664Y005886D02*
X039070Y005886D01*
X039070Y005728D02*
X038505Y005728D01*
X038569Y005569D02*
X039070Y005569D01*
X039070Y005411D02*
X038727Y005411D01*
X038730Y005252D02*
X039070Y005252D01*
X039070Y005094D02*
X038730Y005094D01*
X038713Y004935D02*
X039070Y004935D01*
X039070Y004777D02*
X038554Y004777D01*
X038605Y004618D02*
X039070Y004618D01*
X039070Y004460D02*
X038763Y004460D01*
X038790Y004301D02*
X039070Y004301D01*
X039070Y004143D02*
X038790Y004143D01*
X038790Y003984D02*
X039070Y003984D01*
X039070Y003826D02*
X038688Y003826D01*
X038556Y003667D02*
X039070Y003667D01*
X039070Y003509D02*
X038714Y003509D01*
X038790Y003350D02*
X039070Y003350D01*
X039070Y003192D02*
X038790Y003192D01*
X038790Y003033D02*
X039070Y003033D01*
X039070Y002875D02*
X038737Y002875D01*
X038579Y002716D02*
X039070Y002716D01*
X039070Y002558D02*
X038665Y002558D01*
X038790Y002399D02*
X039070Y002399D01*
X039070Y002241D02*
X038790Y002241D01*
X038790Y002082D02*
X039070Y002082D01*
X039070Y001924D02*
X038786Y001924D01*
X038628Y001765D02*
X039070Y001765D01*
X034860Y002399D02*
X034354Y002399D01*
X034262Y002241D02*
X034788Y002241D01*
X034629Y002082D02*
X034155Y002082D01*
X033996Y001924D02*
X034471Y001924D01*
X034312Y001765D02*
X033836Y001765D01*
X033561Y001607D02*
X034154Y001607D01*
X031799Y001607D02*
X002290Y001607D01*
X002290Y001765D02*
X031524Y001765D01*
X031364Y001924D02*
X026988Y001924D01*
X026863Y001890D02*
X027217Y001985D01*
X027533Y002168D01*
X027792Y002427D01*
X027975Y002743D01*
X028070Y003097D01*
X028070Y003463D01*
X027975Y003817D01*
X027792Y004133D01*
X027533Y004392D01*
X027217Y004575D01*
X026863Y004670D01*
X026497Y004670D01*
X026143Y004575D01*
X025827Y004392D01*
X025568Y004133D01*
X025385Y003817D01*
X025290Y003463D01*
X025290Y003097D01*
X025385Y002743D01*
X025568Y002427D01*
X025827Y002168D01*
X026143Y001985D01*
X026497Y001890D01*
X026863Y001890D01*
X026372Y001924D02*
X020488Y001924D01*
X020363Y001890D02*
X020717Y001985D01*
X021033Y002168D01*
X021292Y002427D01*
X021475Y002743D01*
X021570Y003097D01*
X021570Y003463D01*
X021475Y003817D01*
X021292Y004133D01*
X021033Y004392D01*
X020717Y004575D01*
X020363Y004670D01*
X019997Y004670D01*
X019643Y004575D01*
X019327Y004392D01*
X019068Y004133D01*
X018885Y003817D01*
X018790Y003463D01*
X018790Y003097D01*
X018885Y002743D01*
X019068Y002427D01*
X019327Y002168D01*
X019643Y001985D01*
X019997Y001890D01*
X020363Y001890D01*
X020885Y002082D02*
X025975Y002082D01*
X025754Y002241D02*
X021106Y002241D01*
X021265Y002399D02*
X025595Y002399D01*
X025492Y002558D02*
X021368Y002558D01*
X021459Y002716D02*
X025401Y002716D01*
X025350Y002875D02*
X021510Y002875D01*
X021553Y003033D02*
X025307Y003033D01*
X025290Y003192D02*
X021570Y003192D01*
X021570Y003350D02*
X025290Y003350D01*
X025302Y003509D02*
X021558Y003509D01*
X021515Y003667D02*
X025345Y003667D01*
X025390Y003826D02*
X021470Y003826D01*
X021379Y003984D02*
X025481Y003984D01*
X025577Y004143D02*
X021283Y004143D01*
X021125Y004301D02*
X025735Y004301D01*
X025943Y004460D02*
X020917Y004460D01*
X020557Y004618D02*
X026303Y004618D01*
X027057Y004618D02*
X031345Y004618D01*
X031187Y004460D02*
X027417Y004460D01*
X027625Y004301D02*
X031087Y004301D01*
X030996Y004143D02*
X027783Y004143D01*
X027879Y003984D02*
X030912Y003984D01*
X030869Y003826D02*
X027970Y003826D01*
X028015Y003667D02*
X030827Y003667D01*
X030790Y003509D02*
X028058Y003509D01*
X028070Y003350D02*
X030790Y003350D01*
X030790Y003192D02*
X028070Y003192D01*
X028053Y003033D02*
X030790Y003033D01*
X030832Y002875D02*
X028010Y002875D01*
X027959Y002716D02*
X030874Y002716D01*
X030917Y002558D02*
X027868Y002558D01*
X027765Y002399D02*
X031006Y002399D01*
X031098Y002241D02*
X027606Y002241D01*
X027385Y002082D02*
X031205Y002082D01*
X034443Y002558D02*
X034860Y002558D01*
X034860Y002716D02*
X034486Y002716D01*
X034528Y002875D02*
X034860Y002875D01*
X034860Y003033D02*
X034570Y003033D01*
X034570Y003192D02*
X034860Y003192D01*
X034860Y003350D02*
X034570Y003350D01*
X034570Y003509D02*
X034860Y003509D01*
X034860Y003667D02*
X034533Y003667D01*
X034491Y003826D02*
X034860Y003826D01*
X034860Y003984D02*
X034448Y003984D01*
X034364Y004143D02*
X034860Y004143D01*
X034860Y004301D02*
X034273Y004301D01*
X034173Y004460D02*
X034860Y004460D01*
X034860Y004618D02*
X034015Y004618D01*
X033856Y004777D02*
X034860Y004777D01*
X034860Y004935D02*
X033593Y004935D01*
X033214Y005094D02*
X034860Y005094D01*
X034860Y005252D02*
X003500Y005252D01*
X003500Y005094D02*
X032146Y005094D01*
X031767Y004935D02*
X003500Y004935D01*
X003500Y004777D02*
X031504Y004777D01*
X034680Y005728D02*
X003500Y005728D01*
X003500Y005569D02*
X034838Y005569D01*
X034860Y005411D02*
X003500Y005411D01*
X002860Y005411D02*
X002229Y005411D01*
X002290Y005569D02*
X002860Y005569D01*
X002860Y005728D02*
X002290Y005728D01*
X001680Y005680D02*
X001180Y005680D01*
X001205Y005252D02*
X001245Y005252D01*
X001231Y005094D02*
X001046Y005094D01*
X001000Y004935D02*
X001125Y004935D01*
X001070Y004777D02*
X001000Y004777D01*
X001000Y004618D02*
X001070Y004618D01*
X001111Y004460D02*
X001000Y004460D01*
X001000Y004301D02*
X001196Y004301D01*
X001280Y004143D02*
X001000Y004143D01*
X001000Y003984D02*
X001146Y003984D01*
X001080Y003826D02*
X001000Y003826D01*
X001000Y003667D02*
X001070Y003667D01*
X001091Y003509D02*
X001000Y003509D01*
X001000Y003350D02*
X001156Y003350D01*
X001306Y003192D02*
X001000Y003192D01*
X001000Y003033D02*
X001170Y003033D01*
X001100Y002875D02*
X001000Y002875D01*
X002054Y003192D02*
X002739Y003192D01*
X002580Y003033D02*
X002190Y003033D01*
X003169Y002716D02*
X005901Y002716D01*
X005885Y002743D02*
X006068Y002427D01*
X006327Y002168D01*
X006643Y001985D01*
X006997Y001890D01*
X007363Y001890D01*
X007717Y001985D01*
X008033Y002168D01*
X008292Y002427D01*
X008475Y002743D01*
X008570Y003097D01*
X008570Y003463D01*
X008475Y003817D01*
X008292Y004133D01*
X008033Y004392D01*
X007717Y004575D01*
X007363Y004670D01*
X006997Y004670D01*
X006643Y004575D01*
X006327Y004392D01*
X006068Y004133D01*
X005885Y003817D01*
X005790Y003463D01*
X005790Y003097D01*
X005885Y002743D01*
X005850Y002875D02*
X003327Y002875D01*
X003465Y003033D02*
X005807Y003033D01*
X005790Y003192D02*
X003500Y003192D01*
X003500Y003350D02*
X005790Y003350D01*
X005802Y003509D02*
X003500Y003509D01*
X003500Y003667D02*
X005845Y003667D01*
X005890Y003826D02*
X003500Y003826D01*
X003500Y003984D02*
X005981Y003984D01*
X006077Y004143D02*
X003500Y004143D01*
X003500Y004301D02*
X006235Y004301D01*
X006443Y004460D02*
X003500Y004460D01*
X003500Y004618D02*
X006803Y004618D01*
X007557Y004618D02*
X013303Y004618D01*
X013143Y004575D02*
X013497Y004670D01*
X013863Y004670D01*
X014217Y004575D01*
X014533Y004392D01*
X014792Y004133D01*
X014975Y003817D01*
X015070Y003463D01*
X015070Y003097D01*
X014975Y002743D01*
X014792Y002427D01*
X014533Y002168D01*
X014217Y001985D01*
X013863Y001890D01*
X013497Y001890D01*
X013143Y001985D01*
X012827Y002168D01*
X012568Y002427D01*
X012385Y002743D01*
X012290Y003097D01*
X012290Y003463D01*
X012385Y003817D01*
X012568Y004133D01*
X012827Y004392D01*
X013143Y004575D01*
X012943Y004460D02*
X007917Y004460D01*
X008125Y004301D02*
X012735Y004301D01*
X012577Y004143D02*
X008283Y004143D01*
X008379Y003984D02*
X012481Y003984D01*
X012390Y003826D02*
X008470Y003826D01*
X008515Y003667D02*
X012345Y003667D01*
X012302Y003509D02*
X008558Y003509D01*
X008570Y003350D02*
X012290Y003350D01*
X012290Y003192D02*
X008570Y003192D01*
X008553Y003033D02*
X012307Y003033D01*
X012350Y002875D02*
X008510Y002875D01*
X008459Y002716D02*
X012401Y002716D01*
X012492Y002558D02*
X008368Y002558D01*
X008265Y002399D02*
X012595Y002399D01*
X012754Y002241D02*
X008106Y002241D01*
X007885Y002082D02*
X012975Y002082D01*
X013372Y001924D02*
X007488Y001924D01*
X006872Y001924D02*
X002239Y001924D01*
X002141Y002082D02*
X006475Y002082D01*
X006254Y002241D02*
X002103Y002241D01*
X002838Y002399D02*
X006095Y002399D01*
X005992Y002558D02*
X003010Y002558D01*
X002860Y003350D02*
X002204Y003350D01*
X002269Y003509D02*
X002860Y003509D01*
X002860Y003667D02*
X002290Y003667D01*
X002280Y003826D02*
X002860Y003826D01*
X002860Y003984D02*
X002214Y003984D01*
X002080Y004143D02*
X002860Y004143D01*
X002860Y004301D02*
X002164Y004301D01*
X002249Y004460D02*
X002860Y004460D01*
X002860Y004618D02*
X002290Y004618D01*
X002290Y004777D02*
X002860Y004777D01*
X002860Y004935D02*
X002235Y004935D01*
X002129Y005094D02*
X002860Y005094D01*
X002860Y005252D02*
X002115Y005252D01*
X003631Y006679D02*
X014305Y006679D01*
X014151Y006837D02*
X003790Y006837D01*
X001185Y007313D02*
X000660Y007313D01*
X000660Y007471D02*
X001106Y007471D01*
X001070Y007630D02*
X000660Y007630D01*
X000660Y007788D02*
X001070Y007788D01*
X001130Y007947D02*
X000660Y007947D01*
X000660Y008105D02*
X001242Y008105D01*
X001234Y008264D02*
X000660Y008264D01*
X000660Y008422D02*
X001127Y008422D01*
X001070Y008581D02*
X000660Y008581D01*
X000660Y008739D02*
X001070Y008739D01*
X001110Y008898D02*
X000660Y008898D01*
X000660Y009056D02*
X001193Y009056D01*
X001283Y009215D02*
X000660Y009215D01*
X000660Y009373D02*
X001147Y009373D01*
X001081Y009532D02*
X000660Y009532D01*
X000660Y009690D02*
X001070Y009690D01*
X001090Y009849D02*
X000660Y009849D01*
X000660Y010007D02*
X001155Y010007D01*
X001303Y010166D02*
X000660Y010166D01*
X000660Y010324D02*
X001173Y010324D01*
X001102Y010483D02*
X000660Y010483D01*
X000660Y010641D02*
X001070Y010641D01*
X001070Y010800D02*
X000660Y010800D01*
X000660Y010958D02*
X001135Y010958D01*
X001254Y011117D02*
X000660Y011117D01*
X000660Y011275D02*
X001522Y011275D01*
X000660Y012385D02*
X039070Y012385D01*
X039070Y012543D02*
X000660Y012543D01*
X008750Y009849D02*
X012110Y009849D01*
X012110Y010007D02*
X008779Y010007D01*
X008731Y009690D02*
X012129Y009690D01*
X012195Y009532D02*
X008665Y009532D01*
X008509Y009373D02*
X012351Y009373D01*
X013009Y009373D02*
X013351Y009373D01*
X013195Y009532D02*
X013165Y009532D01*
X014009Y009373D02*
X014060Y009373D01*
X007851Y009373D02*
X007509Y009373D01*
X007665Y009532D02*
X007695Y009532D01*
X006851Y009373D02*
X006509Y009373D01*
X006665Y009532D02*
X006695Y009532D01*
X014057Y004618D02*
X019803Y004618D01*
X019443Y004460D02*
X014417Y004460D01*
X014625Y004301D02*
X019235Y004301D01*
X019077Y004143D02*
X014783Y004143D01*
X014879Y003984D02*
X018981Y003984D01*
X018890Y003826D02*
X014970Y003826D01*
X015015Y003667D02*
X018845Y003667D01*
X018802Y003509D02*
X015058Y003509D01*
X015070Y003350D02*
X018790Y003350D01*
X018790Y003192D02*
X015070Y003192D01*
X015053Y003033D02*
X018807Y003033D01*
X018850Y002875D02*
X015010Y002875D01*
X014959Y002716D02*
X018901Y002716D01*
X018992Y002558D02*
X014868Y002558D01*
X014765Y002399D02*
X019095Y002399D01*
X019254Y002241D02*
X014606Y002241D01*
X014385Y002082D02*
X019475Y002082D01*
X019872Y001924D02*
X013988Y001924D01*
X027055Y006679D02*
X027305Y006679D01*
X026060Y009373D02*
X026009Y009373D01*
X035482Y012226D02*
X039070Y012226D01*
X039070Y012068D02*
X035669Y012068D01*
X035828Y011909D02*
X039070Y011909D01*
X039070Y011751D02*
X038472Y011751D01*
X038631Y011592D02*
X039070Y011592D01*
X039070Y011434D02*
X038789Y011434D01*
X038790Y011275D02*
X039070Y011275D01*
X039070Y011117D02*
X038790Y011117D01*
X038790Y010958D02*
X039070Y010958D01*
X039070Y010800D02*
X038662Y010800D01*
X038582Y010641D02*
X039070Y010641D01*
X039070Y010483D02*
X038740Y010483D01*
X038790Y010324D02*
X039070Y010324D01*
X039070Y010166D02*
X038790Y010166D01*
X038790Y010007D02*
X039070Y010007D01*
X039070Y009849D02*
X038711Y009849D01*
X037729Y011592D02*
X037631Y011592D01*
X037472Y011751D02*
X037888Y011751D01*
X038160Y006045D02*
X038200Y006045D01*
X038200Y005886D02*
X038160Y005886D01*
X037902Y005680D02*
X037680Y005902D01*
X037458Y005680D01*
X037680Y005458D01*
X037902Y005680D01*
X037855Y005728D02*
X037505Y005728D01*
X037569Y005569D02*
X037791Y005569D01*
X038160Y005569D02*
X038200Y005569D01*
X038200Y005411D02*
X038160Y005411D01*
X038160Y005252D02*
X038200Y005252D01*
X037200Y005252D02*
X037160Y005252D01*
X037160Y005411D02*
X037200Y005411D01*
X037200Y005569D02*
X037160Y005569D01*
X037160Y005728D02*
X037200Y005728D01*
X037200Y005886D02*
X037160Y005886D01*
X037160Y006045D02*
X037200Y006045D01*
X037664Y005886D02*
X037696Y005886D01*
X038160Y005728D02*
X038200Y005728D01*
D16*
X029680Y009680D03*
X023680Y009680D03*
X017180Y009680D03*
X010180Y009680D03*
X010680Y004180D03*
X023680Y004180D03*
M02*
