G75*
%MOIN*%
%OFA0B0*%
%FSLAX24Y24*%
%IPPOS*%
%LPD*%
%AMOC8*
5,1,8,0,0,1.08239X$1,22.5*
%
%ADD10C,0.0000*%
%ADD11C,0.0660*%
%ADD12OC8,0.0740*%
%ADD13C,0.0740*%
%ADD14C,0.0760*%
%ADD15C,0.0160*%
%ADD16R,0.1660X0.1660*%
D10*
X000180Y000180D02*
X000180Y013176D01*
X039550Y013176D01*
X039550Y000180D01*
X000180Y000180D01*
X006530Y003280D02*
X006532Y003330D01*
X006538Y003380D01*
X006548Y003430D01*
X006561Y003478D01*
X006578Y003526D01*
X006599Y003572D01*
X006623Y003616D01*
X006651Y003658D01*
X006682Y003698D01*
X006716Y003735D01*
X006753Y003770D01*
X006792Y003801D01*
X006833Y003830D01*
X006877Y003855D01*
X006923Y003877D01*
X006970Y003895D01*
X007018Y003909D01*
X007067Y003920D01*
X007117Y003927D01*
X007167Y003930D01*
X007218Y003929D01*
X007268Y003924D01*
X007318Y003915D01*
X007366Y003903D01*
X007414Y003886D01*
X007460Y003866D01*
X007505Y003843D01*
X007548Y003816D01*
X007588Y003786D01*
X007626Y003753D01*
X007661Y003717D01*
X007694Y003678D01*
X007723Y003637D01*
X007749Y003594D01*
X007772Y003549D01*
X007791Y003502D01*
X007806Y003454D01*
X007818Y003405D01*
X007826Y003355D01*
X007830Y003305D01*
X007830Y003255D01*
X007826Y003205D01*
X007818Y003155D01*
X007806Y003106D01*
X007791Y003058D01*
X007772Y003011D01*
X007749Y002966D01*
X007723Y002923D01*
X007694Y002882D01*
X007661Y002843D01*
X007626Y002807D01*
X007588Y002774D01*
X007548Y002744D01*
X007505Y002717D01*
X007460Y002694D01*
X007414Y002674D01*
X007366Y002657D01*
X007318Y002645D01*
X007268Y002636D01*
X007218Y002631D01*
X007167Y002630D01*
X007117Y002633D01*
X007067Y002640D01*
X007018Y002651D01*
X006970Y002665D01*
X006923Y002683D01*
X006877Y002705D01*
X006833Y002730D01*
X006792Y002759D01*
X006753Y002790D01*
X006716Y002825D01*
X006682Y002862D01*
X006651Y002902D01*
X006623Y002944D01*
X006599Y002988D01*
X006578Y003034D01*
X006561Y003082D01*
X006548Y003130D01*
X006538Y003180D01*
X006532Y003230D01*
X006530Y003280D01*
X013030Y003280D02*
X013032Y003330D01*
X013038Y003380D01*
X013048Y003430D01*
X013061Y003478D01*
X013078Y003526D01*
X013099Y003572D01*
X013123Y003616D01*
X013151Y003658D01*
X013182Y003698D01*
X013216Y003735D01*
X013253Y003770D01*
X013292Y003801D01*
X013333Y003830D01*
X013377Y003855D01*
X013423Y003877D01*
X013470Y003895D01*
X013518Y003909D01*
X013567Y003920D01*
X013617Y003927D01*
X013667Y003930D01*
X013718Y003929D01*
X013768Y003924D01*
X013818Y003915D01*
X013866Y003903D01*
X013914Y003886D01*
X013960Y003866D01*
X014005Y003843D01*
X014048Y003816D01*
X014088Y003786D01*
X014126Y003753D01*
X014161Y003717D01*
X014194Y003678D01*
X014223Y003637D01*
X014249Y003594D01*
X014272Y003549D01*
X014291Y003502D01*
X014306Y003454D01*
X014318Y003405D01*
X014326Y003355D01*
X014330Y003305D01*
X014330Y003255D01*
X014326Y003205D01*
X014318Y003155D01*
X014306Y003106D01*
X014291Y003058D01*
X014272Y003011D01*
X014249Y002966D01*
X014223Y002923D01*
X014194Y002882D01*
X014161Y002843D01*
X014126Y002807D01*
X014088Y002774D01*
X014048Y002744D01*
X014005Y002717D01*
X013960Y002694D01*
X013914Y002674D01*
X013866Y002657D01*
X013818Y002645D01*
X013768Y002636D01*
X013718Y002631D01*
X013667Y002630D01*
X013617Y002633D01*
X013567Y002640D01*
X013518Y002651D01*
X013470Y002665D01*
X013423Y002683D01*
X013377Y002705D01*
X013333Y002730D01*
X013292Y002759D01*
X013253Y002790D01*
X013216Y002825D01*
X013182Y002862D01*
X013151Y002902D01*
X013123Y002944D01*
X013099Y002988D01*
X013078Y003034D01*
X013061Y003082D01*
X013048Y003130D01*
X013038Y003180D01*
X013032Y003230D01*
X013030Y003280D01*
X019530Y003280D02*
X019532Y003330D01*
X019538Y003380D01*
X019548Y003430D01*
X019561Y003478D01*
X019578Y003526D01*
X019599Y003572D01*
X019623Y003616D01*
X019651Y003658D01*
X019682Y003698D01*
X019716Y003735D01*
X019753Y003770D01*
X019792Y003801D01*
X019833Y003830D01*
X019877Y003855D01*
X019923Y003877D01*
X019970Y003895D01*
X020018Y003909D01*
X020067Y003920D01*
X020117Y003927D01*
X020167Y003930D01*
X020218Y003929D01*
X020268Y003924D01*
X020318Y003915D01*
X020366Y003903D01*
X020414Y003886D01*
X020460Y003866D01*
X020505Y003843D01*
X020548Y003816D01*
X020588Y003786D01*
X020626Y003753D01*
X020661Y003717D01*
X020694Y003678D01*
X020723Y003637D01*
X020749Y003594D01*
X020772Y003549D01*
X020791Y003502D01*
X020806Y003454D01*
X020818Y003405D01*
X020826Y003355D01*
X020830Y003305D01*
X020830Y003255D01*
X020826Y003205D01*
X020818Y003155D01*
X020806Y003106D01*
X020791Y003058D01*
X020772Y003011D01*
X020749Y002966D01*
X020723Y002923D01*
X020694Y002882D01*
X020661Y002843D01*
X020626Y002807D01*
X020588Y002774D01*
X020548Y002744D01*
X020505Y002717D01*
X020460Y002694D01*
X020414Y002674D01*
X020366Y002657D01*
X020318Y002645D01*
X020268Y002636D01*
X020218Y002631D01*
X020167Y002630D01*
X020117Y002633D01*
X020067Y002640D01*
X020018Y002651D01*
X019970Y002665D01*
X019923Y002683D01*
X019877Y002705D01*
X019833Y002730D01*
X019792Y002759D01*
X019753Y002790D01*
X019716Y002825D01*
X019682Y002862D01*
X019651Y002902D01*
X019623Y002944D01*
X019599Y002988D01*
X019578Y003034D01*
X019561Y003082D01*
X019548Y003130D01*
X019538Y003180D01*
X019532Y003230D01*
X019530Y003280D01*
X026030Y003280D02*
X026032Y003330D01*
X026038Y003380D01*
X026048Y003430D01*
X026061Y003478D01*
X026078Y003526D01*
X026099Y003572D01*
X026123Y003616D01*
X026151Y003658D01*
X026182Y003698D01*
X026216Y003735D01*
X026253Y003770D01*
X026292Y003801D01*
X026333Y003830D01*
X026377Y003855D01*
X026423Y003877D01*
X026470Y003895D01*
X026518Y003909D01*
X026567Y003920D01*
X026617Y003927D01*
X026667Y003930D01*
X026718Y003929D01*
X026768Y003924D01*
X026818Y003915D01*
X026866Y003903D01*
X026914Y003886D01*
X026960Y003866D01*
X027005Y003843D01*
X027048Y003816D01*
X027088Y003786D01*
X027126Y003753D01*
X027161Y003717D01*
X027194Y003678D01*
X027223Y003637D01*
X027249Y003594D01*
X027272Y003549D01*
X027291Y003502D01*
X027306Y003454D01*
X027318Y003405D01*
X027326Y003355D01*
X027330Y003305D01*
X027330Y003255D01*
X027326Y003205D01*
X027318Y003155D01*
X027306Y003106D01*
X027291Y003058D01*
X027272Y003011D01*
X027249Y002966D01*
X027223Y002923D01*
X027194Y002882D01*
X027161Y002843D01*
X027126Y002807D01*
X027088Y002774D01*
X027048Y002744D01*
X027005Y002717D01*
X026960Y002694D01*
X026914Y002674D01*
X026866Y002657D01*
X026818Y002645D01*
X026768Y002636D01*
X026718Y002631D01*
X026667Y002630D01*
X026617Y002633D01*
X026567Y002640D01*
X026518Y002651D01*
X026470Y002665D01*
X026423Y002683D01*
X026377Y002705D01*
X026333Y002730D01*
X026292Y002759D01*
X026253Y002790D01*
X026216Y002825D01*
X026182Y002862D01*
X026151Y002902D01*
X026123Y002944D01*
X026099Y002988D01*
X026078Y003034D01*
X026061Y003082D01*
X026048Y003130D01*
X026038Y003180D01*
X026032Y003230D01*
X026030Y003280D01*
X032030Y003280D02*
X032032Y003330D01*
X032038Y003380D01*
X032048Y003430D01*
X032061Y003478D01*
X032078Y003526D01*
X032099Y003572D01*
X032123Y003616D01*
X032151Y003658D01*
X032182Y003698D01*
X032216Y003735D01*
X032253Y003770D01*
X032292Y003801D01*
X032333Y003830D01*
X032377Y003855D01*
X032423Y003877D01*
X032470Y003895D01*
X032518Y003909D01*
X032567Y003920D01*
X032617Y003927D01*
X032667Y003930D01*
X032718Y003929D01*
X032768Y003924D01*
X032818Y003915D01*
X032866Y003903D01*
X032914Y003886D01*
X032960Y003866D01*
X033005Y003843D01*
X033048Y003816D01*
X033088Y003786D01*
X033126Y003753D01*
X033161Y003717D01*
X033194Y003678D01*
X033223Y003637D01*
X033249Y003594D01*
X033272Y003549D01*
X033291Y003502D01*
X033306Y003454D01*
X033318Y003405D01*
X033326Y003355D01*
X033330Y003305D01*
X033330Y003255D01*
X033326Y003205D01*
X033318Y003155D01*
X033306Y003106D01*
X033291Y003058D01*
X033272Y003011D01*
X033249Y002966D01*
X033223Y002923D01*
X033194Y002882D01*
X033161Y002843D01*
X033126Y002807D01*
X033088Y002774D01*
X033048Y002744D01*
X033005Y002717D01*
X032960Y002694D01*
X032914Y002674D01*
X032866Y002657D01*
X032818Y002645D01*
X032768Y002636D01*
X032718Y002631D01*
X032667Y002630D01*
X032617Y002633D01*
X032567Y002640D01*
X032518Y002651D01*
X032470Y002665D01*
X032423Y002683D01*
X032377Y002705D01*
X032333Y002730D01*
X032292Y002759D01*
X032253Y002790D01*
X032216Y002825D01*
X032182Y002862D01*
X032151Y002902D01*
X032123Y002944D01*
X032099Y002988D01*
X032078Y003034D01*
X032061Y003082D01*
X032048Y003130D01*
X032038Y003180D01*
X032032Y003230D01*
X032030Y003280D01*
D11*
X031680Y009850D02*
X031680Y010510D01*
X032680Y010510D02*
X032680Y009850D01*
X033680Y009850D02*
X033680Y010510D01*
X027680Y010510D02*
X027680Y009850D01*
X026680Y009850D02*
X026680Y010510D01*
X025680Y010510D02*
X025680Y009850D01*
X021180Y009850D02*
X021180Y010510D01*
X020180Y010510D02*
X020180Y009850D01*
X019180Y009850D02*
X019180Y010510D01*
X014680Y010510D02*
X014680Y009850D01*
X013680Y009850D02*
X013680Y010510D01*
X012680Y010510D02*
X012680Y009850D01*
X008180Y009850D02*
X008180Y010510D01*
X007180Y010510D02*
X007180Y009850D01*
X006180Y009850D02*
X006180Y010510D01*
D12*
X037180Y010180D03*
X038180Y010180D03*
X038180Y011180D03*
X037180Y011180D03*
X037180Y009180D03*
X038180Y009180D03*
X038180Y008180D03*
X037180Y008180D03*
X037180Y007180D03*
X038180Y007180D03*
X038180Y006180D03*
X037180Y006180D03*
X037180Y005180D03*
X038180Y005180D03*
X038180Y004180D03*
X037180Y004180D03*
X037180Y003180D03*
X038180Y003180D03*
X038180Y002180D03*
X037180Y002180D03*
D13*
X001680Y001680D03*
X001680Y002680D03*
X001680Y003680D03*
X001680Y004680D03*
X001680Y005680D03*
X001680Y006680D03*
X001680Y007680D03*
X001680Y008680D03*
X001680Y009680D03*
X001680Y010680D03*
D14*
X007180Y010180D02*
X007180Y007680D01*
X007680Y007180D01*
X013180Y007180D01*
X014680Y007180D01*
X015680Y007180D01*
X016680Y006180D01*
X016680Y001680D01*
X017180Y001180D01*
X036180Y001180D01*
X038180Y001180D01*
X038180Y002180D01*
X037180Y002180D01*
X037680Y002680D01*
X037180Y003180D02*
X038180Y003180D01*
X038180Y002180D01*
X037180Y002180D02*
X037180Y003180D01*
X037180Y002180D02*
X036180Y001180D01*
X037180Y001680D02*
X037680Y001680D01*
X037180Y005180D02*
X036680Y005180D01*
X037180Y005180D02*
X037180Y006180D01*
X037680Y005680D01*
X037180Y006180D02*
X036680Y006180D01*
X037180Y006180D02*
X038180Y006180D01*
X038180Y005180D01*
X037180Y005180D01*
X038180Y005180D02*
X038680Y005180D01*
X038680Y006180D02*
X038180Y006180D01*
X032680Y007180D02*
X032180Y007180D01*
X032680Y007680D01*
X032680Y010180D01*
X032680Y007180D01*
X032180Y007180D02*
X021680Y007180D01*
X021180Y007180D01*
X021180Y007680D01*
X021680Y007180D01*
X021180Y007680D02*
X021180Y010180D01*
X026680Y010180D02*
X026680Y011680D01*
X036680Y011680D01*
X038180Y011680D01*
X038180Y011180D01*
X037680Y010680D01*
X037180Y011180D01*
X038180Y011180D01*
X038180Y010180D01*
X037180Y010180D01*
X037180Y011180D01*
X036680Y011680D01*
X031680Y010680D02*
X031680Y010180D01*
X031180Y010180D01*
X014680Y007180D02*
X013680Y008180D01*
X013680Y010180D01*
X013680Y007680D01*
X013180Y007180D01*
X007680Y007180D02*
X007180Y007180D01*
X007180Y007680D01*
D15*
X007800Y007937D02*
X007937Y007800D01*
X012923Y007800D01*
X013060Y007937D01*
X013060Y009424D01*
X013003Y009367D01*
X012793Y009280D01*
X012567Y009280D01*
X012357Y009367D01*
X012197Y009527D01*
X012110Y009737D01*
X012110Y010623D01*
X012197Y010833D01*
X012357Y010993D01*
X012360Y010994D01*
X012360Y011244D01*
X012409Y011361D01*
X012907Y011860D01*
X007313Y011860D01*
X006500Y011047D01*
X006500Y010994D01*
X006503Y010993D01*
X006663Y010833D01*
X006680Y010792D01*
X006697Y010833D01*
X006857Y010993D01*
X007067Y011080D01*
X007293Y011080D01*
X007503Y010993D01*
X007663Y010833D01*
X007680Y010792D01*
X007697Y010833D01*
X007857Y010993D01*
X008067Y011080D01*
X008293Y011080D01*
X008503Y010993D01*
X008663Y010833D01*
X008750Y010623D01*
X008750Y009737D01*
X008663Y009527D01*
X008503Y009367D01*
X008293Y009280D01*
X008067Y009280D01*
X007857Y009367D01*
X007800Y009424D01*
X007800Y007937D01*
X007800Y007947D02*
X013060Y007947D01*
X013060Y008105D02*
X007800Y008105D01*
X007800Y008264D02*
X013060Y008264D01*
X013060Y008422D02*
X007800Y008422D01*
X007800Y008581D02*
X013060Y008581D01*
X013060Y008739D02*
X007800Y008739D01*
X007800Y008898D02*
X013060Y008898D01*
X013060Y009056D02*
X007800Y009056D01*
X007800Y009215D02*
X013060Y009215D01*
X013060Y009373D02*
X013009Y009373D01*
X012351Y009373D02*
X008509Y009373D01*
X008665Y009532D02*
X012195Y009532D01*
X012129Y009690D02*
X008731Y009690D01*
X008750Y009849D02*
X012110Y009849D01*
X012110Y010007D02*
X008750Y010007D01*
X008750Y010166D02*
X012110Y010166D01*
X012110Y010324D02*
X008750Y010324D01*
X008750Y010483D02*
X012110Y010483D01*
X012117Y010641D02*
X008743Y010641D01*
X008677Y010800D02*
X012183Y010800D01*
X012322Y010958D02*
X008538Y010958D01*
X007822Y010958D02*
X007538Y010958D01*
X006822Y010958D02*
X006538Y010958D01*
X006569Y011117D02*
X012360Y011117D01*
X012373Y011275D02*
X006728Y011275D01*
X006886Y011434D02*
X012481Y011434D01*
X012639Y011592D02*
X007045Y011592D01*
X007203Y011751D02*
X012798Y011751D01*
X013180Y011680D02*
X018680Y011680D01*
X019180Y011180D01*
X019180Y010180D01*
X018610Y010166D02*
X015250Y010166D01*
X015250Y010324D02*
X018610Y010324D01*
X018610Y010483D02*
X015250Y010483D01*
X015250Y010623D02*
X015163Y010833D01*
X015003Y010993D01*
X014793Y011080D01*
X014567Y011080D01*
X014357Y010993D01*
X014197Y010833D01*
X014180Y010792D01*
X014163Y010833D01*
X014003Y010993D01*
X013793Y011080D01*
X013567Y011080D01*
X013357Y010993D01*
X013197Y010833D01*
X013180Y010792D01*
X013163Y010833D01*
X013003Y010993D01*
X013000Y010994D01*
X013000Y011047D01*
X013313Y011360D01*
X018547Y011360D01*
X018860Y011047D01*
X018860Y010994D01*
X018857Y010993D01*
X018697Y010833D01*
X018610Y010623D01*
X018610Y009737D01*
X018697Y009527D01*
X018857Y009367D01*
X019067Y009280D01*
X019293Y009280D01*
X019503Y009367D01*
X019663Y009527D01*
X019680Y009568D01*
X019697Y009527D01*
X019857Y009367D01*
X020067Y009280D01*
X020293Y009280D01*
X020503Y009367D01*
X020560Y009424D01*
X020560Y007057D01*
X020654Y006829D01*
X020829Y006654D01*
X021057Y006560D01*
X032803Y006560D01*
X033031Y006654D01*
X033206Y006829D01*
X033300Y007057D01*
X033300Y009424D01*
X033357Y009367D01*
X033567Y009280D01*
X033793Y009280D01*
X034003Y009367D01*
X034163Y009527D01*
X034250Y009737D01*
X034250Y010623D01*
X034163Y010833D01*
X034003Y010993D01*
X033842Y011060D01*
X036423Y011060D01*
X036560Y010923D01*
X036560Y010057D01*
X036570Y010033D01*
X036570Y009927D01*
X036644Y009853D01*
X036654Y009829D01*
X036810Y009673D01*
X036570Y009433D01*
X036570Y008927D01*
X036817Y008680D01*
X036570Y008433D01*
X036570Y007927D01*
X036817Y007680D01*
X036570Y007433D01*
X036570Y006927D01*
X036860Y006638D01*
X036630Y006408D01*
X036630Y006200D01*
X037160Y006200D01*
X037160Y006160D01*
X036630Y006160D01*
X036630Y005952D01*
X036902Y005680D01*
X036630Y005408D01*
X036630Y005200D01*
X037160Y005200D01*
X037160Y006160D01*
X037200Y006160D01*
X037200Y006200D01*
X037730Y006200D01*
X038160Y006200D01*
X038160Y006160D01*
X037200Y006160D01*
X037200Y005630D01*
X037200Y005200D01*
X037160Y005200D01*
X037160Y005160D01*
X036630Y005160D01*
X036630Y004952D01*
X036860Y004722D01*
X036570Y004433D01*
X036570Y003927D01*
X036810Y003687D01*
X036654Y003531D01*
X036644Y003507D01*
X036570Y003433D01*
X036570Y003327D01*
X036560Y003303D01*
X036560Y002437D01*
X035923Y001800D01*
X017437Y001800D01*
X017300Y001937D01*
X017300Y006303D01*
X017206Y006531D01*
X017031Y006706D01*
X016031Y007706D01*
X015803Y007800D01*
X014937Y007800D01*
X014300Y008437D01*
X014300Y009424D01*
X014357Y009367D01*
X014567Y009280D01*
X014793Y009280D01*
X015003Y009367D01*
X015163Y009527D01*
X015250Y009737D01*
X015250Y010623D01*
X015243Y010641D02*
X018617Y010641D01*
X018683Y010800D02*
X015177Y010800D01*
X015038Y010958D02*
X018822Y010958D01*
X018791Y011117D02*
X013069Y011117D01*
X013038Y010958D02*
X013322Y010958D01*
X013183Y010800D02*
X013177Y010800D01*
X014038Y010958D02*
X014322Y010958D01*
X014183Y010800D02*
X014177Y010800D01*
X013228Y011275D02*
X018632Y011275D01*
X018953Y011860D02*
X019361Y011451D01*
X019451Y011361D01*
X019500Y011244D01*
X019500Y010994D01*
X019503Y010993D01*
X019663Y010833D01*
X019680Y010792D01*
X019697Y010833D01*
X019857Y010993D01*
X020067Y011080D01*
X020293Y011080D01*
X020503Y010993D01*
X020663Y010833D01*
X020680Y010792D01*
X020697Y010833D01*
X020857Y010993D01*
X021067Y011080D01*
X021293Y011080D01*
X021503Y010993D01*
X021663Y010833D01*
X021750Y010623D01*
X021750Y010424D01*
X021800Y010303D01*
X021800Y007937D01*
X021937Y007800D01*
X031923Y007800D01*
X032060Y007937D01*
X032060Y009509D01*
X032012Y009461D01*
X031947Y009414D01*
X031876Y009377D01*
X031799Y009353D01*
X031720Y009340D01*
X031710Y009340D01*
X031710Y010150D01*
X031650Y010150D01*
X031650Y009340D01*
X031640Y009340D01*
X031561Y009353D01*
X031484Y009377D01*
X031413Y009414D01*
X031348Y009461D01*
X031291Y009518D01*
X031244Y009583D01*
X031207Y009654D01*
X031183Y009731D01*
X031170Y009810D01*
X031170Y010150D01*
X031650Y010150D01*
X031650Y010210D01*
X031650Y011020D01*
X031640Y011020D01*
X031561Y011007D01*
X031484Y010983D01*
X031413Y010946D01*
X031348Y010899D01*
X031291Y010842D01*
X031244Y010777D01*
X031207Y010706D01*
X031183Y010629D01*
X031170Y010550D01*
X031170Y010210D01*
X031650Y010210D01*
X031710Y010210D01*
X031710Y011020D01*
X031720Y011020D01*
X031799Y011007D01*
X031876Y010983D01*
X031947Y010946D01*
X032012Y010899D01*
X032069Y010842D01*
X032116Y010777D01*
X032148Y010715D01*
X032197Y010833D01*
X032357Y010993D01*
X032518Y011060D01*
X027842Y011060D01*
X028003Y010993D01*
X028163Y010833D01*
X028250Y010623D01*
X028250Y009737D01*
X028163Y009527D01*
X028003Y009367D01*
X027793Y009280D01*
X027567Y009280D01*
X027357Y009367D01*
X027197Y009527D01*
X027180Y009568D01*
X027163Y009527D01*
X027003Y009367D01*
X026793Y009280D01*
X026567Y009280D01*
X026357Y009367D01*
X026197Y009527D01*
X026180Y009568D01*
X026163Y009527D01*
X026003Y009367D01*
X025793Y009280D01*
X025567Y009280D01*
X025357Y009367D01*
X025197Y009527D01*
X025110Y009737D01*
X025110Y010623D01*
X025197Y010833D01*
X025357Y010993D01*
X025360Y010994D01*
X025360Y011047D01*
X024547Y011860D01*
X018953Y011860D01*
X019062Y011751D02*
X024657Y011751D01*
X024815Y011592D02*
X019221Y011592D01*
X019379Y011434D02*
X024974Y011434D01*
X025132Y011275D02*
X019487Y011275D01*
X019500Y011117D02*
X025291Y011117D01*
X025322Y010958D02*
X021538Y010958D01*
X021677Y010800D02*
X025183Y010800D01*
X025117Y010641D02*
X021743Y010641D01*
X021750Y010483D02*
X025110Y010483D01*
X025110Y010324D02*
X021791Y010324D01*
X021800Y010166D02*
X025110Y010166D01*
X025110Y010007D02*
X021800Y010007D01*
X021800Y009849D02*
X025110Y009849D01*
X025129Y009690D02*
X021800Y009690D01*
X021800Y009532D02*
X025195Y009532D01*
X025351Y009373D02*
X021800Y009373D01*
X021800Y009215D02*
X032060Y009215D01*
X032060Y009056D02*
X021800Y009056D01*
X021800Y008898D02*
X032060Y008898D01*
X032060Y008739D02*
X021800Y008739D01*
X021800Y008581D02*
X032060Y008581D01*
X032060Y008422D02*
X021800Y008422D01*
X021800Y008264D02*
X032060Y008264D01*
X032060Y008105D02*
X021800Y008105D01*
X021800Y007947D02*
X032060Y007947D01*
X033300Y007947D02*
X036570Y007947D01*
X036570Y008105D02*
X033300Y008105D01*
X033300Y008264D02*
X036570Y008264D01*
X036570Y008422D02*
X033300Y008422D01*
X033300Y008581D02*
X036718Y008581D01*
X036758Y008739D02*
X033300Y008739D01*
X033300Y008898D02*
X036600Y008898D01*
X036570Y009056D02*
X033300Y009056D01*
X033300Y009215D02*
X036570Y009215D01*
X036570Y009373D02*
X034009Y009373D01*
X034165Y009532D02*
X036669Y009532D01*
X036793Y009690D02*
X034231Y009690D01*
X034250Y009849D02*
X036646Y009849D01*
X036570Y010007D02*
X034250Y010007D01*
X034250Y010166D02*
X036560Y010166D01*
X036560Y010324D02*
X034250Y010324D01*
X034250Y010483D02*
X036560Y010483D01*
X036560Y010641D02*
X034243Y010641D01*
X034177Y010800D02*
X036560Y010800D01*
X036525Y010958D02*
X034038Y010958D01*
X032322Y010958D02*
X031924Y010958D01*
X031710Y010958D02*
X031650Y010958D01*
X031436Y010958D02*
X028038Y010958D01*
X028177Y010800D02*
X031260Y010800D01*
X031186Y010641D02*
X028243Y010641D01*
X028250Y010483D02*
X031170Y010483D01*
X031170Y010324D02*
X028250Y010324D01*
X028250Y010166D02*
X031650Y010166D01*
X031650Y010324D02*
X031710Y010324D01*
X031710Y010483D02*
X031650Y010483D01*
X031650Y010641D02*
X031710Y010641D01*
X031710Y010800D02*
X031650Y010800D01*
X032100Y010800D02*
X032183Y010800D01*
X031710Y010007D02*
X031650Y010007D01*
X031650Y009849D02*
X031710Y009849D01*
X031710Y009690D02*
X031650Y009690D01*
X031650Y009532D02*
X031710Y009532D01*
X031710Y009373D02*
X031650Y009373D01*
X031498Y009373D02*
X028009Y009373D01*
X028165Y009532D02*
X031281Y009532D01*
X031196Y009690D02*
X028231Y009690D01*
X028250Y009849D02*
X031170Y009849D01*
X031170Y010007D02*
X028250Y010007D01*
X027195Y009532D02*
X027165Y009532D01*
X027009Y009373D02*
X027351Y009373D01*
X026351Y009373D02*
X026009Y009373D01*
X026165Y009532D02*
X026195Y009532D01*
X025680Y010180D02*
X025680Y011180D01*
X024680Y012180D01*
X007180Y012180D01*
X006180Y011180D01*
X006180Y010180D01*
X002680Y006680D01*
X002680Y002180D01*
X002180Y001680D01*
X001680Y001680D01*
X001116Y001448D02*
X000660Y001448D01*
X000660Y001290D02*
X001208Y001290D01*
X001163Y001334D02*
X001334Y001163D01*
X001559Y001070D01*
X001801Y001070D01*
X002026Y001163D01*
X002197Y001334D01*
X002208Y001360D01*
X002244Y001360D01*
X002361Y001409D01*
X002861Y001909D01*
X002951Y001999D01*
X003000Y002116D01*
X003000Y006547D01*
X005838Y009386D01*
X005857Y009367D01*
X006067Y009280D01*
X006293Y009280D01*
X006503Y009367D01*
X006560Y009424D01*
X006560Y007057D01*
X006654Y006829D01*
X006829Y006654D01*
X007057Y006560D01*
X015423Y006560D01*
X016060Y005923D01*
X016060Y001557D01*
X016154Y001329D01*
X016654Y000829D01*
X016823Y000660D01*
X000660Y000660D01*
X000660Y012696D01*
X039070Y012696D01*
X039070Y000660D01*
X038537Y000660D01*
X038706Y000829D01*
X038800Y001057D01*
X038800Y003303D01*
X038790Y003327D01*
X038790Y003433D01*
X038716Y003507D01*
X038706Y003531D01*
X038550Y003687D01*
X038790Y003927D01*
X038790Y004433D01*
X038500Y004722D01*
X038730Y004952D01*
X038730Y005160D01*
X038200Y005160D01*
X038200Y005200D01*
X038730Y005200D01*
X038730Y005408D01*
X038458Y005680D01*
X038730Y005952D01*
X038730Y006160D01*
X038200Y006160D01*
X038200Y006200D01*
X038730Y006200D01*
X038730Y006408D01*
X038500Y006638D01*
X038790Y006927D01*
X038790Y007433D01*
X038543Y007680D01*
X038790Y007927D01*
X038790Y008433D01*
X038543Y008680D01*
X038790Y008927D01*
X038790Y009433D01*
X038550Y009673D01*
X038706Y009829D01*
X038716Y009853D01*
X038790Y009927D01*
X038790Y010033D01*
X038800Y010057D01*
X038800Y011803D01*
X038706Y012031D01*
X038531Y012206D01*
X038303Y012300D01*
X026557Y012300D01*
X026329Y012206D01*
X026154Y012031D01*
X026060Y011803D01*
X026060Y010936D01*
X026003Y010993D01*
X026000Y010994D01*
X026000Y011244D01*
X025951Y011361D01*
X025861Y011451D01*
X024861Y012451D01*
X024744Y012500D01*
X007116Y012500D01*
X006999Y012451D01*
X006909Y012361D01*
X005909Y011361D01*
X005860Y011244D01*
X005860Y010994D01*
X005857Y010993D01*
X005697Y010833D01*
X005610Y010623D01*
X005610Y010063D01*
X002409Y006861D01*
X002360Y006744D01*
X002360Y002313D01*
X002135Y002088D01*
X002043Y002180D01*
X002197Y002334D01*
X002290Y002559D01*
X002290Y002801D01*
X002197Y003026D01*
X002043Y003180D01*
X002197Y003334D01*
X002290Y003559D01*
X002290Y003801D01*
X002197Y004026D01*
X002043Y004180D01*
X002197Y004334D01*
X002290Y004559D01*
X002290Y004801D01*
X002197Y005026D01*
X002043Y005180D01*
X002197Y005334D01*
X002290Y005559D01*
X002290Y005801D01*
X002197Y006026D01*
X002043Y006180D01*
X002197Y006334D01*
X002290Y006559D01*
X002290Y006801D01*
X002197Y007026D01*
X002043Y007180D01*
X002197Y007334D01*
X002290Y007559D01*
X002290Y007801D01*
X002197Y008026D01*
X002043Y008180D01*
X002197Y008334D01*
X002290Y008559D01*
X002290Y008801D01*
X002197Y009026D01*
X002043Y009180D01*
X002197Y009334D01*
X002290Y009559D01*
X002290Y009801D01*
X002197Y010026D01*
X002043Y010180D01*
X002197Y010334D01*
X002290Y010559D01*
X002290Y010801D01*
X002197Y011026D01*
X002026Y011197D01*
X001801Y011290D01*
X001559Y011290D01*
X001334Y011197D01*
X001163Y011026D01*
X001070Y010801D01*
X001070Y010559D01*
X001163Y010334D01*
X001317Y010180D01*
X001163Y010026D01*
X001070Y009801D01*
X001070Y009559D01*
X001163Y009334D01*
X001317Y009180D01*
X001163Y009026D01*
X001070Y008801D01*
X001070Y008559D01*
X001163Y008334D01*
X001317Y008180D01*
X001163Y008026D01*
X001070Y007801D01*
X001070Y007559D01*
X001163Y007334D01*
X001317Y007180D01*
X001163Y007026D01*
X001070Y006801D01*
X001070Y006559D01*
X001163Y006334D01*
X001317Y006180D01*
X001163Y006026D01*
X001070Y005801D01*
X001070Y005559D01*
X001163Y005334D01*
X001317Y005180D01*
X001163Y005026D01*
X001070Y004801D01*
X001070Y004559D01*
X001163Y004334D01*
X001317Y004180D01*
X001163Y004026D01*
X001070Y003801D01*
X001070Y003559D01*
X001163Y003334D01*
X001317Y003180D01*
X001163Y003026D01*
X001070Y002801D01*
X001070Y002559D01*
X001163Y002334D01*
X001317Y002180D01*
X001163Y002026D01*
X001070Y001801D01*
X001070Y001559D01*
X001163Y001334D01*
X001411Y001131D02*
X000660Y001131D01*
X000660Y000973D02*
X016511Y000973D01*
X016352Y001131D02*
X001949Y001131D01*
X002152Y001290D02*
X016194Y001290D01*
X016105Y001448D02*
X002401Y001448D01*
X002559Y001607D02*
X016060Y001607D01*
X016060Y001765D02*
X002718Y001765D01*
X002876Y001924D02*
X016060Y001924D01*
X016060Y002082D02*
X002986Y002082D01*
X003000Y002241D02*
X006720Y002241D01*
X006744Y002227D02*
X007031Y002150D01*
X007329Y002150D01*
X007616Y002227D01*
X007874Y002376D01*
X008084Y002586D01*
X008233Y002844D01*
X008310Y003131D01*
X008310Y003429D01*
X008233Y003716D01*
X008084Y003974D01*
X007874Y004184D01*
X007616Y004333D01*
X007329Y004410D01*
X007031Y004410D01*
X006744Y004333D01*
X006486Y004184D01*
X006276Y003974D01*
X006127Y003716D01*
X006050Y003429D01*
X006050Y003131D01*
X006127Y002844D01*
X006276Y002586D01*
X006486Y002376D01*
X006744Y002227D01*
X006463Y002399D02*
X003000Y002399D01*
X003000Y002558D02*
X006304Y002558D01*
X006201Y002716D02*
X003000Y002716D01*
X003000Y002875D02*
X006119Y002875D01*
X006076Y003033D02*
X003000Y003033D01*
X003000Y003192D02*
X006050Y003192D01*
X006050Y003350D02*
X003000Y003350D01*
X003000Y003509D02*
X006071Y003509D01*
X006114Y003667D02*
X003000Y003667D01*
X003000Y003826D02*
X006190Y003826D01*
X006286Y003984D02*
X003000Y003984D01*
X003000Y004143D02*
X006444Y004143D01*
X006688Y004301D02*
X003000Y004301D01*
X003000Y004460D02*
X016060Y004460D01*
X016060Y004618D02*
X003000Y004618D01*
X003000Y004777D02*
X016060Y004777D01*
X016060Y004935D02*
X003000Y004935D01*
X003000Y005094D02*
X016060Y005094D01*
X016060Y005252D02*
X003000Y005252D01*
X003000Y005411D02*
X016060Y005411D01*
X016060Y005569D02*
X003000Y005569D01*
X003000Y005728D02*
X016060Y005728D01*
X016060Y005886D02*
X003000Y005886D01*
X003000Y006045D02*
X015939Y006045D01*
X015780Y006203D02*
X003000Y006203D01*
X003000Y006362D02*
X015622Y006362D01*
X015463Y006520D02*
X003000Y006520D01*
X003131Y006679D02*
X006805Y006679D01*
X006651Y006837D02*
X003290Y006837D01*
X003448Y006996D02*
X006585Y006996D01*
X006560Y007154D02*
X003607Y007154D01*
X003765Y007313D02*
X006560Y007313D01*
X006560Y007471D02*
X003924Y007471D01*
X004082Y007630D02*
X006560Y007630D01*
X006560Y007788D02*
X004241Y007788D01*
X004399Y007947D02*
X006560Y007947D01*
X006560Y008105D02*
X004558Y008105D01*
X004716Y008264D02*
X006560Y008264D01*
X006560Y008422D02*
X004875Y008422D01*
X005033Y008581D02*
X006560Y008581D01*
X006560Y008739D02*
X005192Y008739D01*
X005350Y008898D02*
X006560Y008898D01*
X006560Y009056D02*
X005509Y009056D01*
X005667Y009215D02*
X006560Y009215D01*
X006560Y009373D02*
X006509Y009373D01*
X005851Y009373D02*
X005826Y009373D01*
X005237Y009690D02*
X002290Y009690D01*
X002279Y009532D02*
X005079Y009532D01*
X004920Y009373D02*
X002213Y009373D01*
X002077Y009215D02*
X004762Y009215D01*
X004603Y009056D02*
X002167Y009056D01*
X002250Y008898D02*
X004445Y008898D01*
X004286Y008739D02*
X002290Y008739D01*
X002290Y008581D02*
X004128Y008581D01*
X003969Y008422D02*
X002233Y008422D01*
X002126Y008264D02*
X003811Y008264D01*
X003652Y008105D02*
X002118Y008105D01*
X002230Y007947D02*
X003494Y007947D01*
X003335Y007788D02*
X002290Y007788D01*
X002290Y007630D02*
X003177Y007630D01*
X003018Y007471D02*
X002254Y007471D01*
X002175Y007313D02*
X002860Y007313D01*
X002701Y007154D02*
X002069Y007154D01*
X002210Y006996D02*
X002543Y006996D01*
X002399Y006837D02*
X002275Y006837D01*
X002290Y006679D02*
X002360Y006679D01*
X002360Y006520D02*
X002274Y006520D01*
X002208Y006362D02*
X002360Y006362D01*
X002360Y006203D02*
X002066Y006203D01*
X002178Y006045D02*
X002360Y006045D01*
X002360Y005886D02*
X002255Y005886D01*
X002290Y005728D02*
X002360Y005728D01*
X002360Y005569D02*
X002290Y005569D01*
X002229Y005411D02*
X002360Y005411D01*
X002360Y005252D02*
X002115Y005252D01*
X002129Y005094D02*
X002360Y005094D01*
X002360Y004935D02*
X002235Y004935D01*
X002290Y004777D02*
X002360Y004777D01*
X002360Y004618D02*
X002290Y004618D01*
X002249Y004460D02*
X002360Y004460D01*
X002360Y004301D02*
X002164Y004301D01*
X002080Y004143D02*
X002360Y004143D01*
X002360Y003984D02*
X002214Y003984D01*
X002280Y003826D02*
X002360Y003826D01*
X002360Y003667D02*
X002290Y003667D01*
X002269Y003509D02*
X002360Y003509D01*
X002360Y003350D02*
X002204Y003350D01*
X002054Y003192D02*
X002360Y003192D01*
X002360Y003033D02*
X002190Y003033D01*
X002260Y002875D02*
X002360Y002875D01*
X002360Y002716D02*
X002290Y002716D01*
X002290Y002558D02*
X002360Y002558D01*
X002360Y002399D02*
X002224Y002399D01*
X002288Y002241D02*
X002103Y002241D01*
X001257Y002241D02*
X000660Y002241D01*
X000660Y002399D02*
X001136Y002399D01*
X001070Y002558D02*
X000660Y002558D01*
X000660Y002716D02*
X001070Y002716D01*
X001100Y002875D02*
X000660Y002875D01*
X000660Y003033D02*
X001170Y003033D01*
X001306Y003192D02*
X000660Y003192D01*
X000660Y003350D02*
X001156Y003350D01*
X001091Y003509D02*
X000660Y003509D01*
X000660Y003667D02*
X001070Y003667D01*
X001080Y003826D02*
X000660Y003826D01*
X000660Y003984D02*
X001146Y003984D01*
X001280Y004143D02*
X000660Y004143D01*
X000660Y004301D02*
X001196Y004301D01*
X001111Y004460D02*
X000660Y004460D01*
X000660Y004618D02*
X001070Y004618D01*
X001070Y004777D02*
X000660Y004777D01*
X000660Y004935D02*
X001125Y004935D01*
X001231Y005094D02*
X000660Y005094D01*
X000660Y005252D02*
X001245Y005252D01*
X001131Y005411D02*
X000660Y005411D01*
X000660Y005569D02*
X001070Y005569D01*
X001070Y005728D02*
X000660Y005728D01*
X000660Y005886D02*
X001105Y005886D01*
X001182Y006045D02*
X000660Y006045D01*
X000660Y006203D02*
X001294Y006203D01*
X001152Y006362D02*
X000660Y006362D01*
X000660Y006520D02*
X001086Y006520D01*
X001070Y006679D02*
X000660Y006679D01*
X000660Y006837D02*
X001085Y006837D01*
X001150Y006996D02*
X000660Y006996D01*
X000660Y007154D02*
X001291Y007154D01*
X001185Y007313D02*
X000660Y007313D01*
X000660Y007471D02*
X001106Y007471D01*
X001070Y007630D02*
X000660Y007630D01*
X000660Y007788D02*
X001070Y007788D01*
X001130Y007947D02*
X000660Y007947D01*
X000660Y008105D02*
X001242Y008105D01*
X001234Y008264D02*
X000660Y008264D01*
X000660Y008422D02*
X001127Y008422D01*
X001070Y008581D02*
X000660Y008581D01*
X000660Y008739D02*
X001070Y008739D01*
X001110Y008898D02*
X000660Y008898D01*
X000660Y009056D02*
X001193Y009056D01*
X001283Y009215D02*
X000660Y009215D01*
X000660Y009373D02*
X001147Y009373D01*
X001081Y009532D02*
X000660Y009532D01*
X000660Y009690D02*
X001070Y009690D01*
X001090Y009849D02*
X000660Y009849D01*
X000660Y010007D02*
X001155Y010007D01*
X001303Y010166D02*
X000660Y010166D01*
X000660Y010324D02*
X001173Y010324D01*
X001102Y010483D02*
X000660Y010483D01*
X000660Y010641D02*
X001070Y010641D01*
X001070Y010800D02*
X000660Y010800D01*
X000660Y010958D02*
X001135Y010958D01*
X001254Y011117D02*
X000660Y011117D01*
X000660Y011275D02*
X001522Y011275D01*
X001838Y011275D02*
X005873Y011275D01*
X005860Y011117D02*
X002106Y011117D01*
X002225Y010958D02*
X005822Y010958D01*
X005683Y010800D02*
X002290Y010800D01*
X002290Y010641D02*
X005617Y010641D01*
X005610Y010483D02*
X002258Y010483D01*
X002187Y010324D02*
X005610Y010324D01*
X005610Y010166D02*
X002057Y010166D01*
X002205Y010007D02*
X005554Y010007D01*
X005396Y009849D02*
X002270Y009849D01*
X006677Y010800D02*
X006683Y010800D01*
X007677Y010800D02*
X007683Y010800D01*
X005981Y011434D02*
X000660Y011434D01*
X000660Y011592D02*
X006139Y011592D01*
X006298Y011751D02*
X000660Y011751D01*
X000660Y011909D02*
X006456Y011909D01*
X006615Y012068D02*
X000660Y012068D01*
X000660Y012226D02*
X006773Y012226D01*
X006932Y012385D02*
X000660Y012385D01*
X000660Y012543D02*
X039070Y012543D01*
X039070Y012385D02*
X024928Y012385D01*
X025087Y012226D02*
X026378Y012226D01*
X026191Y012068D02*
X025245Y012068D01*
X025404Y011909D02*
X026104Y011909D01*
X026060Y011751D02*
X025562Y011751D01*
X025721Y011592D02*
X026060Y011592D01*
X026060Y011434D02*
X025879Y011434D01*
X025987Y011275D02*
X026060Y011275D01*
X026060Y011117D02*
X026000Y011117D01*
X026038Y010958D02*
X026060Y010958D01*
X020822Y010958D02*
X020538Y010958D01*
X020677Y010800D02*
X020683Y010800D01*
X019822Y010958D02*
X019538Y010958D01*
X019677Y010800D02*
X019683Y010800D01*
X018610Y010007D02*
X015250Y010007D01*
X015250Y009849D02*
X018610Y009849D01*
X018629Y009690D02*
X015231Y009690D01*
X015165Y009532D02*
X018695Y009532D01*
X018851Y009373D02*
X015009Y009373D01*
X014351Y009373D02*
X014300Y009373D01*
X014300Y009215D02*
X020560Y009215D01*
X020560Y009056D02*
X014300Y009056D01*
X014300Y008898D02*
X020560Y008898D01*
X020560Y008739D02*
X014300Y008739D01*
X014300Y008581D02*
X020560Y008581D01*
X020560Y008422D02*
X014315Y008422D01*
X014473Y008264D02*
X020560Y008264D01*
X020560Y008105D02*
X014632Y008105D01*
X014790Y007947D02*
X020560Y007947D01*
X020560Y007788D02*
X015832Y007788D01*
X016107Y007630D02*
X020560Y007630D01*
X020560Y007471D02*
X016266Y007471D01*
X016424Y007313D02*
X020560Y007313D01*
X020560Y007154D02*
X016583Y007154D01*
X016741Y006996D02*
X020585Y006996D01*
X020651Y006837D02*
X016900Y006837D01*
X017058Y006679D02*
X020805Y006679D01*
X017300Y006203D02*
X036630Y006203D01*
X036630Y006045D02*
X017300Y006045D01*
X017300Y005886D02*
X036696Y005886D01*
X037160Y005886D02*
X037200Y005886D01*
X037200Y006045D02*
X037160Y006045D01*
X037458Y005680D02*
X037680Y005902D01*
X037902Y005680D01*
X037680Y005458D01*
X037458Y005680D01*
X037505Y005728D02*
X037855Y005728D01*
X037791Y005569D02*
X037569Y005569D01*
X037200Y005569D02*
X037160Y005569D01*
X037160Y005411D02*
X037200Y005411D01*
X037200Y005252D02*
X037160Y005252D01*
X037200Y005200D02*
X037630Y005200D01*
X038160Y005200D01*
X038160Y006160D01*
X038200Y006160D01*
X038200Y005730D01*
X038200Y005200D01*
X038160Y005200D01*
X038160Y005160D01*
X037200Y005160D01*
X037200Y005200D01*
X036630Y005252D02*
X017300Y005252D01*
X017300Y005094D02*
X036630Y005094D01*
X036647Y004935D02*
X017300Y004935D01*
X017300Y004777D02*
X036806Y004777D01*
X036755Y004618D02*
X017300Y004618D01*
X017300Y004460D02*
X036597Y004460D01*
X036570Y004301D02*
X033172Y004301D01*
X033116Y004333D02*
X032829Y004410D01*
X032531Y004410D01*
X032244Y004333D01*
X031986Y004184D01*
X031776Y003974D01*
X031627Y003716D01*
X031550Y003429D01*
X031550Y003131D01*
X031627Y002844D01*
X031776Y002586D01*
X031986Y002376D01*
X032244Y002227D01*
X032531Y002150D01*
X032829Y002150D01*
X033116Y002227D01*
X033374Y002376D01*
X033584Y002586D01*
X033733Y002844D01*
X033810Y003131D01*
X033810Y003429D01*
X033733Y003716D01*
X033584Y003974D01*
X033374Y004184D01*
X033116Y004333D01*
X033416Y004143D02*
X036570Y004143D01*
X036570Y003984D02*
X033574Y003984D01*
X033670Y003826D02*
X036672Y003826D01*
X036790Y003667D02*
X033746Y003667D01*
X033789Y003509D02*
X036645Y003509D01*
X036570Y003350D02*
X033810Y003350D01*
X033810Y003192D02*
X036560Y003192D01*
X036560Y003033D02*
X033784Y003033D01*
X033741Y002875D02*
X036560Y002875D01*
X036560Y002716D02*
X033659Y002716D01*
X033556Y002558D02*
X036560Y002558D01*
X036522Y002399D02*
X033397Y002399D01*
X033140Y002241D02*
X036364Y002241D01*
X036205Y002082D02*
X017300Y002082D01*
X017300Y002241D02*
X019720Y002241D01*
X019744Y002227D02*
X020031Y002150D01*
X020329Y002150D01*
X020616Y002227D01*
X020874Y002376D01*
X021084Y002586D01*
X021233Y002844D01*
X021310Y003131D01*
X021310Y003429D01*
X021233Y003716D01*
X021084Y003974D01*
X020874Y004184D01*
X020616Y004333D01*
X020329Y004410D01*
X020031Y004410D01*
X019744Y004333D01*
X019486Y004184D01*
X019276Y003974D01*
X019127Y003716D01*
X019050Y003429D01*
X019050Y003131D01*
X019127Y002844D01*
X019276Y002586D01*
X019486Y002376D01*
X019744Y002227D01*
X019463Y002399D02*
X017300Y002399D01*
X017300Y002558D02*
X019304Y002558D01*
X019201Y002716D02*
X017300Y002716D01*
X017300Y002875D02*
X019119Y002875D01*
X019076Y003033D02*
X017300Y003033D01*
X017300Y003192D02*
X019050Y003192D01*
X019050Y003350D02*
X017300Y003350D01*
X017300Y003509D02*
X019071Y003509D01*
X019114Y003667D02*
X017300Y003667D01*
X017300Y003826D02*
X019190Y003826D01*
X019286Y003984D02*
X017300Y003984D01*
X017300Y004143D02*
X019444Y004143D01*
X019688Y004301D02*
X017300Y004301D01*
X016060Y004301D02*
X014172Y004301D01*
X014116Y004333D02*
X013829Y004410D01*
X013531Y004410D01*
X013244Y004333D01*
X012986Y004184D01*
X012776Y003974D01*
X012627Y003716D01*
X012550Y003429D01*
X012550Y003131D01*
X012627Y002844D01*
X012776Y002586D01*
X012986Y002376D01*
X013244Y002227D01*
X013531Y002150D01*
X013829Y002150D01*
X014116Y002227D01*
X014374Y002376D01*
X014584Y002586D01*
X014733Y002844D01*
X014810Y003131D01*
X014810Y003429D01*
X014733Y003716D01*
X014584Y003974D01*
X014374Y004184D01*
X014116Y004333D01*
X014416Y004143D02*
X016060Y004143D01*
X016060Y003984D02*
X014574Y003984D01*
X014670Y003826D02*
X016060Y003826D01*
X016060Y003667D02*
X014746Y003667D01*
X014789Y003509D02*
X016060Y003509D01*
X016060Y003350D02*
X014810Y003350D01*
X014810Y003192D02*
X016060Y003192D01*
X016060Y003033D02*
X014784Y003033D01*
X014741Y002875D02*
X016060Y002875D01*
X016060Y002716D02*
X014659Y002716D01*
X014556Y002558D02*
X016060Y002558D01*
X016060Y002399D02*
X014397Y002399D01*
X014140Y002241D02*
X016060Y002241D01*
X017313Y001924D02*
X036047Y001924D01*
X038800Y001924D02*
X039070Y001924D01*
X039070Y002082D02*
X038800Y002082D01*
X038800Y002241D02*
X039070Y002241D01*
X039070Y002399D02*
X038800Y002399D01*
X038800Y002558D02*
X039070Y002558D01*
X039070Y002716D02*
X038800Y002716D01*
X038800Y002875D02*
X039070Y002875D01*
X039070Y003033D02*
X038800Y003033D01*
X038800Y003192D02*
X039070Y003192D01*
X039070Y003350D02*
X038790Y003350D01*
X038715Y003509D02*
X039070Y003509D01*
X039070Y003667D02*
X038570Y003667D01*
X038688Y003826D02*
X039070Y003826D01*
X039070Y003984D02*
X038790Y003984D01*
X038790Y004143D02*
X039070Y004143D01*
X039070Y004301D02*
X038790Y004301D01*
X038763Y004460D02*
X039070Y004460D01*
X039070Y004618D02*
X038605Y004618D01*
X038554Y004777D02*
X039070Y004777D01*
X039070Y004935D02*
X038713Y004935D01*
X038730Y005094D02*
X039070Y005094D01*
X039070Y005252D02*
X038730Y005252D01*
X038727Y005411D02*
X039070Y005411D01*
X039070Y005569D02*
X038569Y005569D01*
X038505Y005728D02*
X039070Y005728D01*
X039070Y005886D02*
X038664Y005886D01*
X038730Y006045D02*
X039070Y006045D01*
X039070Y006203D02*
X038730Y006203D01*
X038730Y006362D02*
X039070Y006362D01*
X039070Y006520D02*
X038618Y006520D01*
X038541Y006679D02*
X039070Y006679D01*
X039070Y006837D02*
X038700Y006837D01*
X038790Y006996D02*
X039070Y006996D01*
X039070Y007154D02*
X038790Y007154D01*
X038790Y007313D02*
X039070Y007313D01*
X039070Y007471D02*
X038752Y007471D01*
X038593Y007630D02*
X039070Y007630D01*
X039070Y007788D02*
X038651Y007788D01*
X038790Y007947D02*
X039070Y007947D01*
X039070Y008105D02*
X038790Y008105D01*
X038790Y008264D02*
X039070Y008264D01*
X039070Y008422D02*
X038790Y008422D01*
X038642Y008581D02*
X039070Y008581D01*
X039070Y008739D02*
X038602Y008739D01*
X038760Y008898D02*
X039070Y008898D01*
X039070Y009056D02*
X038790Y009056D01*
X038790Y009215D02*
X039070Y009215D01*
X039070Y009373D02*
X038790Y009373D01*
X038691Y009532D02*
X039070Y009532D01*
X039070Y009690D02*
X038567Y009690D01*
X038714Y009849D02*
X039070Y009849D01*
X039070Y010007D02*
X038790Y010007D01*
X038800Y010166D02*
X039070Y010166D01*
X039070Y010324D02*
X038800Y010324D01*
X038800Y010483D02*
X039070Y010483D01*
X039070Y010641D02*
X038800Y010641D01*
X038800Y010800D02*
X039070Y010800D01*
X039070Y010958D02*
X038800Y010958D01*
X038800Y011117D02*
X039070Y011117D01*
X039070Y011275D02*
X038800Y011275D01*
X038800Y011434D02*
X039070Y011434D01*
X039070Y011592D02*
X038800Y011592D01*
X038800Y011751D02*
X039070Y011751D01*
X039070Y011909D02*
X038756Y011909D01*
X038669Y012068D02*
X039070Y012068D01*
X039070Y012226D02*
X038482Y012226D01*
X033351Y009373D02*
X033300Y009373D01*
X032060Y009373D02*
X031862Y009373D01*
X033300Y007788D02*
X036709Y007788D01*
X036767Y007630D02*
X033300Y007630D01*
X033300Y007471D02*
X036608Y007471D01*
X036570Y007313D02*
X033300Y007313D01*
X033300Y007154D02*
X036570Y007154D01*
X036570Y006996D02*
X033275Y006996D01*
X033209Y006837D02*
X036660Y006837D01*
X036819Y006679D02*
X033055Y006679D01*
X036630Y006362D02*
X017276Y006362D01*
X017210Y006520D02*
X036742Y006520D01*
X038160Y006045D02*
X038200Y006045D01*
X038200Y005886D02*
X038160Y005886D01*
X037696Y005886D02*
X037664Y005886D01*
X037200Y005728D02*
X037160Y005728D01*
X036855Y005728D02*
X017300Y005728D01*
X017300Y005569D02*
X036791Y005569D01*
X036633Y005411D02*
X017300Y005411D01*
X020672Y004301D02*
X026188Y004301D01*
X026244Y004333D02*
X025986Y004184D01*
X025776Y003974D01*
X025627Y003716D01*
X025550Y003429D01*
X025550Y003131D01*
X025627Y002844D01*
X025776Y002586D01*
X025986Y002376D01*
X026244Y002227D01*
X026531Y002150D01*
X026829Y002150D01*
X027116Y002227D01*
X027374Y002376D01*
X027584Y002586D01*
X027733Y002844D01*
X027810Y003131D01*
X027810Y003429D01*
X027733Y003716D01*
X027584Y003974D01*
X027374Y004184D01*
X027116Y004333D01*
X026829Y004410D01*
X026531Y004410D01*
X026244Y004333D01*
X025944Y004143D02*
X020916Y004143D01*
X021074Y003984D02*
X025786Y003984D01*
X025690Y003826D02*
X021170Y003826D01*
X021246Y003667D02*
X025614Y003667D01*
X025571Y003509D02*
X021289Y003509D01*
X021310Y003350D02*
X025550Y003350D01*
X025550Y003192D02*
X021310Y003192D01*
X021284Y003033D02*
X025576Y003033D01*
X025619Y002875D02*
X021241Y002875D01*
X021159Y002716D02*
X025701Y002716D01*
X025804Y002558D02*
X021056Y002558D01*
X020897Y002399D02*
X025963Y002399D01*
X026220Y002241D02*
X020640Y002241D01*
X016669Y000814D02*
X000660Y000814D01*
X000660Y001607D02*
X001070Y001607D01*
X001070Y001765D02*
X000660Y001765D01*
X000660Y001924D02*
X001121Y001924D01*
X001219Y002082D02*
X000660Y002082D01*
X007640Y002241D02*
X013220Y002241D01*
X012963Y002399D02*
X007897Y002399D01*
X008056Y002558D02*
X012804Y002558D01*
X012701Y002716D02*
X008159Y002716D01*
X008241Y002875D02*
X012619Y002875D01*
X012576Y003033D02*
X008284Y003033D01*
X008310Y003192D02*
X012550Y003192D01*
X012550Y003350D02*
X008310Y003350D01*
X008289Y003509D02*
X012571Y003509D01*
X012614Y003667D02*
X008246Y003667D01*
X008170Y003826D02*
X012690Y003826D01*
X012786Y003984D02*
X008074Y003984D01*
X007916Y004143D02*
X012944Y004143D01*
X013188Y004301D02*
X007672Y004301D01*
X007800Y009373D02*
X007851Y009373D01*
X012680Y010180D02*
X012680Y011180D01*
X013180Y011680D01*
X019665Y009532D02*
X019695Y009532D01*
X019851Y009373D02*
X019509Y009373D01*
X020509Y009373D02*
X020560Y009373D01*
X027172Y004301D02*
X032188Y004301D01*
X031944Y004143D02*
X027416Y004143D01*
X027574Y003984D02*
X031786Y003984D01*
X031690Y003826D02*
X027670Y003826D01*
X027746Y003667D02*
X031614Y003667D01*
X031571Y003509D02*
X027789Y003509D01*
X027810Y003350D02*
X031550Y003350D01*
X031550Y003192D02*
X027810Y003192D01*
X027784Y003033D02*
X031576Y003033D01*
X031619Y002875D02*
X027741Y002875D01*
X027659Y002716D02*
X031701Y002716D01*
X031804Y002558D02*
X027556Y002558D01*
X027397Y002399D02*
X031963Y002399D01*
X032220Y002241D02*
X027140Y002241D01*
X038160Y005252D02*
X038200Y005252D01*
X038200Y005411D02*
X038160Y005411D01*
X038160Y005569D02*
X038200Y005569D01*
X038200Y005728D02*
X038160Y005728D01*
X038800Y001765D02*
X039070Y001765D01*
X039070Y001607D02*
X038800Y001607D01*
X038800Y001448D02*
X039070Y001448D01*
X039070Y001290D02*
X038800Y001290D01*
X038800Y001131D02*
X039070Y001131D01*
X039070Y000973D02*
X038765Y000973D01*
X038691Y000814D02*
X039070Y000814D01*
D16*
X023680Y004180D03*
X010680Y004180D03*
X010180Y009680D03*
X017180Y009680D03*
X023680Y009680D03*
X029680Y009680D03*
M02*
