G75*
%MOIN*%
%OFA0B0*%
%FSLAX24Y24*%
%IPPOS*%
%LPD*%
%AMOC8*
5,1,8,0,0,1.08239X$1,22.5*
%
%ADD10C,0.0050*%
D10*
X000500Y006250D02*
X005500Y006250D01*
X005502Y006343D01*
X005508Y006436D01*
X005517Y006528D01*
X005531Y006620D01*
X005548Y006712D01*
X005569Y006802D01*
X005594Y006892D01*
X005622Y006981D01*
X005654Y007068D01*
X005690Y007154D01*
X005729Y007238D01*
X005771Y007321D01*
X005817Y007402D01*
X005866Y007481D01*
X005919Y007557D01*
X005974Y007632D01*
X006033Y007704D01*
X006095Y007774D01*
X006159Y007841D01*
X006226Y007905D01*
X006296Y007967D01*
X006368Y008026D01*
X006443Y008081D01*
X006519Y008134D01*
X006598Y008183D01*
X006679Y008229D01*
X006762Y008271D01*
X006846Y008310D01*
X006932Y008346D01*
X007019Y008378D01*
X007108Y008406D01*
X007198Y008431D01*
X007288Y008452D01*
X007380Y008469D01*
X007472Y008483D01*
X007564Y008492D01*
X007657Y008498D01*
X007750Y008500D01*
X014750Y008500D01*
X014843Y008498D01*
X014936Y008492D01*
X015028Y008483D01*
X015120Y008469D01*
X015212Y008452D01*
X015302Y008431D01*
X015392Y008406D01*
X015481Y008378D01*
X015568Y008346D01*
X015654Y008310D01*
X015738Y008271D01*
X015821Y008229D01*
X015902Y008183D01*
X015981Y008134D01*
X016057Y008081D01*
X016132Y008026D01*
X016204Y007967D01*
X016274Y007905D01*
X016341Y007841D01*
X016405Y007774D01*
X016467Y007704D01*
X016526Y007632D01*
X016581Y007557D01*
X016634Y007481D01*
X016683Y007402D01*
X016729Y007321D01*
X016771Y007238D01*
X016810Y007154D01*
X016846Y007068D01*
X016878Y006981D01*
X016906Y006892D01*
X016931Y006802D01*
X016952Y006712D01*
X016969Y006620D01*
X016983Y006528D01*
X016992Y006436D01*
X016998Y006343D01*
X017000Y006250D01*
X022000Y006250D01*
X022000Y029500D01*
X021998Y029640D01*
X021992Y029780D01*
X021982Y029920D01*
X021969Y030060D01*
X021951Y030199D01*
X021929Y030338D01*
X021904Y030475D01*
X021875Y030613D01*
X021842Y030749D01*
X021805Y030884D01*
X021764Y031018D01*
X021719Y031151D01*
X021671Y031283D01*
X021619Y031413D01*
X021564Y031542D01*
X021505Y031669D01*
X021442Y031795D01*
X021376Y031919D01*
X021307Y032040D01*
X021234Y032160D01*
X021157Y032278D01*
X021078Y032393D01*
X020995Y032507D01*
X020909Y032617D01*
X020820Y032726D01*
X020728Y032832D01*
X020633Y032935D01*
X020536Y033036D01*
X020435Y033133D01*
X020332Y033228D01*
X020226Y033320D01*
X020117Y033409D01*
X020007Y033495D01*
X019893Y033578D01*
X019778Y033657D01*
X019660Y033734D01*
X019540Y033807D01*
X019419Y033876D01*
X019295Y033942D01*
X019169Y034005D01*
X019042Y034064D01*
X018913Y034119D01*
X018783Y034171D01*
X018651Y034219D01*
X018518Y034264D01*
X018384Y034305D01*
X018249Y034342D01*
X018113Y034375D01*
X017975Y034404D01*
X017838Y034429D01*
X017699Y034451D01*
X017560Y034469D01*
X017420Y034482D01*
X017280Y034492D01*
X017140Y034498D01*
X017000Y034500D01*
X005500Y034500D01*
X005360Y034498D01*
X005220Y034492D01*
X005080Y034482D01*
X004940Y034469D01*
X004801Y034451D01*
X004662Y034429D01*
X004525Y034404D01*
X004387Y034375D01*
X004251Y034342D01*
X004116Y034305D01*
X003982Y034264D01*
X003849Y034219D01*
X003717Y034171D01*
X003587Y034119D01*
X003458Y034064D01*
X003331Y034005D01*
X003205Y033942D01*
X003081Y033876D01*
X002960Y033807D01*
X002840Y033734D01*
X002722Y033657D01*
X002607Y033578D01*
X002493Y033495D01*
X002383Y033409D01*
X002274Y033320D01*
X002168Y033228D01*
X002065Y033133D01*
X001964Y033036D01*
X001867Y032935D01*
X001772Y032832D01*
X001680Y032726D01*
X001591Y032617D01*
X001505Y032507D01*
X001422Y032393D01*
X001343Y032278D01*
X001266Y032160D01*
X001193Y032040D01*
X001124Y031919D01*
X001058Y031795D01*
X000995Y031669D01*
X000936Y031542D01*
X000881Y031413D01*
X000829Y031283D01*
X000781Y031151D01*
X000736Y031018D01*
X000695Y030884D01*
X000658Y030749D01*
X000625Y030613D01*
X000596Y030475D01*
X000571Y030338D01*
X000549Y030199D01*
X000531Y030060D01*
X000518Y029920D01*
X000508Y029780D01*
X000502Y029640D01*
X000500Y029500D01*
X000500Y006250D01*
M02*
