%
M48
M72
T01C0.0394
T02C0.0400
%
T01
X1250Y30000
X1250Y29000
X1250Y28000
X1250Y27000
X1250Y26000
X1250Y25000
X1250Y24000
X1250Y23000
X1250Y22000
X1250Y21000
X1250Y20000
X1250Y19000
X1250Y18000
X1250Y17000
X1250Y16000
X1250Y15000
X1250Y14000
X1250Y13000
X1250Y12000
X1250Y11000
X1250Y10000
X1250Y9000
X1250Y8000
X2250Y8000
X2250Y9000
X2250Y10000
X2250Y11000
X2250Y12000
X2250Y13000
X2250Y14000
X2250Y15000
X2250Y16000
X2250Y17000
X2250Y18000
X2250Y19000
X2250Y20000
X2250Y21000
X2250Y22000
X2250Y23000
X2250Y24000
X2250Y25000
X2250Y26000
X2250Y27000
X2250Y28000
X2250Y29000
X2250Y30000
X21250Y30000
X21250Y29000
X21250Y28000
X21250Y27000
X21250Y26000
X21250Y25000
X21250Y24000
X21250Y23000
X21250Y22000
X21250Y21000
X21250Y20000
X21250Y19000
X21250Y18000
X21250Y17000
X21250Y16000
X21250Y15000
X21250Y14000
X21250Y13000
X21250Y12000
X21250Y11000
X21250Y10000
X21250Y9000
X21250Y8000
X20250Y8000
X20250Y9000
X20250Y10000
X20250Y11000
X20250Y12000
X20250Y13000
X20250Y14000
X20250Y15000
X20250Y16000
X20250Y17000
X20250Y18000
X20250Y19000
X20250Y20000
X20250Y21000
X20250Y22000
X20250Y23000
X20250Y24000
X20250Y25000
X20250Y26000
X20250Y27000
X20250Y28000
X20250Y29000
X20250Y30000
T02
X4500Y32500
X5500Y32500
X7500Y32500
X8500Y32500
X9500Y32500
X10500Y32500
M30
