G75*
%MOIN*%
%OFA0B0*%
%FSLAX24Y24*%
%IPPOS*%
%LPD*%
%AMOC8*
5,1,8,0,0,1.08239X$1,22.5*
%
%ADD10C,0.0080*%
%ADD11C,0.0000*%
%ADD12R,0.0740X0.0740*%
%ADD13C,0.0740*%
%ADD14C,0.0160*%
%ADD15C,0.0240*%
%ADD16R,0.0396X0.0396*%
%ADD17C,0.0320*%
D10*
X000280Y001387D02*
X000280Y039987D01*
X035380Y039987D01*
X035380Y001487D01*
X000280Y001387D01*
D11*
X001750Y002787D02*
X001752Y002837D01*
X001758Y002887D01*
X001768Y002936D01*
X001782Y002984D01*
X001799Y003031D01*
X001820Y003076D01*
X001845Y003120D01*
X001873Y003161D01*
X001905Y003200D01*
X001939Y003237D01*
X001976Y003271D01*
X002016Y003301D01*
X002058Y003328D01*
X002102Y003352D01*
X002148Y003373D01*
X002195Y003389D01*
X002243Y003402D01*
X002293Y003411D01*
X002342Y003416D01*
X002393Y003417D01*
X002443Y003414D01*
X002492Y003407D01*
X002541Y003396D01*
X002589Y003381D01*
X002635Y003363D01*
X002680Y003341D01*
X002723Y003315D01*
X002764Y003286D01*
X002803Y003254D01*
X002839Y003219D01*
X002871Y003181D01*
X002901Y003141D01*
X002928Y003098D01*
X002951Y003054D01*
X002970Y003008D01*
X002986Y002960D01*
X002998Y002911D01*
X003006Y002862D01*
X003010Y002812D01*
X003010Y002762D01*
X003006Y002712D01*
X002998Y002663D01*
X002986Y002614D01*
X002970Y002566D01*
X002951Y002520D01*
X002928Y002476D01*
X002901Y002433D01*
X002871Y002393D01*
X002839Y002355D01*
X002803Y002320D01*
X002764Y002288D01*
X002723Y002259D01*
X002680Y002233D01*
X002635Y002211D01*
X002589Y002193D01*
X002541Y002178D01*
X002492Y002167D01*
X002443Y002160D01*
X002393Y002157D01*
X002342Y002158D01*
X002293Y002163D01*
X002243Y002172D01*
X002195Y002185D01*
X002148Y002201D01*
X002102Y002222D01*
X002058Y002246D01*
X002016Y002273D01*
X001976Y002303D01*
X001939Y002337D01*
X001905Y002374D01*
X001873Y002413D01*
X001845Y002454D01*
X001820Y002498D01*
X001799Y002543D01*
X001782Y002590D01*
X001768Y002638D01*
X001758Y002687D01*
X001752Y002737D01*
X001750Y002787D01*
X030050Y014587D02*
X030052Y014637D01*
X030058Y014687D01*
X030068Y014736D01*
X030082Y014784D01*
X030099Y014831D01*
X030120Y014876D01*
X030145Y014920D01*
X030173Y014961D01*
X030205Y015000D01*
X030239Y015037D01*
X030276Y015071D01*
X030316Y015101D01*
X030358Y015128D01*
X030402Y015152D01*
X030448Y015173D01*
X030495Y015189D01*
X030543Y015202D01*
X030593Y015211D01*
X030642Y015216D01*
X030693Y015217D01*
X030743Y015214D01*
X030792Y015207D01*
X030841Y015196D01*
X030889Y015181D01*
X030935Y015163D01*
X030980Y015141D01*
X031023Y015115D01*
X031064Y015086D01*
X031103Y015054D01*
X031139Y015019D01*
X031171Y014981D01*
X031201Y014941D01*
X031228Y014898D01*
X031251Y014854D01*
X031270Y014808D01*
X031286Y014760D01*
X031298Y014711D01*
X031306Y014662D01*
X031310Y014612D01*
X031310Y014562D01*
X031306Y014512D01*
X031298Y014463D01*
X031286Y014414D01*
X031270Y014366D01*
X031251Y014320D01*
X031228Y014276D01*
X031201Y014233D01*
X031171Y014193D01*
X031139Y014155D01*
X031103Y014120D01*
X031064Y014088D01*
X031023Y014059D01*
X030980Y014033D01*
X030935Y014011D01*
X030889Y013993D01*
X030841Y013978D01*
X030792Y013967D01*
X030743Y013960D01*
X030693Y013957D01*
X030642Y013958D01*
X030593Y013963D01*
X030543Y013972D01*
X030495Y013985D01*
X030448Y014001D01*
X030402Y014022D01*
X030358Y014046D01*
X030316Y014073D01*
X030276Y014103D01*
X030239Y014137D01*
X030205Y014174D01*
X030173Y014213D01*
X030145Y014254D01*
X030120Y014298D01*
X030099Y014343D01*
X030082Y014390D01*
X030068Y014438D01*
X030058Y014487D01*
X030052Y014537D01*
X030050Y014587D01*
X033250Y002987D02*
X033252Y003037D01*
X033258Y003087D01*
X033268Y003136D01*
X033282Y003184D01*
X033299Y003231D01*
X033320Y003276D01*
X033345Y003320D01*
X033373Y003361D01*
X033405Y003400D01*
X033439Y003437D01*
X033476Y003471D01*
X033516Y003501D01*
X033558Y003528D01*
X033602Y003552D01*
X033648Y003573D01*
X033695Y003589D01*
X033743Y003602D01*
X033793Y003611D01*
X033842Y003616D01*
X033893Y003617D01*
X033943Y003614D01*
X033992Y003607D01*
X034041Y003596D01*
X034089Y003581D01*
X034135Y003563D01*
X034180Y003541D01*
X034223Y003515D01*
X034264Y003486D01*
X034303Y003454D01*
X034339Y003419D01*
X034371Y003381D01*
X034401Y003341D01*
X034428Y003298D01*
X034451Y003254D01*
X034470Y003208D01*
X034486Y003160D01*
X034498Y003111D01*
X034506Y003062D01*
X034510Y003012D01*
X034510Y002962D01*
X034506Y002912D01*
X034498Y002863D01*
X034486Y002814D01*
X034470Y002766D01*
X034451Y002720D01*
X034428Y002676D01*
X034401Y002633D01*
X034371Y002593D01*
X034339Y002555D01*
X034303Y002520D01*
X034264Y002488D01*
X034223Y002459D01*
X034180Y002433D01*
X034135Y002411D01*
X034089Y002393D01*
X034041Y002378D01*
X033992Y002367D01*
X033943Y002360D01*
X033893Y002357D01*
X033842Y002358D01*
X033793Y002363D01*
X033743Y002372D01*
X033695Y002385D01*
X033648Y002401D01*
X033602Y002422D01*
X033558Y002446D01*
X033516Y002473D01*
X033476Y002503D01*
X033439Y002537D01*
X033405Y002574D01*
X033373Y002613D01*
X033345Y002654D01*
X033320Y002698D01*
X033299Y002743D01*
X033282Y002790D01*
X033268Y002838D01*
X033258Y002887D01*
X033252Y002937D01*
X033250Y002987D01*
X033050Y035687D02*
X033052Y035737D01*
X033058Y035787D01*
X033068Y035836D01*
X033082Y035884D01*
X033099Y035931D01*
X033120Y035976D01*
X033145Y036020D01*
X033173Y036061D01*
X033205Y036100D01*
X033239Y036137D01*
X033276Y036171D01*
X033316Y036201D01*
X033358Y036228D01*
X033402Y036252D01*
X033448Y036273D01*
X033495Y036289D01*
X033543Y036302D01*
X033593Y036311D01*
X033642Y036316D01*
X033693Y036317D01*
X033743Y036314D01*
X033792Y036307D01*
X033841Y036296D01*
X033889Y036281D01*
X033935Y036263D01*
X033980Y036241D01*
X034023Y036215D01*
X034064Y036186D01*
X034103Y036154D01*
X034139Y036119D01*
X034171Y036081D01*
X034201Y036041D01*
X034228Y035998D01*
X034251Y035954D01*
X034270Y035908D01*
X034286Y035860D01*
X034298Y035811D01*
X034306Y035762D01*
X034310Y035712D01*
X034310Y035662D01*
X034306Y035612D01*
X034298Y035563D01*
X034286Y035514D01*
X034270Y035466D01*
X034251Y035420D01*
X034228Y035376D01*
X034201Y035333D01*
X034171Y035293D01*
X034139Y035255D01*
X034103Y035220D01*
X034064Y035188D01*
X034023Y035159D01*
X033980Y035133D01*
X033935Y035111D01*
X033889Y035093D01*
X033841Y035078D01*
X033792Y035067D01*
X033743Y035060D01*
X033693Y035057D01*
X033642Y035058D01*
X033593Y035063D01*
X033543Y035072D01*
X033495Y035085D01*
X033448Y035101D01*
X033402Y035122D01*
X033358Y035146D01*
X033316Y035173D01*
X033276Y035203D01*
X033239Y035237D01*
X033205Y035274D01*
X033173Y035313D01*
X033145Y035354D01*
X033120Y035398D01*
X033099Y035443D01*
X033082Y035490D01*
X033068Y035538D01*
X033058Y035587D01*
X033052Y035637D01*
X033050Y035687D01*
X001450Y035587D02*
X001452Y035637D01*
X001458Y035687D01*
X001468Y035736D01*
X001482Y035784D01*
X001499Y035831D01*
X001520Y035876D01*
X001545Y035920D01*
X001573Y035961D01*
X001605Y036000D01*
X001639Y036037D01*
X001676Y036071D01*
X001716Y036101D01*
X001758Y036128D01*
X001802Y036152D01*
X001848Y036173D01*
X001895Y036189D01*
X001943Y036202D01*
X001993Y036211D01*
X002042Y036216D01*
X002093Y036217D01*
X002143Y036214D01*
X002192Y036207D01*
X002241Y036196D01*
X002289Y036181D01*
X002335Y036163D01*
X002380Y036141D01*
X002423Y036115D01*
X002464Y036086D01*
X002503Y036054D01*
X002539Y036019D01*
X002571Y035981D01*
X002601Y035941D01*
X002628Y035898D01*
X002651Y035854D01*
X002670Y035808D01*
X002686Y035760D01*
X002698Y035711D01*
X002706Y035662D01*
X002710Y035612D01*
X002710Y035562D01*
X002706Y035512D01*
X002698Y035463D01*
X002686Y035414D01*
X002670Y035366D01*
X002651Y035320D01*
X002628Y035276D01*
X002601Y035233D01*
X002571Y035193D01*
X002539Y035155D01*
X002503Y035120D01*
X002464Y035088D01*
X002423Y035059D01*
X002380Y035033D01*
X002335Y035011D01*
X002289Y034993D01*
X002241Y034978D01*
X002192Y034967D01*
X002143Y034960D01*
X002093Y034957D01*
X002042Y034958D01*
X001993Y034963D01*
X001943Y034972D01*
X001895Y034985D01*
X001848Y035001D01*
X001802Y035022D01*
X001758Y035046D01*
X001716Y035073D01*
X001676Y035103D01*
X001639Y035137D01*
X001605Y035174D01*
X001573Y035213D01*
X001545Y035254D01*
X001520Y035298D01*
X001499Y035343D01*
X001482Y035390D01*
X001468Y035438D01*
X001458Y035487D01*
X001452Y035537D01*
X001450Y035587D01*
D12*
X008480Y031687D03*
X009480Y031687D03*
X002530Y026587D03*
X002530Y022387D03*
X002530Y018187D03*
X002530Y013987D03*
X002530Y009787D03*
X002530Y005587D03*
X008480Y002487D03*
X009480Y002487D03*
X025480Y002487D03*
X026480Y002487D03*
X032080Y002487D03*
X033880Y012787D03*
X033530Y019287D03*
X033480Y021687D03*
X033530Y027087D03*
X033530Y031387D03*
X026480Y031687D03*
X025480Y031687D03*
D13*
X025480Y030687D03*
X026480Y030687D03*
X026480Y029687D03*
X026480Y028687D03*
X025480Y028687D03*
X025480Y029687D03*
X025480Y027687D03*
X025480Y026687D03*
X026480Y026687D03*
X026480Y027687D03*
X026480Y025687D03*
X026480Y024687D03*
X025480Y024687D03*
X025480Y025687D03*
X025480Y023687D03*
X025480Y022687D03*
X026480Y022687D03*
X026480Y023687D03*
X033430Y024087D03*
X033530Y025087D03*
X033430Y026087D03*
X033430Y028387D03*
X033530Y029387D03*
X033430Y030387D03*
X033480Y020687D03*
X033430Y018287D03*
X033530Y017287D03*
X033430Y016287D03*
X033880Y011787D03*
X033880Y010787D03*
X033880Y009787D03*
X031080Y002487D03*
X030080Y002487D03*
X029080Y002487D03*
X026480Y003487D03*
X026480Y004487D03*
X026480Y005487D03*
X026480Y006487D03*
X026480Y007487D03*
X026480Y008487D03*
X026480Y009487D03*
X026480Y010487D03*
X026480Y011487D03*
X025480Y011487D03*
X025480Y010487D03*
X025480Y009487D03*
X025480Y008487D03*
X025480Y007487D03*
X025480Y006487D03*
X025480Y005487D03*
X025480Y004487D03*
X025480Y003487D03*
X009480Y003487D03*
X009480Y004487D03*
X009480Y005487D03*
X009480Y006487D03*
X009480Y007487D03*
X009480Y008487D03*
X009480Y009487D03*
X009480Y010487D03*
X009480Y011487D03*
X008480Y011487D03*
X008480Y010487D03*
X008480Y009487D03*
X008480Y008487D03*
X008480Y007487D03*
X008480Y006487D03*
X008480Y005487D03*
X008480Y004487D03*
X008480Y003487D03*
X002630Y006587D03*
X002530Y007587D03*
X002630Y008587D03*
X002630Y010787D03*
X002530Y011787D03*
X002630Y012787D03*
X002630Y014987D03*
X002530Y015987D03*
X002630Y016987D03*
X002630Y019187D03*
X002530Y020187D03*
X002630Y021187D03*
X002630Y023387D03*
X002530Y024387D03*
X002630Y025387D03*
X002630Y027587D03*
X002530Y028587D03*
X002630Y029587D03*
X008480Y029687D03*
X008480Y028687D03*
X009480Y028687D03*
X009480Y029687D03*
X009480Y030687D03*
X008480Y030687D03*
X008480Y027687D03*
X008480Y026687D03*
X009480Y026687D03*
X009480Y027687D03*
X009480Y025687D03*
X009480Y024687D03*
X008480Y024687D03*
X008480Y025687D03*
X008480Y023687D03*
X008480Y022687D03*
X009480Y022687D03*
X009480Y023687D03*
D14*
X009658Y024187D02*
X009780Y024136D01*
X009929Y023987D01*
X010010Y023792D01*
X010010Y023581D01*
X009929Y023386D01*
X009780Y023237D01*
X009658Y023187D01*
X009780Y023136D01*
X009929Y022987D01*
X010010Y022792D01*
X010010Y022581D01*
X009929Y022386D01*
X009780Y022237D01*
X009585Y022157D01*
X009375Y022157D01*
X009180Y022237D01*
X009031Y022386D01*
X008980Y022509D01*
X008929Y022386D01*
X008780Y022237D01*
X008585Y022157D01*
X008375Y022157D01*
X008180Y022237D01*
X008031Y022386D01*
X007950Y022581D01*
X007950Y022792D01*
X008031Y022987D01*
X008180Y023136D01*
X008302Y023187D01*
X008180Y023237D01*
X008031Y023386D01*
X007950Y023581D01*
X007950Y023792D01*
X008031Y023987D01*
X008180Y024136D01*
X008302Y024187D01*
X008180Y024237D01*
X008031Y024386D01*
X007950Y024581D01*
X007950Y024792D01*
X007968Y024835D01*
X007120Y023987D01*
X007120Y022386D01*
X008983Y020523D01*
X009020Y020434D01*
X009020Y017145D01*
X009044Y017145D01*
X009138Y017051D01*
X009138Y016522D01*
X009044Y016429D01*
X008516Y016429D01*
X008422Y016522D01*
X008422Y017051D01*
X008516Y017145D01*
X008540Y017145D01*
X008540Y020287D01*
X006744Y022083D01*
X006677Y022151D01*
X006640Y022239D01*
X006640Y024134D01*
X006677Y024223D01*
X007975Y025521D01*
X007950Y025581D01*
X007950Y025792D01*
X008031Y025987D01*
X008180Y026136D01*
X008302Y026187D01*
X008180Y026237D01*
X008031Y026386D01*
X008006Y026447D01*
X007879Y026447D01*
X007720Y026287D01*
X007720Y025839D01*
X007683Y025751D01*
X006783Y024851D01*
X006716Y024783D01*
X006628Y024747D01*
X003279Y024747D01*
X003050Y024517D01*
X003060Y024492D01*
X003060Y024281D01*
X002979Y024086D01*
X002830Y023937D01*
X002758Y023907D01*
X002930Y023836D01*
X003079Y023687D01*
X003160Y023492D01*
X003160Y023281D01*
X003079Y023086D01*
X002930Y022937D01*
X002927Y022936D01*
X002969Y022924D01*
X003011Y022901D01*
X003044Y022867D01*
X003068Y022826D01*
X003080Y022780D01*
X003080Y022407D01*
X002550Y022407D01*
X002550Y022367D01*
X003080Y022367D01*
X003080Y021993D01*
X003068Y021947D01*
X003044Y021906D01*
X003011Y021873D01*
X002969Y021849D01*
X002924Y021837D01*
X002550Y021837D01*
X002550Y022367D01*
X002510Y022367D01*
X001980Y022367D01*
X001980Y021993D01*
X001992Y021947D01*
X002016Y021906D01*
X002049Y021873D01*
X002091Y021849D01*
X002136Y021837D01*
X002510Y021837D01*
X002510Y022367D01*
X002510Y022407D01*
X001980Y022407D01*
X001980Y022780D01*
X001992Y022826D01*
X002016Y022867D01*
X002049Y022901D01*
X002091Y022924D01*
X002136Y022937D01*
X002331Y022937D01*
X002330Y022937D01*
X002181Y023086D01*
X002100Y023281D01*
X002100Y023492D01*
X002181Y023687D01*
X002330Y023836D01*
X002402Y023866D01*
X002230Y023937D01*
X002081Y024086D01*
X002000Y024281D01*
X002000Y024492D01*
X002081Y024687D01*
X002230Y024836D01*
X002402Y024907D01*
X002330Y024937D01*
X002181Y025086D01*
X002100Y025281D01*
X002100Y025492D01*
X002181Y025687D01*
X002330Y025836D01*
X002525Y025917D01*
X002735Y025917D01*
X002930Y025836D01*
X003079Y025687D01*
X003104Y025627D01*
X006381Y025627D01*
X006840Y026086D01*
X006840Y027634D01*
X006877Y027723D01*
X007377Y028223D01*
X007577Y028423D01*
X007953Y028799D01*
X008031Y028987D01*
X008180Y029136D01*
X008302Y029187D01*
X008180Y029237D01*
X008075Y029342D01*
X007583Y028851D01*
X007516Y028783D01*
X007428Y028747D01*
X003079Y028747D01*
X003050Y028717D01*
X003060Y028692D01*
X003060Y028481D01*
X002979Y028286D01*
X002830Y028137D01*
X002758Y028107D01*
X002930Y028036D01*
X003079Y027887D01*
X003160Y027692D01*
X003160Y027481D01*
X003079Y027286D01*
X002930Y027137D01*
X002927Y027136D01*
X002969Y027124D01*
X003011Y027101D01*
X003044Y027067D01*
X003068Y027026D01*
X003080Y026980D01*
X003080Y026607D01*
X002550Y026607D01*
X002550Y026567D01*
X003080Y026567D01*
X003080Y026193D01*
X003068Y026147D01*
X003044Y026106D01*
X003011Y026073D01*
X002969Y026049D01*
X002924Y026037D01*
X002550Y026037D01*
X002550Y026567D01*
X002510Y026567D01*
X001980Y026567D01*
X001980Y026193D01*
X001992Y026147D01*
X002016Y026106D01*
X002049Y026073D01*
X002091Y026049D01*
X002136Y026037D01*
X002510Y026037D01*
X002510Y026567D01*
X002510Y026607D01*
X001980Y026607D01*
X001980Y026980D01*
X001992Y027026D01*
X002016Y027067D01*
X002049Y027101D01*
X002091Y027124D01*
X002136Y027137D01*
X002331Y027137D01*
X002330Y027137D01*
X002181Y027286D01*
X002100Y027481D01*
X002100Y027692D01*
X002181Y027887D01*
X002330Y028036D01*
X002402Y028066D01*
X002230Y028137D01*
X002081Y028286D01*
X002000Y028481D01*
X002000Y028692D01*
X002081Y028887D01*
X002230Y029036D01*
X002402Y029107D01*
X002330Y029137D01*
X002181Y029286D01*
X002100Y029481D01*
X002100Y029692D01*
X002181Y029887D01*
X002330Y030036D01*
X002525Y030117D01*
X002735Y030117D01*
X002930Y030036D01*
X003079Y029887D01*
X003104Y029827D01*
X007281Y029827D01*
X007975Y030521D01*
X007950Y030581D01*
X007950Y030792D01*
X008031Y030987D01*
X008180Y031136D01*
X008181Y031137D01*
X008086Y031137D01*
X008041Y031149D01*
X007999Y031173D01*
X007966Y031206D01*
X007942Y031247D01*
X007930Y031293D01*
X007930Y031667D01*
X008460Y031667D01*
X008460Y031707D01*
X008460Y032237D01*
X008086Y032237D01*
X008041Y032224D01*
X007999Y032201D01*
X007966Y032167D01*
X007942Y032126D01*
X007930Y032080D01*
X007930Y031707D01*
X008460Y031707D01*
X008500Y031707D01*
X008500Y032237D01*
X008874Y032237D01*
X008919Y032224D01*
X008961Y032201D01*
X008994Y032167D01*
X008994Y032167D01*
X009044Y032217D01*
X009916Y032217D01*
X010010Y032123D01*
X010010Y031250D01*
X009916Y031157D01*
X009730Y031157D01*
X009780Y031136D01*
X009929Y030987D01*
X010010Y030792D01*
X010010Y030581D01*
X009929Y030386D01*
X009780Y030237D01*
X009658Y030187D01*
X009780Y030136D01*
X009929Y029987D01*
X010010Y029792D01*
X010010Y029581D01*
X009929Y029386D01*
X009780Y029237D01*
X009658Y029187D01*
X009780Y029136D01*
X009929Y028987D01*
X009954Y028927D01*
X012428Y028927D01*
X012516Y028890D01*
X012583Y028823D01*
X014783Y026623D01*
X014820Y026534D01*
X014820Y019345D01*
X014844Y019345D01*
X014938Y019251D01*
X014938Y018722D01*
X014844Y018629D01*
X014316Y018629D01*
X014222Y018722D01*
X014222Y019251D01*
X014316Y019345D01*
X014340Y019345D01*
X014340Y026387D01*
X012281Y028447D01*
X009954Y028447D01*
X009929Y028386D01*
X009780Y028237D01*
X009658Y028187D01*
X009780Y028136D01*
X009929Y027987D01*
X009996Y027827D01*
X011328Y027827D01*
X011416Y027790D01*
X011483Y027723D01*
X012383Y026823D01*
X012420Y026734D01*
X012420Y018945D01*
X012444Y018945D01*
X012538Y018851D01*
X012538Y018322D01*
X012444Y018229D01*
X011916Y018229D01*
X011822Y018322D01*
X011822Y018851D01*
X011916Y018945D01*
X011940Y018945D01*
X011940Y026587D01*
X011181Y027347D01*
X009890Y027347D01*
X009780Y027237D01*
X009658Y027187D01*
X009780Y027136D01*
X009929Y026987D01*
X010010Y026792D01*
X010010Y026581D01*
X009929Y026386D01*
X009780Y026237D01*
X009658Y026187D01*
X009780Y026136D01*
X009929Y025987D01*
X010010Y025792D01*
X010010Y025581D01*
X009929Y025386D01*
X009780Y025237D01*
X009658Y025187D01*
X009780Y025136D01*
X009929Y024987D01*
X010010Y024792D01*
X010010Y024581D01*
X009929Y024386D01*
X009780Y024237D01*
X009658Y024187D01*
X009741Y024152D02*
X011940Y024152D01*
X011940Y023994D02*
X009922Y023994D01*
X009992Y023835D02*
X011940Y023835D01*
X011940Y023677D02*
X010010Y023677D01*
X009984Y023518D02*
X011940Y023518D01*
X011940Y023360D02*
X009903Y023360D01*
X009693Y023201D02*
X011940Y023201D01*
X011940Y023043D02*
X009873Y023043D01*
X009972Y022884D02*
X011940Y022884D01*
X011940Y022726D02*
X010010Y022726D01*
X010004Y022567D02*
X011940Y022567D01*
X011940Y022409D02*
X009939Y022409D01*
X009793Y022250D02*
X011940Y022250D01*
X011940Y022092D02*
X007414Y022092D01*
X007256Y022250D02*
X008167Y022250D01*
X008021Y022409D02*
X007120Y022409D01*
X007120Y022567D02*
X007956Y022567D01*
X007950Y022726D02*
X007120Y022726D01*
X007120Y022884D02*
X007988Y022884D01*
X008087Y023043D02*
X007120Y023043D01*
X007120Y023201D02*
X008267Y023201D01*
X008057Y023360D02*
X007120Y023360D01*
X007120Y023518D02*
X007976Y023518D01*
X007950Y023677D02*
X007120Y023677D01*
X007120Y023835D02*
X007968Y023835D01*
X008038Y023994D02*
X007126Y023994D01*
X007285Y024152D02*
X008219Y024152D01*
X008106Y024311D02*
X007443Y024311D01*
X007602Y024469D02*
X007996Y024469D01*
X007950Y024628D02*
X007760Y024628D01*
X007919Y024786D02*
X007950Y024786D01*
X007557Y025103D02*
X007036Y025103D01*
X006877Y024945D02*
X007399Y024945D01*
X007240Y024786D02*
X006719Y024786D01*
X006580Y024987D02*
X003180Y024987D01*
X002580Y024387D01*
X003060Y024311D02*
X006765Y024311D01*
X006647Y024152D02*
X003007Y024152D01*
X002887Y023994D02*
X006640Y023994D01*
X006640Y023835D02*
X002931Y023835D01*
X003084Y023677D02*
X006640Y023677D01*
X006640Y023518D02*
X003149Y023518D01*
X003160Y023360D02*
X006640Y023360D01*
X006640Y023201D02*
X003127Y023201D01*
X003036Y023043D02*
X006640Y023043D01*
X006640Y022884D02*
X003027Y022884D01*
X003080Y022726D02*
X006640Y022726D01*
X006640Y022567D02*
X003080Y022567D01*
X003080Y022409D02*
X006640Y022409D01*
X006640Y022250D02*
X003080Y022250D01*
X003080Y022092D02*
X006736Y022092D01*
X006894Y021933D02*
X003060Y021933D01*
X002930Y021636D02*
X002735Y021717D01*
X002525Y021717D01*
X002330Y021636D01*
X002181Y021487D01*
X002156Y021427D01*
X001432Y021427D01*
X001344Y021390D01*
X001144Y021190D01*
X001077Y021123D01*
X001040Y021034D01*
X001040Y009839D01*
X001077Y009751D01*
X002110Y008717D01*
X002100Y008692D01*
X002100Y008481D01*
X002181Y008286D01*
X002330Y008137D01*
X002402Y008107D01*
X002230Y008036D01*
X002081Y007887D01*
X002000Y007692D01*
X002000Y007481D01*
X002081Y007286D01*
X002230Y007137D01*
X002402Y007066D01*
X002330Y007036D01*
X002181Y006887D01*
X002100Y006692D01*
X002100Y006481D01*
X002181Y006286D01*
X002330Y006137D01*
X002331Y006137D01*
X002136Y006137D01*
X002091Y006124D01*
X002049Y006101D01*
X002016Y006067D01*
X001992Y006026D01*
X001980Y005980D01*
X001980Y005607D01*
X002510Y005607D01*
X002510Y005567D01*
X001980Y005567D01*
X001980Y005193D01*
X001992Y005147D01*
X002016Y005106D01*
X002049Y005073D01*
X002091Y005049D01*
X002136Y005037D01*
X002510Y005037D01*
X002510Y005567D01*
X002550Y005567D01*
X002550Y005607D01*
X003080Y005607D01*
X003080Y005980D01*
X003068Y006026D01*
X003044Y006067D01*
X003011Y006101D01*
X002969Y006124D01*
X002927Y006136D01*
X002930Y006137D01*
X003079Y006286D01*
X003160Y006481D01*
X003160Y006692D01*
X003079Y006887D01*
X002930Y007036D01*
X002758Y007107D01*
X002830Y007137D01*
X002979Y007286D01*
X003046Y007447D01*
X003328Y007447D01*
X003416Y007483D01*
X003483Y007551D01*
X003983Y008051D01*
X004020Y008139D01*
X004020Y015987D01*
X004883Y016851D01*
X004920Y016939D01*
X004920Y018487D01*
X005283Y018851D01*
X005320Y018939D01*
X005320Y018947D01*
X005322Y018947D01*
X005322Y018922D01*
X005416Y018829D01*
X005944Y018829D01*
X006038Y018922D01*
X006038Y019451D01*
X005944Y019545D01*
X005416Y019545D01*
X005322Y019451D01*
X005322Y019427D01*
X005279Y019427D01*
X004283Y020423D01*
X004216Y020490D01*
X004128Y020527D01*
X002940Y020527D01*
X002830Y020636D01*
X002758Y020666D01*
X002930Y020737D01*
X003079Y020886D01*
X003160Y021081D01*
X003160Y021147D01*
X004381Y021147D01*
X006622Y018905D01*
X006622Y018422D01*
X006716Y018329D01*
X007244Y018329D01*
X007338Y018422D01*
X007338Y018951D01*
X007244Y019045D01*
X007161Y019045D01*
X004683Y021523D01*
X004616Y021590D01*
X004528Y021627D01*
X002940Y021627D01*
X002930Y021636D01*
X002880Y021387D02*
X002680Y021187D01*
X001480Y021187D01*
X001280Y020987D01*
X001280Y018287D01*
X001280Y014087D01*
X001280Y009887D01*
X002580Y008587D01*
X002174Y008302D02*
X000800Y008302D01*
X000800Y008144D02*
X002323Y008144D01*
X002179Y007985D02*
X000800Y007985D01*
X000800Y007827D02*
X002056Y007827D01*
X002000Y007668D02*
X000800Y007668D01*
X000800Y007510D02*
X002000Y007510D01*
X002054Y007351D02*
X000800Y007351D01*
X000800Y007193D02*
X002174Y007193D01*
X002328Y007034D02*
X000800Y007034D01*
X000800Y006876D02*
X002176Y006876D01*
X002110Y006717D02*
X000800Y006717D01*
X000800Y006559D02*
X002100Y006559D01*
X002134Y006400D02*
X000800Y006400D01*
X000800Y006242D02*
X002225Y006242D01*
X002032Y006083D02*
X000800Y006083D01*
X000800Y005925D02*
X001980Y005925D01*
X001980Y005766D02*
X000800Y005766D01*
X000800Y005608D02*
X001980Y005608D01*
X001980Y005449D02*
X000800Y005449D01*
X000800Y005291D02*
X001980Y005291D01*
X002001Y005132D02*
X000800Y005132D01*
X000800Y004974D02*
X008271Y004974D01*
X008302Y004987D02*
X008180Y004936D01*
X008031Y004787D01*
X007950Y004592D01*
X007950Y004381D01*
X008031Y004186D01*
X008180Y004037D01*
X008302Y003987D01*
X008180Y003936D01*
X008031Y003787D01*
X007950Y003592D01*
X007950Y003381D01*
X008031Y003186D01*
X008180Y003037D01*
X008230Y003017D01*
X008044Y003017D01*
X007950Y002923D01*
X007950Y002050D01*
X008044Y001957D01*
X008160Y001957D01*
X008160Y001929D01*
X003078Y001915D01*
X003268Y002105D01*
X003414Y002358D01*
X003490Y002641D01*
X003490Y002933D01*
X003414Y003215D01*
X003268Y003468D01*
X003062Y003675D01*
X002808Y003821D01*
X002526Y003897D01*
X002234Y003897D01*
X001952Y003821D01*
X001698Y003675D01*
X001492Y003468D01*
X001346Y003215D01*
X001270Y002933D01*
X001270Y002641D01*
X001346Y002358D01*
X001492Y002105D01*
X001686Y001911D01*
X000800Y001908D01*
X000800Y039467D01*
X034860Y039467D01*
X034860Y003509D01*
X034768Y003668D01*
X034562Y003875D01*
X034308Y004021D01*
X034026Y004097D01*
X033734Y004097D01*
X033452Y004021D01*
X033198Y003875D01*
X032992Y003668D01*
X032846Y003415D01*
X032770Y003133D01*
X032770Y002841D01*
X032846Y002558D01*
X032992Y002305D01*
X033198Y002099D01*
X033367Y002001D01*
X032558Y001999D01*
X032610Y002050D01*
X032610Y002923D01*
X032600Y002933D01*
X032600Y011190D01*
X032661Y011215D01*
X032813Y011367D01*
X033550Y011367D01*
X033580Y011337D01*
X033702Y011287D01*
X033580Y011236D01*
X033431Y011087D01*
X033350Y010892D01*
X033350Y010681D01*
X033431Y010486D01*
X033580Y010337D01*
X033702Y010287D01*
X033580Y010236D01*
X033431Y010087D01*
X033350Y009892D01*
X033350Y009681D01*
X033431Y009486D01*
X033580Y009337D01*
X033775Y009257D01*
X033985Y009257D01*
X034180Y009337D01*
X034329Y009486D01*
X034410Y009681D01*
X034410Y009892D01*
X034329Y010087D01*
X034180Y010236D01*
X034058Y010287D01*
X034180Y010337D01*
X034329Y010486D01*
X034410Y010681D01*
X034410Y010892D01*
X034329Y011087D01*
X034180Y011236D01*
X034058Y011287D01*
X034180Y011337D01*
X034329Y011486D01*
X034410Y011681D01*
X034410Y011892D01*
X034329Y012087D01*
X034180Y012236D01*
X034179Y012237D01*
X034274Y012237D01*
X034319Y012249D01*
X034361Y012273D01*
X034394Y012306D01*
X034418Y012347D01*
X034430Y012393D01*
X034430Y012767D01*
X033900Y012767D01*
X033900Y012807D01*
X033860Y012807D01*
X033860Y013337D01*
X033486Y013337D01*
X033441Y013324D01*
X033399Y013301D01*
X033366Y013267D01*
X033342Y013226D01*
X033330Y013180D01*
X033330Y012807D01*
X033860Y012807D01*
X033860Y012767D01*
X033330Y012767D01*
X033330Y012393D01*
X033342Y012347D01*
X033366Y012306D01*
X033399Y012273D01*
X033441Y012249D01*
X033486Y012237D01*
X033581Y012237D01*
X033580Y012236D01*
X033431Y012087D01*
X033397Y012007D01*
X032913Y012007D01*
X032651Y012268D01*
X032600Y012319D01*
X032600Y012844D01*
X032605Y012864D01*
X032600Y012907D01*
X032600Y012950D01*
X032592Y012970D01*
X032589Y012990D01*
X032568Y013028D01*
X032551Y013068D01*
X032537Y013083D01*
X032168Y013728D01*
X032151Y013768D01*
X032137Y013783D01*
X032126Y013801D01*
X032092Y013827D01*
X032061Y013858D01*
X032042Y013866D01*
X032026Y013879D01*
X031984Y013890D01*
X031944Y013907D01*
X031923Y013907D01*
X031903Y013912D01*
X031860Y013907D01*
X031569Y013907D01*
X031714Y014158D01*
X031790Y014441D01*
X031790Y014733D01*
X031714Y015015D01*
X031568Y015268D01*
X031362Y015475D01*
X031108Y015621D01*
X030826Y015697D01*
X030534Y015697D01*
X030252Y015621D01*
X029998Y015475D01*
X029792Y015268D01*
X029646Y015015D01*
X029570Y014733D01*
X029570Y014441D01*
X029646Y014158D01*
X029791Y013907D01*
X018216Y013907D01*
X018099Y013858D01*
X018009Y013768D01*
X017409Y013168D01*
X017360Y013050D01*
X017360Y004816D01*
X014752Y002111D01*
X014747Y002107D01*
X010010Y002107D01*
X010010Y002167D01*
X014044Y002167D01*
X014161Y002215D01*
X016861Y004915D01*
X016951Y005005D01*
X017000Y005123D01*
X017000Y020254D01*
X017113Y020367D01*
X031844Y020367D01*
X031961Y020415D01*
X032051Y020505D01*
X032913Y021367D01*
X032950Y021367D01*
X032950Y021250D01*
X033044Y021157D01*
X033191Y021157D01*
X033122Y021106D01*
X033060Y021045D01*
X033010Y020975D01*
X032970Y020898D01*
X032944Y020815D01*
X032930Y020730D01*
X032930Y020707D01*
X033460Y020707D01*
X033460Y020667D01*
X032930Y020667D01*
X032930Y020643D01*
X032944Y020558D01*
X032970Y020476D01*
X033010Y020398D01*
X033060Y020328D01*
X033122Y020267D01*
X033192Y020216D01*
X033269Y020177D01*
X033351Y020150D01*
X033437Y020137D01*
X033460Y020137D01*
X033460Y020667D01*
X033500Y020667D01*
X033500Y020707D01*
X034030Y020707D01*
X034030Y020730D01*
X034016Y020815D01*
X033990Y020898D01*
X033950Y020975D01*
X033900Y021045D01*
X033838Y021106D01*
X033769Y021157D01*
X033916Y021157D01*
X034010Y021250D01*
X034010Y022123D01*
X033916Y022217D01*
X033044Y022217D01*
X032950Y022123D01*
X032950Y022007D01*
X032716Y022007D01*
X032599Y021958D01*
X031647Y021007D01*
X017313Y021007D01*
X017000Y021319D01*
X017000Y029554D01*
X018813Y031367D01*
X024950Y031367D01*
X024950Y031250D01*
X025044Y031157D01*
X025191Y031157D01*
X025122Y031106D01*
X025060Y031045D01*
X025010Y030975D01*
X024970Y030898D01*
X024944Y030815D01*
X024930Y030730D01*
X024930Y030707D01*
X025460Y030707D01*
X025460Y030667D01*
X024930Y030667D01*
X024930Y030643D01*
X024944Y030558D01*
X024970Y030476D01*
X025010Y030398D01*
X025060Y030328D01*
X025122Y030267D01*
X025192Y030216D01*
X025269Y030177D01*
X025274Y030175D01*
X017621Y030175D01*
X017463Y030017D02*
X025061Y030017D01*
X025031Y029987D02*
X024950Y029792D01*
X024950Y029581D01*
X025031Y029386D01*
X025180Y029237D01*
X025302Y029187D01*
X025180Y029136D01*
X025031Y028987D01*
X024950Y028792D01*
X024950Y028581D01*
X025031Y028386D01*
X025180Y028237D01*
X025302Y028187D01*
X025180Y028136D01*
X025031Y027987D01*
X024950Y027792D01*
X024950Y027581D01*
X025031Y027386D01*
X025180Y027237D01*
X025302Y027187D01*
X025180Y027136D01*
X025031Y026987D01*
X024950Y026792D01*
X024950Y026581D01*
X025031Y026386D01*
X025180Y026237D01*
X025302Y026187D01*
X025180Y026136D01*
X025031Y025987D01*
X025006Y025927D01*
X024932Y025927D01*
X024844Y025890D01*
X023844Y024890D01*
X023777Y024823D01*
X023740Y024734D01*
X023740Y021739D01*
X023777Y021651D01*
X023844Y021583D01*
X023844Y021583D01*
X024177Y021251D01*
X024177Y021251D01*
X024244Y021183D01*
X024332Y021147D01*
X031428Y021147D01*
X031516Y021183D01*
X032779Y022447D01*
X034428Y022447D01*
X034516Y022483D01*
X034716Y022683D01*
X034783Y022751D01*
X034820Y022839D01*
X034820Y024134D01*
X034783Y024223D01*
X034050Y024956D01*
X034060Y024981D01*
X034060Y025192D01*
X033979Y025387D01*
X033830Y025536D01*
X033658Y025607D01*
X033730Y025637D01*
X033879Y025786D01*
X033960Y025981D01*
X033960Y026192D01*
X033879Y026387D01*
X033730Y026536D01*
X033729Y026537D01*
X033924Y026537D01*
X033969Y026549D01*
X034011Y026573D01*
X034044Y026606D01*
X034068Y026647D01*
X034080Y026693D01*
X034080Y027067D01*
X033550Y027067D01*
X033550Y027107D01*
X033510Y027107D01*
X033510Y027637D01*
X033136Y027637D01*
X033091Y027624D01*
X033049Y027601D01*
X033016Y027567D01*
X032992Y027526D01*
X032980Y027480D01*
X032980Y027107D01*
X033510Y027107D01*
X033510Y027067D01*
X032980Y027067D01*
X032980Y026693D01*
X032992Y026647D01*
X033016Y026606D01*
X033049Y026573D01*
X033091Y026549D01*
X033133Y026537D01*
X033130Y026536D01*
X032981Y026387D01*
X032900Y026192D01*
X032900Y025981D01*
X032981Y025786D01*
X033130Y025637D01*
X033302Y025566D01*
X033230Y025536D01*
X033081Y025387D01*
X033000Y025192D01*
X033000Y024981D01*
X033081Y024786D01*
X027010Y024786D01*
X027010Y024792D02*
X026929Y024987D01*
X026780Y025136D01*
X026658Y025187D01*
X026780Y025237D01*
X026929Y025386D01*
X027010Y025581D01*
X027010Y025792D01*
X026929Y025987D01*
X026780Y026136D01*
X026658Y026187D01*
X026780Y026237D01*
X026929Y026386D01*
X027010Y026581D01*
X027010Y026792D01*
X026929Y026987D01*
X026780Y027136D01*
X026658Y027187D01*
X026780Y027237D01*
X026929Y027386D01*
X027010Y027581D01*
X027010Y027792D01*
X026929Y027987D01*
X026780Y028136D01*
X026658Y028187D01*
X026780Y028237D01*
X026929Y028386D01*
X027010Y028581D01*
X027010Y028792D01*
X026929Y028987D01*
X026780Y029136D01*
X026658Y029187D01*
X026780Y029237D01*
X026929Y029386D01*
X027010Y029581D01*
X027010Y029792D01*
X026929Y029987D01*
X026780Y030136D01*
X026658Y030187D01*
X026780Y030237D01*
X026929Y030386D01*
X027010Y030581D01*
X027010Y030792D01*
X026929Y030987D01*
X026780Y031136D01*
X026730Y031157D01*
X026916Y031157D01*
X027010Y031250D01*
X027010Y032123D01*
X026916Y032217D01*
X026044Y032217D01*
X025980Y032153D01*
X025916Y032217D01*
X025044Y032217D01*
X024950Y032123D01*
X024950Y032007D01*
X018616Y032007D01*
X018499Y031958D01*
X016499Y029958D01*
X016409Y029868D01*
X016360Y029750D01*
X016360Y005319D01*
X013847Y002807D01*
X010010Y002807D01*
X010010Y002923D01*
X009916Y003017D01*
X009769Y003017D01*
X009838Y003067D01*
X009900Y003128D01*
X009950Y003198D01*
X009990Y003276D01*
X010016Y003358D01*
X010030Y003443D01*
X010030Y003467D01*
X009500Y003467D01*
X009500Y003507D01*
X010030Y003507D01*
X010030Y003530D01*
X010016Y003615D01*
X009990Y003698D01*
X009950Y003775D01*
X009900Y003845D01*
X009838Y003906D01*
X009768Y003957D01*
X009691Y003996D01*
X009686Y003998D01*
X009780Y004037D01*
X009929Y004186D01*
X010010Y004381D01*
X010010Y004592D01*
X009929Y004787D01*
X009780Y004936D01*
X009658Y004987D01*
X009780Y005037D01*
X009929Y005186D01*
X010010Y005381D01*
X010010Y005592D01*
X009929Y005787D01*
X009780Y005936D01*
X009658Y005987D01*
X009780Y006037D01*
X009929Y006186D01*
X010010Y006381D01*
X010010Y006592D01*
X009929Y006787D01*
X009780Y006936D01*
X009658Y006987D01*
X009780Y007037D01*
X009929Y007186D01*
X010010Y007381D01*
X010010Y007592D01*
X009929Y007787D01*
X009780Y007936D01*
X009658Y007987D01*
X009780Y008037D01*
X009929Y008186D01*
X010010Y008381D01*
X010010Y008592D01*
X009929Y008787D01*
X009780Y008936D01*
X009658Y008987D01*
X009780Y009037D01*
X009929Y009186D01*
X010010Y009381D01*
X010010Y009592D01*
X009929Y009787D01*
X009780Y009936D01*
X009658Y009987D01*
X009780Y010037D01*
X009929Y010186D01*
X010010Y010381D01*
X010010Y010592D01*
X009929Y010787D01*
X009780Y010936D01*
X009658Y010987D01*
X009780Y011037D01*
X009929Y011186D01*
X010010Y011381D01*
X010010Y011592D01*
X009929Y011787D01*
X009780Y011936D01*
X009585Y012017D01*
X009375Y012017D01*
X009180Y011936D01*
X009031Y011787D01*
X008980Y011665D01*
X008929Y011787D01*
X008780Y011936D01*
X008585Y012017D01*
X008375Y012017D01*
X008180Y011936D01*
X008031Y011787D01*
X007950Y011592D01*
X007950Y011381D01*
X008031Y011186D01*
X008180Y011037D01*
X008302Y010987D01*
X008180Y010936D01*
X008031Y010787D01*
X007950Y010592D01*
X007950Y010381D01*
X008031Y010186D01*
X008180Y010037D01*
X008302Y009987D01*
X008180Y009936D01*
X008031Y009787D01*
X007950Y009592D01*
X007950Y009381D01*
X008031Y009186D01*
X008180Y009037D01*
X008302Y008987D01*
X008180Y008936D01*
X008031Y008787D01*
X007950Y008592D01*
X007950Y008381D01*
X008031Y008186D01*
X008180Y008037D01*
X008302Y007987D01*
X008180Y007936D01*
X008031Y007787D01*
X007950Y007592D01*
X007950Y007381D01*
X008031Y007186D01*
X008180Y007037D01*
X008302Y006987D01*
X008180Y006936D01*
X008031Y006787D01*
X007950Y006592D01*
X007950Y006381D01*
X008031Y006186D01*
X008180Y006037D01*
X008302Y005987D01*
X008180Y005936D01*
X008031Y005787D01*
X007950Y005592D01*
X007950Y005381D01*
X008031Y005186D01*
X008180Y005037D01*
X008302Y004987D01*
X008085Y005132D02*
X003059Y005132D01*
X003068Y005147D02*
X003080Y005193D01*
X003080Y005567D01*
X002550Y005567D01*
X002550Y005037D01*
X002924Y005037D01*
X002969Y005049D01*
X003011Y005073D01*
X003044Y005106D01*
X003068Y005147D01*
X003080Y005291D02*
X007988Y005291D01*
X007950Y005449D02*
X003080Y005449D01*
X003080Y005608D02*
X007956Y005608D01*
X008022Y005766D02*
X003080Y005766D01*
X003080Y005925D02*
X008168Y005925D01*
X008134Y006083D02*
X003028Y006083D01*
X003035Y006242D02*
X008008Y006242D01*
X007950Y006400D02*
X003126Y006400D01*
X003160Y006559D02*
X007950Y006559D01*
X008002Y006717D02*
X003150Y006717D01*
X003084Y006876D02*
X008119Y006876D01*
X008187Y007034D02*
X002932Y007034D01*
X002886Y007193D02*
X008028Y007193D01*
X007962Y007351D02*
X003006Y007351D01*
X003280Y007687D02*
X002680Y007687D01*
X002580Y007587D01*
X002940Y007927D02*
X002830Y008036D01*
X002758Y008066D01*
X002930Y008137D01*
X003079Y008286D01*
X003160Y008481D01*
X003160Y008692D01*
X003079Y008887D01*
X002930Y009036D01*
X002735Y009117D01*
X002525Y009117D01*
X002429Y009077D01*
X002269Y009237D01*
X002510Y009237D01*
X002510Y009767D01*
X001980Y009767D01*
X001980Y009526D01*
X001520Y009986D01*
X001520Y013507D01*
X002110Y012917D01*
X002100Y012892D01*
X002100Y012681D01*
X002181Y012486D01*
X002330Y012337D01*
X002402Y012307D01*
X002230Y012236D01*
X002081Y012087D01*
X002000Y011892D01*
X002000Y011681D01*
X002081Y011486D01*
X002230Y011337D01*
X002402Y011266D01*
X002330Y011236D01*
X002181Y011087D01*
X002100Y010892D01*
X002100Y010681D01*
X002181Y010486D01*
X002330Y010337D01*
X002331Y010337D01*
X002136Y010337D01*
X002091Y010324D01*
X002049Y010301D01*
X002016Y010267D01*
X001992Y010226D01*
X001980Y010180D01*
X001980Y009807D01*
X002510Y009807D01*
X002510Y009767D01*
X002550Y009767D01*
X002550Y009807D01*
X003080Y009807D01*
X003080Y010180D01*
X003068Y010226D01*
X003044Y010267D01*
X003011Y010301D01*
X002969Y010324D01*
X002927Y010336D01*
X002930Y010337D01*
X003079Y010486D01*
X003160Y010681D01*
X003160Y010892D01*
X003079Y011087D01*
X002930Y011236D01*
X002758Y011307D01*
X002830Y011337D01*
X002979Y011486D01*
X003046Y011647D01*
X003228Y011647D01*
X003316Y011683D01*
X003383Y011751D01*
X003540Y011907D01*
X003540Y008286D01*
X003181Y007927D01*
X002940Y007927D01*
X002881Y007985D02*
X003239Y007985D01*
X003398Y008144D02*
X002937Y008144D01*
X003086Y008302D02*
X003540Y008302D01*
X003540Y008461D02*
X003151Y008461D01*
X003160Y008619D02*
X003540Y008619D01*
X003540Y008778D02*
X003125Y008778D01*
X003030Y008936D02*
X003540Y008936D01*
X003540Y009095D02*
X002789Y009095D01*
X002924Y009237D02*
X002550Y009237D01*
X002550Y009767D01*
X003080Y009767D01*
X003080Y009393D01*
X003068Y009347D01*
X003044Y009306D01*
X003011Y009273D01*
X002969Y009249D01*
X002924Y009237D01*
X002977Y009253D02*
X003540Y009253D01*
X003540Y009412D02*
X003080Y009412D01*
X003080Y009570D02*
X003540Y009570D01*
X003540Y009729D02*
X003080Y009729D01*
X003080Y009887D02*
X003540Y009887D01*
X003540Y010046D02*
X003080Y010046D01*
X003074Y010204D02*
X003540Y010204D01*
X003540Y010363D02*
X002956Y010363D01*
X003094Y010521D02*
X003540Y010521D01*
X003540Y010680D02*
X003159Y010680D01*
X003160Y010838D02*
X003540Y010838D01*
X003540Y010997D02*
X003117Y010997D01*
X003011Y011155D02*
X003540Y011155D01*
X003540Y011314D02*
X002773Y011314D01*
X002965Y011472D02*
X003540Y011472D01*
X003540Y011631D02*
X003039Y011631D01*
X003180Y011887D02*
X002580Y011887D01*
X002480Y011787D01*
X002000Y011789D02*
X001520Y011789D01*
X001520Y011631D02*
X002021Y011631D01*
X002095Y011472D02*
X001520Y011472D01*
X001520Y011314D02*
X002287Y011314D01*
X002249Y011155D02*
X001520Y011155D01*
X001520Y010997D02*
X002143Y010997D01*
X002100Y010838D02*
X001520Y010838D01*
X001520Y010680D02*
X002101Y010680D01*
X002166Y010521D02*
X001520Y010521D01*
X001520Y010363D02*
X002304Y010363D01*
X001986Y010204D02*
X001520Y010204D01*
X001520Y010046D02*
X001980Y010046D01*
X001980Y009887D02*
X001619Y009887D01*
X001777Y009729D02*
X001980Y009729D01*
X001980Y009570D02*
X001936Y009570D01*
X001574Y009253D02*
X000800Y009253D01*
X000800Y009095D02*
X001733Y009095D01*
X001891Y008936D02*
X000800Y008936D01*
X000800Y008778D02*
X002050Y008778D01*
X002100Y008619D02*
X000800Y008619D01*
X000800Y008461D02*
X002109Y008461D01*
X002411Y009095D02*
X002471Y009095D01*
X002510Y009253D02*
X002550Y009253D01*
X002550Y009412D02*
X002510Y009412D01*
X002510Y009570D02*
X002550Y009570D01*
X002550Y009729D02*
X002510Y009729D01*
X001416Y009412D02*
X000800Y009412D01*
X000800Y009570D02*
X001257Y009570D01*
X001099Y009729D02*
X000800Y009729D01*
X000800Y009887D02*
X001040Y009887D01*
X001040Y010046D02*
X000800Y010046D01*
X000800Y010204D02*
X001040Y010204D01*
X001040Y010363D02*
X000800Y010363D01*
X000800Y010521D02*
X001040Y010521D01*
X001040Y010680D02*
X000800Y010680D01*
X000800Y010838D02*
X001040Y010838D01*
X001040Y010997D02*
X000800Y010997D01*
X000800Y011155D02*
X001040Y011155D01*
X001040Y011314D02*
X000800Y011314D01*
X000800Y011472D02*
X001040Y011472D01*
X001040Y011631D02*
X000800Y011631D01*
X000800Y011789D02*
X001040Y011789D01*
X001040Y011948D02*
X000800Y011948D01*
X000800Y012106D02*
X001040Y012106D01*
X001040Y012265D02*
X000800Y012265D01*
X000800Y012423D02*
X001040Y012423D01*
X001040Y012582D02*
X000800Y012582D01*
X000800Y012740D02*
X001040Y012740D01*
X001040Y012899D02*
X000800Y012899D01*
X000800Y013057D02*
X001040Y013057D01*
X001040Y013216D02*
X000800Y013216D01*
X000800Y013374D02*
X001040Y013374D01*
X001040Y013533D02*
X000800Y013533D01*
X000800Y013691D02*
X001040Y013691D01*
X001040Y013850D02*
X000800Y013850D01*
X000800Y014008D02*
X001040Y014008D01*
X001040Y014167D02*
X000800Y014167D01*
X000800Y014325D02*
X001040Y014325D01*
X001040Y014484D02*
X000800Y014484D01*
X000800Y014642D02*
X001040Y014642D01*
X001040Y014801D02*
X000800Y014801D01*
X000800Y014959D02*
X001040Y014959D01*
X001040Y015118D02*
X000800Y015118D01*
X000800Y015276D02*
X001040Y015276D01*
X001040Y015435D02*
X000800Y015435D01*
X000800Y015593D02*
X001040Y015593D01*
X001040Y015752D02*
X000800Y015752D01*
X000800Y015910D02*
X001040Y015910D01*
X001040Y016069D02*
X000800Y016069D01*
X000800Y016227D02*
X001040Y016227D01*
X001040Y016386D02*
X000800Y016386D01*
X000800Y016544D02*
X001040Y016544D01*
X001040Y016703D02*
X000800Y016703D01*
X000800Y016861D02*
X001040Y016861D01*
X001040Y017020D02*
X000800Y017020D01*
X000800Y017178D02*
X001040Y017178D01*
X001040Y017337D02*
X000800Y017337D01*
X000800Y017495D02*
X001040Y017495D01*
X001040Y017654D02*
X000800Y017654D01*
X000800Y017812D02*
X001040Y017812D01*
X001040Y017971D02*
X000800Y017971D01*
X000800Y018129D02*
X001040Y018129D01*
X001040Y018288D02*
X000800Y018288D01*
X000800Y018446D02*
X001040Y018446D01*
X001040Y018605D02*
X000800Y018605D01*
X000800Y018763D02*
X001040Y018763D01*
X001040Y018922D02*
X000800Y018922D01*
X000800Y019080D02*
X001040Y019080D01*
X001040Y019239D02*
X000800Y019239D01*
X000800Y019397D02*
X001040Y019397D01*
X001040Y019556D02*
X000800Y019556D01*
X000800Y019714D02*
X001040Y019714D01*
X001040Y019873D02*
X000800Y019873D01*
X000800Y020031D02*
X001040Y020031D01*
X001040Y020190D02*
X000800Y020190D01*
X000800Y020348D02*
X001040Y020348D01*
X001040Y020507D02*
X000800Y020507D01*
X000800Y020665D02*
X001040Y020665D01*
X001040Y020824D02*
X000800Y020824D01*
X000800Y020982D02*
X001040Y020982D01*
X001095Y021141D02*
X000800Y021141D01*
X000800Y021299D02*
X001253Y021299D01*
X000800Y021458D02*
X002169Y021458D01*
X002310Y021616D02*
X000800Y021616D01*
X000800Y021775D02*
X007053Y021775D01*
X007211Y021616D02*
X004553Y021616D01*
X004480Y021387D02*
X002880Y021387D01*
X003160Y021141D02*
X004387Y021141D01*
X004545Y020982D02*
X003119Y020982D01*
X003017Y020824D02*
X004704Y020824D01*
X004862Y020665D02*
X002760Y020665D01*
X002402Y020707D02*
X002230Y020636D01*
X002081Y020487D01*
X002000Y020292D01*
X002000Y020081D01*
X002081Y019886D01*
X002230Y019737D01*
X002402Y019666D01*
X002330Y019636D01*
X002181Y019487D01*
X002100Y019292D01*
X002100Y019081D01*
X002181Y018886D01*
X002330Y018737D01*
X002331Y018737D01*
X002136Y018737D01*
X002091Y018724D01*
X002049Y018701D01*
X002016Y018667D01*
X001992Y018626D01*
X001980Y018580D01*
X001980Y018207D01*
X002510Y018207D01*
X002510Y018167D01*
X001980Y018167D01*
X001980Y017926D01*
X001520Y018386D01*
X001520Y020887D01*
X001579Y020947D01*
X002156Y020947D01*
X002181Y020886D01*
X002330Y020737D01*
X002402Y020707D01*
X002300Y020665D02*
X001520Y020665D01*
X001520Y020507D02*
X002100Y020507D01*
X002023Y020348D02*
X001520Y020348D01*
X001520Y020190D02*
X002000Y020190D01*
X002021Y020031D02*
X001520Y020031D01*
X001520Y019873D02*
X002094Y019873D01*
X002286Y019714D02*
X001520Y019714D01*
X001520Y019556D02*
X002249Y019556D01*
X002144Y019397D02*
X001520Y019397D01*
X001520Y019239D02*
X002100Y019239D01*
X002100Y019080D02*
X001520Y019080D01*
X001520Y018922D02*
X002166Y018922D01*
X002304Y018763D02*
X001520Y018763D01*
X001520Y018605D02*
X001987Y018605D01*
X001980Y018446D02*
X001520Y018446D01*
X001618Y018288D02*
X001980Y018288D01*
X001980Y018129D02*
X001777Y018129D01*
X001935Y017971D02*
X001980Y017971D01*
X002269Y017637D02*
X002510Y017637D01*
X002510Y018167D01*
X002550Y018167D01*
X002550Y018207D01*
X003080Y018207D01*
X003080Y018580D01*
X003068Y018626D01*
X003044Y018667D01*
X003011Y018701D01*
X002969Y018724D01*
X002927Y018736D01*
X002930Y018737D01*
X003079Y018886D01*
X003160Y019081D01*
X003160Y019292D01*
X003079Y019487D01*
X002930Y019636D01*
X002758Y019707D01*
X002830Y019737D01*
X002979Y019886D01*
X003046Y020047D01*
X003981Y020047D01*
X004840Y019187D01*
X004840Y019086D01*
X004544Y018790D01*
X004477Y018723D01*
X004440Y018634D01*
X004440Y017086D01*
X003681Y016327D01*
X002940Y016327D01*
X002830Y016436D01*
X002758Y016466D01*
X002930Y016537D01*
X003079Y016686D01*
X003160Y016881D01*
X003160Y017092D01*
X003079Y017287D01*
X002930Y017436D01*
X002735Y017517D01*
X002525Y017517D01*
X002429Y017477D01*
X002269Y017637D01*
X002411Y017495D02*
X002473Y017495D01*
X002550Y017637D02*
X002924Y017637D01*
X002969Y017649D01*
X003011Y017673D01*
X003044Y017706D01*
X003068Y017747D01*
X003080Y017793D01*
X003080Y018167D01*
X002550Y018167D01*
X002550Y017637D01*
X002550Y017654D02*
X002510Y017654D01*
X002510Y017812D02*
X002550Y017812D01*
X002550Y017971D02*
X002510Y017971D01*
X002510Y018129D02*
X002550Y018129D01*
X003080Y018129D02*
X004440Y018129D01*
X004440Y017971D02*
X003080Y017971D01*
X003080Y017812D02*
X004440Y017812D01*
X004440Y017654D02*
X002978Y017654D01*
X002787Y017495D02*
X004440Y017495D01*
X004440Y017337D02*
X003030Y017337D01*
X003124Y017178D02*
X004440Y017178D01*
X004374Y017020D02*
X003160Y017020D01*
X003152Y016861D02*
X004215Y016861D01*
X004057Y016703D02*
X003086Y016703D01*
X002937Y016544D02*
X003898Y016544D01*
X003740Y016386D02*
X002881Y016386D01*
X002680Y016087D02*
X002580Y015987D01*
X002680Y016087D02*
X003780Y016087D01*
X004680Y016987D01*
X004680Y018587D01*
X005080Y018987D01*
X005080Y019187D01*
X005180Y019187D02*
X004080Y020287D01*
X002580Y020287D01*
X003039Y020031D02*
X003996Y020031D01*
X004155Y019873D02*
X002966Y019873D01*
X002774Y019714D02*
X004313Y019714D01*
X004472Y019556D02*
X003011Y019556D01*
X003116Y019397D02*
X004630Y019397D01*
X004789Y019239D02*
X003160Y019239D01*
X003160Y019080D02*
X004834Y019080D01*
X004676Y018922D02*
X003094Y018922D01*
X002956Y018763D02*
X004517Y018763D01*
X004440Y018605D02*
X003073Y018605D01*
X003080Y018446D02*
X004440Y018446D01*
X004440Y018288D02*
X003080Y018288D01*
X002580Y016987D02*
X001280Y018287D01*
X001520Y017707D02*
X001520Y014186D01*
X001980Y013726D01*
X001980Y013967D01*
X002510Y013967D01*
X002510Y014007D01*
X001980Y014007D01*
X001980Y014380D01*
X001992Y014426D01*
X002016Y014467D01*
X002049Y014501D01*
X002091Y014524D01*
X002136Y014537D01*
X002331Y014537D01*
X002330Y014537D01*
X002181Y014686D01*
X002100Y014881D01*
X002100Y015092D01*
X002181Y015287D01*
X002330Y015436D01*
X002402Y015466D01*
X002230Y015537D01*
X002081Y015686D01*
X002000Y015881D01*
X002000Y016092D01*
X002081Y016287D01*
X002230Y016436D01*
X002402Y016507D01*
X002330Y016537D01*
X002181Y016686D01*
X002100Y016881D01*
X002100Y017092D01*
X002110Y017117D01*
X001520Y017707D01*
X001520Y017654D02*
X001574Y017654D01*
X001520Y017495D02*
X001732Y017495D01*
X001891Y017337D02*
X001520Y017337D01*
X001520Y017178D02*
X002049Y017178D01*
X002100Y017020D02*
X001520Y017020D01*
X001520Y016861D02*
X002108Y016861D01*
X002174Y016703D02*
X001520Y016703D01*
X001520Y016544D02*
X002323Y016544D01*
X002179Y016386D02*
X001520Y016386D01*
X001520Y016227D02*
X002056Y016227D01*
X002000Y016069D02*
X001520Y016069D01*
X001520Y015910D02*
X002000Y015910D01*
X002054Y015752D02*
X001520Y015752D01*
X001520Y015593D02*
X002174Y015593D01*
X002328Y015435D02*
X001520Y015435D01*
X001520Y015276D02*
X002176Y015276D01*
X002111Y015118D02*
X001520Y015118D01*
X001520Y014959D02*
X002100Y014959D01*
X002133Y014801D02*
X001520Y014801D01*
X001520Y014642D02*
X002225Y014642D01*
X002032Y014484D02*
X001520Y014484D01*
X001520Y014325D02*
X001980Y014325D01*
X001980Y014167D02*
X001539Y014167D01*
X001698Y014008D02*
X001980Y014008D01*
X001980Y013850D02*
X001856Y013850D01*
X001653Y013374D02*
X001520Y013374D01*
X001520Y013216D02*
X001812Y013216D01*
X001970Y013057D02*
X001520Y013057D01*
X001520Y012899D02*
X002103Y012899D01*
X002100Y012740D02*
X001520Y012740D01*
X001520Y012582D02*
X002141Y012582D01*
X002244Y012423D02*
X001520Y012423D01*
X001520Y012265D02*
X002299Y012265D01*
X002100Y012106D02*
X001520Y012106D01*
X001520Y011948D02*
X002023Y011948D01*
X002758Y012266D02*
X002930Y012337D01*
X003079Y012486D01*
X003160Y012681D01*
X003160Y012892D01*
X003079Y013087D01*
X002930Y013236D01*
X002735Y013317D01*
X002525Y013317D01*
X002429Y013277D01*
X002269Y013437D01*
X002510Y013437D01*
X002510Y013967D01*
X002550Y013967D01*
X002550Y014007D01*
X003080Y014007D01*
X003080Y014380D01*
X003068Y014426D01*
X003044Y014467D01*
X003011Y014501D01*
X002969Y014524D01*
X002927Y014536D01*
X002930Y014537D01*
X003079Y014686D01*
X003160Y014881D01*
X003160Y015092D01*
X003079Y015287D01*
X002930Y015436D01*
X002758Y015507D01*
X002830Y015537D01*
X002979Y015686D01*
X003046Y015847D01*
X003540Y015847D01*
X003540Y012586D01*
X003081Y012127D01*
X002940Y012127D01*
X002830Y012236D01*
X002758Y012266D01*
X002761Y012265D02*
X003219Y012265D01*
X003377Y012423D02*
X003016Y012423D01*
X003119Y012582D02*
X003536Y012582D01*
X003540Y012740D02*
X003160Y012740D01*
X003157Y012899D02*
X003540Y012899D01*
X003540Y013057D02*
X003092Y013057D01*
X002951Y013216D02*
X003540Y013216D01*
X003540Y013374D02*
X002332Y013374D01*
X002550Y013437D02*
X002550Y013967D01*
X003080Y013967D01*
X003080Y013593D01*
X003068Y013547D01*
X003044Y013506D01*
X003011Y013473D01*
X002969Y013449D01*
X002924Y013437D01*
X002550Y013437D01*
X002550Y013533D02*
X002510Y013533D01*
X002510Y013691D02*
X002550Y013691D01*
X002550Y013850D02*
X002510Y013850D01*
X003080Y013850D02*
X003540Y013850D01*
X003540Y014008D02*
X003080Y014008D01*
X003080Y014167D02*
X003540Y014167D01*
X003540Y014325D02*
X003080Y014325D01*
X003028Y014484D02*
X003540Y014484D01*
X003540Y014642D02*
X003035Y014642D01*
X003127Y014801D02*
X003540Y014801D01*
X003540Y014959D02*
X003160Y014959D01*
X003149Y015118D02*
X003540Y015118D01*
X003540Y015276D02*
X003084Y015276D01*
X002932Y015435D02*
X003540Y015435D01*
X003540Y015593D02*
X002886Y015593D01*
X003006Y015752D02*
X003540Y015752D01*
X003780Y015987D02*
X003780Y012487D01*
X003780Y008187D01*
X003280Y007687D01*
X003442Y007510D02*
X007950Y007510D01*
X007982Y007668D02*
X003601Y007668D01*
X003759Y007827D02*
X008070Y007827D01*
X008299Y007985D02*
X003918Y007985D01*
X004020Y008144D02*
X008073Y008144D01*
X007983Y008302D02*
X004020Y008302D01*
X004020Y008461D02*
X007950Y008461D01*
X007961Y008619D02*
X004020Y008619D01*
X004020Y008778D02*
X008027Y008778D01*
X008180Y008936D02*
X004020Y008936D01*
X004020Y009095D02*
X008122Y009095D01*
X008003Y009253D02*
X004020Y009253D01*
X004020Y009412D02*
X007950Y009412D01*
X007950Y009570D02*
X004020Y009570D01*
X004020Y009729D02*
X008007Y009729D01*
X008131Y009887D02*
X004020Y009887D01*
X004020Y010046D02*
X008171Y010046D01*
X008023Y010204D02*
X004020Y010204D01*
X004020Y010363D02*
X007958Y010363D01*
X007950Y010521D02*
X004020Y010521D01*
X004020Y010680D02*
X007986Y010680D01*
X008082Y010838D02*
X004020Y010838D01*
X004020Y010997D02*
X008278Y010997D01*
X008062Y011155D02*
X004020Y011155D01*
X004020Y011314D02*
X007978Y011314D01*
X007950Y011472D02*
X004020Y011472D01*
X004020Y011631D02*
X007966Y011631D01*
X008033Y011789D02*
X004020Y011789D01*
X004020Y011948D02*
X008208Y011948D01*
X008752Y011948D02*
X009208Y011948D01*
X009033Y011789D02*
X008927Y011789D01*
X009752Y011948D02*
X012440Y011948D01*
X012440Y012106D02*
X004020Y012106D01*
X004020Y012265D02*
X012440Y012265D01*
X012440Y012423D02*
X004020Y012423D01*
X004020Y012582D02*
X012440Y012582D01*
X012440Y012740D02*
X004020Y012740D01*
X004020Y012899D02*
X012440Y012899D01*
X012440Y013057D02*
X004020Y013057D01*
X004020Y013216D02*
X012440Y013216D01*
X012440Y013374D02*
X004020Y013374D01*
X004020Y013533D02*
X012440Y013533D01*
X012440Y013691D02*
X004020Y013691D01*
X004020Y013850D02*
X012504Y013850D01*
X012477Y013823D02*
X012440Y013734D01*
X012440Y004945D01*
X012416Y004945D01*
X012322Y004851D01*
X012322Y004322D01*
X012416Y004229D01*
X012944Y004229D01*
X013038Y004322D01*
X013038Y004851D01*
X012944Y004945D01*
X012920Y004945D01*
X012920Y013587D01*
X014161Y014829D01*
X014444Y014829D01*
X014538Y014922D01*
X014538Y015451D01*
X014444Y015545D01*
X013916Y015545D01*
X013822Y015451D01*
X013822Y015168D01*
X012477Y013823D01*
X012680Y013687D02*
X014180Y015187D01*
X014538Y015118D02*
X016360Y015118D01*
X016360Y015276D02*
X014538Y015276D01*
X014538Y015435D02*
X016360Y015435D01*
X016360Y015593D02*
X004020Y015593D01*
X004020Y015435D02*
X013822Y015435D01*
X013822Y015276D02*
X004020Y015276D01*
X004020Y015118D02*
X013772Y015118D01*
X013613Y014959D02*
X004020Y014959D01*
X004020Y014801D02*
X013455Y014801D01*
X013296Y014642D02*
X004020Y014642D01*
X004020Y014484D02*
X013138Y014484D01*
X012979Y014325D02*
X004020Y014325D01*
X004020Y014167D02*
X012821Y014167D01*
X012662Y014008D02*
X004020Y014008D01*
X003540Y013691D02*
X003080Y013691D01*
X003059Y013533D02*
X003540Y013533D01*
X003780Y012487D02*
X003180Y011887D01*
X003422Y011789D02*
X003540Y011789D01*
X002580Y012787D02*
X001280Y014087D01*
X004020Y015752D02*
X016360Y015752D01*
X016360Y015910D02*
X004020Y015910D01*
X004101Y016069D02*
X016360Y016069D01*
X016360Y016227D02*
X004260Y016227D01*
X004418Y016386D02*
X016360Y016386D01*
X016360Y016544D02*
X009138Y016544D01*
X009138Y016703D02*
X016360Y016703D01*
X016360Y016861D02*
X009138Y016861D01*
X009138Y017020D02*
X016360Y017020D01*
X016360Y017178D02*
X009020Y017178D01*
X009020Y017337D02*
X016360Y017337D01*
X016360Y017495D02*
X009020Y017495D01*
X009020Y017654D02*
X016360Y017654D01*
X016360Y017812D02*
X009020Y017812D01*
X009020Y017971D02*
X016360Y017971D01*
X016360Y018129D02*
X009020Y018129D01*
X009020Y018288D02*
X011856Y018288D01*
X011822Y018446D02*
X009020Y018446D01*
X009020Y018605D02*
X011822Y018605D01*
X011822Y018763D02*
X009020Y018763D01*
X009020Y018922D02*
X011893Y018922D01*
X011940Y019080D02*
X009020Y019080D01*
X009020Y019239D02*
X011940Y019239D01*
X011940Y019397D02*
X009020Y019397D01*
X009020Y019556D02*
X011940Y019556D01*
X011940Y019714D02*
X009020Y019714D01*
X009020Y019873D02*
X011940Y019873D01*
X011940Y020031D02*
X009020Y020031D01*
X009020Y020190D02*
X011940Y020190D01*
X011940Y020348D02*
X009020Y020348D01*
X008990Y020507D02*
X011940Y020507D01*
X011940Y020665D02*
X008841Y020665D01*
X008682Y020824D02*
X011940Y020824D01*
X011940Y020982D02*
X008524Y020982D01*
X008365Y021141D02*
X011940Y021141D01*
X011940Y021299D02*
X008207Y021299D01*
X008048Y021458D02*
X011940Y021458D01*
X011940Y021616D02*
X007890Y021616D01*
X007731Y021775D02*
X011940Y021775D01*
X011940Y021933D02*
X007573Y021933D01*
X007370Y021458D02*
X004748Y021458D01*
X004907Y021299D02*
X007528Y021299D01*
X007687Y021141D02*
X005065Y021141D01*
X005224Y020982D02*
X007845Y020982D01*
X008004Y020824D02*
X005382Y020824D01*
X005541Y020665D02*
X008162Y020665D01*
X008321Y020507D02*
X005699Y020507D01*
X005858Y020348D02*
X008479Y020348D01*
X008540Y020190D02*
X006016Y020190D01*
X006175Y020031D02*
X008540Y020031D01*
X008540Y019873D02*
X006333Y019873D01*
X006492Y019714D02*
X008540Y019714D01*
X008540Y019556D02*
X006650Y019556D01*
X006809Y019397D02*
X008540Y019397D01*
X008540Y019239D02*
X006967Y019239D01*
X007126Y019080D02*
X008540Y019080D01*
X008540Y018922D02*
X007338Y018922D01*
X007338Y018763D02*
X008540Y018763D01*
X008540Y018605D02*
X007338Y018605D01*
X007338Y018446D02*
X008540Y018446D01*
X008540Y018288D02*
X004920Y018288D01*
X004920Y018446D02*
X006622Y018446D01*
X006622Y018605D02*
X005037Y018605D01*
X005196Y018763D02*
X006622Y018763D01*
X006606Y018922D02*
X006038Y018922D01*
X006038Y019080D02*
X006447Y019080D01*
X006289Y019239D02*
X006038Y019239D01*
X006038Y019397D02*
X006130Y019397D01*
X005972Y019556D02*
X005150Y019556D01*
X004992Y019714D02*
X005813Y019714D01*
X005655Y019873D02*
X004833Y019873D01*
X004675Y020031D02*
X005496Y020031D01*
X005338Y020190D02*
X004516Y020190D01*
X004358Y020348D02*
X005179Y020348D01*
X005021Y020507D02*
X004176Y020507D01*
X004480Y021387D02*
X006980Y018887D01*
X006980Y018687D01*
X005680Y019187D02*
X005180Y019187D01*
X005313Y018922D02*
X005322Y018922D01*
X004920Y018129D02*
X008540Y018129D01*
X008540Y017971D02*
X004920Y017971D01*
X004920Y017812D02*
X008540Y017812D01*
X008540Y017654D02*
X004920Y017654D01*
X004920Y017495D02*
X008540Y017495D01*
X008540Y017337D02*
X004920Y017337D01*
X004920Y017178D02*
X008540Y017178D01*
X008422Y017020D02*
X004920Y017020D01*
X004888Y016861D02*
X008422Y016861D01*
X008422Y016703D02*
X004735Y016703D01*
X004577Y016544D02*
X008422Y016544D01*
X008780Y016787D02*
X008780Y020387D01*
X006880Y022287D01*
X006880Y024087D01*
X008480Y025687D01*
X008098Y026054D02*
X007720Y026054D01*
X007720Y025896D02*
X007993Y025896D01*
X007950Y025737D02*
X007670Y025737D01*
X007511Y025579D02*
X007951Y025579D01*
X007874Y025420D02*
X007353Y025420D01*
X007194Y025262D02*
X007716Y025262D01*
X007480Y025887D02*
X006580Y024987D01*
X006480Y025387D02*
X007080Y025987D01*
X007080Y027587D01*
X007580Y028087D01*
X007780Y028287D01*
X008180Y028687D01*
X008480Y028687D01*
X008110Y029066D02*
X007798Y029066D01*
X007640Y028907D02*
X007998Y028907D01*
X007903Y028749D02*
X007433Y028749D01*
X007380Y028987D02*
X002980Y028987D01*
X002580Y028587D01*
X003060Y028590D02*
X007744Y028590D01*
X007586Y028432D02*
X003039Y028432D01*
X002966Y028273D02*
X007427Y028273D01*
X007269Y028115D02*
X002776Y028115D01*
X003010Y027956D02*
X007110Y027956D01*
X006952Y027798D02*
X003116Y027798D01*
X003160Y027639D02*
X006842Y027639D01*
X006840Y027481D02*
X003160Y027481D01*
X003094Y027322D02*
X006840Y027322D01*
X006840Y027164D02*
X002957Y027164D01*
X003073Y027005D02*
X006840Y027005D01*
X006840Y026847D02*
X003080Y026847D01*
X003080Y026688D02*
X006840Y026688D01*
X006840Y026530D02*
X003080Y026530D01*
X003080Y026371D02*
X006840Y026371D01*
X006840Y026213D02*
X003080Y026213D01*
X002979Y026054D02*
X006808Y026054D01*
X006650Y025896D02*
X002786Y025896D01*
X002550Y026054D02*
X002510Y026054D01*
X002510Y026213D02*
X002550Y026213D01*
X002550Y026371D02*
X002510Y026371D01*
X002510Y026530D02*
X002550Y026530D01*
X002474Y025896D02*
X000800Y025896D01*
X000800Y026054D02*
X002081Y026054D01*
X001980Y026213D02*
X000800Y026213D01*
X000800Y026371D02*
X001980Y026371D01*
X001980Y026530D02*
X000800Y026530D01*
X000800Y026688D02*
X001980Y026688D01*
X001980Y026847D02*
X000800Y026847D01*
X000800Y027005D02*
X001987Y027005D01*
X002303Y027164D02*
X000800Y027164D01*
X000800Y027322D02*
X002166Y027322D01*
X002100Y027481D02*
X000800Y027481D01*
X000800Y027639D02*
X002100Y027639D01*
X002144Y027798D02*
X000800Y027798D01*
X000800Y027956D02*
X002250Y027956D01*
X002284Y028115D02*
X000800Y028115D01*
X000800Y028273D02*
X002094Y028273D01*
X002021Y028432D02*
X000800Y028432D01*
X000800Y028590D02*
X002000Y028590D01*
X002023Y028749D02*
X000800Y028749D01*
X000800Y028907D02*
X002101Y028907D01*
X002302Y029066D02*
X000800Y029066D01*
X000800Y029224D02*
X002243Y029224D01*
X002141Y029383D02*
X000800Y029383D01*
X000800Y029541D02*
X002100Y029541D01*
X002103Y029700D02*
X000800Y029700D01*
X000800Y029858D02*
X002169Y029858D01*
X002311Y030017D02*
X000800Y030017D01*
X000800Y030175D02*
X007629Y030175D01*
X007471Y030017D02*
X002949Y030017D01*
X003091Y029858D02*
X007312Y029858D01*
X007380Y029587D02*
X008480Y030687D01*
X007950Y030651D02*
X000800Y030651D01*
X000800Y030809D02*
X007957Y030809D01*
X008023Y030968D02*
X000800Y030968D01*
X000800Y031126D02*
X008170Y031126D01*
X007932Y031285D02*
X000800Y031285D01*
X000800Y031443D02*
X007930Y031443D01*
X007930Y031602D02*
X000800Y031602D01*
X000800Y031760D02*
X007930Y031760D01*
X007930Y031919D02*
X000800Y031919D01*
X000800Y032077D02*
X007930Y032077D01*
X008083Y032236D02*
X000800Y032236D01*
X000800Y032394D02*
X031140Y032394D01*
X031140Y032236D02*
X008877Y032236D01*
X008500Y032236D02*
X008460Y032236D01*
X008480Y032187D02*
X008480Y031687D01*
X007780Y031687D01*
X008460Y031760D02*
X008500Y031760D01*
X008500Y031919D02*
X008460Y031919D01*
X008460Y032077D02*
X008500Y032077D01*
X009790Y031126D02*
X017667Y031126D01*
X017508Y030968D02*
X009937Y030968D01*
X010003Y030809D02*
X017350Y030809D01*
X017191Y030651D02*
X010010Y030651D01*
X009973Y030492D02*
X017033Y030492D01*
X016874Y030334D02*
X009877Y030334D01*
X009686Y030175D02*
X016716Y030175D01*
X016557Y030017D02*
X009899Y030017D01*
X009983Y029858D02*
X016405Y029858D01*
X016360Y029700D02*
X010010Y029700D01*
X009993Y029541D02*
X016360Y029541D01*
X016360Y029383D02*
X009926Y029383D01*
X009748Y029224D02*
X016360Y029224D01*
X016360Y029066D02*
X009850Y029066D01*
X009480Y028687D02*
X012380Y028687D01*
X014580Y026487D01*
X014580Y018987D01*
X014938Y018922D02*
X016360Y018922D01*
X016360Y019080D02*
X014938Y019080D01*
X014938Y019239D02*
X016360Y019239D01*
X016360Y019397D02*
X014820Y019397D01*
X014820Y019556D02*
X016360Y019556D01*
X016360Y019714D02*
X014820Y019714D01*
X014820Y019873D02*
X016360Y019873D01*
X016360Y020031D02*
X014820Y020031D01*
X014820Y020190D02*
X016360Y020190D01*
X016360Y020348D02*
X014820Y020348D01*
X014820Y020507D02*
X016360Y020507D01*
X016360Y020665D02*
X014820Y020665D01*
X014820Y020824D02*
X016360Y020824D01*
X016360Y020982D02*
X014820Y020982D01*
X014820Y021141D02*
X016360Y021141D01*
X016360Y021299D02*
X014820Y021299D01*
X014820Y021458D02*
X016360Y021458D01*
X016360Y021616D02*
X014820Y021616D01*
X014820Y021775D02*
X016360Y021775D01*
X016360Y021933D02*
X014820Y021933D01*
X014820Y022092D02*
X016360Y022092D01*
X016360Y022250D02*
X014820Y022250D01*
X014820Y022409D02*
X016360Y022409D01*
X016360Y022567D02*
X014820Y022567D01*
X014820Y022726D02*
X016360Y022726D01*
X016360Y022884D02*
X014820Y022884D01*
X014820Y023043D02*
X016360Y023043D01*
X016360Y023201D02*
X014820Y023201D01*
X014820Y023360D02*
X016360Y023360D01*
X016360Y023518D02*
X014820Y023518D01*
X014820Y023677D02*
X016360Y023677D01*
X016360Y023835D02*
X014820Y023835D01*
X014820Y023994D02*
X016360Y023994D01*
X016360Y024152D02*
X014820Y024152D01*
X014820Y024311D02*
X016360Y024311D01*
X016360Y024469D02*
X014820Y024469D01*
X014820Y024628D02*
X016360Y024628D01*
X016360Y024786D02*
X014820Y024786D01*
X014820Y024945D02*
X016360Y024945D01*
X016360Y025103D02*
X014820Y025103D01*
X014820Y025262D02*
X016360Y025262D01*
X016360Y025420D02*
X014820Y025420D01*
X014820Y025579D02*
X016360Y025579D01*
X016360Y025737D02*
X014820Y025737D01*
X014820Y025896D02*
X016360Y025896D01*
X016360Y026054D02*
X014820Y026054D01*
X014820Y026213D02*
X016360Y026213D01*
X016360Y026371D02*
X014820Y026371D01*
X014820Y026530D02*
X016360Y026530D01*
X016360Y026688D02*
X014718Y026688D01*
X014559Y026847D02*
X016360Y026847D01*
X016360Y027005D02*
X014401Y027005D01*
X014242Y027164D02*
X016360Y027164D01*
X016360Y027322D02*
X014084Y027322D01*
X013925Y027481D02*
X016360Y027481D01*
X016360Y027639D02*
X013767Y027639D01*
X013608Y027798D02*
X016360Y027798D01*
X016360Y027956D02*
X013450Y027956D01*
X013291Y028115D02*
X016360Y028115D01*
X016360Y028273D02*
X013133Y028273D01*
X012974Y028432D02*
X016360Y028432D01*
X016360Y028590D02*
X012816Y028590D01*
X012657Y028749D02*
X016360Y028749D01*
X016360Y028907D02*
X012475Y028907D01*
X012296Y028432D02*
X009948Y028432D01*
X009816Y028273D02*
X012454Y028273D01*
X012613Y028115D02*
X009801Y028115D01*
X009942Y027956D02*
X012771Y027956D01*
X012930Y027798D02*
X011398Y027798D01*
X011567Y027639D02*
X013088Y027639D01*
X013247Y027481D02*
X011725Y027481D01*
X011884Y027322D02*
X013405Y027322D01*
X013564Y027164D02*
X012042Y027164D01*
X012201Y027005D02*
X013722Y027005D01*
X013881Y026847D02*
X012359Y026847D01*
X012420Y026688D02*
X014039Y026688D01*
X014198Y026530D02*
X012420Y026530D01*
X012420Y026371D02*
X014340Y026371D01*
X014340Y026213D02*
X012420Y026213D01*
X012420Y026054D02*
X014340Y026054D01*
X014340Y025896D02*
X012420Y025896D01*
X012420Y025737D02*
X014340Y025737D01*
X014340Y025579D02*
X012420Y025579D01*
X012420Y025420D02*
X014340Y025420D01*
X014340Y025262D02*
X012420Y025262D01*
X012420Y025103D02*
X014340Y025103D01*
X014340Y024945D02*
X012420Y024945D01*
X012420Y024786D02*
X014340Y024786D01*
X014340Y024628D02*
X012420Y024628D01*
X012420Y024469D02*
X014340Y024469D01*
X014340Y024311D02*
X012420Y024311D01*
X012420Y024152D02*
X014340Y024152D01*
X014340Y023994D02*
X012420Y023994D01*
X012420Y023835D02*
X014340Y023835D01*
X014340Y023677D02*
X012420Y023677D01*
X012420Y023518D02*
X014340Y023518D01*
X014340Y023360D02*
X012420Y023360D01*
X012420Y023201D02*
X014340Y023201D01*
X014340Y023043D02*
X012420Y023043D01*
X012420Y022884D02*
X014340Y022884D01*
X014340Y022726D02*
X012420Y022726D01*
X012420Y022567D02*
X014340Y022567D01*
X014340Y022409D02*
X012420Y022409D01*
X012420Y022250D02*
X014340Y022250D01*
X014340Y022092D02*
X012420Y022092D01*
X012420Y021933D02*
X014340Y021933D01*
X014340Y021775D02*
X012420Y021775D01*
X012420Y021616D02*
X014340Y021616D01*
X014340Y021458D02*
X012420Y021458D01*
X012420Y021299D02*
X014340Y021299D01*
X014340Y021141D02*
X012420Y021141D01*
X012420Y020982D02*
X014340Y020982D01*
X014340Y020824D02*
X012420Y020824D01*
X012420Y020665D02*
X014340Y020665D01*
X014340Y020507D02*
X012420Y020507D01*
X012420Y020348D02*
X014340Y020348D01*
X014340Y020190D02*
X012420Y020190D01*
X012420Y020031D02*
X014340Y020031D01*
X014340Y019873D02*
X012420Y019873D01*
X012420Y019714D02*
X014340Y019714D01*
X014340Y019556D02*
X012420Y019556D01*
X012420Y019397D02*
X014340Y019397D01*
X014222Y019239D02*
X012420Y019239D01*
X012420Y019080D02*
X014222Y019080D01*
X014222Y018922D02*
X012467Y018922D01*
X012538Y018763D02*
X014222Y018763D01*
X014938Y018763D02*
X016360Y018763D01*
X016360Y018605D02*
X012538Y018605D01*
X012538Y018446D02*
X016360Y018446D01*
X016360Y018288D02*
X012504Y018288D01*
X012180Y018587D02*
X012180Y026687D01*
X011280Y027587D01*
X009680Y027587D01*
X009480Y027787D01*
X009865Y027322D02*
X011205Y027322D01*
X011364Y027164D02*
X009713Y027164D01*
X009911Y027005D02*
X011522Y027005D01*
X011681Y026847D02*
X009987Y026847D01*
X010010Y026688D02*
X011839Y026688D01*
X011940Y026530D02*
X009989Y026530D01*
X009914Y026371D02*
X011940Y026371D01*
X011940Y026213D02*
X009721Y026213D01*
X009862Y026054D02*
X011940Y026054D01*
X011940Y025896D02*
X009967Y025896D01*
X010010Y025737D02*
X011940Y025737D01*
X011940Y025579D02*
X010009Y025579D01*
X009943Y025420D02*
X011940Y025420D01*
X011940Y025262D02*
X009805Y025262D01*
X009813Y025103D02*
X011940Y025103D01*
X011940Y024945D02*
X009947Y024945D01*
X010010Y024786D02*
X011940Y024786D01*
X011940Y024628D02*
X010010Y024628D01*
X009964Y024469D02*
X011940Y024469D01*
X011940Y024311D02*
X009854Y024311D01*
X009021Y022409D02*
X008939Y022409D01*
X008793Y022250D02*
X009167Y022250D01*
X006923Y024469D02*
X003060Y024469D01*
X003160Y024628D02*
X007082Y024628D01*
X006480Y025387D02*
X002680Y025387D01*
X003029Y025737D02*
X006491Y025737D01*
X007480Y025887D02*
X007480Y026387D01*
X007780Y026687D01*
X008480Y026687D01*
X008239Y026213D02*
X007720Y026213D01*
X007804Y026371D02*
X008046Y026371D01*
X007380Y028987D02*
X008080Y029687D01*
X008480Y029687D01*
X008212Y029224D02*
X007957Y029224D01*
X007380Y029587D02*
X002680Y029587D01*
X000800Y030334D02*
X007788Y030334D01*
X007946Y030492D02*
X000800Y030492D01*
X000800Y032553D02*
X031140Y032553D01*
X031140Y032711D02*
X000800Y032711D01*
X000800Y032870D02*
X031140Y032870D01*
X031140Y033028D02*
X000800Y033028D01*
X000800Y033187D02*
X031140Y033187D01*
X031140Y033345D02*
X000800Y033345D01*
X000800Y033504D02*
X031140Y033504D01*
X031140Y033629D02*
X031140Y030239D01*
X031177Y030151D01*
X031977Y029351D01*
X032044Y029283D01*
X032132Y029247D01*
X033014Y029247D01*
X033081Y029086D01*
X033230Y028937D01*
X033302Y028907D01*
X026962Y028907D01*
X027010Y028749D02*
X033043Y028749D01*
X032981Y028687D02*
X032900Y028492D01*
X032900Y028281D01*
X032981Y028086D01*
X033130Y027937D01*
X033325Y027857D01*
X033535Y027857D01*
X033730Y027937D01*
X033879Y028086D01*
X033960Y028281D01*
X033960Y028492D01*
X033879Y028687D01*
X033730Y028836D01*
X033658Y028866D01*
X033830Y028937D01*
X033979Y029086D01*
X034060Y029281D01*
X034060Y029492D01*
X033979Y029687D01*
X033830Y029836D01*
X033658Y029907D01*
X033730Y029937D01*
X033879Y030086D01*
X033960Y030281D01*
X033960Y030492D01*
X033879Y030687D01*
X033730Y030836D01*
X033729Y030837D01*
X033924Y030837D01*
X033969Y030849D01*
X034011Y030873D01*
X034044Y030906D01*
X034068Y030947D01*
X034080Y030993D01*
X034080Y031367D01*
X033550Y031367D01*
X033550Y031407D01*
X033510Y031407D01*
X033510Y031937D01*
X033136Y031937D01*
X033091Y031924D01*
X033049Y031901D01*
X033016Y031867D01*
X032992Y031826D01*
X032980Y031780D01*
X032980Y031407D01*
X033510Y031407D01*
X033510Y031367D01*
X032980Y031367D01*
X032980Y030993D01*
X032992Y030947D01*
X033016Y030906D01*
X033049Y030873D01*
X033091Y030849D01*
X033133Y030837D01*
X033130Y030836D01*
X032981Y030687D01*
X032900Y030492D01*
X032900Y030281D01*
X032981Y030086D01*
X033130Y029937D01*
X033302Y029866D01*
X033230Y029836D01*
X033120Y029727D01*
X032279Y029727D01*
X031620Y030386D01*
X031620Y033629D01*
X031644Y033629D01*
X031738Y033722D01*
X031738Y034251D01*
X031644Y034345D01*
X031116Y034345D01*
X031022Y034251D01*
X031022Y033722D01*
X031116Y033629D01*
X031140Y033629D01*
X031082Y033662D02*
X000800Y033662D01*
X000800Y033821D02*
X031022Y033821D01*
X031022Y033979D02*
X000800Y033979D01*
X000800Y034138D02*
X031022Y034138D01*
X031067Y034296D02*
X000800Y034296D01*
X000800Y034455D02*
X034860Y034455D01*
X034860Y034613D02*
X033962Y034613D01*
X033826Y034577D02*
X034108Y034652D01*
X034362Y034799D01*
X034568Y035005D01*
X034714Y035258D01*
X034790Y035541D01*
X034790Y035833D01*
X034714Y036115D01*
X034568Y036368D01*
X034362Y036575D01*
X034108Y036721D01*
X033826Y036797D01*
X033534Y036797D01*
X033252Y036721D01*
X032998Y036575D01*
X032792Y036368D01*
X032646Y036115D01*
X032570Y035833D01*
X032570Y035541D01*
X032646Y035258D01*
X032792Y035005D01*
X032998Y034799D01*
X033252Y034652D01*
X033534Y034577D01*
X033826Y034577D01*
X033398Y034613D02*
X002614Y034613D01*
X002508Y034552D02*
X002762Y034699D01*
X002968Y034905D01*
X003114Y035158D01*
X003190Y035441D01*
X003190Y035733D01*
X003114Y036015D01*
X002968Y036268D01*
X002762Y036475D01*
X002508Y036621D01*
X002226Y036697D01*
X001934Y036697D01*
X001652Y036621D01*
X001398Y036475D01*
X001192Y036268D01*
X001046Y036015D01*
X000970Y035733D01*
X000970Y035441D01*
X001046Y035158D01*
X001192Y034905D01*
X001398Y034699D01*
X001652Y034552D01*
X001934Y034477D01*
X002226Y034477D01*
X002508Y034552D01*
X002835Y034772D02*
X033045Y034772D01*
X032867Y034930D02*
X002983Y034930D01*
X003074Y035089D02*
X032744Y035089D01*
X032652Y035247D02*
X003138Y035247D01*
X003181Y035406D02*
X032606Y035406D01*
X032570Y035564D02*
X003190Y035564D01*
X003190Y035723D02*
X032570Y035723D01*
X032583Y035881D02*
X003150Y035881D01*
X003100Y036040D02*
X032626Y036040D01*
X032694Y036198D02*
X003009Y036198D01*
X002880Y036357D02*
X032785Y036357D01*
X032939Y036515D02*
X002692Y036515D01*
X002311Y036674D02*
X033170Y036674D01*
X034190Y036674D02*
X034860Y036674D01*
X034860Y036832D02*
X000800Y036832D01*
X000800Y036674D02*
X001849Y036674D01*
X001468Y036515D02*
X000800Y036515D01*
X000800Y036357D02*
X001280Y036357D01*
X001151Y036198D02*
X000800Y036198D01*
X000800Y036040D02*
X001060Y036040D01*
X001010Y035881D02*
X000800Y035881D01*
X000800Y035723D02*
X000970Y035723D01*
X000970Y035564D02*
X000800Y035564D01*
X000800Y035406D02*
X000979Y035406D01*
X001022Y035247D02*
X000800Y035247D01*
X000800Y035089D02*
X001086Y035089D01*
X001177Y034930D02*
X000800Y034930D01*
X000800Y034772D02*
X001325Y034772D01*
X001546Y034613D02*
X000800Y034613D01*
X000800Y036991D02*
X034860Y036991D01*
X034860Y037149D02*
X000800Y037149D01*
X000800Y037308D02*
X034860Y037308D01*
X034860Y037466D02*
X000800Y037466D01*
X000800Y037625D02*
X034860Y037625D01*
X034860Y037783D02*
X000800Y037783D01*
X000800Y037942D02*
X034860Y037942D01*
X034860Y038100D02*
X000800Y038100D01*
X000800Y038259D02*
X034860Y038259D01*
X034860Y038417D02*
X000800Y038417D01*
X000800Y038576D02*
X034860Y038576D01*
X034860Y038734D02*
X000800Y038734D01*
X000800Y038893D02*
X034860Y038893D01*
X034860Y039051D02*
X000800Y039051D01*
X000800Y039210D02*
X034860Y039210D01*
X034860Y039368D02*
X000800Y039368D01*
X010010Y032077D02*
X024950Y032077D01*
X024950Y031285D02*
X018731Y031285D01*
X018572Y031126D02*
X025149Y031126D01*
X025006Y030968D02*
X018414Y030968D01*
X018255Y030809D02*
X024943Y030809D01*
X024930Y030651D02*
X018097Y030651D01*
X017938Y030492D02*
X024965Y030492D01*
X025057Y030334D02*
X017780Y030334D01*
X017304Y029858D02*
X024977Y029858D01*
X025031Y029987D02*
X025180Y030136D01*
X025274Y030175D01*
X024950Y029700D02*
X017146Y029700D01*
X017000Y029541D02*
X024967Y029541D01*
X025034Y029383D02*
X017000Y029383D01*
X017000Y029224D02*
X025212Y029224D01*
X025110Y029066D02*
X017000Y029066D01*
X017000Y028907D02*
X024998Y028907D01*
X024950Y028749D02*
X017000Y028749D01*
X017000Y028590D02*
X024950Y028590D01*
X025012Y028432D02*
X017000Y028432D01*
X017000Y028273D02*
X025144Y028273D01*
X025159Y028115D02*
X017000Y028115D01*
X017000Y027956D02*
X025018Y027956D01*
X024952Y027798D02*
X017000Y027798D01*
X017000Y027639D02*
X024950Y027639D01*
X024992Y027481D02*
X017000Y027481D01*
X017000Y027322D02*
X025095Y027322D01*
X025247Y027164D02*
X017000Y027164D01*
X017000Y027005D02*
X025049Y027005D01*
X024973Y026847D02*
X017000Y026847D01*
X017000Y026688D02*
X024950Y026688D01*
X024971Y026530D02*
X017000Y026530D01*
X017000Y026371D02*
X025046Y026371D01*
X025239Y026213D02*
X017000Y026213D01*
X017000Y026054D02*
X025098Y026054D01*
X024858Y025896D02*
X017000Y025896D01*
X017000Y025737D02*
X024691Y025737D01*
X024533Y025579D02*
X017000Y025579D01*
X017000Y025420D02*
X024374Y025420D01*
X024216Y025262D02*
X017000Y025262D01*
X017000Y025103D02*
X024057Y025103D01*
X023899Y024945D02*
X017000Y024945D01*
X017000Y024786D02*
X023761Y024786D01*
X023740Y024628D02*
X017000Y024628D01*
X017000Y024469D02*
X023740Y024469D01*
X023740Y024311D02*
X017000Y024311D01*
X017000Y024152D02*
X023740Y024152D01*
X023740Y023994D02*
X017000Y023994D01*
X017000Y023835D02*
X023740Y023835D01*
X023740Y023677D02*
X017000Y023677D01*
X017000Y023518D02*
X023740Y023518D01*
X023740Y023360D02*
X017000Y023360D01*
X017000Y023201D02*
X023740Y023201D01*
X023740Y023043D02*
X017000Y023043D01*
X017000Y022884D02*
X023740Y022884D01*
X023740Y022726D02*
X017000Y022726D01*
X017000Y022567D02*
X023740Y022567D01*
X023740Y022409D02*
X017000Y022409D01*
X017000Y022250D02*
X023740Y022250D01*
X023740Y022092D02*
X017000Y022092D01*
X017000Y021933D02*
X023740Y021933D01*
X023740Y021775D02*
X017000Y021775D01*
X017000Y021616D02*
X023811Y021616D01*
X023970Y021458D02*
X017000Y021458D01*
X017020Y021299D02*
X024128Y021299D01*
X024380Y021387D02*
X031380Y021387D01*
X032680Y022687D01*
X034380Y022687D01*
X034580Y022887D01*
X034580Y024087D01*
X033580Y025087D01*
X034060Y025103D02*
X034860Y025103D01*
X034860Y024945D02*
X034061Y024945D01*
X034220Y024786D02*
X034860Y024786D01*
X034860Y024628D02*
X034378Y024628D01*
X034537Y024469D02*
X034860Y024469D01*
X034860Y024311D02*
X034695Y024311D01*
X034813Y024152D02*
X034860Y024152D01*
X034860Y023994D02*
X034820Y023994D01*
X034820Y023835D02*
X034860Y023835D01*
X034860Y023677D02*
X034820Y023677D01*
X034820Y023518D02*
X034860Y023518D01*
X034860Y023360D02*
X034820Y023360D01*
X034820Y023201D02*
X034860Y023201D01*
X034860Y023043D02*
X034820Y023043D01*
X034820Y022884D02*
X034860Y022884D01*
X034860Y022726D02*
X034758Y022726D01*
X034860Y022567D02*
X034600Y022567D01*
X034860Y022409D02*
X032741Y022409D01*
X032583Y022250D02*
X034860Y022250D01*
X034860Y022092D02*
X034010Y022092D01*
X034010Y021933D02*
X034860Y021933D01*
X034860Y021775D02*
X034010Y021775D01*
X034010Y021616D02*
X034860Y021616D01*
X034860Y021458D02*
X034010Y021458D01*
X034010Y021299D02*
X034860Y021299D01*
X034860Y021141D02*
X033791Y021141D01*
X033945Y020982D02*
X034860Y020982D01*
X034860Y020824D02*
X034014Y020824D01*
X034030Y020667D02*
X033500Y020667D01*
X033500Y020137D01*
X033523Y020137D01*
X033609Y020150D01*
X033691Y020177D01*
X033768Y020216D01*
X033838Y020267D01*
X033900Y020328D01*
X033950Y020398D01*
X033990Y020476D01*
X034016Y020558D01*
X034030Y020643D01*
X034030Y020667D01*
X034030Y020665D02*
X034860Y020665D01*
X034860Y020507D02*
X034000Y020507D01*
X033914Y020348D02*
X034860Y020348D01*
X034860Y020190D02*
X033716Y020190D01*
X033500Y020190D02*
X033460Y020190D01*
X033460Y020348D02*
X033500Y020348D01*
X033500Y020507D02*
X033460Y020507D01*
X033460Y020665D02*
X033500Y020665D01*
X033244Y020190D02*
X017000Y020190D01*
X017000Y020031D02*
X034860Y020031D01*
X034860Y019873D02*
X017000Y019873D01*
X017000Y019714D02*
X033000Y019714D01*
X033000Y019723D02*
X033000Y018850D01*
X033094Y018757D01*
X033180Y018757D01*
X033130Y018736D01*
X032981Y018587D01*
X032900Y018392D01*
X032900Y018181D01*
X032981Y017986D01*
X033130Y017837D01*
X033302Y017766D01*
X033230Y017736D01*
X033081Y017587D01*
X033000Y017392D01*
X033000Y017181D01*
X033081Y016986D01*
X033230Y016837D01*
X033302Y016807D01*
X033130Y016736D01*
X032981Y016587D01*
X032900Y016392D01*
X032900Y016181D01*
X032981Y015986D01*
X033130Y015837D01*
X033325Y015757D01*
X033535Y015757D01*
X033730Y015837D01*
X033879Y015986D01*
X033960Y016181D01*
X033960Y016392D01*
X033879Y016587D01*
X033730Y016736D01*
X033658Y016766D01*
X033830Y016837D01*
X033979Y016986D01*
X034060Y017181D01*
X034060Y017392D01*
X033979Y017587D01*
X033830Y017736D01*
X033658Y017807D01*
X033730Y017837D01*
X033879Y017986D01*
X033960Y018181D01*
X033960Y018392D01*
X033879Y018587D01*
X033730Y018736D01*
X033680Y018757D01*
X033966Y018757D01*
X034060Y018850D01*
X034060Y019723D01*
X033966Y019817D01*
X033094Y019817D01*
X033000Y019723D01*
X033000Y019556D02*
X017000Y019556D01*
X017000Y019397D02*
X033000Y019397D01*
X033000Y019239D02*
X017000Y019239D01*
X017000Y019080D02*
X033000Y019080D01*
X033000Y018922D02*
X017000Y018922D01*
X017000Y018763D02*
X033087Y018763D01*
X032998Y018605D02*
X017000Y018605D01*
X017000Y018446D02*
X032922Y018446D01*
X032900Y018288D02*
X017000Y018288D01*
X017000Y018129D02*
X032922Y018129D01*
X032996Y017971D02*
X017000Y017971D01*
X017000Y017812D02*
X033191Y017812D01*
X033147Y017654D02*
X017000Y017654D01*
X017000Y017495D02*
X033043Y017495D01*
X033000Y017337D02*
X017000Y017337D01*
X017000Y017178D02*
X033001Y017178D01*
X033067Y017020D02*
X017000Y017020D01*
X017000Y016861D02*
X018215Y016861D01*
X018244Y016890D02*
X017344Y015990D01*
X017277Y015923D01*
X017240Y015834D01*
X017240Y015445D01*
X017116Y015445D01*
X017022Y015351D01*
X017022Y014822D01*
X017116Y014729D01*
X017644Y014729D01*
X017738Y014822D01*
X017738Y015351D01*
X017720Y015369D01*
X017720Y015687D01*
X018479Y016447D01*
X030581Y016447D01*
X031922Y015105D01*
X031922Y014822D01*
X032016Y014729D01*
X032544Y014729D01*
X032638Y014822D01*
X032638Y015351D01*
X032544Y015445D01*
X032261Y015445D01*
X030883Y016823D01*
X030816Y016890D01*
X030728Y016927D01*
X018332Y016927D01*
X018244Y016890D01*
X018380Y016687D02*
X017480Y015787D01*
X017480Y015087D01*
X017380Y014987D01*
X017738Y014959D02*
X029631Y014959D01*
X029588Y014801D02*
X017717Y014801D01*
X017738Y015118D02*
X029705Y015118D01*
X029800Y015276D02*
X017738Y015276D01*
X017720Y015435D02*
X029958Y015435D01*
X030204Y015593D02*
X017720Y015593D01*
X017784Y015752D02*
X031276Y015752D01*
X031156Y015593D02*
X031434Y015593D01*
X031402Y015435D02*
X031593Y015435D01*
X031560Y015276D02*
X031751Y015276D01*
X031655Y015118D02*
X031910Y015118D01*
X031922Y014959D02*
X031729Y014959D01*
X031772Y014801D02*
X031943Y014801D01*
X031790Y014642D02*
X034860Y014642D01*
X034860Y014484D02*
X031790Y014484D01*
X031759Y014325D02*
X034860Y014325D01*
X034860Y014167D02*
X031717Y014167D01*
X031628Y014008D02*
X034860Y014008D01*
X034860Y013850D02*
X032070Y013850D01*
X032189Y013691D02*
X034860Y013691D01*
X034860Y013533D02*
X032279Y013533D01*
X032370Y013374D02*
X034860Y013374D01*
X034860Y013216D02*
X034421Y013216D01*
X034418Y013226D02*
X034394Y013267D01*
X034361Y013301D01*
X034319Y013324D01*
X034274Y013337D01*
X033900Y013337D01*
X033900Y012807D01*
X034430Y012807D01*
X034430Y013180D01*
X034418Y013226D01*
X034430Y013057D02*
X034860Y013057D01*
X034860Y012899D02*
X034430Y012899D01*
X034430Y012740D02*
X034860Y012740D01*
X034860Y012582D02*
X034430Y012582D01*
X034430Y012423D02*
X034860Y012423D01*
X034860Y012265D02*
X034347Y012265D01*
X034310Y012106D02*
X034860Y012106D01*
X034860Y011948D02*
X034387Y011948D01*
X034410Y011789D02*
X034860Y011789D01*
X034860Y011631D02*
X034389Y011631D01*
X034315Y011472D02*
X034860Y011472D01*
X034860Y011314D02*
X034123Y011314D01*
X034261Y011155D02*
X034860Y011155D01*
X034860Y010997D02*
X034367Y010997D01*
X034410Y010838D02*
X034860Y010838D01*
X034860Y010680D02*
X034409Y010680D01*
X034344Y010521D02*
X034860Y010521D01*
X034860Y010363D02*
X034206Y010363D01*
X034212Y010204D02*
X034860Y010204D01*
X034860Y010046D02*
X034346Y010046D01*
X034410Y009887D02*
X034860Y009887D01*
X034860Y009729D02*
X034410Y009729D01*
X034364Y009570D02*
X034860Y009570D01*
X034860Y009412D02*
X034255Y009412D01*
X034860Y009253D02*
X032600Y009253D01*
X032600Y009095D02*
X034860Y009095D01*
X034860Y008936D02*
X032600Y008936D01*
X032600Y008778D02*
X034860Y008778D01*
X034860Y008619D02*
X032600Y008619D01*
X032600Y008461D02*
X034860Y008461D01*
X034860Y008302D02*
X032600Y008302D01*
X032600Y008144D02*
X034860Y008144D01*
X034860Y007985D02*
X032600Y007985D01*
X032600Y007827D02*
X034860Y007827D01*
X034860Y007668D02*
X032600Y007668D01*
X032600Y007510D02*
X034860Y007510D01*
X034860Y007351D02*
X032600Y007351D01*
X032600Y007193D02*
X034860Y007193D01*
X034860Y007034D02*
X032600Y007034D01*
X032600Y006876D02*
X034860Y006876D01*
X034860Y006717D02*
X032600Y006717D01*
X032600Y006559D02*
X034860Y006559D01*
X034860Y006400D02*
X032600Y006400D01*
X032600Y006242D02*
X034860Y006242D01*
X034860Y006083D02*
X032600Y006083D01*
X032600Y005925D02*
X034860Y005925D01*
X034860Y005766D02*
X032600Y005766D01*
X032600Y005608D02*
X034860Y005608D01*
X034860Y005449D02*
X032600Y005449D01*
X032600Y005291D02*
X034860Y005291D01*
X034860Y005132D02*
X032600Y005132D01*
X032600Y004974D02*
X034860Y004974D01*
X034860Y004815D02*
X032600Y004815D01*
X032600Y004657D02*
X034860Y004657D01*
X034860Y004498D02*
X032600Y004498D01*
X032600Y004340D02*
X034860Y004340D01*
X034860Y004181D02*
X032600Y004181D01*
X032600Y004023D02*
X033458Y004023D01*
X033188Y003864D02*
X032600Y003864D01*
X032600Y003706D02*
X033029Y003706D01*
X032922Y003547D02*
X032600Y003547D01*
X032600Y003389D02*
X032839Y003389D01*
X032796Y003230D02*
X032600Y003230D01*
X032600Y003072D02*
X032770Y003072D01*
X032770Y002913D02*
X032610Y002913D01*
X032610Y002755D02*
X032793Y002755D01*
X032836Y002596D02*
X032610Y002596D01*
X032610Y002438D02*
X032915Y002438D01*
X033018Y002279D02*
X032610Y002279D01*
X032610Y002121D02*
X033176Y002121D01*
X031960Y003017D02*
X031644Y003017D01*
X031550Y002923D01*
X031550Y002775D01*
X031500Y002845D01*
X031438Y002906D01*
X031368Y002957D01*
X031291Y002996D01*
X031209Y003023D01*
X031123Y003037D01*
X031100Y003037D01*
X031100Y002507D01*
X031060Y002507D01*
X031060Y003037D01*
X031037Y003037D01*
X030957Y003024D01*
X030983Y003051D01*
X031020Y003139D01*
X031020Y011629D01*
X031044Y011629D01*
X031138Y011722D01*
X031138Y012251D01*
X031044Y012345D01*
X030516Y012345D01*
X030422Y012251D01*
X030422Y011722D01*
X030516Y011629D01*
X030540Y011629D01*
X030540Y003286D01*
X030246Y002992D01*
X030185Y003017D01*
X029975Y003017D01*
X029780Y002936D01*
X029631Y002787D01*
X029580Y002665D01*
X029529Y002787D01*
X029380Y002936D01*
X029320Y002961D01*
X029320Y011829D01*
X029444Y011829D01*
X029538Y011922D01*
X029538Y012451D01*
X029444Y012545D01*
X028916Y012545D01*
X028822Y012451D01*
X028822Y011922D01*
X028840Y011904D01*
X028840Y002961D01*
X028780Y002936D01*
X028631Y002787D01*
X028550Y002592D01*
X028550Y002381D01*
X028631Y002186D01*
X028780Y002037D01*
X028898Y001988D01*
X026971Y001983D01*
X026994Y002006D01*
X027018Y002047D01*
X027030Y002093D01*
X027030Y002467D01*
X026500Y002467D01*
X026500Y002507D01*
X026500Y002957D01*
X026460Y002957D01*
X026460Y002507D01*
X026500Y002507D01*
X027030Y002507D01*
X027030Y002880D01*
X027018Y002926D01*
X026994Y002967D01*
X026961Y003001D01*
X026919Y003024D01*
X026874Y003037D01*
X026779Y003037D01*
X026780Y003037D01*
X026929Y003186D01*
X027010Y003381D01*
X027010Y003592D01*
X026929Y003787D01*
X026780Y003936D01*
X026658Y003987D01*
X026780Y004037D01*
X026929Y004186D01*
X027010Y004381D01*
X027010Y004592D01*
X026929Y004787D01*
X026780Y004936D01*
X026658Y004987D01*
X026780Y005037D01*
X026929Y005186D01*
X027010Y005381D01*
X027010Y005592D01*
X026929Y005787D01*
X026780Y005936D01*
X026658Y005987D01*
X026780Y006037D01*
X026929Y006186D01*
X027010Y006381D01*
X027010Y006592D01*
X026929Y006787D01*
X026780Y006936D01*
X026658Y006987D01*
X026780Y007037D01*
X026929Y007186D01*
X027010Y007381D01*
X027010Y007592D01*
X026929Y007787D01*
X026780Y007936D01*
X026658Y007987D01*
X026780Y008037D01*
X026929Y008186D01*
X027010Y008381D01*
X027010Y008592D01*
X026929Y008787D01*
X026780Y008936D01*
X026658Y008987D01*
X026780Y009037D01*
X026929Y009186D01*
X027010Y009381D01*
X027010Y009592D01*
X026929Y009787D01*
X026780Y009936D01*
X026658Y009987D01*
X026780Y010037D01*
X026929Y010186D01*
X027010Y010381D01*
X027010Y010592D01*
X026929Y010787D01*
X026780Y010936D01*
X026658Y010987D01*
X026780Y011037D01*
X026929Y011186D01*
X027010Y011381D01*
X027010Y011592D01*
X026929Y011787D01*
X026780Y011936D01*
X026585Y012017D01*
X026375Y012017D01*
X026180Y011936D01*
X026031Y011787D01*
X025980Y011665D01*
X025929Y011787D01*
X025780Y011936D01*
X025585Y012017D01*
X025375Y012017D01*
X025180Y011936D01*
X025031Y011787D01*
X024950Y011592D01*
X024950Y011381D01*
X025031Y011186D01*
X025180Y011037D01*
X025302Y010987D01*
X025180Y010936D01*
X025031Y010787D01*
X024950Y010592D01*
X024950Y010381D01*
X025031Y010186D01*
X025180Y010037D01*
X025302Y009987D01*
X025180Y009936D01*
X025031Y009787D01*
X024950Y009592D01*
X024950Y009381D01*
X025031Y009186D01*
X025180Y009037D01*
X025302Y008987D01*
X025180Y008936D01*
X025031Y008787D01*
X024950Y008592D01*
X024950Y008381D01*
X025031Y008186D01*
X025180Y008037D01*
X025302Y007987D01*
X025180Y007936D01*
X025031Y007787D01*
X024950Y007592D01*
X024950Y007381D01*
X025031Y007186D01*
X025180Y007037D01*
X025302Y006987D01*
X025180Y006936D01*
X025031Y006787D01*
X024950Y006592D01*
X024950Y006381D01*
X025031Y006186D01*
X025180Y006037D01*
X025302Y005987D01*
X025180Y005936D01*
X025031Y005787D01*
X024950Y005592D01*
X024950Y005381D01*
X025031Y005186D01*
X025180Y005037D01*
X025302Y004987D01*
X025180Y004936D01*
X025031Y004787D01*
X024950Y004592D01*
X024950Y004381D01*
X025031Y004186D01*
X025180Y004037D01*
X025302Y003987D01*
X025180Y003936D01*
X025031Y003787D01*
X024950Y003592D01*
X024950Y003381D01*
X025031Y003186D01*
X025180Y003037D01*
X025230Y003017D01*
X025044Y003017D01*
X024950Y002923D01*
X024950Y002050D01*
X025023Y001977D01*
X015486Y001950D01*
X017908Y004462D01*
X017951Y004505D01*
X017952Y004508D01*
X017955Y004510D01*
X017977Y004567D01*
X018000Y004623D01*
X018000Y004626D01*
X018001Y004629D01*
X018000Y004690D01*
X018000Y012854D01*
X018413Y013267D01*
X031694Y013267D01*
X031960Y012802D01*
X031960Y003017D01*
X031960Y003072D02*
X030992Y003072D01*
X031080Y002987D02*
X031080Y002487D01*
X031060Y002596D02*
X031100Y002596D01*
X031100Y002755D02*
X031060Y002755D01*
X031060Y002913D02*
X031100Y002913D01*
X031080Y002987D02*
X031180Y003087D01*
X031020Y003230D02*
X031960Y003230D01*
X031960Y003389D02*
X031020Y003389D01*
X031020Y003547D02*
X031960Y003547D01*
X031960Y003706D02*
X031020Y003706D01*
X031020Y003864D02*
X031960Y003864D01*
X031960Y004023D02*
X031020Y004023D01*
X031020Y004181D02*
X031960Y004181D01*
X031960Y004340D02*
X031020Y004340D01*
X031020Y004498D02*
X031960Y004498D01*
X031960Y004657D02*
X031020Y004657D01*
X031020Y004815D02*
X031960Y004815D01*
X031960Y004974D02*
X031020Y004974D01*
X031020Y005132D02*
X031960Y005132D01*
X031960Y005291D02*
X031020Y005291D01*
X031020Y005449D02*
X031960Y005449D01*
X031960Y005608D02*
X031020Y005608D01*
X031020Y005766D02*
X031960Y005766D01*
X031960Y005925D02*
X031020Y005925D01*
X031020Y006083D02*
X031960Y006083D01*
X031960Y006242D02*
X031020Y006242D01*
X031020Y006400D02*
X031960Y006400D01*
X031960Y006559D02*
X031020Y006559D01*
X031020Y006717D02*
X031960Y006717D01*
X031960Y006876D02*
X031020Y006876D01*
X031020Y007034D02*
X031960Y007034D01*
X031960Y007193D02*
X031020Y007193D01*
X031020Y007351D02*
X031960Y007351D01*
X031960Y007510D02*
X031020Y007510D01*
X031020Y007668D02*
X031960Y007668D01*
X031960Y007827D02*
X031020Y007827D01*
X031020Y007985D02*
X031960Y007985D01*
X031960Y008144D02*
X031020Y008144D01*
X031020Y008302D02*
X031960Y008302D01*
X031960Y008461D02*
X031020Y008461D01*
X031020Y008619D02*
X031960Y008619D01*
X031960Y008778D02*
X031020Y008778D01*
X031020Y008936D02*
X031960Y008936D01*
X031960Y009095D02*
X031020Y009095D01*
X031020Y009253D02*
X031960Y009253D01*
X031960Y009412D02*
X031020Y009412D01*
X031020Y009570D02*
X031960Y009570D01*
X031960Y009729D02*
X031020Y009729D01*
X031020Y009887D02*
X031960Y009887D01*
X031960Y010046D02*
X031020Y010046D01*
X031020Y010204D02*
X031960Y010204D01*
X031960Y010363D02*
X031020Y010363D01*
X031020Y010521D02*
X031960Y010521D01*
X031960Y010680D02*
X031020Y010680D01*
X031020Y010838D02*
X031960Y010838D01*
X031960Y010997D02*
X031020Y010997D01*
X031020Y011155D02*
X031960Y011155D01*
X031960Y011314D02*
X031020Y011314D01*
X031020Y011472D02*
X031960Y011472D01*
X031960Y011631D02*
X031047Y011631D01*
X031138Y011789D02*
X031960Y011789D01*
X031960Y011948D02*
X031138Y011948D01*
X031138Y012106D02*
X031960Y012106D01*
X031960Y012265D02*
X031124Y012265D01*
X030780Y012087D02*
X030780Y011987D01*
X030780Y003187D01*
X030180Y002587D01*
X030180Y002487D01*
X029757Y002913D02*
X029403Y002913D01*
X029320Y003072D02*
X030326Y003072D01*
X030484Y003230D02*
X029320Y003230D01*
X029320Y003389D02*
X030540Y003389D01*
X030540Y003547D02*
X029320Y003547D01*
X029320Y003706D02*
X030540Y003706D01*
X030540Y003864D02*
X029320Y003864D01*
X029320Y004023D02*
X030540Y004023D01*
X030540Y004181D02*
X029320Y004181D01*
X029320Y004340D02*
X030540Y004340D01*
X030540Y004498D02*
X029320Y004498D01*
X029320Y004657D02*
X030540Y004657D01*
X030540Y004815D02*
X029320Y004815D01*
X029320Y004974D02*
X030540Y004974D01*
X030540Y005132D02*
X029320Y005132D01*
X029320Y005291D02*
X030540Y005291D01*
X030540Y005449D02*
X029320Y005449D01*
X029320Y005608D02*
X030540Y005608D01*
X030540Y005766D02*
X029320Y005766D01*
X029320Y005925D02*
X030540Y005925D01*
X030540Y006083D02*
X029320Y006083D01*
X029320Y006242D02*
X030540Y006242D01*
X030540Y006400D02*
X029320Y006400D01*
X029320Y006559D02*
X030540Y006559D01*
X030540Y006717D02*
X029320Y006717D01*
X029320Y006876D02*
X030540Y006876D01*
X030540Y007034D02*
X029320Y007034D01*
X029320Y007193D02*
X030540Y007193D01*
X030540Y007351D02*
X029320Y007351D01*
X029320Y007510D02*
X030540Y007510D01*
X030540Y007668D02*
X029320Y007668D01*
X029320Y007827D02*
X030540Y007827D01*
X030540Y007985D02*
X029320Y007985D01*
X029320Y008144D02*
X030540Y008144D01*
X030540Y008302D02*
X029320Y008302D01*
X029320Y008461D02*
X030540Y008461D01*
X030540Y008619D02*
X029320Y008619D01*
X029320Y008778D02*
X030540Y008778D01*
X030540Y008936D02*
X029320Y008936D01*
X029320Y009095D02*
X030540Y009095D01*
X030540Y009253D02*
X029320Y009253D01*
X029320Y009412D02*
X030540Y009412D01*
X030540Y009570D02*
X029320Y009570D01*
X029320Y009729D02*
X030540Y009729D01*
X030540Y009887D02*
X029320Y009887D01*
X029320Y010046D02*
X030540Y010046D01*
X030540Y010204D02*
X029320Y010204D01*
X029320Y010363D02*
X030540Y010363D01*
X030540Y010521D02*
X029320Y010521D01*
X029320Y010680D02*
X030540Y010680D01*
X030540Y010838D02*
X029320Y010838D01*
X029320Y010997D02*
X030540Y010997D01*
X030540Y011155D02*
X029320Y011155D01*
X029320Y011314D02*
X030540Y011314D01*
X030540Y011472D02*
X029320Y011472D01*
X029320Y011631D02*
X030513Y011631D01*
X030422Y011789D02*
X029320Y011789D01*
X029538Y011948D02*
X030422Y011948D01*
X030422Y012106D02*
X029538Y012106D01*
X029538Y012265D02*
X030436Y012265D01*
X029538Y012423D02*
X031960Y012423D01*
X031960Y012582D02*
X018000Y012582D01*
X018000Y012740D02*
X031960Y012740D01*
X031905Y012899D02*
X018045Y012899D01*
X018203Y013057D02*
X031814Y013057D01*
X031723Y013216D02*
X018362Y013216D01*
X017932Y013691D02*
X017000Y013691D01*
X017000Y013533D02*
X017773Y013533D01*
X017615Y013374D02*
X017000Y013374D01*
X017000Y013216D02*
X017456Y013216D01*
X017363Y013057D02*
X017000Y013057D01*
X017000Y012899D02*
X017360Y012899D01*
X017360Y012740D02*
X017000Y012740D01*
X017000Y012582D02*
X017360Y012582D01*
X017360Y012423D02*
X017000Y012423D01*
X017000Y012265D02*
X017360Y012265D01*
X017360Y012106D02*
X017000Y012106D01*
X017000Y011948D02*
X017360Y011948D01*
X017360Y011789D02*
X017000Y011789D01*
X017000Y011631D02*
X017360Y011631D01*
X017360Y011472D02*
X017000Y011472D01*
X017000Y011314D02*
X017360Y011314D01*
X017360Y011155D02*
X017000Y011155D01*
X017000Y010997D02*
X017360Y010997D01*
X017360Y010838D02*
X017000Y010838D01*
X017000Y010680D02*
X017360Y010680D01*
X017360Y010521D02*
X017000Y010521D01*
X017000Y010363D02*
X017360Y010363D01*
X017360Y010204D02*
X017000Y010204D01*
X017000Y010046D02*
X017360Y010046D01*
X017360Y009887D02*
X017000Y009887D01*
X017000Y009729D02*
X017360Y009729D01*
X017360Y009570D02*
X017000Y009570D01*
X017000Y009412D02*
X017360Y009412D01*
X017360Y009253D02*
X017000Y009253D01*
X017000Y009095D02*
X017360Y009095D01*
X017360Y008936D02*
X017000Y008936D01*
X017000Y008778D02*
X017360Y008778D01*
X017360Y008619D02*
X017000Y008619D01*
X017000Y008461D02*
X017360Y008461D01*
X017360Y008302D02*
X017000Y008302D01*
X017000Y008144D02*
X017360Y008144D01*
X017360Y007985D02*
X017000Y007985D01*
X017000Y007827D02*
X017360Y007827D01*
X017360Y007668D02*
X017000Y007668D01*
X017000Y007510D02*
X017360Y007510D01*
X017360Y007351D02*
X017000Y007351D01*
X017000Y007193D02*
X017360Y007193D01*
X017360Y007034D02*
X017000Y007034D01*
X017000Y006876D02*
X017360Y006876D01*
X017360Y006717D02*
X017000Y006717D01*
X017000Y006559D02*
X017360Y006559D01*
X017360Y006400D02*
X017000Y006400D01*
X017000Y006242D02*
X017360Y006242D01*
X017360Y006083D02*
X017000Y006083D01*
X017000Y005925D02*
X017360Y005925D01*
X017360Y005766D02*
X017000Y005766D01*
X017000Y005608D02*
X017360Y005608D01*
X017360Y005449D02*
X017000Y005449D01*
X017000Y005291D02*
X017360Y005291D01*
X017360Y005132D02*
X017000Y005132D01*
X016920Y004974D02*
X017360Y004974D01*
X017359Y004815D02*
X016761Y004815D01*
X016603Y004657D02*
X017207Y004657D01*
X017054Y004498D02*
X016444Y004498D01*
X016286Y004340D02*
X016901Y004340D01*
X016748Y004181D02*
X016127Y004181D01*
X015969Y004023D02*
X016595Y004023D01*
X016442Y003864D02*
X015810Y003864D01*
X015652Y003706D02*
X016290Y003706D01*
X016137Y003547D02*
X015493Y003547D01*
X015335Y003389D02*
X015984Y003389D01*
X015831Y003230D02*
X015176Y003230D01*
X015018Y003072D02*
X015678Y003072D01*
X015525Y002913D02*
X014859Y002913D01*
X014701Y002755D02*
X015372Y002755D01*
X015220Y002596D02*
X014542Y002596D01*
X014384Y002438D02*
X015067Y002438D01*
X014914Y002279D02*
X014225Y002279D01*
X014761Y002121D02*
X010010Y002121D01*
X010010Y002913D02*
X013954Y002913D01*
X014112Y003072D02*
X009843Y003072D01*
X009967Y003230D02*
X014271Y003230D01*
X014429Y003389D02*
X010021Y003389D01*
X010027Y003547D02*
X014588Y003547D01*
X014746Y003706D02*
X009986Y003706D01*
X009880Y003864D02*
X014905Y003864D01*
X015063Y004023D02*
X009745Y004023D01*
X009924Y004181D02*
X015222Y004181D01*
X015380Y004340D02*
X013038Y004340D01*
X013038Y004498D02*
X015539Y004498D01*
X015697Y004657D02*
X014738Y004657D01*
X014738Y004622D02*
X014644Y004529D01*
X014116Y004529D01*
X014022Y004622D01*
X014022Y005151D01*
X014116Y005245D01*
X014140Y005245D01*
X014140Y013934D01*
X014177Y014023D01*
X014522Y014368D01*
X014522Y014651D01*
X014616Y014745D01*
X015144Y014745D01*
X015238Y014651D01*
X015238Y014122D01*
X015144Y014029D01*
X014861Y014029D01*
X014620Y013787D01*
X014620Y005245D01*
X014644Y005245D01*
X014738Y005151D01*
X014738Y004622D01*
X014738Y004815D02*
X015856Y004815D01*
X016014Y004974D02*
X014738Y004974D01*
X014738Y005132D02*
X016173Y005132D01*
X016331Y005291D02*
X014620Y005291D01*
X014620Y005449D02*
X016360Y005449D01*
X016360Y005608D02*
X014620Y005608D01*
X014620Y005766D02*
X016360Y005766D01*
X016360Y005925D02*
X014620Y005925D01*
X014620Y006083D02*
X016360Y006083D01*
X016360Y006242D02*
X014620Y006242D01*
X014620Y006400D02*
X016360Y006400D01*
X016360Y006559D02*
X014620Y006559D01*
X014620Y006717D02*
X016360Y006717D01*
X016360Y006876D02*
X014620Y006876D01*
X014620Y007034D02*
X016360Y007034D01*
X016360Y007193D02*
X014620Y007193D01*
X014620Y007351D02*
X016360Y007351D01*
X016360Y007510D02*
X014620Y007510D01*
X014620Y007668D02*
X016360Y007668D01*
X016360Y007827D02*
X014620Y007827D01*
X014620Y007985D02*
X016360Y007985D01*
X016360Y008144D02*
X014620Y008144D01*
X014620Y008302D02*
X016360Y008302D01*
X016360Y008461D02*
X014620Y008461D01*
X014620Y008619D02*
X016360Y008619D01*
X016360Y008778D02*
X014620Y008778D01*
X014620Y008936D02*
X016360Y008936D01*
X016360Y009095D02*
X014620Y009095D01*
X014620Y009253D02*
X016360Y009253D01*
X016360Y009412D02*
X014620Y009412D01*
X014620Y009570D02*
X016360Y009570D01*
X016360Y009729D02*
X014620Y009729D01*
X014620Y009887D02*
X016360Y009887D01*
X016360Y010046D02*
X014620Y010046D01*
X014620Y010204D02*
X016360Y010204D01*
X016360Y010363D02*
X014620Y010363D01*
X014620Y010521D02*
X016360Y010521D01*
X016360Y010680D02*
X014620Y010680D01*
X014620Y010838D02*
X016360Y010838D01*
X016360Y010997D02*
X014620Y010997D01*
X014620Y011155D02*
X016360Y011155D01*
X016360Y011314D02*
X014620Y011314D01*
X014620Y011472D02*
X016360Y011472D01*
X016360Y011631D02*
X014620Y011631D01*
X014620Y011789D02*
X016360Y011789D01*
X016360Y011948D02*
X014620Y011948D01*
X014620Y012106D02*
X016360Y012106D01*
X016360Y012265D02*
X014620Y012265D01*
X014620Y012423D02*
X016360Y012423D01*
X016360Y012582D02*
X014620Y012582D01*
X014620Y012740D02*
X016360Y012740D01*
X016360Y012899D02*
X014620Y012899D01*
X014620Y013057D02*
X016360Y013057D01*
X016360Y013216D02*
X014620Y013216D01*
X014620Y013374D02*
X016360Y013374D01*
X016360Y013533D02*
X014620Y013533D01*
X014620Y013691D02*
X016360Y013691D01*
X016360Y013850D02*
X014682Y013850D01*
X014841Y014008D02*
X016360Y014008D01*
X016360Y014167D02*
X015238Y014167D01*
X015238Y014325D02*
X016360Y014325D01*
X016360Y014484D02*
X015238Y014484D01*
X015238Y014642D02*
X016360Y014642D01*
X016360Y014801D02*
X014133Y014801D01*
X013975Y014642D02*
X014522Y014642D01*
X014522Y014484D02*
X013816Y014484D01*
X013658Y014325D02*
X014479Y014325D01*
X014321Y014167D02*
X013499Y014167D01*
X013341Y014008D02*
X014171Y014008D01*
X014140Y013850D02*
X013182Y013850D01*
X013024Y013691D02*
X014140Y013691D01*
X014140Y013533D02*
X012920Y013533D01*
X012920Y013374D02*
X014140Y013374D01*
X014140Y013216D02*
X012920Y013216D01*
X012920Y013057D02*
X014140Y013057D01*
X014140Y012899D02*
X012920Y012899D01*
X012920Y012740D02*
X014140Y012740D01*
X014140Y012582D02*
X012920Y012582D01*
X012920Y012423D02*
X014140Y012423D01*
X014140Y012265D02*
X012920Y012265D01*
X012920Y012106D02*
X014140Y012106D01*
X014140Y011948D02*
X012920Y011948D01*
X012920Y011789D02*
X014140Y011789D01*
X014140Y011631D02*
X012920Y011631D01*
X012920Y011472D02*
X014140Y011472D01*
X014140Y011314D02*
X012920Y011314D01*
X012920Y011155D02*
X014140Y011155D01*
X014140Y010997D02*
X012920Y010997D01*
X012920Y010838D02*
X014140Y010838D01*
X014140Y010680D02*
X012920Y010680D01*
X012920Y010521D02*
X014140Y010521D01*
X014140Y010363D02*
X012920Y010363D01*
X012920Y010204D02*
X014140Y010204D01*
X014140Y010046D02*
X012920Y010046D01*
X012920Y009887D02*
X014140Y009887D01*
X014140Y009729D02*
X012920Y009729D01*
X012920Y009570D02*
X014140Y009570D01*
X014140Y009412D02*
X012920Y009412D01*
X012920Y009253D02*
X014140Y009253D01*
X014140Y009095D02*
X012920Y009095D01*
X012920Y008936D02*
X014140Y008936D01*
X014140Y008778D02*
X012920Y008778D01*
X012920Y008619D02*
X014140Y008619D01*
X014140Y008461D02*
X012920Y008461D01*
X012920Y008302D02*
X014140Y008302D01*
X014140Y008144D02*
X012920Y008144D01*
X012920Y007985D02*
X014140Y007985D01*
X014140Y007827D02*
X012920Y007827D01*
X012920Y007668D02*
X014140Y007668D01*
X014140Y007510D02*
X012920Y007510D01*
X012920Y007351D02*
X014140Y007351D01*
X014140Y007193D02*
X012920Y007193D01*
X012920Y007034D02*
X014140Y007034D01*
X014140Y006876D02*
X012920Y006876D01*
X012920Y006717D02*
X014140Y006717D01*
X014140Y006559D02*
X012920Y006559D01*
X012920Y006400D02*
X014140Y006400D01*
X014140Y006242D02*
X012920Y006242D01*
X012920Y006083D02*
X014140Y006083D01*
X014140Y005925D02*
X012920Y005925D01*
X012920Y005766D02*
X014140Y005766D01*
X014140Y005608D02*
X012920Y005608D01*
X012920Y005449D02*
X014140Y005449D01*
X014140Y005291D02*
X012920Y005291D01*
X012920Y005132D02*
X014022Y005132D01*
X014022Y004974D02*
X012920Y004974D01*
X013038Y004815D02*
X014022Y004815D01*
X014022Y004657D02*
X013038Y004657D01*
X012680Y004587D02*
X012680Y013687D01*
X012440Y011789D02*
X009927Y011789D01*
X009994Y011631D02*
X012440Y011631D01*
X012440Y011472D02*
X010010Y011472D01*
X009982Y011314D02*
X012440Y011314D01*
X012440Y011155D02*
X009898Y011155D01*
X009682Y010997D02*
X012440Y010997D01*
X012440Y010838D02*
X009878Y010838D01*
X009974Y010680D02*
X012440Y010680D01*
X012440Y010521D02*
X010010Y010521D01*
X010002Y010363D02*
X012440Y010363D01*
X012440Y010204D02*
X009937Y010204D01*
X009789Y010046D02*
X012440Y010046D01*
X012440Y009887D02*
X009829Y009887D01*
X009953Y009729D02*
X012440Y009729D01*
X012440Y009570D02*
X010010Y009570D01*
X010010Y009412D02*
X012440Y009412D01*
X012440Y009253D02*
X009957Y009253D01*
X009838Y009095D02*
X012440Y009095D01*
X012440Y008936D02*
X009780Y008936D01*
X009933Y008778D02*
X012440Y008778D01*
X012440Y008619D02*
X009999Y008619D01*
X010010Y008461D02*
X012440Y008461D01*
X012440Y008302D02*
X009977Y008302D01*
X009887Y008144D02*
X012440Y008144D01*
X012440Y007985D02*
X009661Y007985D01*
X009890Y007827D02*
X012440Y007827D01*
X012440Y007668D02*
X009978Y007668D01*
X010010Y007510D02*
X012440Y007510D01*
X012440Y007351D02*
X009998Y007351D01*
X009932Y007193D02*
X012440Y007193D01*
X012440Y007034D02*
X009773Y007034D01*
X009841Y006876D02*
X012440Y006876D01*
X012440Y006717D02*
X009958Y006717D01*
X010010Y006559D02*
X012440Y006559D01*
X012440Y006400D02*
X010010Y006400D01*
X009952Y006242D02*
X012440Y006242D01*
X012440Y006083D02*
X009826Y006083D01*
X009792Y005925D02*
X012440Y005925D01*
X012440Y005766D02*
X009938Y005766D01*
X010004Y005608D02*
X012440Y005608D01*
X012440Y005449D02*
X010010Y005449D01*
X009972Y005291D02*
X012440Y005291D01*
X012440Y005132D02*
X009875Y005132D01*
X009689Y004974D02*
X012440Y004974D01*
X012322Y004815D02*
X009901Y004815D01*
X009983Y004657D02*
X012322Y004657D01*
X012322Y004498D02*
X010010Y004498D01*
X009993Y004340D02*
X012322Y004340D01*
X010480Y003487D02*
X009480Y003487D01*
X008215Y004023D02*
X000800Y004023D01*
X000800Y004181D02*
X008036Y004181D01*
X007967Y004340D02*
X000800Y004340D01*
X000800Y004498D02*
X007950Y004498D01*
X007977Y004657D02*
X000800Y004657D01*
X000800Y004815D02*
X008059Y004815D01*
X008108Y003864D02*
X002647Y003864D01*
X003008Y003706D02*
X007997Y003706D01*
X007950Y003547D02*
X003189Y003547D01*
X003314Y003389D02*
X007950Y003389D01*
X008013Y003230D02*
X003406Y003230D01*
X003453Y003072D02*
X008145Y003072D01*
X007950Y002913D02*
X003490Y002913D01*
X003490Y002755D02*
X007950Y002755D01*
X007950Y002596D02*
X003478Y002596D01*
X003436Y002438D02*
X007950Y002438D01*
X007950Y002279D02*
X003369Y002279D01*
X003277Y002121D02*
X007950Y002121D01*
X008038Y001962D02*
X003125Y001962D01*
X001635Y001962D02*
X000800Y001962D01*
X000800Y002121D02*
X001483Y002121D01*
X001391Y002279D02*
X000800Y002279D01*
X000800Y002438D02*
X001324Y002438D01*
X001282Y002596D02*
X000800Y002596D01*
X000800Y002755D02*
X001270Y002755D01*
X001270Y002913D02*
X000800Y002913D01*
X000800Y003072D02*
X001307Y003072D01*
X001354Y003230D02*
X000800Y003230D01*
X000800Y003389D02*
X001446Y003389D01*
X001571Y003547D02*
X000800Y003547D01*
X000800Y003706D02*
X001752Y003706D01*
X002113Y003864D02*
X000800Y003864D01*
X002510Y005132D02*
X002550Y005132D01*
X002550Y005291D02*
X002510Y005291D01*
X002510Y005449D02*
X002550Y005449D01*
X014380Y004887D02*
X014380Y013887D01*
X014780Y014287D01*
X014538Y014959D02*
X016360Y014959D01*
X017000Y014959D02*
X017022Y014959D01*
X017022Y015118D02*
X017000Y015118D01*
X017000Y015276D02*
X017022Y015276D01*
X017000Y015435D02*
X017106Y015435D01*
X017000Y015593D02*
X017240Y015593D01*
X017240Y015752D02*
X017000Y015752D01*
X017000Y015910D02*
X017271Y015910D01*
X017423Y016069D02*
X017000Y016069D01*
X017000Y016227D02*
X017581Y016227D01*
X017740Y016386D02*
X017000Y016386D01*
X017000Y016544D02*
X017898Y016544D01*
X018057Y016703D02*
X017000Y016703D01*
X017943Y015910D02*
X031117Y015910D01*
X030959Y016069D02*
X018101Y016069D01*
X018260Y016227D02*
X030800Y016227D01*
X030642Y016386D02*
X018418Y016386D01*
X018380Y016687D02*
X030680Y016687D01*
X032280Y015087D01*
X032638Y015118D02*
X034860Y015118D01*
X034860Y015276D02*
X032638Y015276D01*
X032554Y015435D02*
X034860Y015435D01*
X034860Y015593D02*
X032113Y015593D01*
X031954Y015752D02*
X034860Y015752D01*
X034860Y015910D02*
X033803Y015910D01*
X033913Y016069D02*
X034860Y016069D01*
X034860Y016227D02*
X033960Y016227D01*
X033960Y016386D02*
X034860Y016386D01*
X034860Y016544D02*
X033897Y016544D01*
X033764Y016703D02*
X034860Y016703D01*
X034860Y016861D02*
X033854Y016861D01*
X033993Y017020D02*
X034860Y017020D01*
X034860Y017178D02*
X034059Y017178D01*
X034060Y017337D02*
X034860Y017337D01*
X034860Y017495D02*
X034017Y017495D01*
X033913Y017654D02*
X034860Y017654D01*
X034860Y017812D02*
X033669Y017812D01*
X033864Y017971D02*
X034860Y017971D01*
X034860Y018129D02*
X033938Y018129D01*
X033960Y018288D02*
X034860Y018288D01*
X034860Y018446D02*
X033938Y018446D01*
X033862Y018605D02*
X034860Y018605D01*
X034860Y018763D02*
X033973Y018763D01*
X034060Y018922D02*
X034860Y018922D01*
X034860Y019080D02*
X034060Y019080D01*
X034060Y019239D02*
X034860Y019239D01*
X034860Y019397D02*
X034060Y019397D01*
X034060Y019556D02*
X034860Y019556D01*
X034860Y019714D02*
X034060Y019714D01*
X033046Y020348D02*
X017094Y020348D01*
X017179Y021141D02*
X031781Y021141D01*
X031632Y021299D02*
X031940Y021299D01*
X031790Y021458D02*
X032098Y021458D01*
X031949Y021616D02*
X032257Y021616D01*
X032107Y021775D02*
X032415Y021775D01*
X032266Y021933D02*
X032574Y021933D01*
X032424Y022092D02*
X032950Y022092D01*
X032950Y021299D02*
X032845Y021299D01*
X032687Y021141D02*
X033169Y021141D01*
X033015Y020982D02*
X032528Y020982D01*
X032370Y020824D02*
X032946Y020824D01*
X032930Y020665D02*
X032211Y020665D01*
X032053Y020507D02*
X032960Y020507D01*
X031204Y022250D02*
X026793Y022250D01*
X026780Y022237D02*
X026929Y022386D01*
X027010Y022581D01*
X027010Y022792D01*
X026929Y022987D01*
X026780Y023136D01*
X026658Y023187D01*
X026780Y023237D01*
X026929Y023386D01*
X027010Y023581D01*
X027010Y023792D01*
X026929Y023987D01*
X026780Y024136D01*
X026658Y024187D01*
X026780Y024237D01*
X026929Y024386D01*
X027010Y024581D01*
X027010Y024792D01*
X027010Y024628D02*
X033253Y024628D01*
X033230Y024637D02*
X033302Y024607D01*
X033130Y024536D01*
X032981Y024387D01*
X032900Y024192D01*
X032900Y023981D01*
X032910Y023956D01*
X030881Y021927D01*
X024679Y021927D01*
X024520Y022086D01*
X024520Y024447D01*
X025006Y024447D01*
X025031Y024386D01*
X025180Y024237D01*
X025302Y024187D01*
X025180Y024136D01*
X025031Y023987D01*
X024950Y023792D01*
X024950Y023581D01*
X025031Y023386D01*
X025180Y023237D01*
X025302Y023187D01*
X025180Y023136D01*
X025031Y022987D01*
X024950Y022792D01*
X024950Y022581D01*
X025031Y022386D01*
X025180Y022237D01*
X025375Y022157D01*
X025585Y022157D01*
X025780Y022237D01*
X025929Y022386D01*
X025980Y022509D01*
X026031Y022386D01*
X026180Y022237D01*
X026375Y022157D01*
X026585Y022157D01*
X026780Y022237D01*
X026939Y022409D02*
X031363Y022409D01*
X031521Y022567D02*
X027004Y022567D01*
X027010Y022726D02*
X031680Y022726D01*
X031838Y022884D02*
X026972Y022884D01*
X026873Y023043D02*
X031997Y023043D01*
X032155Y023201D02*
X026693Y023201D01*
X026903Y023360D02*
X032314Y023360D01*
X032472Y023518D02*
X026984Y023518D01*
X027010Y023677D02*
X032631Y023677D01*
X032789Y023835D02*
X026992Y023835D01*
X026922Y023994D02*
X032900Y023994D01*
X032900Y024152D02*
X026741Y024152D01*
X026854Y024311D02*
X032949Y024311D01*
X033063Y024469D02*
X026964Y024469D01*
X026947Y024945D02*
X033015Y024945D01*
X033000Y025103D02*
X026813Y025103D01*
X026805Y025262D02*
X033029Y025262D01*
X033114Y025420D02*
X026943Y025420D01*
X027009Y025579D02*
X033271Y025579D01*
X033030Y025737D02*
X027010Y025737D01*
X026967Y025896D02*
X032935Y025896D01*
X032900Y026054D02*
X026862Y026054D01*
X026721Y026213D02*
X032909Y026213D01*
X032974Y026371D02*
X026914Y026371D01*
X026989Y026530D02*
X033124Y026530D01*
X032981Y026688D02*
X027010Y026688D01*
X026987Y026847D02*
X032980Y026847D01*
X032980Y027005D02*
X026911Y027005D01*
X026713Y027164D02*
X032980Y027164D01*
X032980Y027322D02*
X026865Y027322D01*
X026968Y027481D02*
X032980Y027481D01*
X033111Y027956D02*
X026942Y027956D01*
X027008Y027798D02*
X034860Y027798D01*
X034860Y027956D02*
X033749Y027956D01*
X033891Y028115D02*
X034860Y028115D01*
X034860Y028273D02*
X033957Y028273D01*
X033960Y028432D02*
X034860Y028432D01*
X034860Y028590D02*
X033919Y028590D01*
X033817Y028749D02*
X034860Y028749D01*
X034860Y028907D02*
X033757Y028907D01*
X033959Y029066D02*
X034860Y029066D01*
X034860Y029224D02*
X034036Y029224D01*
X034060Y029383D02*
X034860Y029383D01*
X034860Y029541D02*
X034040Y029541D01*
X033966Y029700D02*
X034860Y029700D01*
X034860Y029858D02*
X033777Y029858D01*
X033810Y030017D02*
X034860Y030017D01*
X034860Y030175D02*
X033916Y030175D01*
X033960Y030334D02*
X034860Y030334D01*
X034860Y030492D02*
X033960Y030492D01*
X033894Y030651D02*
X034860Y030651D01*
X034860Y030809D02*
X033757Y030809D01*
X034073Y030968D02*
X034860Y030968D01*
X034860Y031126D02*
X034080Y031126D01*
X034080Y031285D02*
X034860Y031285D01*
X034860Y031443D02*
X034080Y031443D01*
X034080Y031407D02*
X034080Y031780D01*
X034068Y031826D01*
X034044Y031867D01*
X034011Y031901D01*
X033969Y031924D01*
X033924Y031937D01*
X033550Y031937D01*
X033550Y031407D01*
X034080Y031407D01*
X034080Y031602D02*
X034860Y031602D01*
X034860Y031760D02*
X034080Y031760D01*
X033979Y031919D02*
X034860Y031919D01*
X034860Y032077D02*
X031620Y032077D01*
X031620Y031919D02*
X033081Y031919D01*
X032980Y031760D02*
X031620Y031760D01*
X031620Y031602D02*
X032980Y031602D01*
X032980Y031443D02*
X031620Y031443D01*
X031620Y031285D02*
X032980Y031285D01*
X032980Y031126D02*
X031620Y031126D01*
X031620Y030968D02*
X032987Y030968D01*
X033103Y030809D02*
X031620Y030809D01*
X031620Y030651D02*
X032966Y030651D01*
X032900Y030492D02*
X031620Y030492D01*
X031672Y030334D02*
X032900Y030334D01*
X032944Y030175D02*
X031831Y030175D01*
X031989Y030017D02*
X033050Y030017D01*
X033283Y029858D02*
X032148Y029858D01*
X032180Y029487D02*
X033480Y029487D01*
X033580Y029387D01*
X033302Y028907D02*
X033130Y028836D01*
X032981Y028687D01*
X032941Y028590D02*
X027010Y028590D01*
X026948Y028432D02*
X032900Y028432D01*
X032903Y028273D02*
X026816Y028273D01*
X026801Y028115D02*
X032969Y028115D01*
X033510Y027481D02*
X033550Y027481D01*
X033550Y027637D02*
X033550Y027107D01*
X034080Y027107D01*
X034080Y027480D01*
X034068Y027526D01*
X034044Y027567D01*
X034011Y027601D01*
X033969Y027624D01*
X033924Y027637D01*
X033550Y027637D01*
X033550Y027322D02*
X033510Y027322D01*
X033510Y027164D02*
X033550Y027164D01*
X034080Y027164D02*
X034860Y027164D01*
X034860Y027322D02*
X034080Y027322D01*
X034080Y027481D02*
X034860Y027481D01*
X034860Y027639D02*
X027010Y027639D01*
X026850Y029066D02*
X033101Y029066D01*
X033024Y029224D02*
X026748Y029224D01*
X026926Y029383D02*
X031945Y029383D01*
X031786Y029541D02*
X026993Y029541D01*
X027010Y029700D02*
X031628Y029700D01*
X031469Y029858D02*
X026983Y029858D01*
X026899Y030017D02*
X031311Y030017D01*
X031166Y030175D02*
X026686Y030175D01*
X026877Y030334D02*
X031140Y030334D01*
X031140Y030492D02*
X026973Y030492D01*
X027010Y030651D02*
X031140Y030651D01*
X031140Y030809D02*
X027003Y030809D01*
X026937Y030968D02*
X031140Y030968D01*
X031140Y031126D02*
X026790Y031126D01*
X027010Y031285D02*
X031140Y031285D01*
X031140Y031443D02*
X027010Y031443D01*
X027010Y031602D02*
X031140Y031602D01*
X031140Y031760D02*
X027010Y031760D01*
X027010Y031919D02*
X031140Y031919D01*
X031140Y032077D02*
X027010Y032077D01*
X025480Y030687D02*
X024780Y030687D01*
X024980Y025687D02*
X023980Y024687D01*
X023980Y021787D01*
X024380Y021387D01*
X024580Y021687D02*
X030980Y021687D01*
X033380Y024087D01*
X033230Y024637D02*
X033081Y024786D01*
X033727Y025579D02*
X034860Y025579D01*
X034860Y025737D02*
X033830Y025737D01*
X033925Y025896D02*
X034860Y025896D01*
X034860Y026054D02*
X033960Y026054D01*
X033951Y026213D02*
X034860Y026213D01*
X034860Y026371D02*
X033886Y026371D01*
X033736Y026530D02*
X034860Y026530D01*
X034860Y026688D02*
X034079Y026688D01*
X034080Y026847D02*
X034860Y026847D01*
X034860Y027005D02*
X034080Y027005D01*
X033946Y025420D02*
X034860Y025420D01*
X034860Y025262D02*
X034031Y025262D01*
X031046Y022092D02*
X024520Y022092D01*
X024520Y022250D02*
X025167Y022250D01*
X025021Y022409D02*
X024520Y022409D01*
X024520Y022567D02*
X024956Y022567D01*
X024950Y022726D02*
X024520Y022726D01*
X024520Y022884D02*
X024988Y022884D01*
X025087Y023043D02*
X024520Y023043D01*
X024520Y023201D02*
X025267Y023201D01*
X025057Y023360D02*
X024520Y023360D01*
X024520Y023518D02*
X024976Y023518D01*
X024950Y023677D02*
X024520Y023677D01*
X024520Y023835D02*
X024968Y023835D01*
X025038Y023994D02*
X024520Y023994D01*
X024520Y024152D02*
X025219Y024152D01*
X025106Y024311D02*
X024520Y024311D01*
X024280Y024587D02*
X024280Y021987D01*
X024580Y021687D01*
X024673Y021933D02*
X030887Y021933D01*
X026167Y022250D02*
X025793Y022250D01*
X025939Y022409D02*
X026021Y022409D01*
X025480Y024687D02*
X024380Y024687D01*
X024280Y024587D01*
X024980Y025687D02*
X025480Y025687D01*
X031380Y030287D02*
X032180Y029487D01*
X031380Y030287D02*
X031380Y033987D01*
X031693Y034296D02*
X034860Y034296D01*
X034860Y034138D02*
X031738Y034138D01*
X031738Y033979D02*
X034860Y033979D01*
X034860Y033821D02*
X031738Y033821D01*
X031678Y033662D02*
X034860Y033662D01*
X034860Y033504D02*
X031620Y033504D01*
X031620Y033345D02*
X034860Y033345D01*
X034860Y033187D02*
X031620Y033187D01*
X031620Y033028D02*
X034860Y033028D01*
X034860Y032870D02*
X031620Y032870D01*
X031620Y032711D02*
X034860Y032711D01*
X034860Y032553D02*
X031620Y032553D01*
X031620Y032394D02*
X034860Y032394D01*
X034860Y032236D02*
X031620Y032236D01*
X033510Y031919D02*
X033550Y031919D01*
X033550Y031760D02*
X033510Y031760D01*
X033510Y031602D02*
X033550Y031602D01*
X033550Y031443D02*
X033510Y031443D01*
X034315Y034772D02*
X034860Y034772D01*
X034860Y034930D02*
X034493Y034930D01*
X034616Y035089D02*
X034860Y035089D01*
X034860Y035247D02*
X034708Y035247D01*
X034754Y035406D02*
X034860Y035406D01*
X034860Y035564D02*
X034790Y035564D01*
X034790Y035723D02*
X034860Y035723D01*
X034860Y035881D02*
X034777Y035881D01*
X034734Y036040D02*
X034860Y036040D01*
X034860Y036198D02*
X034666Y036198D01*
X034575Y036357D02*
X034860Y036357D01*
X034860Y036515D02*
X034421Y036515D01*
X018459Y031919D02*
X010010Y031919D01*
X010010Y031760D02*
X018301Y031760D01*
X018142Y031602D02*
X010010Y031602D01*
X010010Y031443D02*
X017984Y031443D01*
X017825Y031285D02*
X010010Y031285D01*
X002231Y025737D02*
X000800Y025737D01*
X000800Y025579D02*
X002136Y025579D01*
X002100Y025420D02*
X000800Y025420D01*
X000800Y025262D02*
X002108Y025262D01*
X002174Y025103D02*
X000800Y025103D01*
X000800Y024945D02*
X002322Y024945D01*
X002180Y024786D02*
X000800Y024786D01*
X000800Y024628D02*
X002056Y024628D01*
X002000Y024469D02*
X000800Y024469D01*
X000800Y024311D02*
X002000Y024311D01*
X002053Y024152D02*
X000800Y024152D01*
X000800Y023994D02*
X002173Y023994D01*
X002329Y023835D02*
X000800Y023835D01*
X000800Y023677D02*
X002176Y023677D01*
X002111Y023518D02*
X000800Y023518D01*
X000800Y023360D02*
X002100Y023360D01*
X002133Y023201D02*
X000800Y023201D01*
X000800Y023043D02*
X002224Y023043D01*
X002033Y022884D02*
X000800Y022884D01*
X000800Y022726D02*
X001980Y022726D01*
X001980Y022567D02*
X000800Y022567D01*
X000800Y022409D02*
X001980Y022409D01*
X001980Y022250D02*
X000800Y022250D01*
X000800Y022092D02*
X001980Y022092D01*
X002000Y021933D02*
X000800Y021933D01*
X001520Y020824D02*
X002243Y020824D01*
X002510Y021933D02*
X002550Y021933D01*
X002550Y022092D02*
X002510Y022092D01*
X002510Y022250D02*
X002550Y022250D01*
X017000Y014801D02*
X017043Y014801D01*
X017000Y014642D02*
X029570Y014642D01*
X029570Y014484D02*
X017000Y014484D01*
X017000Y014325D02*
X029601Y014325D01*
X029643Y014167D02*
X017000Y014167D01*
X017000Y014008D02*
X029732Y014008D01*
X028822Y012423D02*
X018000Y012423D01*
X018000Y012265D02*
X028822Y012265D01*
X028822Y012106D02*
X018000Y012106D01*
X018000Y011948D02*
X025208Y011948D01*
X025033Y011789D02*
X018000Y011789D01*
X018000Y011631D02*
X024966Y011631D01*
X024950Y011472D02*
X018000Y011472D01*
X018000Y011314D02*
X024978Y011314D01*
X025062Y011155D02*
X018000Y011155D01*
X018000Y010997D02*
X025278Y010997D01*
X025082Y010838D02*
X018000Y010838D01*
X018000Y010680D02*
X024986Y010680D01*
X024950Y010521D02*
X018000Y010521D01*
X018000Y010363D02*
X024958Y010363D01*
X025023Y010204D02*
X018000Y010204D01*
X018000Y010046D02*
X025171Y010046D01*
X025131Y009887D02*
X018000Y009887D01*
X018000Y009729D02*
X025007Y009729D01*
X024950Y009570D02*
X018000Y009570D01*
X018000Y009412D02*
X024950Y009412D01*
X025003Y009253D02*
X018000Y009253D01*
X018000Y009095D02*
X025122Y009095D01*
X025180Y008936D02*
X018000Y008936D01*
X018000Y008778D02*
X025027Y008778D01*
X024961Y008619D02*
X018000Y008619D01*
X018000Y008461D02*
X024950Y008461D01*
X024983Y008302D02*
X018000Y008302D01*
X018000Y008144D02*
X025073Y008144D01*
X025299Y007985D02*
X018000Y007985D01*
X018000Y007827D02*
X025070Y007827D01*
X024982Y007668D02*
X018000Y007668D01*
X018000Y007510D02*
X024950Y007510D01*
X024962Y007351D02*
X018000Y007351D01*
X018000Y007193D02*
X025028Y007193D01*
X025187Y007034D02*
X018000Y007034D01*
X018000Y006876D02*
X025119Y006876D01*
X025002Y006717D02*
X018000Y006717D01*
X018000Y006559D02*
X024950Y006559D01*
X024950Y006400D02*
X018000Y006400D01*
X018000Y006242D02*
X025008Y006242D01*
X025134Y006083D02*
X018000Y006083D01*
X018000Y005925D02*
X025168Y005925D01*
X025022Y005766D02*
X018000Y005766D01*
X018000Y005608D02*
X024956Y005608D01*
X024950Y005449D02*
X018000Y005449D01*
X018000Y005291D02*
X024988Y005291D01*
X025085Y005132D02*
X018000Y005132D01*
X018000Y004974D02*
X025271Y004974D01*
X025059Y004815D02*
X018000Y004815D01*
X018001Y004657D02*
X024977Y004657D01*
X024950Y004498D02*
X017944Y004498D01*
X017790Y004340D02*
X024967Y004340D01*
X025036Y004181D02*
X017637Y004181D01*
X017484Y004023D02*
X025215Y004023D01*
X025108Y003864D02*
X017331Y003864D01*
X017179Y003706D02*
X024997Y003706D01*
X024950Y003547D02*
X017026Y003547D01*
X016873Y003389D02*
X024950Y003389D01*
X025013Y003230D02*
X016720Y003230D01*
X016567Y003072D02*
X025145Y003072D01*
X024950Y002913D02*
X016414Y002913D01*
X016262Y002755D02*
X024950Y002755D01*
X024950Y002596D02*
X016109Y002596D01*
X015956Y002438D02*
X024950Y002438D01*
X024950Y002279D02*
X015803Y002279D01*
X015650Y002121D02*
X024950Y002121D01*
X026480Y002487D02*
X027280Y002487D01*
X027030Y002438D02*
X028550Y002438D01*
X028552Y002596D02*
X027030Y002596D01*
X027030Y002755D02*
X028617Y002755D01*
X028757Y002913D02*
X027021Y002913D01*
X026815Y003072D02*
X028840Y003072D01*
X028840Y003230D02*
X026947Y003230D01*
X027010Y003389D02*
X028840Y003389D01*
X028840Y003547D02*
X027010Y003547D01*
X026963Y003706D02*
X028840Y003706D01*
X028840Y003864D02*
X026852Y003864D01*
X026745Y004023D02*
X028840Y004023D01*
X028840Y004181D02*
X026924Y004181D01*
X026993Y004340D02*
X028840Y004340D01*
X028840Y004498D02*
X027010Y004498D01*
X026983Y004657D02*
X028840Y004657D01*
X028840Y004815D02*
X026901Y004815D01*
X026689Y004974D02*
X028840Y004974D01*
X028840Y005132D02*
X026875Y005132D01*
X026972Y005291D02*
X028840Y005291D01*
X028840Y005449D02*
X027010Y005449D01*
X027004Y005608D02*
X028840Y005608D01*
X028840Y005766D02*
X026938Y005766D01*
X026792Y005925D02*
X028840Y005925D01*
X028840Y006083D02*
X026826Y006083D01*
X026952Y006242D02*
X028840Y006242D01*
X028840Y006400D02*
X027010Y006400D01*
X027010Y006559D02*
X028840Y006559D01*
X028840Y006717D02*
X026958Y006717D01*
X026841Y006876D02*
X028840Y006876D01*
X028840Y007034D02*
X026773Y007034D01*
X026932Y007193D02*
X028840Y007193D01*
X028840Y007351D02*
X026998Y007351D01*
X027010Y007510D02*
X028840Y007510D01*
X028840Y007668D02*
X026978Y007668D01*
X026890Y007827D02*
X028840Y007827D01*
X028840Y007985D02*
X026661Y007985D01*
X026887Y008144D02*
X028840Y008144D01*
X028840Y008302D02*
X026977Y008302D01*
X027010Y008461D02*
X028840Y008461D01*
X028840Y008619D02*
X026999Y008619D01*
X026933Y008778D02*
X028840Y008778D01*
X028840Y008936D02*
X026780Y008936D01*
X026838Y009095D02*
X028840Y009095D01*
X028840Y009253D02*
X026957Y009253D01*
X027010Y009412D02*
X028840Y009412D01*
X028840Y009570D02*
X027010Y009570D01*
X026953Y009729D02*
X028840Y009729D01*
X028840Y009887D02*
X026829Y009887D01*
X026789Y010046D02*
X028840Y010046D01*
X028840Y010204D02*
X026937Y010204D01*
X027002Y010363D02*
X028840Y010363D01*
X028840Y010521D02*
X027010Y010521D01*
X026974Y010680D02*
X028840Y010680D01*
X028840Y010838D02*
X026878Y010838D01*
X026682Y010997D02*
X028840Y010997D01*
X028840Y011155D02*
X026898Y011155D01*
X026982Y011314D02*
X028840Y011314D01*
X028840Y011472D02*
X027010Y011472D01*
X026994Y011631D02*
X028840Y011631D01*
X028840Y011789D02*
X026927Y011789D01*
X026752Y011948D02*
X028822Y011948D01*
X029080Y012087D02*
X029180Y012187D01*
X029080Y012087D02*
X029080Y002487D01*
X028592Y002279D02*
X027030Y002279D01*
X027030Y002121D02*
X028696Y002121D01*
X029543Y002755D02*
X029617Y002755D01*
X031429Y002913D02*
X031550Y002913D01*
X034302Y004023D02*
X034860Y004023D01*
X034860Y003864D02*
X034572Y003864D01*
X034731Y003706D02*
X034860Y003706D01*
X034860Y003547D02*
X034838Y003547D01*
X033505Y009412D02*
X032600Y009412D01*
X032600Y009570D02*
X033396Y009570D01*
X033350Y009729D02*
X032600Y009729D01*
X032600Y009887D02*
X033350Y009887D01*
X033414Y010046D02*
X032600Y010046D01*
X032600Y010204D02*
X033548Y010204D01*
X033554Y010363D02*
X032600Y010363D01*
X032600Y010521D02*
X033416Y010521D01*
X033351Y010680D02*
X032600Y010680D01*
X032600Y010838D02*
X033350Y010838D01*
X033393Y010997D02*
X032600Y010997D01*
X032600Y011155D02*
X033499Y011155D01*
X033637Y011314D02*
X032760Y011314D01*
X032813Y012106D02*
X033450Y012106D01*
X033413Y012265D02*
X032655Y012265D01*
X032651Y012268D02*
X032651Y012268D01*
X032600Y012423D02*
X033330Y012423D01*
X033330Y012582D02*
X032600Y012582D01*
X032600Y012740D02*
X033330Y012740D01*
X033330Y012899D02*
X032601Y012899D01*
X032556Y013057D02*
X033330Y013057D01*
X033339Y013216D02*
X032461Y013216D01*
X033860Y013216D02*
X033900Y013216D01*
X033900Y013057D02*
X033860Y013057D01*
X033860Y012899D02*
X033900Y012899D01*
X034860Y014801D02*
X032617Y014801D01*
X032638Y014959D02*
X034860Y014959D01*
X033206Y016861D02*
X030845Y016861D01*
X030883Y016823D02*
X030883Y016823D01*
X031003Y016703D02*
X033096Y016703D01*
X032963Y016544D02*
X031162Y016544D01*
X031320Y016386D02*
X032900Y016386D01*
X032900Y016227D02*
X031479Y016227D01*
X031637Y016069D02*
X032947Y016069D01*
X033057Y015910D02*
X031796Y015910D01*
X026208Y011948D02*
X025752Y011948D01*
X025927Y011789D02*
X026033Y011789D01*
X026460Y002913D02*
X026500Y002913D01*
X026480Y002887D02*
X026480Y002487D01*
X026460Y002596D02*
X026500Y002596D01*
X026500Y002755D02*
X026460Y002755D01*
X019760Y001962D02*
X015497Y001962D01*
X017000Y013850D02*
X018090Y013850D01*
D15*
X033280Y012787D02*
X033880Y012787D01*
X034580Y012787D01*
X033880Y012787D02*
X033880Y013587D01*
D16*
X032280Y015087D03*
X030780Y011987D03*
X031380Y010587D03*
X029180Y012187D03*
X031480Y005987D03*
X017380Y015087D03*
X014880Y014387D03*
X014180Y015187D03*
X012180Y018587D03*
X014580Y018987D03*
X008780Y016787D03*
X006980Y018687D03*
X005680Y019187D03*
X014380Y004887D03*
X012680Y004587D03*
X031380Y033987D03*
D17*
X025480Y031787D02*
X025380Y031687D01*
X025480Y031687D01*
X025380Y031687D02*
X018680Y031687D01*
X016680Y029687D01*
X016680Y021187D01*
X017180Y020687D01*
X031780Y020687D01*
X032780Y021687D01*
X033480Y021687D01*
X031880Y013587D02*
X032280Y012887D01*
X032280Y011487D01*
X032480Y011487D01*
X032680Y011687D01*
X032780Y011687D02*
X032380Y012087D01*
X032380Y011587D01*
X032280Y011487D01*
X032280Y002587D01*
X032180Y002487D01*
X032780Y011687D02*
X033780Y011687D01*
X031880Y013587D02*
X018280Y013587D01*
X017680Y012987D01*
X017680Y004687D01*
X014980Y001887D01*
X014880Y001787D01*
X008680Y001787D01*
X008480Y001987D01*
X008480Y002387D01*
X009480Y002487D02*
X013980Y002487D01*
X016680Y005187D01*
X016680Y021187D01*
X016780Y021087D02*
X017080Y020787D01*
X016980Y020687D02*
X016780Y020487D01*
X016980Y020687D02*
X017180Y020687D01*
M02*
