G75*
%MOIN*%
%OFA0B0*%
%FSLAX24Y24*%
%IPPOS*%
%LPD*%
%AMOC8*
5,1,8,0,0,1.08239X$1,22.5*
%
%ADD10C,0.0080*%
%ADD11C,0.0000*%
%ADD12C,0.1340*%
%ADD13R,0.0820X0.0820*%
%ADD14C,0.0820*%
%ADD15R,0.0476X0.0476*%
D10*
X000280Y001387D02*
X000280Y039987D01*
X035380Y039987D01*
X035380Y001487D01*
X000280Y001387D01*
D11*
X001750Y002787D02*
X001752Y002837D01*
X001758Y002887D01*
X001768Y002936D01*
X001782Y002984D01*
X001799Y003031D01*
X001820Y003076D01*
X001845Y003120D01*
X001873Y003161D01*
X001905Y003200D01*
X001939Y003237D01*
X001976Y003271D01*
X002016Y003301D01*
X002058Y003328D01*
X002102Y003352D01*
X002148Y003373D01*
X002195Y003389D01*
X002243Y003402D01*
X002293Y003411D01*
X002342Y003416D01*
X002393Y003417D01*
X002443Y003414D01*
X002492Y003407D01*
X002541Y003396D01*
X002589Y003381D01*
X002635Y003363D01*
X002680Y003341D01*
X002723Y003315D01*
X002764Y003286D01*
X002803Y003254D01*
X002839Y003219D01*
X002871Y003181D01*
X002901Y003141D01*
X002928Y003098D01*
X002951Y003054D01*
X002970Y003008D01*
X002986Y002960D01*
X002998Y002911D01*
X003006Y002862D01*
X003010Y002812D01*
X003010Y002762D01*
X003006Y002712D01*
X002998Y002663D01*
X002986Y002614D01*
X002970Y002566D01*
X002951Y002520D01*
X002928Y002476D01*
X002901Y002433D01*
X002871Y002393D01*
X002839Y002355D01*
X002803Y002320D01*
X002764Y002288D01*
X002723Y002259D01*
X002680Y002233D01*
X002635Y002211D01*
X002589Y002193D01*
X002541Y002178D01*
X002492Y002167D01*
X002443Y002160D01*
X002393Y002157D01*
X002342Y002158D01*
X002293Y002163D01*
X002243Y002172D01*
X002195Y002185D01*
X002148Y002201D01*
X002102Y002222D01*
X002058Y002246D01*
X002016Y002273D01*
X001976Y002303D01*
X001939Y002337D01*
X001905Y002374D01*
X001873Y002413D01*
X001845Y002454D01*
X001820Y002498D01*
X001799Y002543D01*
X001782Y002590D01*
X001768Y002638D01*
X001758Y002687D01*
X001752Y002737D01*
X001750Y002787D01*
X030050Y014587D02*
X030052Y014637D01*
X030058Y014687D01*
X030068Y014736D01*
X030082Y014784D01*
X030099Y014831D01*
X030120Y014876D01*
X030145Y014920D01*
X030173Y014961D01*
X030205Y015000D01*
X030239Y015037D01*
X030276Y015071D01*
X030316Y015101D01*
X030358Y015128D01*
X030402Y015152D01*
X030448Y015173D01*
X030495Y015189D01*
X030543Y015202D01*
X030593Y015211D01*
X030642Y015216D01*
X030693Y015217D01*
X030743Y015214D01*
X030792Y015207D01*
X030841Y015196D01*
X030889Y015181D01*
X030935Y015163D01*
X030980Y015141D01*
X031023Y015115D01*
X031064Y015086D01*
X031103Y015054D01*
X031139Y015019D01*
X031171Y014981D01*
X031201Y014941D01*
X031228Y014898D01*
X031251Y014854D01*
X031270Y014808D01*
X031286Y014760D01*
X031298Y014711D01*
X031306Y014662D01*
X031310Y014612D01*
X031310Y014562D01*
X031306Y014512D01*
X031298Y014463D01*
X031286Y014414D01*
X031270Y014366D01*
X031251Y014320D01*
X031228Y014276D01*
X031201Y014233D01*
X031171Y014193D01*
X031139Y014155D01*
X031103Y014120D01*
X031064Y014088D01*
X031023Y014059D01*
X030980Y014033D01*
X030935Y014011D01*
X030889Y013993D01*
X030841Y013978D01*
X030792Y013967D01*
X030743Y013960D01*
X030693Y013957D01*
X030642Y013958D01*
X030593Y013963D01*
X030543Y013972D01*
X030495Y013985D01*
X030448Y014001D01*
X030402Y014022D01*
X030358Y014046D01*
X030316Y014073D01*
X030276Y014103D01*
X030239Y014137D01*
X030205Y014174D01*
X030173Y014213D01*
X030145Y014254D01*
X030120Y014298D01*
X030099Y014343D01*
X030082Y014390D01*
X030068Y014438D01*
X030058Y014487D01*
X030052Y014537D01*
X030050Y014587D01*
X033250Y002987D02*
X033252Y003037D01*
X033258Y003087D01*
X033268Y003136D01*
X033282Y003184D01*
X033299Y003231D01*
X033320Y003276D01*
X033345Y003320D01*
X033373Y003361D01*
X033405Y003400D01*
X033439Y003437D01*
X033476Y003471D01*
X033516Y003501D01*
X033558Y003528D01*
X033602Y003552D01*
X033648Y003573D01*
X033695Y003589D01*
X033743Y003602D01*
X033793Y003611D01*
X033842Y003616D01*
X033893Y003617D01*
X033943Y003614D01*
X033992Y003607D01*
X034041Y003596D01*
X034089Y003581D01*
X034135Y003563D01*
X034180Y003541D01*
X034223Y003515D01*
X034264Y003486D01*
X034303Y003454D01*
X034339Y003419D01*
X034371Y003381D01*
X034401Y003341D01*
X034428Y003298D01*
X034451Y003254D01*
X034470Y003208D01*
X034486Y003160D01*
X034498Y003111D01*
X034506Y003062D01*
X034510Y003012D01*
X034510Y002962D01*
X034506Y002912D01*
X034498Y002863D01*
X034486Y002814D01*
X034470Y002766D01*
X034451Y002720D01*
X034428Y002676D01*
X034401Y002633D01*
X034371Y002593D01*
X034339Y002555D01*
X034303Y002520D01*
X034264Y002488D01*
X034223Y002459D01*
X034180Y002433D01*
X034135Y002411D01*
X034089Y002393D01*
X034041Y002378D01*
X033992Y002367D01*
X033943Y002360D01*
X033893Y002357D01*
X033842Y002358D01*
X033793Y002363D01*
X033743Y002372D01*
X033695Y002385D01*
X033648Y002401D01*
X033602Y002422D01*
X033558Y002446D01*
X033516Y002473D01*
X033476Y002503D01*
X033439Y002537D01*
X033405Y002574D01*
X033373Y002613D01*
X033345Y002654D01*
X033320Y002698D01*
X033299Y002743D01*
X033282Y002790D01*
X033268Y002838D01*
X033258Y002887D01*
X033252Y002937D01*
X033250Y002987D01*
X033050Y035687D02*
X033052Y035737D01*
X033058Y035787D01*
X033068Y035836D01*
X033082Y035884D01*
X033099Y035931D01*
X033120Y035976D01*
X033145Y036020D01*
X033173Y036061D01*
X033205Y036100D01*
X033239Y036137D01*
X033276Y036171D01*
X033316Y036201D01*
X033358Y036228D01*
X033402Y036252D01*
X033448Y036273D01*
X033495Y036289D01*
X033543Y036302D01*
X033593Y036311D01*
X033642Y036316D01*
X033693Y036317D01*
X033743Y036314D01*
X033792Y036307D01*
X033841Y036296D01*
X033889Y036281D01*
X033935Y036263D01*
X033980Y036241D01*
X034023Y036215D01*
X034064Y036186D01*
X034103Y036154D01*
X034139Y036119D01*
X034171Y036081D01*
X034201Y036041D01*
X034228Y035998D01*
X034251Y035954D01*
X034270Y035908D01*
X034286Y035860D01*
X034298Y035811D01*
X034306Y035762D01*
X034310Y035712D01*
X034310Y035662D01*
X034306Y035612D01*
X034298Y035563D01*
X034286Y035514D01*
X034270Y035466D01*
X034251Y035420D01*
X034228Y035376D01*
X034201Y035333D01*
X034171Y035293D01*
X034139Y035255D01*
X034103Y035220D01*
X034064Y035188D01*
X034023Y035159D01*
X033980Y035133D01*
X033935Y035111D01*
X033889Y035093D01*
X033841Y035078D01*
X033792Y035067D01*
X033743Y035060D01*
X033693Y035057D01*
X033642Y035058D01*
X033593Y035063D01*
X033543Y035072D01*
X033495Y035085D01*
X033448Y035101D01*
X033402Y035122D01*
X033358Y035146D01*
X033316Y035173D01*
X033276Y035203D01*
X033239Y035237D01*
X033205Y035274D01*
X033173Y035313D01*
X033145Y035354D01*
X033120Y035398D01*
X033099Y035443D01*
X033082Y035490D01*
X033068Y035538D01*
X033058Y035587D01*
X033052Y035637D01*
X033050Y035687D01*
X001450Y035587D02*
X001452Y035637D01*
X001458Y035687D01*
X001468Y035736D01*
X001482Y035784D01*
X001499Y035831D01*
X001520Y035876D01*
X001545Y035920D01*
X001573Y035961D01*
X001605Y036000D01*
X001639Y036037D01*
X001676Y036071D01*
X001716Y036101D01*
X001758Y036128D01*
X001802Y036152D01*
X001848Y036173D01*
X001895Y036189D01*
X001943Y036202D01*
X001993Y036211D01*
X002042Y036216D01*
X002093Y036217D01*
X002143Y036214D01*
X002192Y036207D01*
X002241Y036196D01*
X002289Y036181D01*
X002335Y036163D01*
X002380Y036141D01*
X002423Y036115D01*
X002464Y036086D01*
X002503Y036054D01*
X002539Y036019D01*
X002571Y035981D01*
X002601Y035941D01*
X002628Y035898D01*
X002651Y035854D01*
X002670Y035808D01*
X002686Y035760D01*
X002698Y035711D01*
X002706Y035662D01*
X002710Y035612D01*
X002710Y035562D01*
X002706Y035512D01*
X002698Y035463D01*
X002686Y035414D01*
X002670Y035366D01*
X002651Y035320D01*
X002628Y035276D01*
X002601Y035233D01*
X002571Y035193D01*
X002539Y035155D01*
X002503Y035120D01*
X002464Y035088D01*
X002423Y035059D01*
X002380Y035033D01*
X002335Y035011D01*
X002289Y034993D01*
X002241Y034978D01*
X002192Y034967D01*
X002143Y034960D01*
X002093Y034957D01*
X002042Y034958D01*
X001993Y034963D01*
X001943Y034972D01*
X001895Y034985D01*
X001848Y035001D01*
X001802Y035022D01*
X001758Y035046D01*
X001716Y035073D01*
X001676Y035103D01*
X001639Y035137D01*
X001605Y035174D01*
X001573Y035213D01*
X001545Y035254D01*
X001520Y035298D01*
X001499Y035343D01*
X001482Y035390D01*
X001468Y035438D01*
X001458Y035487D01*
X001452Y035537D01*
X001450Y035587D01*
D12*
X002080Y035587D03*
X030680Y014587D03*
X033880Y002987D03*
X033680Y035687D03*
X002380Y002787D03*
D13*
X002530Y005587D03*
X002530Y009787D03*
X002530Y013987D03*
X002530Y018187D03*
X002530Y022387D03*
X002530Y026587D03*
X008480Y031687D03*
X009480Y031687D03*
X025480Y031687D03*
X026480Y031687D03*
X033530Y031387D03*
X033530Y027087D03*
X033480Y021687D03*
X033530Y019287D03*
X033880Y012787D03*
X032080Y002487D03*
X026480Y002487D03*
X025480Y002487D03*
X009480Y002487D03*
X008480Y002487D03*
D14*
X008480Y003487D03*
X008480Y004487D03*
X008480Y005487D03*
X008480Y006487D03*
X008480Y007487D03*
X008480Y008487D03*
X008480Y009487D03*
X008480Y010487D03*
X008480Y011487D03*
X009480Y011487D03*
X009480Y010487D03*
X009480Y009487D03*
X009480Y008487D03*
X009480Y007487D03*
X009480Y006487D03*
X009480Y005487D03*
X009480Y004487D03*
X009480Y003487D03*
X002630Y006587D03*
X002530Y007587D03*
X002630Y008587D03*
X002630Y010787D03*
X002530Y011787D03*
X002630Y012787D03*
X002630Y014987D03*
X002530Y015987D03*
X002630Y016987D03*
X002630Y019187D03*
X002530Y020187D03*
X002630Y021187D03*
X002630Y023387D03*
X002530Y024387D03*
X002630Y025387D03*
X002630Y027587D03*
X002530Y028587D03*
X002630Y029587D03*
X008480Y029687D03*
X008480Y028687D03*
X009480Y028687D03*
X009480Y029687D03*
X009480Y030687D03*
X008480Y030687D03*
X008480Y027687D03*
X008480Y026687D03*
X009480Y026687D03*
X009480Y027687D03*
X009480Y025687D03*
X009480Y024687D03*
X008480Y024687D03*
X008480Y025687D03*
X008480Y023687D03*
X008480Y022687D03*
X009480Y022687D03*
X009480Y023687D03*
X025480Y023687D03*
X025480Y022687D03*
X026480Y022687D03*
X026480Y023687D03*
X026480Y024687D03*
X026480Y025687D03*
X026480Y026687D03*
X026480Y027687D03*
X026480Y028687D03*
X026480Y029687D03*
X026480Y030687D03*
X025480Y030687D03*
X025480Y029687D03*
X025480Y028687D03*
X025480Y027687D03*
X025480Y026687D03*
X025480Y025687D03*
X025480Y024687D03*
X033430Y024087D03*
X033530Y025087D03*
X033430Y026087D03*
X033430Y028387D03*
X033530Y029387D03*
X033430Y030387D03*
X033480Y020687D03*
X033430Y018287D03*
X033530Y017287D03*
X033430Y016287D03*
X033880Y011787D03*
X033880Y010787D03*
X033880Y009787D03*
X031080Y002487D03*
X030080Y002487D03*
X029080Y002487D03*
X026480Y003487D03*
X026480Y004487D03*
X026480Y005487D03*
X026480Y006487D03*
X026480Y007487D03*
X026480Y008487D03*
X026480Y009487D03*
X026480Y010487D03*
X026480Y011487D03*
X025480Y011487D03*
X025480Y010487D03*
X025480Y009487D03*
X025480Y008487D03*
X025480Y007487D03*
X025480Y006487D03*
X025480Y005487D03*
X025480Y004487D03*
X025480Y003487D03*
D15*
X031480Y005987D03*
X031380Y010587D03*
X030780Y011987D03*
X029180Y012187D03*
X032280Y015087D03*
X017380Y015087D03*
X014880Y014387D03*
X014180Y015187D03*
X012180Y018587D03*
X014580Y018987D03*
X008780Y016787D03*
X006980Y018687D03*
X005680Y019187D03*
X014380Y004887D03*
X012680Y004587D03*
X031380Y033987D03*
M02*
