G75*
%MOIN*%
%OFA0B0*%
%FSLAX24Y24*%
%IPPOS*%
%LPD*%
%AMOC8*
5,1,8,0,0,1.08239X$1,22.5*
%
%ADD10C,0.0080*%
%ADD11C,0.0070*%
%ADD12C,0.0000*%
%ADD13C,0.0160*%
%ADD14C,0.0040*%
%ADD15C,0.0060*%
%ADD16C,0.0030*%
%ADD17R,0.0010X0.0010*%
%ADD18R,0.0040X0.0010*%
%ADD19R,0.0060X0.0010*%
%ADD20R,0.0090X0.0010*%
%ADD21R,0.0030X0.0010*%
%ADD22R,0.0020X0.0010*%
%ADD23R,0.0050X0.0010*%
%ADD24R,0.0070X0.0010*%
%ADD25R,0.0080X0.0010*%
%ADD26R,0.0120X0.0010*%
%ADD27R,0.0100X0.0010*%
%ADD28R,0.0140X0.0010*%
%ADD29R,0.0150X0.0010*%
%ADD30R,0.0170X0.0010*%
%ADD31R,0.0190X0.0010*%
%ADD32R,0.0200X0.0010*%
%ADD33R,0.0210X0.0010*%
%ADD34R,0.0230X0.0010*%
%ADD35R,0.0250X0.0010*%
%ADD36R,0.0270X0.0010*%
%ADD37R,0.0290X0.0010*%
%ADD38R,0.0310X0.0010*%
%ADD39R,0.0160X0.0010*%
%ADD40R,0.0330X0.0010*%
%ADD41R,0.0350X0.0010*%
%ADD42R,0.0370X0.0010*%
%ADD43R,0.0340X0.0010*%
%ADD44R,0.0420X0.0010*%
%ADD45R,0.0400X0.0010*%
%ADD46R,0.0360X0.0010*%
%ADD47R,0.0320X0.0010*%
%ADD48R,0.0280X0.0010*%
%ADD49R,0.0260X0.0010*%
%ADD50R,0.0240X0.0010*%
%ADD51R,0.0220X0.0010*%
%ADD52R,0.0110X0.0010*%
%ADD53R,0.0180X0.0010*%
%ADD54R,0.1440X0.0010*%
%ADD55R,0.1450X0.0010*%
%ADD56R,0.1460X0.0010*%
%ADD57R,0.1470X0.0010*%
%ADD58R,0.1480X0.0010*%
%ADD59R,0.1490X0.0010*%
%ADD60R,0.1500X0.0010*%
%ADD61R,0.1510X0.0010*%
%ADD62R,0.1520X0.0010*%
%ADD63R,0.1530X0.0010*%
%ADD64R,0.1540X0.0010*%
%ADD65R,0.1550X0.0010*%
%ADD66R,0.1560X0.0010*%
%ADD67R,0.1570X0.0010*%
%ADD68R,0.1580X0.0010*%
%ADD69R,0.1590X0.0010*%
%ADD70R,0.1600X0.0010*%
%ADD71R,0.1610X0.0010*%
%ADD72R,0.1620X0.0010*%
%ADD73R,0.1630X0.0010*%
%ADD74R,0.1640X0.0010*%
%ADD75R,0.1650X0.0010*%
%ADD76R,0.0510X0.0010*%
%ADD77R,0.0690X0.0010*%
%ADD78R,0.0300X0.0010*%
%ADD79R,0.0480X0.0010*%
%ADD80R,0.0450X0.0010*%
%ADD81R,0.0440X0.0010*%
%ADD82R,0.0430X0.0010*%
%ADD83R,0.0410X0.0010*%
%ADD84R,0.0390X0.0010*%
%ADD85R,0.0380X0.0010*%
%ADD86R,0.0130X0.0010*%
%ADD87R,0.0580X0.0010*%
%ADD88R,0.0590X0.0010*%
%ADD89R,0.0550X0.0010*%
%ADD90R,0.0530X0.0010*%
%ADD91R,0.0520X0.0010*%
%ADD92R,0.0460X0.0010*%
%ADD93R,0.0500X0.0010*%
%ADD94R,0.0490X0.0010*%
%ADD95R,0.0470X0.0010*%
%ADD96R,0.0620X0.0010*%
%ADD97R,0.0610X0.0010*%
%ADD98R,0.0560X0.0010*%
%ADD99R,0.0600X0.0010*%
%ADD100C,0.0050*%
D10*
X000280Y001387D02*
X000280Y039987D01*
X035380Y039987D01*
X035380Y001487D01*
X000280Y001387D01*
X028580Y002237D02*
X028830Y001987D01*
X029330Y001987D01*
X029580Y002237D01*
X029830Y001987D01*
X030330Y001987D01*
X030580Y002237D01*
X030830Y001987D01*
X031330Y001987D01*
X031580Y002237D01*
X031830Y001987D01*
X032330Y001987D01*
X032580Y002237D01*
X032580Y002737D01*
X032330Y002987D01*
X031830Y002987D01*
X031580Y002737D01*
X031330Y002987D01*
X030830Y002987D01*
X030580Y002737D01*
X030330Y002987D01*
X029830Y002987D01*
X029580Y002737D01*
X029330Y002987D01*
X028830Y002987D01*
X028580Y002737D01*
X028580Y002237D01*
D11*
X003464Y037572D02*
X003254Y037572D01*
X003149Y037677D01*
X003569Y038097D01*
X003569Y037677D01*
X003464Y037572D01*
X003149Y037677D02*
X003149Y038097D01*
X003254Y038202D01*
X003464Y038202D01*
X003569Y038097D01*
X003478Y038672D02*
X003478Y039092D01*
X003478Y038882D02*
X003689Y039092D01*
X003794Y039092D01*
X003254Y038987D02*
X003149Y039092D01*
X002939Y039092D01*
X002834Y038987D01*
X002834Y038777D01*
X002939Y038672D01*
X003149Y038672D01*
X003254Y038777D01*
X003254Y038987D01*
X002614Y039092D02*
X002404Y039092D01*
X002509Y039197D02*
X002509Y038777D01*
X002614Y038672D01*
X002180Y038777D02*
X002180Y038987D01*
X002075Y039092D01*
X001865Y039092D01*
X001760Y038987D01*
X001760Y038777D01*
X001865Y038672D01*
X002075Y038672D01*
X002180Y038777D01*
X002070Y038202D02*
X002070Y037572D01*
X001860Y037572D02*
X002280Y037572D01*
X002504Y037572D02*
X002504Y038202D01*
X002819Y038202D01*
X002924Y038097D01*
X002924Y037887D01*
X002819Y037782D01*
X002504Y037782D01*
X002714Y037782D02*
X002924Y037572D01*
X002070Y038202D02*
X001860Y037992D01*
X001635Y037782D02*
X001635Y038202D01*
X001215Y038202D02*
X001215Y037782D01*
X001425Y037572D01*
X001635Y037782D01*
X001535Y038672D02*
X001535Y039302D01*
X001325Y039092D01*
X001115Y039302D01*
X001115Y038672D01*
X004660Y038777D02*
X004765Y038672D01*
X004975Y038672D01*
X005080Y038777D01*
X005305Y038777D02*
X005410Y038672D01*
X005620Y038672D01*
X005725Y038777D01*
X005725Y038987D01*
X005620Y039092D01*
X005410Y039092D01*
X005305Y038987D01*
X005305Y038777D01*
X005080Y039197D02*
X004975Y039302D01*
X004765Y039302D01*
X004660Y039197D01*
X004660Y038777D01*
X005949Y038672D02*
X005949Y039092D01*
X006264Y039092D01*
X006369Y038987D01*
X006369Y038672D01*
X006699Y038777D02*
X006699Y039197D01*
X006594Y039092D02*
X006804Y039092D01*
X007023Y039092D02*
X007023Y038672D01*
X007023Y038882D02*
X007234Y039092D01*
X007339Y039092D01*
X007560Y038987D02*
X007560Y038777D01*
X007666Y038672D01*
X007876Y038672D01*
X007981Y038777D01*
X007981Y038987D01*
X007876Y039092D01*
X007666Y039092D01*
X007560Y038987D01*
X008205Y039302D02*
X008310Y039302D01*
X008310Y038672D01*
X008205Y038672D02*
X008415Y038672D01*
X009279Y038777D02*
X009279Y038882D01*
X009489Y039092D01*
X009489Y039197D01*
X009384Y039302D01*
X009279Y039197D01*
X009279Y039092D01*
X009700Y038672D01*
X009700Y038882D02*
X009489Y038672D01*
X009384Y038672D01*
X009279Y038777D01*
X010568Y039302D02*
X010989Y039302D01*
X010779Y039302D02*
X010779Y038672D01*
X011213Y038777D02*
X011213Y038987D01*
X011318Y039092D01*
X011528Y039092D01*
X011633Y038987D01*
X011633Y038882D01*
X011213Y038882D01*
X011213Y038777D02*
X011318Y038672D01*
X011528Y038672D01*
X011857Y038672D02*
X012068Y038672D01*
X011963Y038672D02*
X011963Y039302D01*
X011857Y039302D01*
X012287Y038987D02*
X012392Y039092D01*
X012602Y039092D01*
X012708Y038987D01*
X012708Y038882D01*
X012287Y038882D01*
X012287Y038777D02*
X012287Y038987D01*
X012287Y038777D02*
X012392Y038672D01*
X012602Y038672D01*
X012932Y038672D02*
X012932Y039092D01*
X013037Y039092D01*
X013142Y038987D01*
X013247Y039092D01*
X013352Y038987D01*
X013352Y038672D01*
X013142Y038672D02*
X013142Y038987D01*
X013576Y038987D02*
X013681Y039092D01*
X013892Y039092D01*
X013997Y038987D01*
X013997Y038882D01*
X013576Y038882D01*
X013576Y038777D02*
X013576Y038987D01*
X013576Y038777D02*
X013681Y038672D01*
X013892Y038672D01*
X014221Y039092D02*
X014431Y039092D01*
X014326Y039197D02*
X014326Y038777D01*
X014431Y038672D01*
X014651Y038672D02*
X014651Y039092D01*
X014861Y039092D02*
X014966Y039092D01*
X014861Y039092D02*
X014651Y038882D01*
X015188Y038777D02*
X015188Y039092D01*
X015188Y038777D02*
X015293Y038672D01*
X015608Y038672D01*
X015608Y038567D02*
X015503Y038461D01*
X015398Y038461D01*
X015608Y038567D02*
X015608Y039092D01*
X006804Y038672D02*
X006699Y038777D01*
D12*
X001450Y035587D02*
X001452Y035637D01*
X001458Y035687D01*
X001468Y035736D01*
X001482Y035784D01*
X001499Y035831D01*
X001520Y035876D01*
X001545Y035920D01*
X001573Y035961D01*
X001605Y036000D01*
X001639Y036037D01*
X001676Y036071D01*
X001716Y036101D01*
X001758Y036128D01*
X001802Y036152D01*
X001848Y036173D01*
X001895Y036189D01*
X001943Y036202D01*
X001993Y036211D01*
X002042Y036216D01*
X002093Y036217D01*
X002143Y036214D01*
X002192Y036207D01*
X002241Y036196D01*
X002289Y036181D01*
X002335Y036163D01*
X002380Y036141D01*
X002423Y036115D01*
X002464Y036086D01*
X002503Y036054D01*
X002539Y036019D01*
X002571Y035981D01*
X002601Y035941D01*
X002628Y035898D01*
X002651Y035854D01*
X002670Y035808D01*
X002686Y035760D01*
X002698Y035711D01*
X002706Y035662D01*
X002710Y035612D01*
X002710Y035562D01*
X002706Y035512D01*
X002698Y035463D01*
X002686Y035414D01*
X002670Y035366D01*
X002651Y035320D01*
X002628Y035276D01*
X002601Y035233D01*
X002571Y035193D01*
X002539Y035155D01*
X002503Y035120D01*
X002464Y035088D01*
X002423Y035059D01*
X002380Y035033D01*
X002335Y035011D01*
X002289Y034993D01*
X002241Y034978D01*
X002192Y034967D01*
X002143Y034960D01*
X002093Y034957D01*
X002042Y034958D01*
X001993Y034963D01*
X001943Y034972D01*
X001895Y034985D01*
X001848Y035001D01*
X001802Y035022D01*
X001758Y035046D01*
X001716Y035073D01*
X001676Y035103D01*
X001639Y035137D01*
X001605Y035174D01*
X001573Y035213D01*
X001545Y035254D01*
X001520Y035298D01*
X001499Y035343D01*
X001482Y035390D01*
X001468Y035438D01*
X001458Y035487D01*
X001452Y035537D01*
X001450Y035587D01*
X001750Y002787D02*
X001752Y002837D01*
X001758Y002887D01*
X001768Y002936D01*
X001782Y002984D01*
X001799Y003031D01*
X001820Y003076D01*
X001845Y003120D01*
X001873Y003161D01*
X001905Y003200D01*
X001939Y003237D01*
X001976Y003271D01*
X002016Y003301D01*
X002058Y003328D01*
X002102Y003352D01*
X002148Y003373D01*
X002195Y003389D01*
X002243Y003402D01*
X002293Y003411D01*
X002342Y003416D01*
X002393Y003417D01*
X002443Y003414D01*
X002492Y003407D01*
X002541Y003396D01*
X002589Y003381D01*
X002635Y003363D01*
X002680Y003341D01*
X002723Y003315D01*
X002764Y003286D01*
X002803Y003254D01*
X002839Y003219D01*
X002871Y003181D01*
X002901Y003141D01*
X002928Y003098D01*
X002951Y003054D01*
X002970Y003008D01*
X002986Y002960D01*
X002998Y002911D01*
X003006Y002862D01*
X003010Y002812D01*
X003010Y002762D01*
X003006Y002712D01*
X002998Y002663D01*
X002986Y002614D01*
X002970Y002566D01*
X002951Y002520D01*
X002928Y002476D01*
X002901Y002433D01*
X002871Y002393D01*
X002839Y002355D01*
X002803Y002320D01*
X002764Y002288D01*
X002723Y002259D01*
X002680Y002233D01*
X002635Y002211D01*
X002589Y002193D01*
X002541Y002178D01*
X002492Y002167D01*
X002443Y002160D01*
X002393Y002157D01*
X002342Y002158D01*
X002293Y002163D01*
X002243Y002172D01*
X002195Y002185D01*
X002148Y002201D01*
X002102Y002222D01*
X002058Y002246D01*
X002016Y002273D01*
X001976Y002303D01*
X001939Y002337D01*
X001905Y002374D01*
X001873Y002413D01*
X001845Y002454D01*
X001820Y002498D01*
X001799Y002543D01*
X001782Y002590D01*
X001768Y002638D01*
X001758Y002687D01*
X001752Y002737D01*
X001750Y002787D01*
X030050Y014587D02*
X030052Y014637D01*
X030058Y014687D01*
X030068Y014736D01*
X030082Y014784D01*
X030099Y014831D01*
X030120Y014876D01*
X030145Y014920D01*
X030173Y014961D01*
X030205Y015000D01*
X030239Y015037D01*
X030276Y015071D01*
X030316Y015101D01*
X030358Y015128D01*
X030402Y015152D01*
X030448Y015173D01*
X030495Y015189D01*
X030543Y015202D01*
X030593Y015211D01*
X030642Y015216D01*
X030693Y015217D01*
X030743Y015214D01*
X030792Y015207D01*
X030841Y015196D01*
X030889Y015181D01*
X030935Y015163D01*
X030980Y015141D01*
X031023Y015115D01*
X031064Y015086D01*
X031103Y015054D01*
X031139Y015019D01*
X031171Y014981D01*
X031201Y014941D01*
X031228Y014898D01*
X031251Y014854D01*
X031270Y014808D01*
X031286Y014760D01*
X031298Y014711D01*
X031306Y014662D01*
X031310Y014612D01*
X031310Y014562D01*
X031306Y014512D01*
X031298Y014463D01*
X031286Y014414D01*
X031270Y014366D01*
X031251Y014320D01*
X031228Y014276D01*
X031201Y014233D01*
X031171Y014193D01*
X031139Y014155D01*
X031103Y014120D01*
X031064Y014088D01*
X031023Y014059D01*
X030980Y014033D01*
X030935Y014011D01*
X030889Y013993D01*
X030841Y013978D01*
X030792Y013967D01*
X030743Y013960D01*
X030693Y013957D01*
X030642Y013958D01*
X030593Y013963D01*
X030543Y013972D01*
X030495Y013985D01*
X030448Y014001D01*
X030402Y014022D01*
X030358Y014046D01*
X030316Y014073D01*
X030276Y014103D01*
X030239Y014137D01*
X030205Y014174D01*
X030173Y014213D01*
X030145Y014254D01*
X030120Y014298D01*
X030099Y014343D01*
X030082Y014390D01*
X030068Y014438D01*
X030058Y014487D01*
X030052Y014537D01*
X030050Y014587D01*
X033250Y002987D02*
X033252Y003037D01*
X033258Y003087D01*
X033268Y003136D01*
X033282Y003184D01*
X033299Y003231D01*
X033320Y003276D01*
X033345Y003320D01*
X033373Y003361D01*
X033405Y003400D01*
X033439Y003437D01*
X033476Y003471D01*
X033516Y003501D01*
X033558Y003528D01*
X033602Y003552D01*
X033648Y003573D01*
X033695Y003589D01*
X033743Y003602D01*
X033793Y003611D01*
X033842Y003616D01*
X033893Y003617D01*
X033943Y003614D01*
X033992Y003607D01*
X034041Y003596D01*
X034089Y003581D01*
X034135Y003563D01*
X034180Y003541D01*
X034223Y003515D01*
X034264Y003486D01*
X034303Y003454D01*
X034339Y003419D01*
X034371Y003381D01*
X034401Y003341D01*
X034428Y003298D01*
X034451Y003254D01*
X034470Y003208D01*
X034486Y003160D01*
X034498Y003111D01*
X034506Y003062D01*
X034510Y003012D01*
X034510Y002962D01*
X034506Y002912D01*
X034498Y002863D01*
X034486Y002814D01*
X034470Y002766D01*
X034451Y002720D01*
X034428Y002676D01*
X034401Y002633D01*
X034371Y002593D01*
X034339Y002555D01*
X034303Y002520D01*
X034264Y002488D01*
X034223Y002459D01*
X034180Y002433D01*
X034135Y002411D01*
X034089Y002393D01*
X034041Y002378D01*
X033992Y002367D01*
X033943Y002360D01*
X033893Y002357D01*
X033842Y002358D01*
X033793Y002363D01*
X033743Y002372D01*
X033695Y002385D01*
X033648Y002401D01*
X033602Y002422D01*
X033558Y002446D01*
X033516Y002473D01*
X033476Y002503D01*
X033439Y002537D01*
X033405Y002574D01*
X033373Y002613D01*
X033345Y002654D01*
X033320Y002698D01*
X033299Y002743D01*
X033282Y002790D01*
X033268Y002838D01*
X033258Y002887D01*
X033252Y002937D01*
X033250Y002987D01*
X033050Y035687D02*
X033052Y035737D01*
X033058Y035787D01*
X033068Y035836D01*
X033082Y035884D01*
X033099Y035931D01*
X033120Y035976D01*
X033145Y036020D01*
X033173Y036061D01*
X033205Y036100D01*
X033239Y036137D01*
X033276Y036171D01*
X033316Y036201D01*
X033358Y036228D01*
X033402Y036252D01*
X033448Y036273D01*
X033495Y036289D01*
X033543Y036302D01*
X033593Y036311D01*
X033642Y036316D01*
X033693Y036317D01*
X033743Y036314D01*
X033792Y036307D01*
X033841Y036296D01*
X033889Y036281D01*
X033935Y036263D01*
X033980Y036241D01*
X034023Y036215D01*
X034064Y036186D01*
X034103Y036154D01*
X034139Y036119D01*
X034171Y036081D01*
X034201Y036041D01*
X034228Y035998D01*
X034251Y035954D01*
X034270Y035908D01*
X034286Y035860D01*
X034298Y035811D01*
X034306Y035762D01*
X034310Y035712D01*
X034310Y035662D01*
X034306Y035612D01*
X034298Y035563D01*
X034286Y035514D01*
X034270Y035466D01*
X034251Y035420D01*
X034228Y035376D01*
X034201Y035333D01*
X034171Y035293D01*
X034139Y035255D01*
X034103Y035220D01*
X034064Y035188D01*
X034023Y035159D01*
X033980Y035133D01*
X033935Y035111D01*
X033889Y035093D01*
X033841Y035078D01*
X033792Y035067D01*
X033743Y035060D01*
X033693Y035057D01*
X033642Y035058D01*
X033593Y035063D01*
X033543Y035072D01*
X033495Y035085D01*
X033448Y035101D01*
X033402Y035122D01*
X033358Y035146D01*
X033316Y035173D01*
X033276Y035203D01*
X033239Y035237D01*
X033205Y035274D01*
X033173Y035313D01*
X033145Y035354D01*
X033120Y035398D01*
X033099Y035443D01*
X033082Y035490D01*
X033068Y035538D01*
X033058Y035587D01*
X033052Y035637D01*
X033050Y035687D01*
D13*
X032680Y015487D02*
X028580Y015487D01*
X028580Y001887D01*
X028680Y001887D02*
X032680Y001887D01*
X032680Y015487D01*
D14*
X032083Y023577D02*
X032160Y023654D01*
X032160Y023807D01*
X032083Y023884D01*
X032007Y023884D01*
X031930Y023807D01*
X031930Y023654D01*
X031853Y023577D01*
X031776Y023577D01*
X031700Y023654D01*
X031700Y023807D01*
X031776Y023884D01*
X031853Y024037D02*
X031853Y024191D01*
X031776Y024114D02*
X032083Y024114D01*
X032160Y024191D01*
X032160Y024344D02*
X032160Y024574D01*
X032083Y024651D01*
X031930Y024651D01*
X031853Y024574D01*
X031853Y024344D01*
X031700Y024344D02*
X032160Y024344D01*
X032083Y024805D02*
X031930Y024805D01*
X031853Y024881D01*
X031853Y025112D01*
X031700Y025112D02*
X032160Y025112D01*
X032160Y024881D01*
X032083Y024805D01*
X032007Y025725D02*
X032007Y025956D01*
X031930Y026032D01*
X031776Y026032D01*
X031700Y025956D01*
X031700Y025725D01*
X032160Y025725D01*
X032007Y025879D02*
X032160Y026032D01*
X032160Y026186D02*
X032160Y026493D01*
X032007Y026646D02*
X032160Y026800D01*
X032007Y026953D01*
X031700Y026953D01*
X031700Y026646D02*
X032007Y026646D01*
X031930Y026339D02*
X031930Y026186D01*
X031700Y026186D02*
X032160Y026186D01*
X031700Y026186D02*
X031700Y026493D01*
X031676Y027777D02*
X031753Y027777D01*
X031830Y027854D01*
X031830Y028007D01*
X031907Y028084D01*
X031983Y028084D01*
X032060Y028007D01*
X032060Y027854D01*
X031983Y027777D01*
X031676Y027777D02*
X031600Y027854D01*
X031600Y028007D01*
X031676Y028084D01*
X031753Y028237D02*
X031753Y028391D01*
X031676Y028314D02*
X031983Y028314D01*
X032060Y028391D01*
X032060Y028544D02*
X032060Y028774D01*
X031983Y028851D01*
X031830Y028851D01*
X031753Y028774D01*
X031753Y028544D01*
X031600Y028544D02*
X032060Y028544D01*
X031983Y029005D02*
X031830Y029005D01*
X031753Y029081D01*
X031753Y029312D01*
X031600Y029312D02*
X032060Y029312D01*
X032060Y029081D01*
X031983Y029005D01*
X032060Y029925D02*
X031600Y029925D01*
X031600Y030232D01*
X031600Y030386D02*
X032060Y030386D01*
X031907Y030539D01*
X032060Y030693D01*
X031600Y030693D01*
X031600Y030846D02*
X031600Y031076D01*
X031676Y031153D01*
X031983Y031153D01*
X032060Y031076D01*
X032060Y030846D01*
X031600Y030846D01*
X031830Y030079D02*
X031830Y029925D01*
X004660Y029699D02*
X004660Y029929D01*
X004583Y030006D01*
X004276Y030006D01*
X004200Y029929D01*
X004200Y029699D01*
X004660Y029699D01*
X004660Y029546D02*
X004200Y029546D01*
X004200Y029239D02*
X004660Y029239D01*
X004507Y029392D01*
X004660Y029546D01*
X004200Y029085D02*
X004200Y028778D01*
X004660Y028778D01*
X004430Y028778D02*
X004430Y028932D01*
X004353Y028165D02*
X004353Y028011D01*
X004276Y028088D02*
X004583Y028088D01*
X004660Y028165D01*
X004353Y027858D02*
X004353Y027781D01*
X004507Y027627D01*
X004660Y027627D02*
X004353Y027627D01*
X004430Y027474D02*
X004353Y027397D01*
X004353Y027244D01*
X004430Y027167D01*
X004583Y027167D01*
X004660Y027244D01*
X004660Y027397D01*
X004583Y027474D01*
X004430Y027474D01*
X004430Y027014D02*
X004276Y027014D01*
X004200Y026937D01*
X004200Y026707D01*
X004660Y026707D01*
X004507Y026707D02*
X004507Y026937D01*
X004430Y027014D01*
X004300Y025706D02*
X004607Y025706D01*
X004760Y025553D01*
X004607Y025399D01*
X004300Y025399D01*
X004300Y025246D02*
X004300Y024939D01*
X004760Y024939D01*
X004760Y025246D01*
X004530Y025092D02*
X004530Y024939D01*
X004530Y024785D02*
X004607Y024709D01*
X004607Y024478D01*
X004760Y024478D02*
X004300Y024478D01*
X004300Y024709D01*
X004376Y024785D01*
X004530Y024785D01*
X004607Y024632D02*
X004760Y024785D01*
X004760Y023865D02*
X004683Y023788D01*
X004376Y023788D01*
X004453Y023711D02*
X004453Y023865D01*
X004453Y023558D02*
X004453Y023481D01*
X004607Y023327D01*
X004760Y023327D02*
X004453Y023327D01*
X004530Y023174D02*
X004453Y023097D01*
X004453Y022944D01*
X004530Y022867D01*
X004683Y022867D01*
X004760Y022944D01*
X004760Y023097D01*
X004683Y023174D01*
X004530Y023174D01*
X004530Y022714D02*
X004607Y022637D01*
X004607Y022407D01*
X004760Y022407D02*
X004300Y022407D01*
X004300Y022637D01*
X004376Y022714D01*
X004530Y022714D01*
D15*
X004543Y021179D02*
X004650Y021179D01*
X004650Y021073D01*
X004543Y021073D01*
X004543Y021179D01*
X004650Y020856D02*
X004543Y020750D01*
X004116Y020750D01*
X004223Y020856D02*
X004223Y020643D01*
X004223Y020426D02*
X004223Y020319D01*
X004436Y020106D01*
X004223Y020106D02*
X004650Y020106D01*
X004436Y019888D02*
X004436Y019461D01*
X004330Y019461D02*
X004223Y019568D01*
X004223Y019781D01*
X004330Y019888D01*
X004436Y019888D01*
X004650Y019781D02*
X004650Y019568D01*
X004543Y019461D01*
X004330Y019461D01*
X004436Y019244D02*
X004009Y019244D01*
X004009Y018817D02*
X004436Y018817D01*
X004650Y019030D01*
X004436Y019244D01*
X004743Y016979D02*
X004850Y016979D01*
X004850Y016873D01*
X004743Y016873D01*
X004743Y016979D01*
X004850Y016656D02*
X004743Y016550D01*
X004316Y016550D01*
X004423Y016656D02*
X004423Y016443D01*
X004423Y016226D02*
X004423Y016119D01*
X004636Y015906D01*
X004423Y015906D02*
X004850Y015906D01*
X004636Y015688D02*
X004530Y015688D01*
X004423Y015581D01*
X004423Y015368D01*
X004530Y015261D01*
X004743Y015261D01*
X004850Y015368D01*
X004850Y015581D01*
X004636Y015688D02*
X004636Y015261D01*
X004636Y015044D02*
X004209Y015044D01*
X004209Y014617D02*
X004636Y014617D01*
X004850Y014830D01*
X004636Y015044D01*
X004743Y012679D02*
X004850Y012679D01*
X004850Y012573D01*
X004743Y012573D01*
X004743Y012679D01*
X004850Y012356D02*
X004743Y012250D01*
X004316Y012250D01*
X004423Y012356D02*
X004423Y012143D01*
X004423Y011926D02*
X004423Y011819D01*
X004636Y011606D01*
X004423Y011606D02*
X004850Y011606D01*
X004636Y011388D02*
X004636Y010961D01*
X004530Y010961D02*
X004743Y010961D01*
X004850Y011068D01*
X004850Y011281D01*
X004636Y011388D02*
X004530Y011388D01*
X004423Y011281D01*
X004423Y011068D01*
X004530Y010961D01*
X004636Y010744D02*
X004209Y010744D01*
X004209Y010317D02*
X004636Y010317D01*
X004850Y010530D01*
X004636Y010744D01*
X004843Y008679D02*
X004950Y008679D01*
X004950Y008573D01*
X004843Y008573D01*
X004843Y008679D01*
X004950Y008356D02*
X004843Y008250D01*
X004416Y008250D01*
X004523Y008356D02*
X004523Y008143D01*
X004523Y007926D02*
X004523Y007819D01*
X004736Y007606D01*
X004523Y007606D02*
X004950Y007606D01*
X004736Y007388D02*
X004736Y006961D01*
X004630Y006961D02*
X004843Y006961D01*
X004950Y007068D01*
X004950Y007281D01*
X004736Y007388D02*
X004630Y007388D01*
X004523Y007281D01*
X004523Y007068D01*
X004630Y006961D01*
X004736Y006744D02*
X004309Y006744D01*
X004309Y006317D02*
X004736Y006317D01*
X004950Y006530D01*
X004736Y006744D01*
X031730Y020617D02*
X031730Y021044D01*
X031730Y021906D02*
X031730Y022333D01*
X031943Y022119D02*
X031516Y022119D01*
X034623Y014446D02*
X034623Y014339D01*
X034836Y014126D01*
X034623Y014126D02*
X035050Y014126D01*
X034943Y013908D02*
X034730Y013908D01*
X034623Y013801D01*
X034623Y013588D01*
X034730Y013481D01*
X034943Y013481D01*
X035050Y013588D01*
X035050Y013801D01*
X034943Y013908D01*
X034943Y013263D02*
X034836Y013157D01*
X034836Y012943D01*
X034730Y012836D01*
X034623Y012943D01*
X034623Y013263D01*
X034943Y013263D02*
X035050Y013157D01*
X035050Y012836D01*
X035050Y012619D02*
X034730Y012619D01*
X034623Y012512D01*
X034623Y012192D01*
X035050Y012192D01*
X034836Y011974D02*
X034836Y011547D01*
X034730Y011547D02*
X034623Y011654D01*
X034623Y011868D01*
X034730Y011974D01*
X034836Y011974D01*
X035050Y011868D02*
X035050Y011654D01*
X034943Y011547D01*
X034730Y011547D01*
X034836Y011330D02*
X034943Y011330D01*
X035050Y011223D01*
X035050Y011010D01*
X034943Y010903D01*
X034730Y011010D02*
X034730Y011223D01*
X034836Y011330D01*
X034516Y011330D02*
X034409Y011223D01*
X034409Y011010D01*
X034516Y010903D01*
X034623Y010903D01*
X034730Y011010D01*
X034730Y010041D02*
X034836Y010041D01*
X034836Y009614D01*
X034730Y009614D02*
X034623Y009720D01*
X034623Y009934D01*
X034730Y010041D01*
X035050Y009934D02*
X035050Y009720D01*
X034943Y009614D01*
X034730Y009614D01*
X034623Y009397D02*
X034623Y009290D01*
X034836Y009077D01*
X034623Y009077D02*
X035050Y009077D01*
X035050Y008859D02*
X034623Y008859D01*
X035050Y008859D02*
X035050Y008539D01*
X034943Y008432D01*
X034623Y008432D01*
X034623Y008214D02*
X034623Y007894D01*
X034730Y007787D01*
X034836Y007894D01*
X034836Y008108D01*
X034943Y008214D01*
X035050Y008108D01*
X035050Y007787D01*
X034943Y007570D02*
X034836Y007463D01*
X034836Y007250D01*
X034730Y007143D01*
X034623Y007250D01*
X034623Y007570D01*
X034943Y007570D02*
X035050Y007463D01*
X035050Y007143D01*
X034836Y006925D02*
X034836Y006498D01*
X034730Y006498D02*
X034623Y006605D01*
X034623Y006819D01*
X034730Y006925D01*
X034836Y006925D01*
X035050Y006819D02*
X035050Y006605D01*
X034943Y006498D01*
X034730Y006498D01*
X034623Y006281D02*
X034623Y006175D01*
X034836Y005961D01*
X034623Y005961D02*
X035050Y005961D01*
X034730Y005744D02*
X034836Y005637D01*
X034836Y005317D01*
X035050Y005317D02*
X034409Y005317D01*
X034409Y005637D01*
X034516Y005744D01*
X034730Y005744D01*
D16*
X031895Y015902D02*
X031895Y016149D01*
X031895Y016270D02*
X032265Y016517D01*
X032265Y016270D02*
X031895Y016517D01*
X031895Y017007D02*
X031895Y017192D01*
X031956Y017253D01*
X032080Y017253D01*
X032142Y017192D01*
X032142Y017007D01*
X032265Y017007D02*
X031895Y017007D01*
X032142Y017130D02*
X032265Y017253D01*
X032265Y017375D02*
X031895Y017622D01*
X031895Y017375D02*
X032265Y017622D01*
X031795Y018102D02*
X031795Y018349D01*
X031795Y018470D02*
X032165Y018717D01*
X032165Y018470D02*
X031795Y018717D01*
X031795Y019207D02*
X031795Y019392D01*
X031856Y019453D01*
X031980Y019453D01*
X032042Y019392D01*
X032042Y019207D01*
X032165Y019207D02*
X031795Y019207D01*
X032042Y019330D02*
X032165Y019453D01*
X032165Y019575D02*
X031795Y019822D01*
X031795Y019575D02*
X032165Y019822D01*
X032165Y018225D02*
X031795Y018225D01*
X031895Y016025D02*
X032265Y016025D01*
D17*
X028140Y031797D03*
X028140Y031807D03*
X032480Y037627D03*
X032840Y037817D03*
X033000Y037917D03*
X033410Y038467D03*
X033550Y038367D03*
X033620Y038187D03*
X033800Y038747D03*
X006820Y002507D03*
X006820Y002497D03*
X006820Y002487D03*
D18*
X007205Y002267D03*
X028525Y031567D03*
X032495Y037637D03*
X032705Y037727D03*
X032725Y037737D03*
X032745Y037747D03*
X032775Y037767D03*
X032835Y037807D03*
X032825Y037687D03*
X032975Y037767D03*
X032995Y037777D03*
X033025Y037797D03*
X033045Y037807D03*
X033075Y037827D03*
X033095Y037837D03*
X033105Y037847D03*
X033135Y037867D03*
X033145Y037877D03*
X033175Y037897D03*
X033185Y037907D03*
X033225Y037937D03*
X033235Y037947D03*
X033165Y038047D03*
X033175Y038057D03*
X033125Y038017D03*
X033095Y037997D03*
X033085Y037987D03*
X033055Y037967D03*
X033045Y037957D03*
X033025Y037947D03*
X033015Y037937D03*
X032875Y038207D03*
X032975Y038297D03*
X032985Y038307D03*
X033025Y038337D03*
X033035Y038347D03*
X033065Y038367D03*
X033075Y038377D03*
X033095Y038387D03*
X033105Y038397D03*
X033125Y038407D03*
X033135Y038417D03*
X033155Y038427D03*
X033175Y038437D03*
X033275Y038487D03*
X033445Y038397D03*
X033505Y038597D03*
X033505Y038607D03*
X033525Y038627D03*
X033535Y038647D03*
X033545Y038667D03*
X033555Y038677D03*
X033565Y038687D03*
X033575Y038707D03*
X033585Y038717D03*
X033595Y038727D03*
X033605Y038737D03*
X033615Y038747D03*
X033615Y038757D03*
X033625Y038767D03*
X033635Y038777D03*
X033645Y038787D03*
X033655Y038797D03*
X033665Y038807D03*
X033675Y038817D03*
X033705Y038847D03*
X033715Y038857D03*
X033725Y038867D03*
X033485Y038797D03*
X033465Y038787D03*
X033455Y038777D03*
X033435Y038767D03*
X033425Y038757D03*
X033395Y038737D03*
X033385Y038727D03*
X033465Y038637D03*
X033655Y038427D03*
X033745Y038287D03*
X033735Y038277D03*
X033705Y038257D03*
X033695Y038247D03*
X033945Y038617D03*
X034205Y038877D03*
X034215Y038887D03*
X034225Y038897D03*
X034235Y038907D03*
X034245Y038927D03*
X034255Y038937D03*
X034265Y038947D03*
X034275Y038967D03*
X034285Y038977D03*
X034295Y038997D03*
X034315Y039027D03*
X034325Y039047D03*
X034335Y039067D03*
X034345Y039097D03*
X034345Y039167D03*
X034335Y039177D03*
D19*
X034105Y039137D03*
X034085Y039127D03*
X034065Y039117D03*
X034045Y039107D03*
X034035Y039097D03*
X034015Y039087D03*
X033985Y039067D03*
X034005Y038677D03*
X033885Y038567D03*
X033835Y038537D03*
X033805Y038517D03*
X033775Y038497D03*
X033755Y038487D03*
X033735Y038477D03*
X033495Y038447D03*
X033485Y038437D03*
X033475Y038427D03*
X033465Y038417D03*
X033505Y038617D03*
X033355Y038637D03*
X033285Y038607D03*
X033255Y038477D03*
X033505Y038807D03*
X033525Y038817D03*
X032815Y037787D03*
X032835Y037697D03*
X032685Y037717D03*
X032595Y037677D03*
X032565Y037667D03*
X032515Y037647D03*
X028345Y031607D03*
X028345Y031597D03*
X028345Y031587D03*
X028355Y031577D03*
X028355Y031567D03*
X028355Y031557D03*
X028365Y031547D03*
X027945Y031627D03*
X027935Y031597D03*
X027935Y031587D03*
X027925Y031567D03*
X007025Y002307D03*
X007025Y002297D03*
X007025Y002287D03*
X007035Y002277D03*
X007035Y002267D03*
X007035Y002257D03*
X007045Y002247D03*
X006625Y002337D03*
X006615Y002307D03*
X006615Y002297D03*
X006615Y002287D03*
X006605Y002277D03*
X006605Y002267D03*
D20*
X006570Y002217D03*
X006820Y002367D03*
X006820Y002377D03*
X006820Y002387D03*
X007020Y002367D03*
X007020Y002357D03*
X007060Y002217D03*
X027900Y031517D03*
X028140Y031667D03*
X028140Y031677D03*
X028140Y031687D03*
X028340Y031667D03*
X028340Y031657D03*
X032530Y037657D03*
X033560Y038497D03*
X033590Y038537D03*
X033670Y038447D03*
X033740Y038657D03*
X033750Y038667D03*
X033760Y038677D03*
X034010Y038697D03*
X034200Y039177D03*
X034280Y039207D03*
D21*
X034350Y039157D03*
X034350Y039147D03*
X034350Y039137D03*
X034350Y039127D03*
X034350Y039117D03*
X034350Y039107D03*
X034340Y039087D03*
X034340Y039077D03*
X034330Y039057D03*
X034320Y039037D03*
X034310Y039017D03*
X034300Y039007D03*
X034290Y038987D03*
X034270Y038957D03*
X034240Y038917D03*
X034200Y038867D03*
X033800Y038737D03*
X033570Y038697D03*
X033540Y038657D03*
X033530Y038637D03*
X033480Y038627D03*
X033510Y038587D03*
X033520Y038577D03*
X033530Y038567D03*
X033540Y038557D03*
X033550Y038547D03*
X033600Y038487D03*
X033610Y038477D03*
X033620Y038467D03*
X033660Y038417D03*
X033670Y038407D03*
X033690Y038357D03*
X033690Y038347D03*
X033680Y038307D03*
X033660Y038277D03*
X033650Y038257D03*
X033680Y038237D03*
X033720Y038267D03*
X033760Y038297D03*
X033770Y038307D03*
X033780Y038317D03*
X033790Y038327D03*
X033800Y038337D03*
X033810Y038347D03*
X033820Y038357D03*
X033830Y038367D03*
X033840Y038387D03*
X033850Y038397D03*
X033860Y038417D03*
X033870Y038427D03*
X033880Y038447D03*
X033890Y038477D03*
X033900Y038507D03*
X033550Y038347D03*
X033540Y038337D03*
X033530Y038317D03*
X033520Y038297D03*
X033500Y038267D03*
X033490Y038247D03*
X033480Y038237D03*
X033470Y038217D03*
X033460Y038207D03*
X033450Y038187D03*
X033440Y038177D03*
X033430Y038157D03*
X033420Y038147D03*
X033410Y038137D03*
X033400Y038117D03*
X033390Y038107D03*
X033380Y038097D03*
X033370Y038087D03*
X033360Y038077D03*
X033360Y038067D03*
X033350Y038057D03*
X033340Y038047D03*
X033330Y038037D03*
X033320Y038027D03*
X033310Y038017D03*
X033300Y038007D03*
X033290Y037997D03*
X033280Y037987D03*
X033270Y037977D03*
X033260Y037967D03*
X033250Y037957D03*
X033210Y037927D03*
X033200Y037917D03*
X033160Y037887D03*
X033120Y037857D03*
X033070Y037977D03*
X033110Y038007D03*
X033140Y038027D03*
X033150Y038037D03*
X033190Y038067D03*
X033200Y038077D03*
X033210Y038087D03*
X033220Y038097D03*
X033230Y038107D03*
X033240Y038117D03*
X033250Y038127D03*
X033260Y038137D03*
X033270Y038147D03*
X033280Y038157D03*
X033290Y038167D03*
X033300Y038177D03*
X033310Y038187D03*
X033320Y038197D03*
X033330Y038207D03*
X033340Y038227D03*
X033350Y038237D03*
X033360Y038247D03*
X033370Y038267D03*
X033380Y038277D03*
X033390Y038287D03*
X033400Y038307D03*
X033410Y038317D03*
X033340Y038427D03*
X033290Y038397D03*
X033260Y038377D03*
X033240Y038367D03*
X033230Y038357D03*
X033210Y038347D03*
X033200Y038337D03*
X033190Y038327D03*
X033170Y038317D03*
X033160Y038307D03*
X033140Y038297D03*
X033130Y038287D03*
X033120Y038277D03*
X033110Y038267D03*
X033090Y038257D03*
X033080Y038247D03*
X033070Y038237D03*
X033060Y038227D03*
X033050Y038217D03*
X033040Y038207D03*
X033020Y038197D03*
X033010Y038187D03*
X033000Y038177D03*
X032990Y038167D03*
X032980Y038157D03*
X032970Y038147D03*
X032960Y038137D03*
X032950Y038127D03*
X032940Y038117D03*
X032930Y038107D03*
X032920Y038097D03*
X032910Y038087D03*
X032900Y038077D03*
X032890Y038057D03*
X032880Y038047D03*
X032870Y038037D03*
X032860Y038027D03*
X032850Y038017D03*
X032840Y038007D03*
X032830Y037987D03*
X032820Y037977D03*
X032810Y037967D03*
X032800Y037957D03*
X032790Y037937D03*
X032780Y037927D03*
X032760Y037897D03*
X032750Y037887D03*
X032740Y037867D03*
X032640Y037917D03*
X032630Y037907D03*
X032620Y037887D03*
X032610Y037877D03*
X032600Y037857D03*
X032580Y037827D03*
X032570Y037807D03*
X032560Y037787D03*
X032550Y037767D03*
X032540Y037747D03*
X032530Y037727D03*
X032520Y037707D03*
X032510Y037687D03*
X032500Y037667D03*
X032650Y037937D03*
X032660Y037947D03*
X032670Y037967D03*
X032680Y037977D03*
X032700Y038007D03*
X032710Y038017D03*
X032730Y038047D03*
X032740Y038057D03*
X032750Y038067D03*
X032760Y038077D03*
X032770Y038097D03*
X032780Y038107D03*
X032790Y038117D03*
X032800Y038127D03*
X032810Y038137D03*
X032820Y038147D03*
X032830Y038157D03*
X032840Y038167D03*
X032850Y038177D03*
X032860Y038187D03*
X032870Y038197D03*
X032890Y038217D03*
X032900Y038227D03*
X032910Y038237D03*
X032920Y038247D03*
X032930Y038257D03*
X032940Y038267D03*
X032950Y038277D03*
X032960Y038287D03*
X033000Y038317D03*
X033010Y038327D03*
X033050Y038357D03*
X033270Y038597D03*
X033290Y038637D03*
X033300Y038647D03*
X033310Y038657D03*
X033320Y038667D03*
X033330Y038677D03*
X033340Y038687D03*
X033350Y038697D03*
X033360Y038707D03*
X033370Y038717D03*
X033410Y038747D03*
X033620Y038197D03*
X033000Y037927D03*
X028140Y031777D03*
X028140Y031767D03*
X028140Y031757D03*
X027750Y031567D03*
X006820Y002477D03*
X006820Y002467D03*
X006820Y002457D03*
X006430Y002267D03*
D22*
X028145Y031787D03*
X032505Y037677D03*
X032515Y037697D03*
X032525Y037717D03*
X032535Y037737D03*
X032545Y037757D03*
X032555Y037777D03*
X032565Y037797D03*
X032575Y037817D03*
X032585Y037837D03*
X032595Y037847D03*
X032605Y037867D03*
X032625Y037897D03*
X032645Y037927D03*
X032665Y037957D03*
X032685Y037987D03*
X032695Y037997D03*
X032715Y038027D03*
X032725Y038037D03*
X032765Y038087D03*
X032835Y037997D03*
X032795Y037947D03*
X032775Y037917D03*
X032765Y037907D03*
X032745Y037877D03*
X032735Y037857D03*
X032825Y037767D03*
X032825Y037757D03*
X032825Y037747D03*
X032815Y037737D03*
X032815Y037727D03*
X032815Y037717D03*
X032815Y037707D03*
X032815Y037677D03*
X032895Y038067D03*
X033335Y038217D03*
X033365Y038257D03*
X033395Y038297D03*
X033415Y038327D03*
X033415Y038337D03*
X033445Y038387D03*
X033395Y038457D03*
X033375Y038447D03*
X033355Y038437D03*
X033325Y038417D03*
X033305Y038407D03*
X033275Y038387D03*
X033285Y038497D03*
X033535Y038327D03*
X033525Y038307D03*
X033515Y038287D03*
X033505Y038277D03*
X033495Y038257D03*
X033475Y038227D03*
X033455Y038197D03*
X033435Y038167D03*
X033405Y038127D03*
X033635Y038237D03*
X033645Y038247D03*
X033655Y038267D03*
X033665Y038287D03*
X033675Y038297D03*
X033685Y038317D03*
X033685Y038327D03*
X033685Y038337D03*
X033685Y038367D03*
X033685Y038377D03*
X033685Y038387D03*
X033675Y038397D03*
X033625Y038457D03*
X033555Y038357D03*
X033835Y038377D03*
X033855Y038407D03*
X033875Y038437D03*
X033885Y038457D03*
X033885Y038467D03*
X033895Y038487D03*
X033895Y038497D03*
X033905Y038517D03*
X033905Y038527D03*
X033905Y038537D03*
X033905Y038547D03*
D23*
X033890Y038577D03*
X033910Y038587D03*
X033920Y038597D03*
X033930Y038607D03*
X033960Y038627D03*
X033970Y038637D03*
X033980Y038647D03*
X033990Y038657D03*
X034000Y038667D03*
X033850Y038547D03*
X033820Y038527D03*
X033790Y038507D03*
X033800Y038727D03*
X033680Y038827D03*
X033740Y038877D03*
X033750Y038887D03*
X033970Y039057D03*
X034000Y039077D03*
X033230Y038467D03*
X033210Y038457D03*
X033190Y038447D03*
X033630Y038207D03*
X033640Y038217D03*
X033060Y037817D03*
X033010Y037787D03*
X032960Y037757D03*
X032940Y037747D03*
X032920Y037737D03*
X032900Y037727D03*
X032880Y037717D03*
X032860Y037707D03*
X032830Y037797D03*
X032760Y037757D03*
X032660Y037707D03*
X032640Y037697D03*
X032620Y037687D03*
X028140Y031747D03*
X028140Y031737D03*
X028140Y031727D03*
X006820Y002447D03*
X006820Y002437D03*
X006820Y002427D03*
D24*
X006820Y002417D03*
X006820Y002407D03*
X006820Y002397D03*
X007020Y002337D03*
X007020Y002327D03*
X007020Y002317D03*
X007050Y002237D03*
X007210Y002577D03*
X006620Y002327D03*
X006620Y002317D03*
X006600Y002257D03*
X006590Y002247D03*
X006590Y002237D03*
X006440Y002577D03*
X027910Y031537D03*
X027920Y031557D03*
X027930Y031577D03*
X027940Y031607D03*
X027940Y031617D03*
X027950Y031637D03*
X028140Y031697D03*
X028140Y031707D03*
X028140Y031717D03*
X028340Y031637D03*
X028340Y031627D03*
X028340Y031617D03*
X028370Y031537D03*
X028530Y031877D03*
X027760Y031877D03*
X032810Y037777D03*
X033450Y038407D03*
X033510Y038457D03*
X033520Y038467D03*
X033530Y038477D03*
X033540Y038487D03*
X033570Y038507D03*
X033580Y038517D03*
X033610Y038547D03*
X033670Y038597D03*
X033720Y038467D03*
X033700Y038457D03*
X033660Y038437D03*
X033650Y038227D03*
X033300Y038617D03*
X033630Y038847D03*
X033800Y038717D03*
X034010Y038687D03*
X033960Y039047D03*
X034120Y039147D03*
D25*
X034145Y039157D03*
X034165Y039167D03*
X033795Y038707D03*
X033785Y038697D03*
X033775Y038687D03*
X033725Y038647D03*
X033715Y038637D03*
X033705Y038627D03*
X033695Y038617D03*
X033685Y038607D03*
X033655Y038587D03*
X033645Y038577D03*
X033635Y038567D03*
X033625Y038557D03*
X033585Y038527D03*
X033415Y038657D03*
X033315Y038627D03*
X033875Y038557D03*
X028525Y031577D03*
X028385Y031517D03*
X028375Y031527D03*
X028335Y031647D03*
X027915Y031547D03*
X027905Y031527D03*
X027755Y031577D03*
X007205Y002277D03*
X007055Y002227D03*
X007015Y002347D03*
X006585Y002227D03*
X006435Y002277D03*
D26*
X006435Y002297D03*
X006435Y002307D03*
X006435Y002557D03*
X006655Y002497D03*
X006665Y002527D03*
X006975Y002527D03*
X006975Y002537D03*
X007005Y002437D03*
X007015Y002427D03*
X007025Y002387D03*
X007205Y002307D03*
X007205Y002297D03*
X007085Y002197D03*
X007205Y002557D03*
X027875Y031497D03*
X027755Y031597D03*
X027755Y031607D03*
X027755Y031857D03*
X027985Y031827D03*
X028145Y031627D03*
X028345Y031687D03*
X028335Y031727D03*
X028325Y031737D03*
X028295Y031827D03*
X028525Y031857D03*
X028525Y031607D03*
X028525Y031597D03*
X028405Y031497D03*
X033415Y038647D03*
X033585Y038827D03*
X034025Y038717D03*
D27*
X034015Y038707D03*
X028525Y031867D03*
X028525Y031587D03*
X028395Y031507D03*
X027885Y031507D03*
X027755Y031587D03*
X027755Y031867D03*
X007205Y002567D03*
X006985Y002487D03*
X007075Y002207D03*
X007205Y002287D03*
X006565Y002207D03*
X006435Y002287D03*
X006435Y002567D03*
D28*
X006435Y002547D03*
X006435Y002537D03*
X006435Y002527D03*
X006435Y002327D03*
X006665Y002557D03*
X006665Y002567D03*
X006815Y002297D03*
X007025Y002417D03*
X006975Y002557D03*
X006975Y002567D03*
X007205Y002537D03*
X028145Y031597D03*
X028345Y031717D03*
X028295Y031867D03*
X028525Y031837D03*
X027985Y031857D03*
X027985Y031867D03*
X027755Y031837D03*
X034025Y038727D03*
X033965Y039027D03*
X034275Y039197D03*
D29*
X034030Y038737D03*
X028530Y031827D03*
X028530Y031817D03*
X028530Y031807D03*
X028530Y031797D03*
X028300Y031877D03*
X028300Y031887D03*
X027980Y031877D03*
X027760Y031827D03*
X027760Y031817D03*
X027760Y031807D03*
X027760Y031797D03*
X028140Y031587D03*
X028140Y031577D03*
X028140Y031567D03*
X007210Y002527D03*
X007210Y002517D03*
X007210Y002507D03*
X007210Y002497D03*
X006980Y002577D03*
X006660Y002577D03*
X006440Y002517D03*
X006440Y002507D03*
X006440Y002497D03*
X006820Y002287D03*
X006820Y002277D03*
X006820Y002267D03*
D30*
X006820Y002257D03*
X006820Y002247D03*
X006820Y002237D03*
X006660Y002597D03*
X006980Y002597D03*
X028140Y031537D03*
X028140Y031547D03*
X028140Y031557D03*
X027980Y031897D03*
X028300Y031897D03*
X034030Y038747D03*
X033970Y039017D03*
D31*
X033970Y039007D03*
X034030Y038757D03*
X028310Y031917D03*
X028140Y031527D03*
X028140Y031517D03*
X028140Y031507D03*
X006820Y002227D03*
X006820Y002217D03*
X006820Y002207D03*
D32*
X006655Y002617D03*
X006985Y002617D03*
X027975Y031917D03*
X034035Y038767D03*
D33*
X034030Y038777D03*
X028310Y031927D03*
X027970Y031927D03*
X027890Y031697D03*
X027890Y031687D03*
X028140Y031497D03*
X006990Y002627D03*
X006650Y002627D03*
X006570Y002397D03*
X006570Y002387D03*
X006820Y002197D03*
D34*
X006580Y002437D03*
X027900Y031737D03*
X028320Y031937D03*
X034030Y038787D03*
D35*
X034030Y038797D03*
X028330Y031947D03*
X027960Y031947D03*
X027550Y031507D03*
X027490Y031567D03*
X027480Y031577D03*
X007010Y002647D03*
X007410Y002207D03*
X007460Y002257D03*
X007470Y002267D03*
D36*
X007490Y002297D03*
X007500Y002567D03*
X007490Y002577D03*
X007420Y002647D03*
X006530Y002367D03*
X027470Y031597D03*
X027460Y031867D03*
X027470Y031877D03*
X027850Y031667D03*
X034030Y038807D03*
D37*
X034030Y038817D03*
X027840Y031647D03*
X027460Y031617D03*
X027440Y031837D03*
X027450Y031847D03*
X007510Y002547D03*
X007520Y002537D03*
X007510Y002327D03*
X007500Y002317D03*
X006520Y002347D03*
D38*
X007530Y002517D03*
X027450Y031637D03*
X027430Y031817D03*
X034030Y038827D03*
X033960Y038957D03*
D39*
X033635Y038837D03*
X027985Y031887D03*
X028355Y031707D03*
X006975Y002587D03*
X007035Y002407D03*
X006665Y002587D03*
D40*
X006540Y002477D03*
X006540Y002467D03*
X007540Y002497D03*
X027420Y031797D03*
X027860Y031777D03*
X027860Y031767D03*
X034030Y038837D03*
D41*
X034030Y038847D03*
X033980Y038877D03*
X027440Y031667D03*
D42*
X027440Y031677D03*
X027410Y031767D03*
X033970Y038887D03*
X033950Y038917D03*
X034030Y038857D03*
D43*
X033995Y038867D03*
X033955Y038937D03*
X027855Y031787D03*
X027445Y031657D03*
X027415Y031787D03*
X006535Y002487D03*
D44*
X006095Y002427D03*
X006095Y002377D03*
X006095Y002247D03*
X006095Y002607D03*
X027415Y031727D03*
X027405Y031737D03*
X028865Y031907D03*
X028865Y031557D03*
X028865Y031547D03*
X033945Y038897D03*
D45*
X033945Y038907D03*
X028875Y031887D03*
X028875Y031877D03*
X028875Y031607D03*
X028875Y031597D03*
X028875Y031587D03*
X027405Y031747D03*
X006085Y002587D03*
X006085Y002577D03*
X006085Y002447D03*
X006085Y002347D03*
X006085Y002337D03*
X006085Y002327D03*
X006085Y002317D03*
X006085Y002307D03*
X006085Y002297D03*
X006085Y002287D03*
X006085Y002277D03*
D46*
X027415Y031777D03*
X033955Y038927D03*
D47*
X033955Y038947D03*
X027425Y031807D03*
X027445Y031647D03*
X007535Y002507D03*
D48*
X007505Y002557D03*
X007495Y002307D03*
X006525Y002357D03*
X027465Y031607D03*
X027455Y031857D03*
X027545Y031947D03*
X027845Y031657D03*
X033965Y038967D03*
D49*
X033965Y038977D03*
X027885Y031747D03*
X027865Y031677D03*
X027565Y031497D03*
X027475Y031587D03*
X027475Y031887D03*
X027485Y031897D03*
X027495Y031907D03*
X027505Y031917D03*
X027515Y031927D03*
X027525Y031937D03*
X007435Y002637D03*
X007445Y002627D03*
X007455Y002617D03*
X007465Y002607D03*
X007475Y002597D03*
X007485Y002587D03*
X007485Y002287D03*
X007475Y002277D03*
X007395Y002197D03*
X006565Y002447D03*
X006545Y002377D03*
X006635Y002647D03*
D50*
X007425Y002217D03*
X007435Y002227D03*
X007445Y002237D03*
X007455Y002247D03*
X027535Y031517D03*
X027525Y031527D03*
X027515Y031537D03*
X027505Y031547D03*
X027495Y031557D03*
X033965Y038987D03*
D51*
X033965Y038997D03*
X027965Y031937D03*
X027895Y031727D03*
X027895Y031717D03*
X027895Y031707D03*
X006995Y002637D03*
X006645Y002637D03*
X006575Y002427D03*
X006575Y002417D03*
X006575Y002407D03*
D52*
X006660Y002507D03*
X006660Y002517D03*
X006820Y002357D03*
X006820Y002347D03*
X006820Y002337D03*
X007020Y002377D03*
X007000Y002447D03*
X007000Y002457D03*
X006990Y002467D03*
X006990Y002477D03*
X006980Y002497D03*
X006980Y002507D03*
X006980Y002517D03*
X028140Y031637D03*
X028140Y031647D03*
X028140Y031657D03*
X028340Y031677D03*
X028320Y031747D03*
X028320Y031757D03*
X028310Y031767D03*
X028310Y031777D03*
X028310Y031787D03*
X028300Y031797D03*
X028300Y031807D03*
X028300Y031817D03*
X027980Y031817D03*
X027980Y031807D03*
X027980Y031797D03*
X033970Y039037D03*
D53*
X034265Y039187D03*
X028305Y031907D03*
X027975Y031907D03*
X006985Y002607D03*
X006655Y002607D03*
D54*
X006605Y002877D03*
X006605Y001997D03*
X028355Y031297D03*
X028355Y032177D03*
D55*
X028350Y032167D03*
X028350Y031307D03*
X006610Y002867D03*
X006610Y002007D03*
D56*
X006615Y002017D03*
X006615Y002857D03*
X028345Y031317D03*
X028345Y032157D03*
D57*
X028340Y032147D03*
X028340Y031327D03*
X006620Y002847D03*
X006620Y002027D03*
D58*
X006625Y002037D03*
X006625Y002837D03*
X028335Y031337D03*
X028335Y032137D03*
D59*
X028330Y032127D03*
X028330Y031347D03*
X006630Y002827D03*
X006630Y002047D03*
D60*
X006635Y002057D03*
X006635Y002817D03*
X028325Y031357D03*
X028325Y032117D03*
D61*
X028320Y032107D03*
X028320Y031367D03*
X006640Y002807D03*
X006640Y002067D03*
D62*
X006645Y002077D03*
X006645Y002797D03*
X028315Y031377D03*
X028315Y032097D03*
D63*
X028310Y032087D03*
X028310Y031387D03*
X006650Y002787D03*
X006650Y002087D03*
D64*
X006655Y002097D03*
X006655Y002777D03*
X028305Y031397D03*
X028305Y032077D03*
D65*
X028300Y032067D03*
X028300Y031407D03*
X006660Y002767D03*
X006660Y002107D03*
D66*
X006665Y002117D03*
X006665Y002757D03*
X028295Y031417D03*
X028295Y032057D03*
D67*
X028290Y032047D03*
X028290Y031427D03*
X006670Y002747D03*
X006670Y002127D03*
D68*
X006675Y002137D03*
X006675Y002737D03*
X028285Y031437D03*
X028285Y032037D03*
D69*
X028280Y032027D03*
X028280Y031447D03*
X006680Y002727D03*
X006680Y002147D03*
D70*
X006685Y002157D03*
X006685Y002717D03*
X028275Y031457D03*
X028275Y032017D03*
D71*
X028270Y032007D03*
X028270Y031467D03*
X006690Y002707D03*
X006690Y002167D03*
D72*
X006695Y002177D03*
X006695Y002697D03*
X028265Y031477D03*
X028265Y031997D03*
D73*
X028260Y031987D03*
X028260Y031487D03*
X006700Y002687D03*
X006700Y002187D03*
D74*
X006705Y002677D03*
X028255Y031977D03*
D75*
X028250Y031967D03*
X006710Y002667D03*
D76*
X006140Y002657D03*
X007450Y002377D03*
X007490Y002417D03*
X028820Y031957D03*
D77*
X028140Y031957D03*
X006820Y002657D03*
D78*
X006545Y002457D03*
X007395Y002657D03*
X007525Y002527D03*
X007515Y002337D03*
X027455Y031627D03*
X027435Y031827D03*
X027565Y031957D03*
X027865Y031757D03*
D79*
X006125Y002647D03*
X007475Y002387D03*
D80*
X006110Y002217D03*
X006110Y002637D03*
X028850Y031517D03*
X028850Y031937D03*
D81*
X028855Y031927D03*
X028855Y031527D03*
X027445Y031707D03*
X006105Y002627D03*
X006105Y002417D03*
X006105Y002397D03*
X006105Y002227D03*
D82*
X006100Y002237D03*
X006100Y002387D03*
X006100Y002617D03*
X027430Y031717D03*
X028860Y031537D03*
X028860Y031917D03*
D83*
X028870Y031897D03*
X028870Y031577D03*
X028870Y031567D03*
X027440Y031697D03*
X006090Y002597D03*
X006090Y002437D03*
X006090Y002367D03*
X006090Y002357D03*
X006090Y002267D03*
X006090Y002257D03*
D84*
X006080Y002457D03*
X006080Y002467D03*
X006080Y002477D03*
X006080Y002557D03*
X006080Y002567D03*
X027440Y031687D03*
X028880Y031637D03*
X028880Y031627D03*
X028880Y031617D03*
X028880Y031847D03*
X028880Y031857D03*
X028880Y031867D03*
D85*
X028885Y031837D03*
X028885Y031827D03*
X028885Y031817D03*
X028885Y031807D03*
X028885Y031797D03*
X027405Y031757D03*
X006075Y002547D03*
X006075Y002537D03*
X006075Y002527D03*
X006075Y002517D03*
X006075Y002507D03*
X006075Y002497D03*
X006075Y002487D03*
D86*
X006440Y002337D03*
X006440Y002317D03*
X006550Y002197D03*
X006820Y002307D03*
X006820Y002317D03*
X006820Y002327D03*
X007030Y002397D03*
X006980Y002547D03*
X007210Y002547D03*
X007210Y002337D03*
X007210Y002327D03*
X007210Y002317D03*
X006660Y002537D03*
X006660Y002547D03*
X027760Y031617D03*
X027760Y031627D03*
X027760Y031637D03*
X027760Y031847D03*
X027980Y031847D03*
X027980Y031837D03*
X028140Y031617D03*
X028140Y031607D03*
X028350Y031697D03*
X028300Y031837D03*
X028300Y031847D03*
X028300Y031857D03*
X028530Y031847D03*
X028530Y031637D03*
X028530Y031627D03*
X028530Y031617D03*
D87*
X007425Y002487D03*
X007435Y002477D03*
X007455Y002457D03*
D88*
X007440Y002467D03*
X028780Y031667D03*
X028780Y031757D03*
D89*
X028800Y031747D03*
X007480Y002447D03*
D90*
X007500Y002437D03*
X007430Y002367D03*
X007420Y002357D03*
X007410Y002347D03*
D91*
X007495Y002427D03*
X028815Y031687D03*
X028815Y031697D03*
X028815Y031707D03*
X028815Y031717D03*
X028815Y031727D03*
X028815Y031737D03*
D92*
X006115Y002407D03*
D93*
X007485Y002407D03*
D94*
X007480Y002397D03*
X006130Y002197D03*
X028830Y031497D03*
D95*
X028840Y031507D03*
X028840Y031947D03*
X006120Y002207D03*
D96*
X028765Y031787D03*
D97*
X028770Y031777D03*
X028770Y031767D03*
X028770Y031647D03*
D98*
X028795Y031677D03*
D99*
X028775Y031657D03*
D100*
X032480Y031887D02*
X032480Y031387D01*
X032980Y031387D01*
X032980Y028387D01*
X032480Y028387D01*
X032480Y031387D01*
X032480Y031887D02*
X034680Y031887D01*
X034680Y027887D01*
X032480Y027887D01*
X032480Y028387D01*
X032480Y027587D02*
X032480Y027087D01*
X032980Y027087D01*
X032980Y024087D01*
X032480Y024087D01*
X032480Y027087D01*
X032480Y027587D02*
X034680Y027587D01*
X034680Y023587D01*
X032480Y023587D01*
X032480Y024087D01*
X032480Y022187D02*
X032480Y021687D01*
X032980Y021687D01*
X032980Y020687D01*
X032480Y020687D01*
X032480Y021687D01*
X032480Y022187D02*
X034680Y022187D01*
X034680Y020187D01*
X032480Y020187D01*
X032480Y020687D01*
X032480Y019787D02*
X032480Y019287D01*
X032980Y019287D01*
X032980Y016287D01*
X032480Y016287D01*
X032480Y019287D01*
X032480Y019787D02*
X034680Y019787D01*
X034680Y015787D01*
X032480Y015787D01*
X032480Y016287D01*
X032880Y013287D02*
X032880Y012787D01*
X033380Y012787D01*
X033380Y009787D01*
X032880Y009787D01*
X032880Y012787D01*
X032880Y013287D02*
X035080Y013287D01*
X035080Y009287D01*
X032880Y009287D01*
X032880Y009787D01*
X032475Y001742D02*
X032175Y001442D01*
X032250Y001517D02*
X032475Y001292D01*
X032175Y001292D02*
X032175Y001742D01*
X032014Y001667D02*
X031939Y001742D01*
X031789Y001742D01*
X031714Y001667D01*
X031714Y001367D01*
X031789Y001292D01*
X031939Y001292D01*
X032014Y001367D01*
X031557Y001292D02*
X031407Y001292D01*
X031482Y001292D02*
X031482Y001742D01*
X031407Y001742D02*
X031557Y001742D01*
X031247Y001742D02*
X030947Y001742D01*
X031097Y001742D02*
X031097Y001292D01*
X030787Y001367D02*
X030712Y001292D01*
X030562Y001292D01*
X030486Y001367D01*
X030562Y001517D02*
X030712Y001517D01*
X030787Y001442D01*
X030787Y001367D01*
X030562Y001517D02*
X030486Y001592D01*
X030486Y001667D01*
X030562Y001742D01*
X030712Y001742D01*
X030787Y001667D01*
X030326Y001667D02*
X030326Y001517D01*
X030251Y001442D01*
X030026Y001442D01*
X030176Y001442D02*
X030326Y001292D01*
X030026Y001292D02*
X030026Y001742D01*
X030251Y001742D01*
X030326Y001667D01*
X029866Y001667D02*
X029866Y001367D01*
X029791Y001292D01*
X029641Y001292D01*
X029566Y001367D01*
X029566Y001667D01*
X029641Y001742D01*
X029791Y001742D01*
X029866Y001667D01*
X029406Y001667D02*
X029331Y001742D01*
X029180Y001742D01*
X029105Y001667D01*
X029105Y001592D01*
X029180Y001517D01*
X029331Y001517D01*
X029406Y001442D01*
X029406Y001367D01*
X029331Y001292D01*
X029180Y001292D01*
X029105Y001367D01*
X028945Y001292D02*
X028945Y001742D01*
X028645Y001742D02*
X028645Y001292D01*
X028485Y001292D02*
X028185Y001292D01*
X028185Y001742D01*
X028485Y001742D01*
X028645Y001742D02*
X028945Y001292D01*
X028335Y001517D02*
X028185Y001517D01*
X028024Y001442D02*
X028024Y001367D01*
X027949Y001292D01*
X027799Y001292D01*
X027724Y001367D01*
X027799Y001517D02*
X027949Y001517D01*
X028024Y001442D01*
X028024Y001667D02*
X027949Y001742D01*
X027799Y001742D01*
X027724Y001667D01*
X027724Y001592D01*
X027799Y001517D01*
X027564Y001742D02*
X027264Y001742D01*
X027264Y001292D01*
X027104Y001367D02*
X027029Y001292D01*
X026878Y001292D01*
X026803Y001367D01*
X027104Y001667D01*
X027104Y001367D01*
X027264Y001517D02*
X027414Y001517D01*
X027104Y001667D02*
X027029Y001742D01*
X026878Y001742D01*
X026803Y001667D01*
X026803Y001367D01*
X026643Y001367D02*
X026643Y001667D01*
X026568Y001742D01*
X026343Y001742D01*
X026343Y001292D01*
X026568Y001292D01*
X026643Y001367D01*
X026183Y001367D02*
X026183Y001667D01*
X026108Y001742D01*
X025958Y001742D01*
X025883Y001667D01*
X025883Y001592D01*
X025958Y001517D01*
X026183Y001517D01*
X026183Y001367D02*
X026108Y001292D01*
X025958Y001292D01*
X025883Y001367D01*
X003580Y005087D02*
X003580Y005587D01*
X003080Y005587D01*
X003080Y008587D01*
X003580Y008587D01*
X003580Y005587D01*
X003580Y005087D02*
X001380Y005087D01*
X001380Y009087D01*
X003580Y009087D01*
X003580Y008587D01*
X003580Y009287D02*
X003580Y009787D01*
X003080Y009787D01*
X003080Y012787D01*
X003580Y012787D01*
X003580Y009787D01*
X003580Y009287D02*
X001380Y009287D01*
X001380Y013287D01*
X003580Y013287D01*
X003580Y012787D01*
X003580Y013487D02*
X003580Y013987D01*
X003080Y013987D01*
X003080Y016987D01*
X003580Y016987D01*
X003580Y013987D01*
X003580Y013487D02*
X001380Y013487D01*
X001380Y017487D01*
X003580Y017487D01*
X003580Y016987D01*
X003580Y017687D02*
X003580Y018187D01*
X003080Y018187D01*
X003080Y021187D01*
X003580Y021187D01*
X003580Y018187D01*
X003580Y017687D02*
X001380Y017687D01*
X001380Y021687D01*
X003580Y021687D01*
X003580Y021187D01*
X003580Y021887D02*
X003580Y022387D01*
X003080Y022387D01*
X003080Y025387D01*
X003580Y025387D01*
X003580Y022387D01*
X003580Y021887D02*
X001380Y021887D01*
X001380Y025887D01*
X003580Y025887D01*
X003580Y025387D01*
X003580Y026087D02*
X003580Y026587D01*
X003080Y026587D01*
X003080Y029587D01*
X003580Y029587D01*
X003580Y026587D01*
X003580Y026087D02*
X001380Y026087D01*
X001380Y030087D01*
X003580Y030087D01*
X003580Y029587D01*
M02*
