%
M48
M72
T01C0.0236
T02C0.0400
T03C0.1260
%
T01
X12680Y4587
X14380Y4887
X14880Y14387
X14180Y15187
X17380Y15087
X14580Y18987
X12180Y18587
X8780Y16787
X6980Y18687
X5680Y19187
X29180Y12187
X30780Y11987
X31380Y10587
X32280Y15087
X31480Y5987
X31380Y33987
T02
X2530Y5587
X2630Y6587
X2530Y7587
X2630Y8587
X2530Y9787
X2630Y10787
X2530Y11787
X2630Y12787
X2530Y13987
X2630Y14987
X2530Y15987
X2630Y16987
X2530Y18187
X2630Y19187
X2530Y20187
X2630Y21187
X2530Y22387
X2630Y23387
X2530Y24387
X2630Y25387
X2530Y26587
X2630Y27587
X2530Y28587
X2630Y29587
X8480Y31687
X8480Y30687
X9480Y30687
X9480Y31687
X9480Y29687
X9480Y28687
X8480Y28687
X8480Y29687
X8480Y27687
X8480Y26687
X9480Y26687
X9480Y27687
X9480Y25687
X9480Y24687
X8480Y24687
X8480Y25687
X8480Y23687
X8480Y22687
X9480Y22687
X9480Y23687
X9480Y11487
X9480Y10487
X8480Y10487
X8480Y11487
X8480Y9487
X8480Y8487
X9480Y8487
X9480Y9487
X9480Y7487
X9480Y6487
X8480Y6487
X8480Y7487
X8480Y5487
X8480Y4487
X9480Y4487
X9480Y5487
X9480Y3487
X9480Y2487
X8480Y2487
X8480Y3487
X25480Y3487
X25480Y2487
X26480Y2487
X26480Y3487
X26480Y4487
X26480Y5487
X26480Y6487
X26480Y7487
X26480Y8487
X26480Y9487
X26480Y10487
X26480Y11487
X25480Y11487
X25480Y10487
X25480Y9487
X25480Y8487
X25480Y7487
X25480Y6487
X25480Y5487
X25480Y4487
X29080Y2487
X30080Y2487
X31080Y2487
X32080Y2487
X33880Y9787
X33880Y10787
X33880Y11787
X33880Y12787
X33430Y16287
X33530Y17287
X33430Y18287
X33530Y19287
X33480Y20687
X33480Y21687
X33430Y24087
X33530Y25087
X33430Y26087
X33530Y27087
X33430Y28387
X33530Y29387
X33430Y30387
X33530Y31387
X26480Y31687
X26480Y30687
X25480Y30687
X25480Y31687
X25480Y29687
X25480Y28687
X26480Y28687
X26480Y29687
X26480Y27687
X26480Y26687
X25480Y26687
X25480Y27687
X25480Y25687
X25480Y24687
X26480Y24687
X26480Y25687
X26480Y23687
X26480Y22687
X25480Y22687
X25480Y23687
T03
X2380Y2787
X30680Y14587
X33880Y2987
X33680Y35687
X2080Y35587
M30
