G75*
%MOIN*%
%OFA0B0*%
%FSLAX24Y24*%
%IPPOS*%
%LPD*%
%AMOC8*
5,1,8,0,0,1.08239X$1,22.5*
%
%ADD10C,0.0080*%
%ADD11C,0.0000*%
%ADD12R,0.0740X0.0740*%
%ADD13C,0.0740*%
%ADD14C,0.0160*%
%ADD15R,0.0396X0.0396*%
D10*
X000280Y001387D02*
X000280Y039987D01*
X035380Y039987D01*
X035380Y001487D01*
X000280Y001387D01*
D11*
X001750Y002787D02*
X001752Y002837D01*
X001758Y002887D01*
X001768Y002936D01*
X001782Y002984D01*
X001799Y003031D01*
X001820Y003076D01*
X001845Y003120D01*
X001873Y003161D01*
X001905Y003200D01*
X001939Y003237D01*
X001976Y003271D01*
X002016Y003301D01*
X002058Y003328D01*
X002102Y003352D01*
X002148Y003373D01*
X002195Y003389D01*
X002243Y003402D01*
X002293Y003411D01*
X002342Y003416D01*
X002393Y003417D01*
X002443Y003414D01*
X002492Y003407D01*
X002541Y003396D01*
X002589Y003381D01*
X002635Y003363D01*
X002680Y003341D01*
X002723Y003315D01*
X002764Y003286D01*
X002803Y003254D01*
X002839Y003219D01*
X002871Y003181D01*
X002901Y003141D01*
X002928Y003098D01*
X002951Y003054D01*
X002970Y003008D01*
X002986Y002960D01*
X002998Y002911D01*
X003006Y002862D01*
X003010Y002812D01*
X003010Y002762D01*
X003006Y002712D01*
X002998Y002663D01*
X002986Y002614D01*
X002970Y002566D01*
X002951Y002520D01*
X002928Y002476D01*
X002901Y002433D01*
X002871Y002393D01*
X002839Y002355D01*
X002803Y002320D01*
X002764Y002288D01*
X002723Y002259D01*
X002680Y002233D01*
X002635Y002211D01*
X002589Y002193D01*
X002541Y002178D01*
X002492Y002167D01*
X002443Y002160D01*
X002393Y002157D01*
X002342Y002158D01*
X002293Y002163D01*
X002243Y002172D01*
X002195Y002185D01*
X002148Y002201D01*
X002102Y002222D01*
X002058Y002246D01*
X002016Y002273D01*
X001976Y002303D01*
X001939Y002337D01*
X001905Y002374D01*
X001873Y002413D01*
X001845Y002454D01*
X001820Y002498D01*
X001799Y002543D01*
X001782Y002590D01*
X001768Y002638D01*
X001758Y002687D01*
X001752Y002737D01*
X001750Y002787D01*
X030050Y014587D02*
X030052Y014637D01*
X030058Y014687D01*
X030068Y014736D01*
X030082Y014784D01*
X030099Y014831D01*
X030120Y014876D01*
X030145Y014920D01*
X030173Y014961D01*
X030205Y015000D01*
X030239Y015037D01*
X030276Y015071D01*
X030316Y015101D01*
X030358Y015128D01*
X030402Y015152D01*
X030448Y015173D01*
X030495Y015189D01*
X030543Y015202D01*
X030593Y015211D01*
X030642Y015216D01*
X030693Y015217D01*
X030743Y015214D01*
X030792Y015207D01*
X030841Y015196D01*
X030889Y015181D01*
X030935Y015163D01*
X030980Y015141D01*
X031023Y015115D01*
X031064Y015086D01*
X031103Y015054D01*
X031139Y015019D01*
X031171Y014981D01*
X031201Y014941D01*
X031228Y014898D01*
X031251Y014854D01*
X031270Y014808D01*
X031286Y014760D01*
X031298Y014711D01*
X031306Y014662D01*
X031310Y014612D01*
X031310Y014562D01*
X031306Y014512D01*
X031298Y014463D01*
X031286Y014414D01*
X031270Y014366D01*
X031251Y014320D01*
X031228Y014276D01*
X031201Y014233D01*
X031171Y014193D01*
X031139Y014155D01*
X031103Y014120D01*
X031064Y014088D01*
X031023Y014059D01*
X030980Y014033D01*
X030935Y014011D01*
X030889Y013993D01*
X030841Y013978D01*
X030792Y013967D01*
X030743Y013960D01*
X030693Y013957D01*
X030642Y013958D01*
X030593Y013963D01*
X030543Y013972D01*
X030495Y013985D01*
X030448Y014001D01*
X030402Y014022D01*
X030358Y014046D01*
X030316Y014073D01*
X030276Y014103D01*
X030239Y014137D01*
X030205Y014174D01*
X030173Y014213D01*
X030145Y014254D01*
X030120Y014298D01*
X030099Y014343D01*
X030082Y014390D01*
X030068Y014438D01*
X030058Y014487D01*
X030052Y014537D01*
X030050Y014587D01*
X033250Y002987D02*
X033252Y003037D01*
X033258Y003087D01*
X033268Y003136D01*
X033282Y003184D01*
X033299Y003231D01*
X033320Y003276D01*
X033345Y003320D01*
X033373Y003361D01*
X033405Y003400D01*
X033439Y003437D01*
X033476Y003471D01*
X033516Y003501D01*
X033558Y003528D01*
X033602Y003552D01*
X033648Y003573D01*
X033695Y003589D01*
X033743Y003602D01*
X033793Y003611D01*
X033842Y003616D01*
X033893Y003617D01*
X033943Y003614D01*
X033992Y003607D01*
X034041Y003596D01*
X034089Y003581D01*
X034135Y003563D01*
X034180Y003541D01*
X034223Y003515D01*
X034264Y003486D01*
X034303Y003454D01*
X034339Y003419D01*
X034371Y003381D01*
X034401Y003341D01*
X034428Y003298D01*
X034451Y003254D01*
X034470Y003208D01*
X034486Y003160D01*
X034498Y003111D01*
X034506Y003062D01*
X034510Y003012D01*
X034510Y002962D01*
X034506Y002912D01*
X034498Y002863D01*
X034486Y002814D01*
X034470Y002766D01*
X034451Y002720D01*
X034428Y002676D01*
X034401Y002633D01*
X034371Y002593D01*
X034339Y002555D01*
X034303Y002520D01*
X034264Y002488D01*
X034223Y002459D01*
X034180Y002433D01*
X034135Y002411D01*
X034089Y002393D01*
X034041Y002378D01*
X033992Y002367D01*
X033943Y002360D01*
X033893Y002357D01*
X033842Y002358D01*
X033793Y002363D01*
X033743Y002372D01*
X033695Y002385D01*
X033648Y002401D01*
X033602Y002422D01*
X033558Y002446D01*
X033516Y002473D01*
X033476Y002503D01*
X033439Y002537D01*
X033405Y002574D01*
X033373Y002613D01*
X033345Y002654D01*
X033320Y002698D01*
X033299Y002743D01*
X033282Y002790D01*
X033268Y002838D01*
X033258Y002887D01*
X033252Y002937D01*
X033250Y002987D01*
X033050Y035687D02*
X033052Y035737D01*
X033058Y035787D01*
X033068Y035836D01*
X033082Y035884D01*
X033099Y035931D01*
X033120Y035976D01*
X033145Y036020D01*
X033173Y036061D01*
X033205Y036100D01*
X033239Y036137D01*
X033276Y036171D01*
X033316Y036201D01*
X033358Y036228D01*
X033402Y036252D01*
X033448Y036273D01*
X033495Y036289D01*
X033543Y036302D01*
X033593Y036311D01*
X033642Y036316D01*
X033693Y036317D01*
X033743Y036314D01*
X033792Y036307D01*
X033841Y036296D01*
X033889Y036281D01*
X033935Y036263D01*
X033980Y036241D01*
X034023Y036215D01*
X034064Y036186D01*
X034103Y036154D01*
X034139Y036119D01*
X034171Y036081D01*
X034201Y036041D01*
X034228Y035998D01*
X034251Y035954D01*
X034270Y035908D01*
X034286Y035860D01*
X034298Y035811D01*
X034306Y035762D01*
X034310Y035712D01*
X034310Y035662D01*
X034306Y035612D01*
X034298Y035563D01*
X034286Y035514D01*
X034270Y035466D01*
X034251Y035420D01*
X034228Y035376D01*
X034201Y035333D01*
X034171Y035293D01*
X034139Y035255D01*
X034103Y035220D01*
X034064Y035188D01*
X034023Y035159D01*
X033980Y035133D01*
X033935Y035111D01*
X033889Y035093D01*
X033841Y035078D01*
X033792Y035067D01*
X033743Y035060D01*
X033693Y035057D01*
X033642Y035058D01*
X033593Y035063D01*
X033543Y035072D01*
X033495Y035085D01*
X033448Y035101D01*
X033402Y035122D01*
X033358Y035146D01*
X033316Y035173D01*
X033276Y035203D01*
X033239Y035237D01*
X033205Y035274D01*
X033173Y035313D01*
X033145Y035354D01*
X033120Y035398D01*
X033099Y035443D01*
X033082Y035490D01*
X033068Y035538D01*
X033058Y035587D01*
X033052Y035637D01*
X033050Y035687D01*
X001450Y035587D02*
X001452Y035637D01*
X001458Y035687D01*
X001468Y035736D01*
X001482Y035784D01*
X001499Y035831D01*
X001520Y035876D01*
X001545Y035920D01*
X001573Y035961D01*
X001605Y036000D01*
X001639Y036037D01*
X001676Y036071D01*
X001716Y036101D01*
X001758Y036128D01*
X001802Y036152D01*
X001848Y036173D01*
X001895Y036189D01*
X001943Y036202D01*
X001993Y036211D01*
X002042Y036216D01*
X002093Y036217D01*
X002143Y036214D01*
X002192Y036207D01*
X002241Y036196D01*
X002289Y036181D01*
X002335Y036163D01*
X002380Y036141D01*
X002423Y036115D01*
X002464Y036086D01*
X002503Y036054D01*
X002539Y036019D01*
X002571Y035981D01*
X002601Y035941D01*
X002628Y035898D01*
X002651Y035854D01*
X002670Y035808D01*
X002686Y035760D01*
X002698Y035711D01*
X002706Y035662D01*
X002710Y035612D01*
X002710Y035562D01*
X002706Y035512D01*
X002698Y035463D01*
X002686Y035414D01*
X002670Y035366D01*
X002651Y035320D01*
X002628Y035276D01*
X002601Y035233D01*
X002571Y035193D01*
X002539Y035155D01*
X002503Y035120D01*
X002464Y035088D01*
X002423Y035059D01*
X002380Y035033D01*
X002335Y035011D01*
X002289Y034993D01*
X002241Y034978D01*
X002192Y034967D01*
X002143Y034960D01*
X002093Y034957D01*
X002042Y034958D01*
X001993Y034963D01*
X001943Y034972D01*
X001895Y034985D01*
X001848Y035001D01*
X001802Y035022D01*
X001758Y035046D01*
X001716Y035073D01*
X001676Y035103D01*
X001639Y035137D01*
X001605Y035174D01*
X001573Y035213D01*
X001545Y035254D01*
X001520Y035298D01*
X001499Y035343D01*
X001482Y035390D01*
X001468Y035438D01*
X001458Y035487D01*
X001452Y035537D01*
X001450Y035587D01*
D12*
X008480Y031687D03*
X009480Y031687D03*
X002530Y026587D03*
X002530Y022387D03*
X002530Y018187D03*
X002530Y013987D03*
X002530Y009787D03*
X002530Y005587D03*
X008480Y002487D03*
X009480Y002487D03*
X025480Y002487D03*
X026480Y002487D03*
X032080Y002487D03*
X033880Y012787D03*
X033530Y019287D03*
X033480Y021687D03*
X033530Y027087D03*
X033530Y031387D03*
X026480Y031687D03*
X025480Y031687D03*
D13*
X025480Y030687D03*
X026480Y030687D03*
X026480Y029687D03*
X026480Y028687D03*
X025480Y028687D03*
X025480Y029687D03*
X025480Y027687D03*
X025480Y026687D03*
X026480Y026687D03*
X026480Y027687D03*
X026480Y025687D03*
X026480Y024687D03*
X025480Y024687D03*
X025480Y025687D03*
X025480Y023687D03*
X025480Y022687D03*
X026480Y022687D03*
X026480Y023687D03*
X033430Y024087D03*
X033530Y025087D03*
X033430Y026087D03*
X033430Y028387D03*
X033530Y029387D03*
X033430Y030387D03*
X033480Y020687D03*
X033430Y018287D03*
X033530Y017287D03*
X033430Y016287D03*
X033880Y011787D03*
X033880Y010787D03*
X033880Y009787D03*
X031080Y002487D03*
X030080Y002487D03*
X029080Y002487D03*
X026480Y003487D03*
X026480Y004487D03*
X026480Y005487D03*
X026480Y006487D03*
X026480Y007487D03*
X026480Y008487D03*
X026480Y009487D03*
X026480Y010487D03*
X026480Y011487D03*
X025480Y011487D03*
X025480Y010487D03*
X025480Y009487D03*
X025480Y008487D03*
X025480Y007487D03*
X025480Y006487D03*
X025480Y005487D03*
X025480Y004487D03*
X025480Y003487D03*
X009480Y003487D03*
X009480Y004487D03*
X009480Y005487D03*
X009480Y006487D03*
X009480Y007487D03*
X009480Y008487D03*
X009480Y009487D03*
X009480Y010487D03*
X009480Y011487D03*
X008480Y011487D03*
X008480Y010487D03*
X008480Y009487D03*
X008480Y008487D03*
X008480Y007487D03*
X008480Y006487D03*
X008480Y005487D03*
X008480Y004487D03*
X008480Y003487D03*
X002630Y006587D03*
X002530Y007587D03*
X002630Y008587D03*
X002630Y010787D03*
X002530Y011787D03*
X002630Y012787D03*
X002630Y014987D03*
X002530Y015987D03*
X002630Y016987D03*
X002630Y019187D03*
X002530Y020187D03*
X002630Y021187D03*
X002630Y023387D03*
X002530Y024387D03*
X002630Y025387D03*
X002630Y027587D03*
X002530Y028587D03*
X002630Y029587D03*
X008480Y029687D03*
X008480Y028687D03*
X009480Y028687D03*
X009480Y029687D03*
X009480Y030687D03*
X008480Y030687D03*
X008480Y027687D03*
X008480Y026687D03*
X009480Y026687D03*
X009480Y027687D03*
X009480Y025687D03*
X009480Y024687D03*
X008480Y024687D03*
X008480Y025687D03*
X008480Y023687D03*
X008480Y022687D03*
X009480Y022687D03*
X009480Y023687D03*
D14*
X009658Y024187D02*
X009780Y024136D01*
X009929Y023987D01*
X010010Y023792D01*
X010010Y023581D01*
X009929Y023386D01*
X009780Y023237D01*
X009658Y023187D01*
X009780Y023136D01*
X009929Y022987D01*
X010010Y022792D01*
X010010Y022581D01*
X009929Y022386D01*
X009780Y022237D01*
X009585Y022157D01*
X009375Y022157D01*
X009180Y022237D01*
X009031Y022386D01*
X008980Y022509D01*
X008929Y022386D01*
X008780Y022237D01*
X008585Y022157D01*
X008375Y022157D01*
X008180Y022237D01*
X008031Y022386D01*
X007950Y022581D01*
X007950Y022792D01*
X008031Y022987D01*
X008180Y023136D01*
X008302Y023187D01*
X008180Y023237D01*
X008031Y023386D01*
X007950Y023581D01*
X007950Y023792D01*
X008031Y023987D01*
X008180Y024136D01*
X008302Y024187D01*
X008180Y024237D01*
X008031Y024386D01*
X007950Y024581D01*
X007950Y024792D01*
X008031Y024987D01*
X008180Y025136D01*
X008302Y025187D01*
X008180Y025237D01*
X008031Y025386D01*
X007950Y025581D01*
X007950Y025792D01*
X008031Y025987D01*
X008180Y026136D01*
X008302Y026187D01*
X008180Y026237D01*
X008031Y026386D01*
X007950Y026581D01*
X007950Y026792D01*
X008031Y026987D01*
X008180Y027136D01*
X008302Y027187D01*
X008180Y027237D01*
X008031Y027386D01*
X007950Y027581D01*
X007950Y027792D01*
X008031Y027987D01*
X008180Y028136D01*
X008302Y028187D01*
X008180Y028237D01*
X008031Y028386D01*
X007950Y028581D01*
X007950Y028792D01*
X008031Y028987D01*
X008180Y029136D01*
X008302Y029187D01*
X008180Y029237D01*
X008031Y029386D01*
X007950Y029581D01*
X007950Y029792D01*
X008031Y029987D01*
X008180Y030136D01*
X008302Y030187D01*
X008180Y030237D01*
X008031Y030386D01*
X007950Y030581D01*
X007950Y030792D01*
X008031Y030987D01*
X008180Y031136D01*
X008181Y031137D01*
X008086Y031137D01*
X008041Y031149D01*
X007999Y031173D01*
X007966Y031206D01*
X007942Y031247D01*
X007930Y031293D01*
X007930Y031667D01*
X008460Y031667D01*
X008460Y031707D01*
X008460Y032237D01*
X008086Y032237D01*
X008041Y032224D01*
X007999Y032201D01*
X007966Y032167D01*
X007942Y032126D01*
X007930Y032080D01*
X007930Y031707D01*
X008460Y031707D01*
X008500Y031707D01*
X008500Y032237D01*
X008874Y032237D01*
X008919Y032224D01*
X008961Y032201D01*
X008994Y032167D01*
X008994Y032167D01*
X009044Y032217D01*
X009916Y032217D01*
X010010Y032123D01*
X010010Y031250D01*
X009916Y031157D01*
X009730Y031157D01*
X009780Y031136D01*
X009929Y030987D01*
X010010Y030792D01*
X010010Y030581D01*
X009929Y030386D01*
X009780Y030237D01*
X009658Y030187D01*
X009780Y030136D01*
X009929Y029987D01*
X009954Y029927D01*
X010581Y029927D01*
X010840Y030186D01*
X010840Y032387D01*
X010481Y032747D01*
X007579Y032747D01*
X007020Y032187D01*
X007020Y027939D01*
X006983Y027851D01*
X006683Y027551D01*
X006616Y027483D01*
X006528Y027447D01*
X003146Y027447D01*
X003079Y027286D01*
X002930Y027137D01*
X002927Y027136D01*
X002969Y027124D01*
X003011Y027101D01*
X003044Y027067D01*
X003068Y027026D01*
X003080Y026980D01*
X003080Y026607D01*
X002550Y026607D01*
X002550Y026567D01*
X003080Y026567D01*
X003080Y026193D01*
X003068Y026147D01*
X003044Y026106D01*
X003011Y026073D01*
X002969Y026049D01*
X002924Y026037D01*
X002550Y026037D01*
X002550Y026567D01*
X002510Y026567D01*
X001980Y026567D01*
X001980Y026193D01*
X001992Y026147D01*
X002016Y026106D01*
X002049Y026073D01*
X002091Y026049D01*
X002136Y026037D01*
X002510Y026037D01*
X002510Y026567D01*
X002510Y026607D01*
X001980Y026607D01*
X001980Y026980D01*
X001992Y027026D01*
X002016Y027067D01*
X002049Y027101D01*
X002091Y027124D01*
X002136Y027137D01*
X002331Y027137D01*
X002330Y027137D01*
X002181Y027286D01*
X002100Y027481D01*
X002100Y027692D01*
X002181Y027887D01*
X002330Y028036D01*
X002402Y028066D01*
X002230Y028137D01*
X002081Y028286D01*
X002000Y028481D01*
X002000Y028692D01*
X002081Y028887D01*
X002230Y029036D01*
X002402Y029107D01*
X002330Y029137D01*
X002181Y029286D01*
X002100Y029481D01*
X002100Y029692D01*
X002181Y029887D01*
X002330Y030036D01*
X002525Y030117D01*
X002735Y030117D01*
X002930Y030036D01*
X003079Y029887D01*
X003160Y029692D01*
X003160Y029481D01*
X003079Y029286D01*
X002930Y029137D01*
X002758Y029066D01*
X002830Y029036D01*
X002979Y028887D01*
X003060Y028692D01*
X003060Y028481D01*
X002979Y028286D01*
X002830Y028137D01*
X002758Y028107D01*
X002930Y028036D01*
X003040Y027927D01*
X006381Y027927D01*
X006540Y028086D01*
X006540Y032334D01*
X006577Y032423D01*
X006644Y032490D01*
X007344Y033190D01*
X007432Y033227D01*
X010628Y033227D01*
X010716Y033190D01*
X010783Y033123D01*
X011283Y032623D01*
X011320Y032534D01*
X011320Y030039D01*
X011283Y029951D01*
X011216Y029883D01*
X010816Y029483D01*
X010728Y029447D01*
X009954Y029447D01*
X009929Y029386D01*
X009780Y029237D01*
X009658Y029187D01*
X009780Y029136D01*
X009929Y028987D01*
X010010Y028792D01*
X010010Y028581D01*
X009929Y028386D01*
X009780Y028237D01*
X009658Y028187D01*
X009780Y028136D01*
X009929Y027987D01*
X010010Y027792D01*
X010010Y027581D01*
X009929Y027386D01*
X009780Y027237D01*
X009658Y027187D01*
X009780Y027136D01*
X009929Y026987D01*
X010010Y026792D01*
X010010Y026581D01*
X009929Y026386D01*
X009780Y026237D01*
X009658Y026187D01*
X009780Y026136D01*
X009929Y025987D01*
X010010Y025792D01*
X010010Y025581D01*
X009929Y025386D01*
X009780Y025237D01*
X009658Y025187D01*
X009780Y025136D01*
X009929Y024987D01*
X010010Y024792D01*
X010010Y024581D01*
X009929Y024386D01*
X009780Y024237D01*
X009658Y024187D01*
X009741Y024152D02*
X025219Y024152D01*
X025180Y024136D02*
X025031Y023987D01*
X024950Y023792D01*
X024950Y023581D01*
X025031Y023386D01*
X025180Y023237D01*
X025302Y023187D01*
X025180Y023136D01*
X025031Y022987D01*
X024950Y022792D01*
X024950Y022581D01*
X025031Y022386D01*
X025180Y022237D01*
X025375Y022157D01*
X025585Y022157D01*
X025780Y022237D01*
X025929Y022386D01*
X025980Y022509D01*
X026031Y022386D01*
X026180Y022237D01*
X026375Y022157D01*
X026585Y022157D01*
X026780Y022237D01*
X026929Y022386D01*
X027010Y022581D01*
X027010Y022792D01*
X026929Y022987D01*
X026780Y023136D01*
X026658Y023187D01*
X026780Y023237D01*
X026929Y023386D01*
X026954Y023447D01*
X028540Y023447D01*
X028540Y021586D01*
X028281Y021327D01*
X005579Y021327D01*
X004920Y021986D01*
X004920Y022934D01*
X004883Y023023D01*
X004283Y023623D01*
X004216Y023690D01*
X004128Y023727D01*
X003040Y023727D01*
X002930Y023836D01*
X002758Y023907D01*
X002830Y023937D01*
X002979Y024086D01*
X003060Y024281D01*
X003060Y024492D01*
X002979Y024687D01*
X002830Y024836D01*
X002758Y024866D01*
X002930Y024937D01*
X003079Y025086D01*
X003160Y025281D01*
X003160Y025492D01*
X003079Y025687D01*
X002930Y025836D01*
X002735Y025917D01*
X002525Y025917D01*
X002330Y025836D01*
X002181Y025687D01*
X002100Y025492D01*
X002100Y025281D01*
X002181Y025086D01*
X002330Y024937D01*
X002402Y024907D01*
X002230Y024836D01*
X002081Y024687D01*
X002000Y024492D01*
X002000Y024281D01*
X002081Y024086D01*
X002230Y023937D01*
X002402Y023866D01*
X002330Y023836D01*
X002181Y023687D01*
X002100Y023492D01*
X002100Y023281D01*
X002181Y023086D01*
X002330Y022937D01*
X002331Y022937D01*
X002136Y022937D01*
X002091Y022924D01*
X002049Y022901D01*
X002016Y022867D01*
X001992Y022826D01*
X001980Y022780D01*
X001980Y022407D01*
X002510Y022407D01*
X002510Y022367D01*
X001980Y022367D01*
X001980Y021993D01*
X001992Y021947D01*
X002016Y021906D01*
X002049Y021873D01*
X002091Y021849D01*
X002136Y021837D01*
X002510Y021837D01*
X002510Y022367D01*
X002550Y022367D01*
X002550Y022407D01*
X003080Y022407D01*
X003080Y022780D01*
X003068Y022826D01*
X003044Y022867D01*
X003011Y022901D01*
X002969Y022924D01*
X002927Y022936D01*
X002930Y022937D01*
X003079Y023086D01*
X003146Y023247D01*
X003981Y023247D01*
X004440Y022787D01*
X004440Y021839D01*
X004477Y021751D01*
X004544Y021683D01*
X005344Y020883D01*
X005432Y020847D01*
X028428Y020847D01*
X028516Y020883D01*
X028583Y020951D01*
X028983Y021351D01*
X029020Y021439D01*
X029020Y023634D01*
X028983Y023723D01*
X028916Y023790D01*
X028816Y023890D01*
X028728Y023927D01*
X026954Y023927D01*
X026929Y023987D01*
X026780Y024136D01*
X026658Y024187D01*
X026780Y024237D01*
X026929Y024386D01*
X026954Y024447D01*
X028981Y024447D01*
X029340Y024087D01*
X029340Y021386D01*
X028581Y020627D01*
X006832Y020627D01*
X006744Y020590D01*
X005699Y019545D01*
X005416Y019545D01*
X005322Y019451D01*
X005322Y018922D01*
X005416Y018829D01*
X005944Y018829D01*
X006038Y018922D01*
X006038Y019205D01*
X006979Y020147D01*
X028601Y020147D01*
X028481Y020027D01*
X008132Y020027D01*
X008044Y019990D01*
X007099Y019045D01*
X006716Y019045D01*
X006622Y018951D01*
X006622Y018422D01*
X006716Y018329D01*
X007244Y018329D01*
X007338Y018422D01*
X007338Y018605D01*
X011822Y018605D01*
X011822Y018763D02*
X007496Y018763D01*
X007338Y018605D02*
X008279Y019547D01*
X028628Y019547D01*
X028716Y019583D01*
X028783Y019651D01*
X030183Y021051D01*
X030220Y021139D01*
X030220Y024534D01*
X030183Y024623D01*
X030116Y024690D01*
X027916Y026890D01*
X027828Y026927D01*
X026954Y026927D01*
X026929Y026987D01*
X026780Y027136D01*
X026658Y027187D01*
X026780Y027237D01*
X026929Y027386D01*
X027010Y027581D01*
X027010Y027792D01*
X026929Y027987D01*
X026780Y028136D01*
X026658Y028187D01*
X026780Y028237D01*
X026929Y028386D01*
X027010Y028581D01*
X027010Y028792D01*
X026929Y028987D01*
X026780Y029136D01*
X026658Y029187D01*
X026780Y029237D01*
X026929Y029386D01*
X027010Y029581D01*
X027010Y029792D01*
X026929Y029987D01*
X026780Y030136D01*
X026658Y030187D01*
X026780Y030237D01*
X026929Y030386D01*
X027010Y030581D01*
X027010Y030792D01*
X026929Y030987D01*
X026780Y031136D01*
X026730Y031157D01*
X026916Y031157D01*
X027010Y031250D01*
X027010Y032123D01*
X026916Y032217D01*
X026044Y032217D01*
X025980Y032153D01*
X025916Y032217D01*
X025044Y032217D01*
X024950Y032123D01*
X024950Y031250D01*
X025044Y031157D01*
X025191Y031157D01*
X025122Y031106D01*
X025060Y031045D01*
X025010Y030975D01*
X024970Y030898D01*
X024944Y030815D01*
X024930Y030730D01*
X024930Y030707D01*
X025460Y030707D01*
X025460Y030667D01*
X024930Y030667D01*
X024930Y030643D01*
X024944Y030558D01*
X024970Y030476D01*
X025010Y030398D01*
X025060Y030328D01*
X025122Y030267D01*
X025192Y030216D01*
X025269Y030177D01*
X025274Y030175D01*
X024120Y030175D01*
X024120Y030086D02*
X024120Y032387D01*
X024579Y032847D01*
X028681Y032847D01*
X029440Y032087D01*
X029440Y027039D01*
X029477Y026951D01*
X030077Y026351D01*
X030144Y026283D01*
X030232Y026247D01*
X032923Y026247D01*
X032900Y026192D01*
X032900Y025981D01*
X032981Y025786D01*
X033130Y025637D01*
X033302Y025566D01*
X033230Y025536D01*
X033081Y025387D01*
X033000Y025192D01*
X033000Y024981D01*
X033081Y024786D01*
X030020Y024786D01*
X030178Y024628D02*
X033253Y024628D01*
X033230Y024637D02*
X033302Y024607D01*
X033130Y024536D01*
X032981Y024387D01*
X032900Y024192D01*
X032900Y023981D01*
X032981Y023786D01*
X033130Y023637D01*
X033325Y023557D01*
X033535Y023557D01*
X033730Y023637D01*
X033879Y023786D01*
X033960Y023981D01*
X033960Y024192D01*
X033879Y024387D01*
X033730Y024536D01*
X033658Y024566D01*
X033830Y024637D01*
X033979Y024786D01*
X034860Y024786D01*
X034860Y024628D02*
X033807Y024628D01*
X033797Y024469D02*
X034860Y024469D01*
X034860Y024311D02*
X033911Y024311D01*
X033960Y024152D02*
X034860Y024152D01*
X034860Y023994D02*
X033960Y023994D01*
X033900Y023835D02*
X034860Y023835D01*
X034860Y023677D02*
X033770Y023677D01*
X033090Y023677D02*
X030220Y023677D01*
X030220Y023835D02*
X032960Y023835D01*
X032900Y023994D02*
X030220Y023994D01*
X030220Y024152D02*
X032900Y024152D01*
X032949Y024311D02*
X030220Y024311D01*
X030220Y024469D02*
X033063Y024469D01*
X033230Y024637D02*
X033081Y024786D01*
X033015Y024945D02*
X029861Y024945D01*
X029703Y025103D02*
X033000Y025103D01*
X033029Y025262D02*
X029544Y025262D01*
X029386Y025420D02*
X033114Y025420D01*
X033271Y025579D02*
X029227Y025579D01*
X029069Y025737D02*
X033030Y025737D01*
X032935Y025896D02*
X028910Y025896D01*
X028752Y026054D02*
X032900Y026054D01*
X032909Y026213D02*
X028593Y026213D01*
X028435Y026371D02*
X030056Y026371D01*
X029898Y026530D02*
X028276Y026530D01*
X028118Y026688D02*
X029739Y026688D01*
X029581Y026847D02*
X027959Y026847D01*
X027780Y026687D02*
X029980Y024487D01*
X029980Y021187D01*
X028580Y019787D01*
X008180Y019787D01*
X007080Y018687D01*
X007338Y018446D02*
X011822Y018446D01*
X011822Y018322D02*
X011916Y018229D01*
X012199Y018229D01*
X012344Y018083D01*
X012432Y018047D01*
X032956Y018047D01*
X032981Y017986D01*
X033130Y017837D01*
X033302Y017766D01*
X033230Y017736D01*
X033081Y017587D01*
X033056Y017527D01*
X030932Y017527D01*
X030844Y017490D01*
X029681Y016327D01*
X015932Y016327D01*
X015844Y016290D01*
X015777Y016223D01*
X014981Y015427D01*
X014538Y015427D01*
X014538Y015451D01*
X014444Y015545D01*
X013916Y015545D01*
X013822Y015451D01*
X013822Y014922D01*
X013916Y014829D01*
X014444Y014829D01*
X014538Y014922D01*
X014538Y014947D01*
X015101Y014947D01*
X014899Y014745D01*
X014616Y014745D01*
X014522Y014651D01*
X014522Y014122D01*
X014616Y014029D01*
X015144Y014029D01*
X015238Y014122D01*
X015238Y014405D01*
X016279Y015447D01*
X018301Y015447D01*
X017738Y014884D01*
X017738Y015351D01*
X017644Y015445D01*
X017116Y015445D01*
X017022Y015351D01*
X017022Y014822D01*
X017116Y014729D01*
X017140Y014729D01*
X017140Y006186D01*
X016981Y006027D01*
X009754Y006027D01*
X009780Y006037D01*
X009929Y006186D01*
X010010Y006381D01*
X010010Y006592D01*
X009929Y006787D01*
X009780Y006936D01*
X009658Y006987D01*
X009780Y007037D01*
X009929Y007186D01*
X010010Y007381D01*
X010010Y007592D01*
X009929Y007787D01*
X009780Y007936D01*
X009658Y007987D01*
X009780Y008037D01*
X009929Y008186D01*
X010010Y008381D01*
X010010Y008592D01*
X009929Y008787D01*
X009780Y008936D01*
X009658Y008987D01*
X009780Y009037D01*
X009929Y009186D01*
X010010Y009381D01*
X010010Y009592D01*
X009929Y009787D01*
X009780Y009936D01*
X009658Y009987D01*
X009780Y010037D01*
X009929Y010186D01*
X010010Y010381D01*
X010010Y010592D01*
X009929Y010787D01*
X009780Y010936D01*
X009658Y010987D01*
X009780Y011037D01*
X009929Y011186D01*
X010010Y011381D01*
X010010Y011592D01*
X009929Y011787D01*
X009780Y011936D01*
X009585Y012017D01*
X009375Y012017D01*
X009180Y011936D01*
X009031Y011787D01*
X008980Y011665D01*
X008929Y011787D01*
X008780Y011936D01*
X008585Y012017D01*
X008375Y012017D01*
X008180Y011936D01*
X008031Y011787D01*
X007950Y011592D01*
X007950Y011381D01*
X008031Y011186D01*
X008180Y011037D01*
X008302Y010987D01*
X008180Y010936D01*
X008031Y010787D01*
X007950Y010592D01*
X007950Y010381D01*
X008031Y010186D01*
X008180Y010037D01*
X008302Y009987D01*
X008180Y009936D01*
X008031Y009787D01*
X007950Y009592D01*
X007950Y009381D01*
X008031Y009186D01*
X008180Y009037D01*
X008302Y008987D01*
X008180Y008936D01*
X008031Y008787D01*
X007950Y008592D01*
X007950Y008381D01*
X008031Y008186D01*
X008180Y008037D01*
X008302Y007987D01*
X008180Y007936D01*
X008031Y007787D01*
X007950Y007592D01*
X007950Y007381D01*
X008031Y007186D01*
X008180Y007037D01*
X008302Y006987D01*
X008180Y006936D01*
X008031Y006787D01*
X007950Y006592D01*
X007950Y006381D01*
X008031Y006186D01*
X008180Y006037D01*
X008302Y005987D01*
X008180Y005936D01*
X008031Y005787D01*
X007950Y005592D01*
X007950Y005381D01*
X008031Y005186D01*
X008180Y005037D01*
X008302Y004987D01*
X008180Y004936D01*
X008031Y004787D01*
X007950Y004592D01*
X007950Y004381D01*
X008031Y004186D01*
X008180Y004037D01*
X008302Y003987D01*
X008180Y003936D01*
X008031Y003787D01*
X007950Y003592D01*
X007950Y003381D01*
X008031Y003186D01*
X008180Y003037D01*
X008230Y003017D01*
X008044Y003017D01*
X007950Y002923D01*
X007950Y002050D01*
X008044Y001957D01*
X008916Y001957D01*
X008980Y002020D01*
X009044Y001957D01*
X009916Y001957D01*
X010010Y002050D01*
X010010Y002923D01*
X009916Y003017D01*
X009769Y003017D01*
X009838Y003067D01*
X009900Y003128D01*
X009950Y003198D01*
X009990Y003276D01*
X010016Y003358D01*
X010030Y003443D01*
X010030Y003467D01*
X009500Y003467D01*
X009500Y003507D01*
X010030Y003507D01*
X010030Y003530D01*
X010016Y003615D01*
X009990Y003698D01*
X009950Y003775D01*
X009900Y003845D01*
X009838Y003906D01*
X009768Y003957D01*
X009691Y003996D01*
X009686Y003998D01*
X009780Y004037D01*
X009929Y004186D01*
X010010Y004381D01*
X010010Y004577D01*
X010679Y005247D01*
X017428Y005247D01*
X017516Y005283D01*
X017583Y005351D01*
X017983Y005751D01*
X018020Y005839D01*
X018020Y014487D01*
X018579Y015047D01*
X028781Y015047D01*
X028940Y014887D01*
X028940Y012545D01*
X028916Y012545D01*
X028822Y012451D01*
X028822Y011922D01*
X028916Y011829D01*
X029444Y011829D01*
X029538Y011922D01*
X029538Y012451D01*
X029444Y012545D01*
X029420Y012545D01*
X029420Y015034D01*
X029383Y015123D01*
X029083Y015423D01*
X029059Y015447D01*
X029928Y015447D01*
X030006Y015479D01*
X029998Y015475D01*
X029792Y015268D01*
X029646Y015015D01*
X029570Y014733D01*
X029570Y014441D01*
X029646Y014158D01*
X029792Y013905D01*
X029998Y013699D01*
X030252Y013552D01*
X030534Y013477D01*
X030826Y013477D01*
X031108Y013552D01*
X031362Y013699D01*
X031568Y013905D01*
X031714Y014158D01*
X031790Y014441D01*
X031790Y014733D01*
X031714Y015015D01*
X031568Y015268D01*
X031362Y015475D01*
X031108Y015621D01*
X030826Y015697D01*
X030534Y015697D01*
X030252Y015621D01*
X030020Y015487D01*
X030379Y015847D01*
X033120Y015847D01*
X033130Y015837D01*
X033325Y015757D01*
X033535Y015757D01*
X033730Y015837D01*
X033879Y015986D01*
X033960Y016181D01*
X033960Y016392D01*
X033879Y016587D01*
X033730Y016736D01*
X033658Y016766D01*
X033830Y016837D01*
X033979Y016986D01*
X034060Y017181D01*
X034060Y017392D01*
X033979Y017587D01*
X033830Y017736D01*
X033658Y017807D01*
X033730Y017837D01*
X033879Y017986D01*
X033960Y018181D01*
X033960Y018392D01*
X033879Y018587D01*
X033730Y018736D01*
X033680Y018757D01*
X033966Y018757D01*
X034060Y018850D01*
X034060Y019723D01*
X033966Y019817D01*
X033094Y019817D01*
X033000Y019723D01*
X033000Y019527D01*
X014732Y019527D01*
X014644Y019490D01*
X014499Y019345D01*
X014316Y019345D01*
X014222Y019251D01*
X014222Y018722D01*
X014316Y018629D01*
X014844Y018629D01*
X014938Y018722D01*
X014938Y019047D01*
X033000Y019047D01*
X033000Y018850D01*
X033094Y018757D01*
X033180Y018757D01*
X033130Y018736D01*
X032981Y018587D01*
X032956Y018527D01*
X012579Y018527D01*
X012538Y018568D01*
X012538Y018851D01*
X012444Y018945D01*
X011916Y018945D01*
X011822Y018851D01*
X011822Y018322D01*
X011856Y018288D02*
X005318Y018288D01*
X005160Y018446D02*
X006622Y018446D01*
X006622Y018605D02*
X005001Y018605D01*
X004843Y018763D02*
X006622Y018763D01*
X006622Y018922D02*
X006038Y018922D01*
X006038Y019080D02*
X007134Y019080D01*
X007293Y019239D02*
X006071Y019239D01*
X006230Y019397D02*
X007451Y019397D01*
X007610Y019556D02*
X006388Y019556D01*
X006547Y019714D02*
X007768Y019714D01*
X007927Y019873D02*
X006705Y019873D01*
X006864Y020031D02*
X028485Y020031D01*
X028680Y020387D02*
X006880Y020387D01*
X005680Y019187D01*
X005322Y019239D02*
X004367Y019239D01*
X004283Y019323D02*
X004216Y019390D01*
X004128Y019427D01*
X003104Y019427D01*
X003079Y019487D01*
X002930Y019636D01*
X002758Y019707D01*
X002830Y019737D01*
X002979Y019886D01*
X003060Y020081D01*
X003060Y020292D01*
X002979Y020487D01*
X002830Y020636D01*
X002758Y020666D01*
X002930Y020737D01*
X003079Y020886D01*
X003160Y021081D01*
X003160Y021292D01*
X003079Y021487D01*
X002930Y021636D01*
X002735Y021717D01*
X002525Y021717D01*
X002330Y021636D01*
X002181Y021487D01*
X002100Y021292D01*
X002100Y021081D01*
X002181Y020886D01*
X002330Y020737D01*
X002402Y020707D01*
X002230Y020636D01*
X002081Y020487D01*
X002000Y020292D01*
X002000Y020081D01*
X002081Y019886D01*
X002230Y019737D01*
X002402Y019666D01*
X002330Y019636D01*
X002181Y019487D01*
X002100Y019292D01*
X002100Y019081D01*
X002181Y018886D01*
X002330Y018737D01*
X002331Y018737D01*
X002136Y018737D01*
X002091Y018724D01*
X002049Y018701D01*
X002016Y018667D01*
X001992Y018626D01*
X001980Y018580D01*
X001980Y018207D01*
X002510Y018207D01*
X002510Y018167D01*
X001980Y018167D01*
X001980Y017793D01*
X001992Y017747D01*
X002016Y017706D01*
X002049Y017673D01*
X002091Y017649D01*
X002136Y017637D01*
X002510Y017637D01*
X002510Y018167D01*
X002550Y018167D01*
X002550Y018207D01*
X003080Y018207D01*
X003080Y018580D01*
X003068Y018626D01*
X003044Y018667D01*
X003011Y018701D01*
X002969Y018724D01*
X002927Y018736D01*
X002930Y018737D01*
X003079Y018886D01*
X003104Y018947D01*
X003840Y018947D01*
X003840Y015286D01*
X003781Y015227D01*
X003104Y015227D01*
X003079Y015287D01*
X002930Y015436D01*
X002758Y015507D01*
X002830Y015537D01*
X002979Y015686D01*
X003060Y015881D01*
X003060Y016092D01*
X002979Y016287D01*
X002830Y016436D01*
X002758Y016466D01*
X002930Y016537D01*
X003079Y016686D01*
X003160Y016881D01*
X003160Y017092D01*
X003079Y017287D01*
X002930Y017436D01*
X002735Y017517D01*
X002525Y017517D01*
X002330Y017436D01*
X002181Y017287D01*
X002100Y017092D01*
X002100Y016881D01*
X002181Y016686D01*
X002330Y016537D01*
X002402Y016507D01*
X002230Y016436D01*
X002081Y016287D01*
X002000Y016092D01*
X002000Y015881D01*
X002081Y015686D01*
X002230Y015537D01*
X002402Y015466D01*
X002330Y015436D01*
X002181Y015287D01*
X002100Y015092D01*
X002100Y014881D01*
X002181Y014686D01*
X002330Y014537D01*
X002331Y014537D01*
X002136Y014537D01*
X002091Y014524D01*
X002049Y014501D01*
X002016Y014467D01*
X001992Y014426D01*
X001980Y014380D01*
X001980Y014007D01*
X002510Y014007D01*
X002510Y013967D01*
X001980Y013967D01*
X001980Y013593D01*
X001992Y013547D01*
X002016Y013506D01*
X002049Y013473D01*
X002091Y013449D01*
X002136Y013437D01*
X002510Y013437D01*
X002510Y013967D01*
X002550Y013967D01*
X002550Y014007D01*
X003080Y014007D01*
X003080Y014380D01*
X003068Y014426D01*
X003044Y014467D01*
X003011Y014501D01*
X002969Y014524D01*
X002927Y014536D01*
X002930Y014537D01*
X003079Y014686D01*
X003104Y014747D01*
X003840Y014747D01*
X003840Y011486D01*
X003381Y011027D01*
X003104Y011027D01*
X003079Y011087D01*
X002930Y011236D01*
X002758Y011307D01*
X002830Y011337D01*
X002979Y011486D01*
X003060Y011681D01*
X003060Y011892D01*
X002979Y012087D01*
X002830Y012236D01*
X002758Y012266D01*
X002930Y012337D01*
X003079Y012486D01*
X003160Y012681D01*
X003160Y012892D01*
X003079Y013087D01*
X002930Y013236D01*
X002735Y013317D01*
X002525Y013317D01*
X002330Y013236D01*
X002181Y013087D01*
X002100Y012892D01*
X002100Y012681D01*
X002181Y012486D01*
X002330Y012337D01*
X002402Y012307D01*
X002230Y012236D01*
X002081Y012087D01*
X002000Y011892D01*
X002000Y011681D01*
X002081Y011486D01*
X002230Y011337D01*
X002402Y011266D01*
X002330Y011236D01*
X002181Y011087D01*
X002100Y010892D01*
X002100Y010681D01*
X002181Y010486D01*
X002330Y010337D01*
X002331Y010337D01*
X002136Y010337D01*
X002091Y010324D01*
X002049Y010301D01*
X002016Y010267D01*
X001992Y010226D01*
X001980Y010180D01*
X001980Y009807D01*
X002510Y009807D01*
X002510Y009767D01*
X001980Y009767D01*
X001980Y009393D01*
X001992Y009347D01*
X002016Y009306D01*
X002049Y009273D01*
X002091Y009249D01*
X002136Y009237D01*
X002510Y009237D01*
X002510Y009767D01*
X002550Y009767D01*
X002550Y009807D01*
X003080Y009807D01*
X003080Y010180D01*
X003068Y010226D01*
X003044Y010267D01*
X003011Y010301D01*
X002969Y010324D01*
X002927Y010336D01*
X002930Y010337D01*
X003079Y010486D01*
X003104Y010547D01*
X003528Y010547D01*
X003616Y010583D01*
X003840Y010807D01*
X003840Y006886D01*
X003781Y006827D01*
X003104Y006827D01*
X003079Y006887D01*
X002930Y007036D01*
X002758Y007107D01*
X002830Y007137D01*
X002979Y007286D01*
X003060Y007481D01*
X003060Y007692D01*
X002979Y007887D01*
X002830Y008036D01*
X002758Y008066D01*
X002930Y008137D01*
X003079Y008286D01*
X003160Y008481D01*
X003160Y008692D01*
X003079Y008887D01*
X002930Y009036D01*
X002735Y009117D01*
X002525Y009117D01*
X002330Y009036D01*
X002181Y008887D01*
X002100Y008692D01*
X002100Y008481D01*
X002181Y008286D01*
X002330Y008137D01*
X002402Y008107D01*
X002230Y008036D01*
X002081Y007887D01*
X002000Y007692D01*
X002000Y007481D01*
X002081Y007286D01*
X002230Y007137D01*
X002402Y007066D01*
X002330Y007036D01*
X002181Y006887D01*
X002100Y006692D01*
X002100Y006481D01*
X002181Y006286D01*
X002330Y006137D01*
X002331Y006137D01*
X002136Y006137D01*
X002091Y006124D01*
X002049Y006101D01*
X002016Y006067D01*
X001992Y006026D01*
X001980Y005980D01*
X001980Y005607D01*
X002510Y005607D01*
X002510Y005567D01*
X001980Y005567D01*
X001980Y005193D01*
X001992Y005147D01*
X002016Y005106D01*
X002049Y005073D01*
X002091Y005049D01*
X002136Y005037D01*
X002510Y005037D01*
X002510Y005567D01*
X002550Y005567D01*
X002550Y005607D01*
X003080Y005607D01*
X003080Y005980D01*
X003068Y006026D01*
X003044Y006067D01*
X003011Y006101D01*
X002969Y006124D01*
X002927Y006136D01*
X002930Y006137D01*
X003079Y006286D01*
X003104Y006347D01*
X003928Y006347D01*
X004016Y006383D01*
X004083Y006451D01*
X004283Y006651D01*
X004320Y006739D01*
X004320Y018607D01*
X006344Y016583D01*
X006432Y016547D01*
X008422Y016547D01*
X008422Y016522D01*
X008516Y016429D01*
X009044Y016429D01*
X009138Y016522D01*
X009138Y017051D01*
X009044Y017145D01*
X008516Y017145D01*
X008422Y017051D01*
X008422Y017027D01*
X006579Y017027D01*
X004283Y019323D01*
X004199Y019397D02*
X005322Y019397D01*
X005322Y019080D02*
X004526Y019080D01*
X004684Y018922D02*
X005322Y018922D01*
X005477Y018129D02*
X012298Y018129D01*
X012480Y018287D02*
X012280Y018487D01*
X012480Y018287D02*
X033380Y018287D01*
X032998Y018605D02*
X012538Y018605D01*
X012538Y018763D02*
X014222Y018763D01*
X014222Y018922D02*
X012467Y018922D01*
X011893Y018922D02*
X007654Y018922D01*
X007813Y019080D02*
X014222Y019080D01*
X014222Y019239D02*
X007971Y019239D01*
X008130Y019397D02*
X014551Y019397D01*
X014780Y019287D02*
X014580Y019087D01*
X014780Y019287D02*
X033580Y019287D01*
X034060Y019239D02*
X034860Y019239D01*
X034860Y019397D02*
X034060Y019397D01*
X034060Y019556D02*
X034860Y019556D01*
X034860Y019714D02*
X034060Y019714D01*
X034060Y019080D02*
X034860Y019080D01*
X034860Y018922D02*
X034060Y018922D01*
X033973Y018763D02*
X034860Y018763D01*
X034860Y018605D02*
X033862Y018605D01*
X033938Y018446D02*
X034860Y018446D01*
X034860Y018288D02*
X033960Y018288D01*
X033938Y018129D02*
X034860Y018129D01*
X034860Y017971D02*
X033864Y017971D01*
X033669Y017812D02*
X034860Y017812D01*
X034860Y017654D02*
X033913Y017654D01*
X034017Y017495D02*
X034860Y017495D01*
X034860Y017337D02*
X034060Y017337D01*
X034059Y017178D02*
X034860Y017178D01*
X034860Y017020D02*
X033993Y017020D01*
X033854Y016861D02*
X034860Y016861D01*
X034860Y016703D02*
X033764Y016703D01*
X033897Y016544D02*
X034860Y016544D01*
X034860Y016386D02*
X033960Y016386D01*
X033960Y016227D02*
X034860Y016227D01*
X034860Y016069D02*
X033913Y016069D01*
X033803Y015910D02*
X034860Y015910D01*
X034860Y015752D02*
X030284Y015752D01*
X030204Y015593D02*
X030126Y015593D01*
X029958Y015435D02*
X029071Y015435D01*
X029230Y015276D02*
X029800Y015276D01*
X029705Y015118D02*
X029386Y015118D01*
X029420Y014959D02*
X029631Y014959D01*
X029588Y014801D02*
X029420Y014801D01*
X029420Y014642D02*
X029570Y014642D01*
X029570Y014484D02*
X029420Y014484D01*
X029420Y014325D02*
X029601Y014325D01*
X029643Y014167D02*
X029420Y014167D01*
X029420Y014008D02*
X029732Y014008D01*
X029847Y013850D02*
X029420Y013850D01*
X029420Y013691D02*
X030011Y013691D01*
X030325Y013533D02*
X029420Y013533D01*
X029420Y013374D02*
X031828Y013374D01*
X031670Y013216D02*
X029420Y013216D01*
X029420Y013057D02*
X031511Y013057D01*
X031353Y012899D02*
X029420Y012899D01*
X029420Y012740D02*
X031194Y012740D01*
X031036Y012582D02*
X029420Y012582D01*
X029538Y012423D02*
X030877Y012423D01*
X030799Y012345D02*
X030516Y012345D01*
X030422Y012251D01*
X030422Y011722D01*
X030516Y011629D01*
X031044Y011629D01*
X031138Y011722D01*
X031138Y012005D01*
X032416Y013283D01*
X032483Y013351D01*
X032520Y013439D01*
X032520Y014729D01*
X032544Y014729D01*
X032638Y014822D01*
X032638Y015351D01*
X032544Y015445D01*
X032016Y015445D01*
X031922Y015351D01*
X031922Y014822D01*
X032016Y014729D01*
X032040Y014729D01*
X032040Y013586D01*
X030799Y012345D01*
X030780Y012087D02*
X030780Y011987D01*
X030780Y012087D02*
X030880Y012087D01*
X032280Y013487D01*
X032280Y015087D01*
X032638Y015118D02*
X034860Y015118D01*
X034860Y015276D02*
X032638Y015276D01*
X032554Y015435D02*
X034860Y015435D01*
X034860Y015593D02*
X031156Y015593D01*
X031402Y015435D02*
X032006Y015435D01*
X031922Y015276D02*
X031560Y015276D01*
X031655Y015118D02*
X031922Y015118D01*
X031922Y014959D02*
X031729Y014959D01*
X031772Y014801D02*
X031943Y014801D01*
X032040Y014642D02*
X031790Y014642D01*
X031790Y014484D02*
X032040Y014484D01*
X032040Y014325D02*
X031759Y014325D01*
X031717Y014167D02*
X032040Y014167D01*
X032040Y014008D02*
X031628Y014008D01*
X031513Y013850D02*
X032040Y013850D01*
X032040Y013691D02*
X031349Y013691D01*
X031035Y013533D02*
X031987Y013533D01*
X032348Y013216D02*
X033339Y013216D01*
X033342Y013226D02*
X033330Y013180D01*
X033330Y012807D01*
X033860Y012807D01*
X033860Y013337D01*
X033486Y013337D01*
X033441Y013324D01*
X033399Y013301D01*
X033366Y013267D01*
X033342Y013226D01*
X033330Y013057D02*
X032190Y013057D01*
X032031Y012899D02*
X033330Y012899D01*
X033330Y012767D02*
X033330Y012393D01*
X033342Y012347D01*
X033366Y012306D01*
X033399Y012273D01*
X033441Y012249D01*
X033486Y012237D01*
X033581Y012237D01*
X033580Y012236D01*
X033431Y012087D01*
X033350Y011892D01*
X033350Y011681D01*
X033431Y011486D01*
X033580Y011337D01*
X033702Y011287D01*
X033580Y011236D01*
X033431Y011087D01*
X033350Y010892D01*
X033350Y010681D01*
X033431Y010486D01*
X033580Y010337D01*
X033702Y010287D01*
X033580Y010236D01*
X033431Y010087D01*
X033350Y009892D01*
X033350Y009681D01*
X033404Y009550D01*
X033081Y009227D01*
X028679Y009227D01*
X028120Y009786D01*
X028120Y013034D01*
X028083Y013123D01*
X028016Y013190D01*
X027116Y014090D01*
X027028Y014127D01*
X024132Y014127D01*
X024044Y014090D01*
X023977Y014023D01*
X023277Y013323D01*
X023240Y013234D01*
X023240Y008528D01*
X023238Y008523D01*
X023240Y008481D01*
X023240Y008439D01*
X023242Y008433D01*
X023243Y008428D01*
X023260Y008390D01*
X023277Y008351D01*
X023281Y008347D01*
X023283Y008341D01*
X023314Y008313D01*
X023344Y008283D01*
X023350Y008281D01*
X024414Y007313D01*
X024444Y007283D01*
X024450Y007281D01*
X024454Y007277D01*
X024493Y007263D01*
X024532Y007247D01*
X024538Y007247D01*
X024544Y007245D01*
X024586Y007247D01*
X025006Y007247D01*
X025031Y007186D01*
X025180Y007037D01*
X025302Y006987D01*
X025180Y006936D01*
X025031Y006787D01*
X025006Y006727D01*
X023632Y006727D01*
X023544Y006690D01*
X021181Y004327D01*
X015279Y004327D01*
X014738Y004868D01*
X014738Y005151D01*
X014644Y005245D01*
X014116Y005245D01*
X014022Y005151D01*
X014022Y004622D01*
X014116Y004529D01*
X014399Y004529D01*
X015044Y003883D01*
X015132Y003847D01*
X021301Y003847D01*
X021181Y003727D01*
X013879Y003727D01*
X013038Y004568D01*
X013038Y004851D01*
X012944Y004945D01*
X012416Y004945D01*
X012322Y004851D01*
X012322Y004322D01*
X012416Y004229D01*
X012699Y004229D01*
X013644Y003283D01*
X013732Y003247D01*
X021328Y003247D01*
X021416Y003283D01*
X023379Y005247D01*
X025006Y005247D01*
X025031Y005186D01*
X025180Y005037D01*
X025302Y004987D01*
X025180Y004936D01*
X025031Y004787D01*
X024950Y004592D01*
X024950Y004381D01*
X025031Y004186D01*
X025180Y004037D01*
X025302Y003987D01*
X025180Y003936D01*
X025031Y003787D01*
X024950Y003592D01*
X024950Y003381D01*
X025031Y003186D01*
X025180Y003037D01*
X025230Y003017D01*
X025044Y003017D01*
X024950Y002923D01*
X024950Y002050D01*
X025023Y001977D01*
X003078Y001915D01*
X003268Y002105D01*
X003414Y002358D01*
X003490Y002641D01*
X003490Y002933D01*
X003414Y003215D01*
X003268Y003468D01*
X003062Y003675D01*
X002808Y003821D01*
X002526Y003897D01*
X002234Y003897D01*
X001952Y003821D01*
X001698Y003675D01*
X001492Y003468D01*
X001346Y003215D01*
X001270Y002933D01*
X001270Y002641D01*
X001346Y002358D01*
X001492Y002105D01*
X001686Y001911D01*
X000800Y001908D01*
X000800Y039467D01*
X034860Y039467D01*
X034860Y010546D01*
X034583Y010823D01*
X034516Y010890D01*
X034428Y010927D01*
X034396Y010927D01*
X034329Y011087D01*
X034180Y011236D01*
X034058Y011287D01*
X034180Y011337D01*
X034329Y011486D01*
X034410Y011681D01*
X034410Y011892D01*
X034329Y012087D01*
X034180Y012236D01*
X034179Y012237D01*
X034274Y012237D01*
X034319Y012249D01*
X034361Y012273D01*
X034394Y012306D01*
X034418Y012347D01*
X034430Y012393D01*
X034430Y012767D01*
X033900Y012767D01*
X033900Y012807D01*
X033860Y012807D01*
X033860Y012767D01*
X033330Y012767D01*
X033330Y012740D02*
X031873Y012740D01*
X031714Y012582D02*
X033330Y012582D01*
X033330Y012423D02*
X031556Y012423D01*
X031397Y012265D02*
X033413Y012265D01*
X033450Y012106D02*
X031239Y012106D01*
X031138Y011948D02*
X033373Y011948D01*
X033350Y011789D02*
X031138Y011789D01*
X031047Y011631D02*
X033371Y011631D01*
X033445Y011472D02*
X028120Y011472D01*
X028120Y011314D02*
X033637Y011314D01*
X033499Y011155D02*
X028120Y011155D01*
X028120Y010997D02*
X033393Y010997D01*
X033350Y010838D02*
X028120Y010838D01*
X028120Y010680D02*
X033351Y010680D01*
X033416Y010521D02*
X028120Y010521D01*
X028120Y010363D02*
X033554Y010363D01*
X033548Y010204D02*
X028120Y010204D01*
X028120Y010046D02*
X033414Y010046D01*
X033350Y009887D02*
X028120Y009887D01*
X028177Y009729D02*
X033350Y009729D01*
X033396Y009570D02*
X028336Y009570D01*
X028494Y009412D02*
X033266Y009412D01*
X033107Y009253D02*
X028653Y009253D01*
X028580Y008987D02*
X033180Y008987D01*
X033980Y009787D01*
X033880Y010687D02*
X033780Y010787D01*
X033880Y010687D02*
X034380Y010687D01*
X034780Y010287D01*
X034780Y008787D01*
X034580Y008587D01*
X027780Y008587D01*
X027380Y008987D01*
X027380Y012887D01*
X026780Y013487D01*
X024480Y013487D01*
X024180Y013187D01*
X024180Y009887D01*
X024580Y009487D01*
X025480Y008487D01*
X024950Y009434D02*
X024786Y009617D01*
X024783Y009623D01*
X024754Y009652D01*
X024726Y009683D01*
X024721Y009686D01*
X024420Y009986D01*
X024420Y013087D01*
X024579Y013247D01*
X026681Y013247D01*
X027140Y012787D01*
X027140Y008939D01*
X027177Y008851D01*
X027244Y008783D01*
X027244Y008783D01*
X027577Y008451D01*
X027577Y008451D01*
X027644Y008383D01*
X027732Y008347D01*
X034628Y008347D01*
X034716Y008383D01*
X034860Y008527D01*
X034860Y003509D01*
X034768Y003668D01*
X034562Y003875D01*
X034308Y004021D01*
X034026Y004097D01*
X033734Y004097D01*
X033452Y004021D01*
X033198Y003875D01*
X032992Y003668D01*
X032846Y003415D01*
X032770Y003133D01*
X032770Y002841D01*
X032846Y002558D01*
X032992Y002305D01*
X033198Y002099D01*
X033367Y002001D01*
X032558Y001999D01*
X032610Y002050D01*
X032610Y002923D01*
X032516Y003017D01*
X031644Y003017D01*
X031550Y002923D01*
X031550Y002775D01*
X031500Y002845D01*
X031438Y002906D01*
X031368Y002957D01*
X031291Y002996D01*
X031209Y003023D01*
X031123Y003037D01*
X031100Y003037D01*
X031100Y002507D01*
X031060Y002507D01*
X031060Y003037D01*
X031037Y003037D01*
X030951Y003023D01*
X030869Y002996D01*
X030792Y002957D01*
X030722Y002906D01*
X030660Y002845D01*
X030610Y002775D01*
X030570Y002698D01*
X030569Y002692D01*
X030529Y002787D01*
X030380Y002936D01*
X030185Y003017D01*
X029975Y003017D01*
X029780Y002936D01*
X029631Y002787D01*
X029580Y002665D01*
X029529Y002787D01*
X029380Y002936D01*
X029185Y003017D01*
X028975Y003017D01*
X028780Y002936D01*
X028631Y002787D01*
X028550Y002592D01*
X028550Y002381D01*
X028631Y002186D01*
X028780Y002037D01*
X028898Y001988D01*
X026971Y001983D01*
X026994Y002006D01*
X027018Y002047D01*
X027030Y002093D01*
X027030Y002467D01*
X026500Y002467D01*
X026500Y002507D01*
X027030Y002507D01*
X027030Y002880D01*
X027018Y002926D01*
X026994Y002967D01*
X026961Y003001D01*
X026919Y003024D01*
X026874Y003037D01*
X026779Y003037D01*
X026780Y003037D01*
X026929Y003186D01*
X027010Y003381D01*
X027010Y003592D01*
X026929Y003787D01*
X026780Y003936D01*
X026658Y003987D01*
X026780Y004037D01*
X026929Y004186D01*
X027010Y004381D01*
X027010Y004592D01*
X026929Y004787D01*
X026780Y004936D01*
X026658Y004987D01*
X026780Y005037D01*
X026929Y005186D01*
X027010Y005381D01*
X027010Y005592D01*
X026929Y005787D01*
X026780Y005936D01*
X026658Y005987D01*
X026780Y006037D01*
X026929Y006186D01*
X027010Y006381D01*
X027010Y006592D01*
X026929Y006787D01*
X026780Y006936D01*
X026658Y006987D01*
X026780Y007037D01*
X026929Y007186D01*
X027010Y007381D01*
X027010Y007592D01*
X026929Y007787D01*
X026780Y007936D01*
X026658Y007987D01*
X026780Y008037D01*
X026929Y008186D01*
X027010Y008381D01*
X027010Y008592D01*
X026929Y008787D01*
X026780Y008936D01*
X026658Y008987D01*
X026780Y009037D01*
X026929Y009186D01*
X027010Y009381D01*
X027010Y009592D01*
X026929Y009787D01*
X026780Y009936D01*
X026658Y009987D01*
X026780Y010037D01*
X026929Y010186D01*
X027010Y010381D01*
X027010Y010592D01*
X026929Y010787D01*
X026780Y010936D01*
X026658Y010987D01*
X026780Y011037D01*
X026929Y011186D01*
X027010Y011381D01*
X027010Y011592D01*
X026929Y011787D01*
X026780Y011936D01*
X026585Y012017D01*
X026375Y012017D01*
X026180Y011936D01*
X026031Y011787D01*
X025980Y011665D01*
X025929Y011787D01*
X025780Y011936D01*
X025585Y012017D01*
X025375Y012017D01*
X025180Y011936D01*
X025031Y011787D01*
X024950Y011592D01*
X024950Y011381D01*
X025031Y011186D01*
X025180Y011037D01*
X025302Y010987D01*
X025180Y010936D01*
X025031Y010787D01*
X024950Y010592D01*
X024950Y010381D01*
X025031Y010186D01*
X025180Y010037D01*
X025302Y009987D01*
X025180Y009936D01*
X025031Y009787D01*
X024950Y009592D01*
X024950Y009434D01*
X024950Y009570D02*
X024828Y009570D01*
X024677Y009729D02*
X025007Y009729D01*
X025131Y009887D02*
X024519Y009887D01*
X024420Y010046D02*
X025171Y010046D01*
X025023Y010204D02*
X024420Y010204D01*
X024420Y010363D02*
X024958Y010363D01*
X024950Y010521D02*
X024420Y010521D01*
X024420Y010680D02*
X024986Y010680D01*
X025082Y010838D02*
X024420Y010838D01*
X024420Y010997D02*
X025278Y010997D01*
X025062Y011155D02*
X024420Y011155D01*
X024420Y011314D02*
X024978Y011314D01*
X024950Y011472D02*
X024420Y011472D01*
X024420Y011631D02*
X024966Y011631D01*
X025033Y011789D02*
X024420Y011789D01*
X024420Y011948D02*
X025208Y011948D01*
X025752Y011948D02*
X026208Y011948D01*
X026033Y011789D02*
X025927Y011789D01*
X026682Y010997D02*
X027140Y010997D01*
X027140Y011155D02*
X026898Y011155D01*
X026982Y011314D02*
X027140Y011314D01*
X027140Y011472D02*
X027010Y011472D01*
X026994Y011631D02*
X027140Y011631D01*
X027140Y011789D02*
X026927Y011789D01*
X026752Y011948D02*
X027140Y011948D01*
X027140Y012106D02*
X024420Y012106D01*
X024420Y012265D02*
X027140Y012265D01*
X027140Y012423D02*
X024420Y012423D01*
X024420Y012582D02*
X027140Y012582D01*
X027140Y012740D02*
X024420Y012740D01*
X024420Y012899D02*
X027029Y012899D01*
X026870Y013057D02*
X024420Y013057D01*
X024548Y013216D02*
X026712Y013216D01*
X026980Y013887D02*
X027880Y012987D01*
X027880Y009687D01*
X028580Y008987D01*
X027567Y008461D02*
X027010Y008461D01*
X026999Y008619D02*
X027408Y008619D01*
X027250Y008778D02*
X026933Y008778D01*
X026780Y008936D02*
X027141Y008936D01*
X027140Y009095D02*
X026838Y009095D01*
X026957Y009253D02*
X027140Y009253D01*
X027140Y009412D02*
X027010Y009412D01*
X027010Y009570D02*
X027140Y009570D01*
X027140Y009729D02*
X026953Y009729D01*
X026829Y009887D02*
X027140Y009887D01*
X027140Y010046D02*
X026789Y010046D01*
X026937Y010204D02*
X027140Y010204D01*
X027140Y010363D02*
X027002Y010363D01*
X027010Y010521D02*
X027140Y010521D01*
X027140Y010680D02*
X026974Y010680D01*
X026878Y010838D02*
X027140Y010838D01*
X028120Y011631D02*
X030513Y011631D01*
X030422Y011789D02*
X028120Y011789D01*
X028120Y011948D02*
X028822Y011948D01*
X028822Y012106D02*
X028120Y012106D01*
X028120Y012265D02*
X028822Y012265D01*
X028822Y012423D02*
X028120Y012423D01*
X028120Y012582D02*
X028940Y012582D01*
X028940Y012740D02*
X028120Y012740D01*
X028120Y012899D02*
X028940Y012899D01*
X028940Y013057D02*
X028111Y013057D01*
X027990Y013216D02*
X028940Y013216D01*
X028940Y013374D02*
X027832Y013374D01*
X027673Y013533D02*
X028940Y013533D01*
X028940Y013691D02*
X027515Y013691D01*
X027356Y013850D02*
X028940Y013850D01*
X028940Y014008D02*
X027198Y014008D01*
X026980Y013887D02*
X024180Y013887D01*
X023480Y013187D01*
X023480Y008487D01*
X024580Y007487D01*
X025480Y007487D01*
X025187Y007034D02*
X018020Y007034D01*
X018020Y006876D02*
X025119Y006876D01*
X025028Y007193D02*
X018020Y007193D01*
X018020Y007351D02*
X024372Y007351D01*
X024198Y007510D02*
X018020Y007510D01*
X018020Y007668D02*
X024024Y007668D01*
X023849Y007827D02*
X018020Y007827D01*
X018020Y007985D02*
X023675Y007985D01*
X023501Y008144D02*
X018020Y008144D01*
X018020Y008302D02*
X023325Y008302D01*
X023240Y008461D02*
X018020Y008461D01*
X018020Y008619D02*
X023240Y008619D01*
X023240Y008778D02*
X018020Y008778D01*
X018020Y008936D02*
X023240Y008936D01*
X023240Y009095D02*
X018020Y009095D01*
X018020Y009253D02*
X023240Y009253D01*
X023240Y009412D02*
X018020Y009412D01*
X018020Y009570D02*
X023240Y009570D01*
X023240Y009729D02*
X018020Y009729D01*
X018020Y009887D02*
X023240Y009887D01*
X023240Y010046D02*
X018020Y010046D01*
X018020Y010204D02*
X023240Y010204D01*
X023240Y010363D02*
X018020Y010363D01*
X018020Y010521D02*
X023240Y010521D01*
X023240Y010680D02*
X018020Y010680D01*
X018020Y010838D02*
X023240Y010838D01*
X023240Y010997D02*
X018020Y010997D01*
X018020Y011155D02*
X023240Y011155D01*
X023240Y011314D02*
X018020Y011314D01*
X018020Y011472D02*
X023240Y011472D01*
X023240Y011631D02*
X018020Y011631D01*
X018020Y011789D02*
X023240Y011789D01*
X023240Y011948D02*
X018020Y011948D01*
X018020Y012106D02*
X023240Y012106D01*
X023240Y012265D02*
X018020Y012265D01*
X018020Y012423D02*
X023240Y012423D01*
X023240Y012582D02*
X018020Y012582D01*
X018020Y012740D02*
X023240Y012740D01*
X023240Y012899D02*
X018020Y012899D01*
X018020Y013057D02*
X023240Y013057D01*
X023240Y013216D02*
X018020Y013216D01*
X018020Y013374D02*
X023328Y013374D01*
X023487Y013533D02*
X018020Y013533D01*
X018020Y013691D02*
X023645Y013691D01*
X023804Y013850D02*
X018020Y013850D01*
X018020Y014008D02*
X023962Y014008D01*
X028868Y014959D02*
X018492Y014959D01*
X018333Y014801D02*
X028940Y014801D01*
X028940Y014642D02*
X018175Y014642D01*
X018020Y014484D02*
X028940Y014484D01*
X028940Y014325D02*
X018020Y014325D01*
X018020Y014167D02*
X028940Y014167D01*
X029180Y014987D02*
X028880Y015287D01*
X018480Y015287D01*
X017780Y014587D01*
X017780Y005887D01*
X017380Y005487D01*
X010580Y005487D01*
X009580Y004487D01*
X009924Y004181D02*
X012746Y004181D01*
X012905Y004023D02*
X009745Y004023D01*
X009880Y003864D02*
X013063Y003864D01*
X013222Y003706D02*
X009986Y003706D01*
X010027Y003547D02*
X013380Y003547D01*
X013539Y003389D02*
X010021Y003389D01*
X009967Y003230D02*
X025013Y003230D01*
X024950Y003389D02*
X021521Y003389D01*
X021680Y003547D02*
X024950Y003547D01*
X024997Y003706D02*
X021838Y003706D01*
X021997Y003864D02*
X025108Y003864D01*
X025215Y004023D02*
X022155Y004023D01*
X022314Y004181D02*
X025036Y004181D01*
X024967Y004340D02*
X022472Y004340D01*
X022631Y004498D02*
X024950Y004498D01*
X024977Y004657D02*
X022789Y004657D01*
X022948Y004815D02*
X025059Y004815D01*
X025271Y004974D02*
X023106Y004974D01*
X023265Y005132D02*
X025085Y005132D01*
X025480Y005487D02*
X023280Y005487D01*
X021280Y003487D01*
X013780Y003487D01*
X012680Y004587D01*
X013038Y004657D02*
X014022Y004657D01*
X014022Y004815D02*
X013038Y004815D01*
X013108Y004498D02*
X014429Y004498D01*
X014588Y004340D02*
X013266Y004340D01*
X013425Y004181D02*
X014746Y004181D01*
X014905Y004023D02*
X013583Y004023D01*
X013742Y003864D02*
X015090Y003864D01*
X015180Y004087D02*
X014380Y004887D01*
X014738Y004974D02*
X021828Y004974D01*
X021986Y005132D02*
X014738Y005132D01*
X014791Y004815D02*
X021669Y004815D01*
X021511Y004657D02*
X014949Y004657D01*
X015108Y004498D02*
X021352Y004498D01*
X021194Y004340D02*
X015266Y004340D01*
X015180Y004087D02*
X021280Y004087D01*
X023680Y006487D01*
X025480Y006487D01*
X026661Y007985D02*
X034860Y007985D01*
X034860Y007827D02*
X026890Y007827D01*
X026978Y007668D02*
X034860Y007668D01*
X034860Y007510D02*
X027010Y007510D01*
X026998Y007351D02*
X034860Y007351D01*
X034860Y007193D02*
X026932Y007193D01*
X026773Y007034D02*
X034860Y007034D01*
X034860Y006876D02*
X026841Y006876D01*
X026958Y006717D02*
X034860Y006717D01*
X034860Y006559D02*
X027010Y006559D01*
X027010Y006400D02*
X034860Y006400D01*
X034860Y006242D02*
X026952Y006242D01*
X026826Y006083D02*
X034860Y006083D01*
X034860Y005925D02*
X026792Y005925D01*
X026938Y005766D02*
X034860Y005766D01*
X034860Y005608D02*
X027004Y005608D01*
X027010Y005449D02*
X034860Y005449D01*
X034860Y005291D02*
X026972Y005291D01*
X026875Y005132D02*
X034860Y005132D01*
X034860Y004974D02*
X026689Y004974D01*
X026901Y004815D02*
X034860Y004815D01*
X034860Y004657D02*
X026983Y004657D01*
X027010Y004498D02*
X034860Y004498D01*
X034860Y004340D02*
X026993Y004340D01*
X026924Y004181D02*
X034860Y004181D01*
X034860Y004023D02*
X034302Y004023D01*
X034572Y003864D02*
X034860Y003864D01*
X034860Y003706D02*
X034731Y003706D01*
X034838Y003547D02*
X034860Y003547D01*
X033458Y004023D02*
X026745Y004023D01*
X026852Y003864D02*
X033188Y003864D01*
X033029Y003706D02*
X026963Y003706D01*
X027010Y003547D02*
X032922Y003547D01*
X032839Y003389D02*
X027010Y003389D01*
X026947Y003230D02*
X032796Y003230D01*
X032770Y003072D02*
X026815Y003072D01*
X027021Y002913D02*
X028757Y002913D01*
X028617Y002755D02*
X027030Y002755D01*
X027030Y002596D02*
X028552Y002596D01*
X028550Y002438D02*
X027030Y002438D01*
X027030Y002279D02*
X028592Y002279D01*
X028696Y002121D02*
X027030Y002121D01*
X025145Y003072D02*
X009843Y003072D01*
X010010Y002913D02*
X024950Y002913D01*
X024950Y002755D02*
X010010Y002755D01*
X010010Y002596D02*
X024950Y002596D01*
X024950Y002438D02*
X010010Y002438D01*
X010010Y002279D02*
X024950Y002279D01*
X024950Y002121D02*
X010010Y002121D01*
X009922Y001962D02*
X019760Y001962D01*
X017523Y005291D02*
X022145Y005291D01*
X022303Y005449D02*
X017682Y005449D01*
X017840Y005608D02*
X022462Y005608D01*
X022620Y005766D02*
X017990Y005766D01*
X018020Y005925D02*
X022779Y005925D01*
X022937Y006083D02*
X018020Y006083D01*
X018020Y006242D02*
X023096Y006242D01*
X023254Y006400D02*
X018020Y006400D01*
X018020Y006559D02*
X023413Y006559D01*
X023609Y006717D02*
X018020Y006717D01*
X017140Y006717D02*
X009958Y006717D01*
X010010Y006559D02*
X017140Y006559D01*
X017140Y006400D02*
X010010Y006400D01*
X009952Y006242D02*
X017140Y006242D01*
X017037Y006083D02*
X009826Y006083D01*
X009780Y005787D02*
X009480Y005487D01*
X009780Y005787D02*
X017080Y005787D01*
X017380Y006087D01*
X017380Y015087D01*
X017738Y015118D02*
X017972Y015118D01*
X018130Y015276D02*
X017738Y015276D01*
X017654Y015435D02*
X018289Y015435D01*
X017813Y014959D02*
X017738Y014959D01*
X017140Y014642D02*
X015475Y014642D01*
X015316Y014484D02*
X017140Y014484D01*
X017140Y014325D02*
X015238Y014325D01*
X015238Y014167D02*
X017140Y014167D01*
X017140Y014008D02*
X004320Y014008D01*
X004320Y013850D02*
X017140Y013850D01*
X017140Y013691D02*
X004320Y013691D01*
X004320Y013533D02*
X017140Y013533D01*
X017140Y013374D02*
X004320Y013374D01*
X004320Y013216D02*
X017140Y013216D01*
X017140Y013057D02*
X004320Y013057D01*
X004320Y012899D02*
X017140Y012899D01*
X017140Y012740D02*
X004320Y012740D01*
X004320Y012582D02*
X017140Y012582D01*
X017140Y012423D02*
X004320Y012423D01*
X004320Y012265D02*
X017140Y012265D01*
X017140Y012106D02*
X004320Y012106D01*
X004320Y011948D02*
X008208Y011948D01*
X008033Y011789D02*
X004320Y011789D01*
X004320Y011631D02*
X007966Y011631D01*
X007950Y011472D02*
X004320Y011472D01*
X004320Y011314D02*
X007978Y011314D01*
X008062Y011155D02*
X004320Y011155D01*
X004320Y010997D02*
X008278Y010997D01*
X008082Y010838D02*
X004320Y010838D01*
X004320Y010680D02*
X007986Y010680D01*
X007950Y010521D02*
X004320Y010521D01*
X004320Y010363D02*
X007958Y010363D01*
X008023Y010204D02*
X004320Y010204D01*
X004320Y010046D02*
X008171Y010046D01*
X008131Y009887D02*
X004320Y009887D01*
X004320Y009729D02*
X008007Y009729D01*
X007950Y009570D02*
X004320Y009570D01*
X004320Y009412D02*
X007950Y009412D01*
X008003Y009253D02*
X004320Y009253D01*
X004320Y009095D02*
X008122Y009095D01*
X008180Y008936D02*
X004320Y008936D01*
X004320Y008778D02*
X008027Y008778D01*
X007961Y008619D02*
X004320Y008619D01*
X004320Y008461D02*
X007950Y008461D01*
X007983Y008302D02*
X004320Y008302D01*
X004320Y008144D02*
X008073Y008144D01*
X008299Y007985D02*
X004320Y007985D01*
X004320Y007827D02*
X008070Y007827D01*
X007982Y007668D02*
X004320Y007668D01*
X004320Y007510D02*
X007950Y007510D01*
X007962Y007351D02*
X004320Y007351D01*
X004320Y007193D02*
X008028Y007193D01*
X008187Y007034D02*
X004320Y007034D01*
X004320Y006876D02*
X008119Y006876D01*
X008002Y006717D02*
X004311Y006717D01*
X004191Y006559D02*
X007950Y006559D01*
X007950Y006400D02*
X004033Y006400D01*
X003880Y006587D02*
X002580Y006587D01*
X002225Y006242D02*
X000800Y006242D01*
X000800Y006400D02*
X002134Y006400D01*
X002100Y006559D02*
X000800Y006559D01*
X000800Y006717D02*
X002110Y006717D01*
X002176Y006876D02*
X000800Y006876D01*
X000800Y007034D02*
X002328Y007034D01*
X002174Y007193D02*
X000800Y007193D01*
X000800Y007351D02*
X002054Y007351D01*
X002000Y007510D02*
X000800Y007510D01*
X000800Y007668D02*
X002000Y007668D01*
X002056Y007827D02*
X000800Y007827D01*
X000800Y007985D02*
X002179Y007985D01*
X002323Y008144D02*
X000800Y008144D01*
X000800Y008302D02*
X002174Y008302D01*
X002109Y008461D02*
X000800Y008461D01*
X000800Y008619D02*
X002100Y008619D01*
X002135Y008778D02*
X000800Y008778D01*
X000800Y008936D02*
X002230Y008936D01*
X002471Y009095D02*
X000800Y009095D01*
X000800Y009253D02*
X002083Y009253D01*
X001980Y009412D02*
X000800Y009412D01*
X000800Y009570D02*
X001980Y009570D01*
X001980Y009729D02*
X000800Y009729D01*
X000800Y009887D02*
X001980Y009887D01*
X001980Y010046D02*
X000800Y010046D01*
X000800Y010204D02*
X001986Y010204D01*
X002304Y010363D02*
X000800Y010363D01*
X000800Y010521D02*
X002166Y010521D01*
X002101Y010680D02*
X000800Y010680D01*
X000800Y010838D02*
X002100Y010838D01*
X002143Y010997D02*
X000800Y010997D01*
X000800Y011155D02*
X002249Y011155D01*
X002287Y011314D02*
X000800Y011314D01*
X000800Y011472D02*
X002095Y011472D01*
X002021Y011631D02*
X000800Y011631D01*
X000800Y011789D02*
X002000Y011789D01*
X002023Y011948D02*
X000800Y011948D01*
X000800Y012106D02*
X002100Y012106D01*
X002299Y012265D02*
X000800Y012265D01*
X000800Y012423D02*
X002244Y012423D01*
X002141Y012582D02*
X000800Y012582D01*
X000800Y012740D02*
X002100Y012740D01*
X002103Y012899D02*
X000800Y012899D01*
X000800Y013057D02*
X002168Y013057D01*
X002309Y013216D02*
X000800Y013216D01*
X000800Y013374D02*
X003840Y013374D01*
X003840Y013216D02*
X002951Y013216D01*
X003092Y013057D02*
X003840Y013057D01*
X003840Y012899D02*
X003157Y012899D01*
X003160Y012740D02*
X003840Y012740D01*
X003840Y012582D02*
X003119Y012582D01*
X003016Y012423D02*
X003840Y012423D01*
X003840Y012265D02*
X002761Y012265D01*
X002960Y012106D02*
X003840Y012106D01*
X003840Y011948D02*
X003037Y011948D01*
X003060Y011789D02*
X003840Y011789D01*
X003840Y011631D02*
X003039Y011631D01*
X002965Y011472D02*
X003826Y011472D01*
X003668Y011314D02*
X002773Y011314D01*
X003011Y011155D02*
X003509Y011155D01*
X003480Y010787D02*
X004080Y011387D01*
X004080Y006787D01*
X003880Y006587D01*
X003830Y006876D02*
X003084Y006876D01*
X002932Y007034D02*
X003840Y007034D01*
X003840Y007193D02*
X002886Y007193D01*
X003006Y007351D02*
X003840Y007351D01*
X003840Y007510D02*
X003060Y007510D01*
X003060Y007668D02*
X003840Y007668D01*
X003840Y007827D02*
X003004Y007827D01*
X002881Y007985D02*
X003840Y007985D01*
X003840Y008144D02*
X002937Y008144D01*
X003086Y008302D02*
X003840Y008302D01*
X003840Y008461D02*
X003151Y008461D01*
X003160Y008619D02*
X003840Y008619D01*
X003840Y008778D02*
X003125Y008778D01*
X003030Y008936D02*
X003840Y008936D01*
X003840Y009095D02*
X002789Y009095D01*
X002924Y009237D02*
X002550Y009237D01*
X002550Y009767D01*
X003080Y009767D01*
X003080Y009393D01*
X003068Y009347D01*
X003044Y009306D01*
X003011Y009273D01*
X002969Y009249D01*
X002924Y009237D01*
X002977Y009253D02*
X003840Y009253D01*
X003840Y009412D02*
X003080Y009412D01*
X003080Y009570D02*
X003840Y009570D01*
X003840Y009729D02*
X003080Y009729D01*
X003080Y009887D02*
X003840Y009887D01*
X003840Y010046D02*
X003080Y010046D01*
X003074Y010204D02*
X003840Y010204D01*
X003840Y010363D02*
X002956Y010363D01*
X003094Y010521D02*
X003840Y010521D01*
X003840Y010680D02*
X003712Y010680D01*
X003480Y010787D02*
X002680Y010787D01*
X002550Y009729D02*
X002510Y009729D01*
X002510Y009570D02*
X002550Y009570D01*
X002550Y009412D02*
X002510Y009412D01*
X002510Y009253D02*
X002550Y009253D01*
X004080Y011387D02*
X004080Y015187D01*
X003880Y014987D01*
X002680Y014987D01*
X003035Y014642D02*
X003840Y014642D01*
X003840Y014484D02*
X003028Y014484D01*
X003080Y014325D02*
X003840Y014325D01*
X003840Y014167D02*
X003080Y014167D01*
X003080Y014008D02*
X003840Y014008D01*
X003840Y013850D02*
X003080Y013850D01*
X003080Y013967D02*
X002550Y013967D01*
X002550Y013437D01*
X002924Y013437D01*
X002969Y013449D01*
X003011Y013473D01*
X003044Y013506D01*
X003068Y013547D01*
X003080Y013593D01*
X003080Y013967D01*
X003080Y013691D02*
X003840Y013691D01*
X003840Y013533D02*
X003059Y013533D01*
X002550Y013533D02*
X002510Y013533D01*
X002510Y013691D02*
X002550Y013691D01*
X002550Y013850D02*
X002510Y013850D01*
X001980Y013850D02*
X000800Y013850D01*
X000800Y014008D02*
X001980Y014008D01*
X001980Y014167D02*
X000800Y014167D01*
X000800Y014325D02*
X001980Y014325D01*
X002032Y014484D02*
X000800Y014484D01*
X000800Y014642D02*
X002225Y014642D01*
X002133Y014801D02*
X000800Y014801D01*
X000800Y014959D02*
X002100Y014959D01*
X002111Y015118D02*
X000800Y015118D01*
X000800Y015276D02*
X002176Y015276D01*
X002328Y015435D02*
X000800Y015435D01*
X000800Y015593D02*
X002174Y015593D01*
X002054Y015752D02*
X000800Y015752D01*
X000800Y015910D02*
X002000Y015910D01*
X002000Y016069D02*
X000800Y016069D01*
X000800Y016227D02*
X002056Y016227D01*
X002179Y016386D02*
X000800Y016386D01*
X000800Y016544D02*
X002323Y016544D01*
X002174Y016703D02*
X000800Y016703D01*
X000800Y016861D02*
X002108Y016861D01*
X002100Y017020D02*
X000800Y017020D01*
X000800Y017178D02*
X002136Y017178D01*
X002230Y017337D02*
X000800Y017337D01*
X000800Y017495D02*
X002473Y017495D01*
X002550Y017637D02*
X002924Y017637D01*
X002969Y017649D01*
X003011Y017673D01*
X003044Y017706D01*
X003068Y017747D01*
X003080Y017793D01*
X003080Y018167D01*
X002550Y018167D01*
X002550Y017637D01*
X002550Y017654D02*
X002510Y017654D01*
X002510Y017812D02*
X002550Y017812D01*
X002550Y017971D02*
X002510Y017971D01*
X002510Y018129D02*
X002550Y018129D01*
X003080Y018129D02*
X003840Y018129D01*
X003840Y017971D02*
X003080Y017971D01*
X003080Y017812D02*
X003840Y017812D01*
X003840Y017654D02*
X002978Y017654D01*
X002787Y017495D02*
X003840Y017495D01*
X003840Y017337D02*
X003030Y017337D01*
X003124Y017178D02*
X003840Y017178D01*
X003840Y017020D02*
X003160Y017020D01*
X003152Y016861D02*
X003840Y016861D01*
X003840Y016703D02*
X003086Y016703D01*
X002937Y016544D02*
X003840Y016544D01*
X003840Y016386D02*
X002881Y016386D01*
X003004Y016227D02*
X003840Y016227D01*
X003840Y016069D02*
X003060Y016069D01*
X003060Y015910D02*
X003840Y015910D01*
X003840Y015752D02*
X003006Y015752D01*
X002886Y015593D02*
X003840Y015593D01*
X003840Y015435D02*
X002932Y015435D01*
X003084Y015276D02*
X003830Y015276D01*
X004080Y015187D02*
X004080Y019187D01*
X002680Y019187D01*
X003094Y018922D02*
X003840Y018922D01*
X003840Y018763D02*
X002956Y018763D01*
X003073Y018605D02*
X003840Y018605D01*
X003840Y018446D02*
X003080Y018446D01*
X003080Y018288D02*
X003840Y018288D01*
X004320Y018288D02*
X004640Y018288D01*
X004798Y018129D02*
X004320Y018129D01*
X004320Y017971D02*
X004957Y017971D01*
X005115Y017812D02*
X004320Y017812D01*
X004320Y017654D02*
X005274Y017654D01*
X005432Y017495D02*
X004320Y017495D01*
X004320Y017337D02*
X005591Y017337D01*
X005749Y017178D02*
X004320Y017178D01*
X004320Y017020D02*
X005908Y017020D01*
X006066Y016861D02*
X004320Y016861D01*
X004320Y016703D02*
X006225Y016703D01*
X006480Y016787D02*
X004080Y019187D01*
X004320Y018605D02*
X004323Y018605D01*
X004320Y018446D02*
X004481Y018446D01*
X005635Y017971D02*
X032996Y017971D01*
X033191Y017812D02*
X005794Y017812D01*
X005952Y017654D02*
X033147Y017654D01*
X033580Y017287D02*
X030980Y017287D01*
X029780Y016087D01*
X015980Y016087D01*
X015080Y015187D01*
X014180Y015187D01*
X013822Y015118D02*
X004320Y015118D01*
X004320Y015276D02*
X013822Y015276D01*
X013822Y015435D02*
X004320Y015435D01*
X004320Y015593D02*
X015147Y015593D01*
X014989Y015435D02*
X014538Y015435D01*
X014955Y014801D02*
X004320Y014801D01*
X004320Y014959D02*
X013822Y014959D01*
X014522Y014642D02*
X004320Y014642D01*
X004320Y014484D02*
X014522Y014484D01*
X014522Y014325D02*
X004320Y014325D01*
X004320Y014167D02*
X014522Y014167D01*
X014880Y014387D02*
X016180Y015687D01*
X029880Y015687D01*
X030280Y016087D01*
X033280Y016087D01*
X033480Y016287D01*
X032638Y014959D02*
X034860Y014959D01*
X034860Y014801D02*
X032617Y014801D01*
X032520Y014642D02*
X034860Y014642D01*
X034860Y014484D02*
X032520Y014484D01*
X032520Y014325D02*
X034860Y014325D01*
X034860Y014167D02*
X032520Y014167D01*
X032520Y014008D02*
X034860Y014008D01*
X034860Y013850D02*
X032520Y013850D01*
X032520Y013691D02*
X034860Y013691D01*
X034860Y013533D02*
X032520Y013533D01*
X032493Y013374D02*
X034860Y013374D01*
X034860Y013216D02*
X034421Y013216D01*
X034418Y013226D02*
X034394Y013267D01*
X034361Y013301D01*
X034319Y013324D01*
X034274Y013337D01*
X033900Y013337D01*
X033900Y012807D01*
X034430Y012807D01*
X034430Y013180D01*
X034418Y013226D01*
X034430Y013057D02*
X034860Y013057D01*
X034860Y012899D02*
X034430Y012899D01*
X034430Y012740D02*
X034860Y012740D01*
X034860Y012582D02*
X034430Y012582D01*
X034430Y012423D02*
X034860Y012423D01*
X034860Y012265D02*
X034347Y012265D01*
X034310Y012106D02*
X034860Y012106D01*
X034860Y011948D02*
X034387Y011948D01*
X034410Y011789D02*
X034860Y011789D01*
X034860Y011631D02*
X034389Y011631D01*
X034315Y011472D02*
X034860Y011472D01*
X034860Y011314D02*
X034123Y011314D01*
X034261Y011155D02*
X034860Y011155D01*
X034860Y010997D02*
X034367Y010997D01*
X034568Y010838D02*
X034860Y010838D01*
X034860Y010680D02*
X034726Y010680D01*
X034793Y008461D02*
X034860Y008461D01*
X034860Y008302D02*
X026977Y008302D01*
X026887Y008144D02*
X034860Y008144D01*
X033900Y012899D02*
X033860Y012899D01*
X033860Y013057D02*
X033900Y013057D01*
X033900Y013216D02*
X033860Y013216D01*
X030436Y012265D02*
X029538Y012265D01*
X029538Y012106D02*
X030422Y012106D01*
X030422Y011948D02*
X029538Y011948D01*
X029180Y012187D02*
X029180Y014987D01*
X029740Y016386D02*
X004320Y016386D01*
X004320Y016544D02*
X008422Y016544D01*
X008780Y016787D02*
X006480Y016787D01*
X006428Y017178D02*
X030532Y017178D01*
X030374Y017020D02*
X009138Y017020D01*
X009138Y016861D02*
X030215Y016861D01*
X030057Y016703D02*
X009138Y016703D01*
X009138Y016544D02*
X029898Y016544D01*
X030691Y017337D02*
X006269Y017337D01*
X006111Y017495D02*
X030856Y017495D01*
X033087Y018763D02*
X014938Y018763D01*
X014938Y018922D02*
X033000Y018922D01*
X033000Y019556D02*
X028650Y019556D01*
X028847Y019714D02*
X033000Y019714D01*
X033244Y020190D02*
X029322Y020190D01*
X029164Y020031D02*
X034860Y020031D01*
X034860Y019873D02*
X029005Y019873D01*
X028680Y020387D02*
X029580Y021287D01*
X029580Y024187D01*
X029080Y024687D01*
X026480Y024687D01*
X026854Y024311D02*
X029117Y024311D01*
X029275Y024152D02*
X026741Y024152D01*
X026922Y023994D02*
X029340Y023994D01*
X029340Y023835D02*
X028871Y023835D01*
X029002Y023677D02*
X029340Y023677D01*
X029340Y023518D02*
X029020Y023518D01*
X029020Y023360D02*
X029340Y023360D01*
X029340Y023201D02*
X029020Y023201D01*
X029020Y023043D02*
X029340Y023043D01*
X029340Y022884D02*
X029020Y022884D01*
X029020Y022726D02*
X029340Y022726D01*
X029340Y022567D02*
X029020Y022567D01*
X029020Y022409D02*
X029340Y022409D01*
X029340Y022250D02*
X029020Y022250D01*
X029020Y022092D02*
X029340Y022092D01*
X029340Y021933D02*
X029020Y021933D01*
X029020Y021775D02*
X029340Y021775D01*
X029340Y021616D02*
X029020Y021616D01*
X029020Y021458D02*
X029340Y021458D01*
X029253Y021299D02*
X028932Y021299D01*
X028773Y021141D02*
X029095Y021141D01*
X028936Y020982D02*
X028615Y020982D01*
X028778Y020824D02*
X003017Y020824D01*
X003119Y020982D02*
X005245Y020982D01*
X005087Y021141D02*
X003160Y021141D01*
X003157Y021299D02*
X004928Y021299D01*
X004770Y021458D02*
X003091Y021458D01*
X002950Y021616D02*
X004611Y021616D01*
X004467Y021775D02*
X000800Y021775D01*
X000800Y021933D02*
X002000Y021933D01*
X001980Y022092D02*
X000800Y022092D01*
X000800Y022250D02*
X001980Y022250D01*
X001980Y022409D02*
X000800Y022409D01*
X000800Y022567D02*
X001980Y022567D01*
X001980Y022726D02*
X000800Y022726D01*
X000800Y022884D02*
X002033Y022884D01*
X002224Y023043D02*
X000800Y023043D01*
X000800Y023201D02*
X002133Y023201D01*
X002100Y023360D02*
X000800Y023360D01*
X000800Y023518D02*
X002111Y023518D01*
X002176Y023677D02*
X000800Y023677D01*
X000800Y023835D02*
X002329Y023835D01*
X002173Y023994D02*
X000800Y023994D01*
X000800Y024152D02*
X002053Y024152D01*
X002000Y024311D02*
X000800Y024311D01*
X000800Y024469D02*
X002000Y024469D01*
X002056Y024628D02*
X000800Y024628D01*
X000800Y024786D02*
X002180Y024786D01*
X002322Y024945D02*
X000800Y024945D01*
X000800Y025103D02*
X002174Y025103D01*
X002108Y025262D02*
X000800Y025262D01*
X000800Y025420D02*
X002100Y025420D01*
X002136Y025579D02*
X000800Y025579D01*
X000800Y025737D02*
X002231Y025737D01*
X002474Y025896D02*
X000800Y025896D01*
X000800Y026054D02*
X002081Y026054D01*
X001980Y026213D02*
X000800Y026213D01*
X000800Y026371D02*
X001980Y026371D01*
X001980Y026530D02*
X000800Y026530D01*
X000800Y026688D02*
X001980Y026688D01*
X001980Y026847D02*
X000800Y026847D01*
X000800Y027005D02*
X001987Y027005D01*
X002303Y027164D02*
X000800Y027164D01*
X000800Y027322D02*
X002166Y027322D01*
X002100Y027481D02*
X000800Y027481D01*
X000800Y027639D02*
X002100Y027639D01*
X002144Y027798D02*
X000800Y027798D01*
X000800Y027956D02*
X002250Y027956D01*
X002284Y028115D02*
X000800Y028115D01*
X000800Y028273D02*
X002094Y028273D01*
X002021Y028432D02*
X000800Y028432D01*
X000800Y028590D02*
X002000Y028590D01*
X002023Y028749D02*
X000800Y028749D01*
X000800Y028907D02*
X002101Y028907D01*
X002302Y029066D02*
X000800Y029066D01*
X000800Y029224D02*
X002243Y029224D01*
X002141Y029383D02*
X000800Y029383D01*
X000800Y029541D02*
X002100Y029541D01*
X002103Y029700D02*
X000800Y029700D01*
X000800Y029858D02*
X002169Y029858D01*
X002311Y030017D02*
X000800Y030017D01*
X000800Y030175D02*
X006540Y030175D01*
X006540Y030017D02*
X002949Y030017D01*
X003091Y029858D02*
X006540Y029858D01*
X006540Y029700D02*
X003157Y029700D01*
X003160Y029541D02*
X006540Y029541D01*
X006540Y029383D02*
X003119Y029383D01*
X003017Y029224D02*
X006540Y029224D01*
X006540Y029066D02*
X002758Y029066D01*
X002959Y028907D02*
X006540Y028907D01*
X006540Y028749D02*
X003037Y028749D01*
X003060Y028590D02*
X006540Y028590D01*
X006540Y028432D02*
X003039Y028432D01*
X002966Y028273D02*
X006540Y028273D01*
X006540Y028115D02*
X002776Y028115D01*
X003010Y027956D02*
X006410Y027956D01*
X006480Y027687D02*
X002780Y027687D01*
X002680Y027587D01*
X003094Y027322D02*
X008095Y027322D01*
X007992Y027481D02*
X006610Y027481D01*
X006772Y027639D02*
X007950Y027639D01*
X007952Y027798D02*
X006930Y027798D01*
X007020Y027956D02*
X008018Y027956D01*
X008159Y028115D02*
X007020Y028115D01*
X007020Y028273D02*
X008144Y028273D01*
X008012Y028432D02*
X007020Y028432D01*
X007020Y028590D02*
X007950Y028590D01*
X007950Y028749D02*
X007020Y028749D01*
X007020Y028907D02*
X007998Y028907D01*
X008110Y029066D02*
X007020Y029066D01*
X007020Y029224D02*
X008212Y029224D01*
X008034Y029383D02*
X007020Y029383D01*
X007020Y029541D02*
X007967Y029541D01*
X007950Y029700D02*
X007020Y029700D01*
X007020Y029858D02*
X007977Y029858D01*
X008061Y030017D02*
X007020Y030017D01*
X007020Y030175D02*
X008274Y030175D01*
X008083Y030334D02*
X007020Y030334D01*
X007020Y030492D02*
X007987Y030492D01*
X007950Y030651D02*
X007020Y030651D01*
X007020Y030809D02*
X007957Y030809D01*
X008023Y030968D02*
X007020Y030968D01*
X007020Y031126D02*
X008170Y031126D01*
X007932Y031285D02*
X007020Y031285D01*
X007020Y031443D02*
X007930Y031443D01*
X007930Y031602D02*
X007020Y031602D01*
X007020Y031760D02*
X007930Y031760D01*
X007930Y031919D02*
X007020Y031919D01*
X007020Y032077D02*
X007930Y032077D01*
X008083Y032236D02*
X007068Y032236D01*
X007227Y032394D02*
X010833Y032394D01*
X010840Y032236D02*
X008877Y032236D01*
X008500Y032236D02*
X008460Y032236D01*
X008460Y032077D02*
X008500Y032077D01*
X008500Y031919D02*
X008460Y031919D01*
X008460Y031760D02*
X008500Y031760D01*
X007544Y032711D02*
X010516Y032711D01*
X010675Y032553D02*
X007385Y032553D01*
X007480Y032987D02*
X006780Y032287D01*
X006780Y027987D01*
X006480Y027687D01*
X008049Y027005D02*
X003073Y027005D01*
X003080Y026847D02*
X007973Y026847D01*
X007950Y026688D02*
X003080Y026688D01*
X003080Y026530D02*
X007971Y026530D01*
X008046Y026371D02*
X003080Y026371D01*
X003080Y026213D02*
X008239Y026213D01*
X008098Y026054D02*
X002979Y026054D01*
X002786Y025896D02*
X007993Y025896D01*
X007950Y025737D02*
X003029Y025737D01*
X003124Y025579D02*
X007951Y025579D01*
X008017Y025420D02*
X003160Y025420D01*
X003152Y025262D02*
X008155Y025262D01*
X008147Y025103D02*
X003086Y025103D01*
X002938Y024945D02*
X008013Y024945D01*
X007950Y024786D02*
X002880Y024786D01*
X003004Y024628D02*
X007950Y024628D01*
X007996Y024469D02*
X003060Y024469D01*
X003060Y024311D02*
X008106Y024311D01*
X008219Y024152D02*
X003007Y024152D01*
X002887Y023994D02*
X008038Y023994D01*
X007968Y023835D02*
X002931Y023835D01*
X002680Y023487D02*
X002580Y023387D01*
X002680Y023487D02*
X004080Y023487D01*
X004680Y022887D01*
X004680Y021887D01*
X005480Y021087D01*
X028380Y021087D01*
X028780Y021487D01*
X028780Y023587D01*
X028680Y023687D01*
X026480Y023687D01*
X026693Y023201D02*
X028540Y023201D01*
X028540Y023043D02*
X026873Y023043D01*
X026972Y022884D02*
X028540Y022884D01*
X028540Y022726D02*
X027010Y022726D01*
X027004Y022567D02*
X028540Y022567D01*
X028540Y022409D02*
X026939Y022409D01*
X026793Y022250D02*
X028540Y022250D01*
X028540Y022092D02*
X004920Y022092D01*
X004920Y022250D02*
X008167Y022250D01*
X008021Y022409D02*
X004920Y022409D01*
X004920Y022567D02*
X007956Y022567D01*
X007950Y022726D02*
X004920Y022726D01*
X004920Y022884D02*
X007988Y022884D01*
X008087Y023043D02*
X004863Y023043D01*
X004705Y023201D02*
X008267Y023201D01*
X008057Y023360D02*
X004546Y023360D01*
X004388Y023518D02*
X007976Y023518D01*
X007950Y023677D02*
X004229Y023677D01*
X004026Y023201D02*
X003127Y023201D01*
X003036Y023043D02*
X004185Y023043D01*
X004343Y022884D02*
X003027Y022884D01*
X003080Y022726D02*
X004440Y022726D01*
X004440Y022567D02*
X003080Y022567D01*
X003080Y022409D02*
X004440Y022409D01*
X004440Y022250D02*
X003080Y022250D01*
X003080Y022367D02*
X002550Y022367D01*
X002550Y021837D01*
X002924Y021837D01*
X002969Y021849D01*
X003011Y021873D01*
X003044Y021906D01*
X003068Y021947D01*
X003080Y021993D01*
X003080Y022367D01*
X003080Y022092D02*
X004440Y022092D01*
X004440Y021933D02*
X003060Y021933D01*
X002550Y021933D02*
X002510Y021933D01*
X002510Y022092D02*
X002550Y022092D01*
X002550Y022250D02*
X002510Y022250D01*
X002310Y021616D02*
X000800Y021616D01*
X000800Y021458D02*
X002169Y021458D01*
X002103Y021299D02*
X000800Y021299D01*
X000800Y021141D02*
X002100Y021141D01*
X002141Y020982D02*
X000800Y020982D01*
X000800Y020824D02*
X002243Y020824D01*
X002300Y020665D02*
X000800Y020665D01*
X000800Y020507D02*
X002100Y020507D01*
X002023Y020348D02*
X000800Y020348D01*
X000800Y020190D02*
X002000Y020190D01*
X002021Y020031D02*
X000800Y020031D01*
X000800Y019873D02*
X002094Y019873D01*
X002286Y019714D02*
X000800Y019714D01*
X000800Y019556D02*
X002249Y019556D01*
X002144Y019397D02*
X000800Y019397D01*
X000800Y019239D02*
X002100Y019239D01*
X002100Y019080D02*
X000800Y019080D01*
X000800Y018922D02*
X002166Y018922D01*
X002304Y018763D02*
X000800Y018763D01*
X000800Y018605D02*
X001987Y018605D01*
X001980Y018446D02*
X000800Y018446D01*
X000800Y018288D02*
X001980Y018288D01*
X001980Y018129D02*
X000800Y018129D01*
X000800Y017971D02*
X001980Y017971D01*
X001980Y017812D02*
X000800Y017812D01*
X000800Y017654D02*
X002082Y017654D01*
X003011Y019556D02*
X005710Y019556D01*
X005868Y019714D02*
X002774Y019714D01*
X002966Y019873D02*
X006027Y019873D01*
X006185Y020031D02*
X003039Y020031D01*
X003060Y020190D02*
X006344Y020190D01*
X006502Y020348D02*
X003037Y020348D01*
X002960Y020507D02*
X006661Y020507D01*
X005448Y021458D02*
X028412Y021458D01*
X028540Y021616D02*
X005290Y021616D01*
X005131Y021775D02*
X028540Y021775D01*
X028540Y021933D02*
X004973Y021933D01*
X002760Y020665D02*
X028619Y020665D01*
X029481Y020348D02*
X033046Y020348D01*
X033060Y020328D02*
X033122Y020267D01*
X033192Y020216D01*
X033269Y020177D01*
X033351Y020150D01*
X033437Y020137D01*
X033460Y020137D01*
X033460Y020667D01*
X032930Y020667D01*
X032930Y020643D01*
X032944Y020558D01*
X032970Y020476D01*
X033010Y020398D01*
X033060Y020328D01*
X032960Y020507D02*
X029639Y020507D01*
X029798Y020665D02*
X032930Y020665D01*
X032930Y020707D02*
X033460Y020707D01*
X033460Y020667D01*
X033500Y020667D01*
X033500Y020707D01*
X034030Y020707D01*
X034030Y020730D01*
X034016Y020815D01*
X033990Y020898D01*
X033950Y020975D01*
X033900Y021045D01*
X033838Y021106D01*
X033769Y021157D01*
X033916Y021157D01*
X034010Y021250D01*
X034010Y022123D01*
X033916Y022217D01*
X033044Y022217D01*
X032950Y022123D01*
X032950Y021250D01*
X033044Y021157D01*
X033191Y021157D01*
X033122Y021106D01*
X033060Y021045D01*
X033010Y020975D01*
X032970Y020898D01*
X032944Y020815D01*
X032930Y020730D01*
X032930Y020707D01*
X032946Y020824D02*
X029956Y020824D01*
X030115Y020982D02*
X033015Y020982D01*
X033169Y021141D02*
X030220Y021141D01*
X030220Y021299D02*
X032950Y021299D01*
X032950Y021458D02*
X030220Y021458D01*
X030220Y021616D02*
X032950Y021616D01*
X032950Y021775D02*
X030220Y021775D01*
X030220Y021933D02*
X032950Y021933D01*
X032950Y022092D02*
X030220Y022092D01*
X030220Y022250D02*
X034860Y022250D01*
X034860Y022092D02*
X034010Y022092D01*
X034010Y021933D02*
X034860Y021933D01*
X034860Y021775D02*
X034010Y021775D01*
X034010Y021616D02*
X034860Y021616D01*
X034860Y021458D02*
X034010Y021458D01*
X034010Y021299D02*
X034860Y021299D01*
X034860Y021141D02*
X033791Y021141D01*
X033945Y020982D02*
X034860Y020982D01*
X034860Y020824D02*
X034014Y020824D01*
X034030Y020667D02*
X033500Y020667D01*
X033500Y020137D01*
X033523Y020137D01*
X033609Y020150D01*
X033691Y020177D01*
X033768Y020216D01*
X033838Y020267D01*
X033900Y020328D01*
X033950Y020398D01*
X033990Y020476D01*
X034016Y020558D01*
X034030Y020643D01*
X034030Y020667D01*
X034030Y020665D02*
X034860Y020665D01*
X034860Y020507D02*
X034000Y020507D01*
X033914Y020348D02*
X034860Y020348D01*
X034860Y020190D02*
X033716Y020190D01*
X033500Y020190D02*
X033460Y020190D01*
X033460Y020348D02*
X033500Y020348D01*
X033500Y020507D02*
X033460Y020507D01*
X033460Y020665D02*
X033500Y020665D01*
X034860Y022409D02*
X030220Y022409D01*
X030220Y022567D02*
X034860Y022567D01*
X034860Y022726D02*
X030220Y022726D01*
X030220Y022884D02*
X034860Y022884D01*
X034860Y023043D02*
X030220Y023043D01*
X030220Y023201D02*
X034860Y023201D01*
X034860Y023360D02*
X030220Y023360D01*
X030220Y023518D02*
X034860Y023518D01*
X034860Y024945D02*
X034045Y024945D01*
X034060Y024981D02*
X033979Y024786D01*
X034060Y024981D02*
X034060Y025192D01*
X033979Y025387D01*
X033830Y025536D01*
X033658Y025607D01*
X033730Y025637D01*
X033879Y025786D01*
X033960Y025981D01*
X033960Y026192D01*
X033879Y026387D01*
X033730Y026536D01*
X033729Y026537D01*
X033924Y026537D01*
X033969Y026549D01*
X034011Y026573D01*
X034044Y026606D01*
X034068Y026647D01*
X034080Y026693D01*
X034080Y027067D01*
X033550Y027067D01*
X033550Y027107D01*
X033510Y027107D01*
X033510Y027637D01*
X033136Y027637D01*
X033091Y027624D01*
X033049Y027601D01*
X033016Y027567D01*
X032992Y027526D01*
X032980Y027480D01*
X032980Y027107D01*
X033510Y027107D01*
X033510Y027067D01*
X032980Y027067D01*
X032980Y026727D01*
X030379Y026727D01*
X029920Y027186D01*
X029920Y032234D01*
X029883Y032323D01*
X029816Y032390D01*
X028959Y033247D01*
X029181Y033247D01*
X029940Y032487D01*
X029940Y030839D01*
X029977Y030751D01*
X030477Y030251D01*
X030544Y030183D01*
X030632Y030147D01*
X032956Y030147D01*
X032981Y030086D01*
X033130Y029937D01*
X033302Y029866D01*
X033230Y029836D01*
X033081Y029687D01*
X033000Y029492D01*
X033000Y029281D01*
X033081Y029086D01*
X033230Y028937D01*
X033302Y028907D01*
X029920Y028907D01*
X029920Y028749D02*
X033043Y028749D01*
X032981Y028687D02*
X032900Y028492D01*
X032900Y028281D01*
X032981Y028086D01*
X033130Y027937D01*
X033325Y027857D01*
X033535Y027857D01*
X033730Y027937D01*
X033879Y028086D01*
X033904Y028147D01*
X034228Y028147D01*
X034316Y028183D01*
X034383Y028251D01*
X034783Y028651D01*
X034820Y028739D01*
X034820Y031734D01*
X034783Y031823D01*
X034716Y031890D01*
X033716Y032890D01*
X033628Y032927D01*
X030579Y032927D01*
X029659Y033847D01*
X031022Y033847D01*
X031022Y033722D01*
X031116Y033629D01*
X031644Y033629D01*
X031738Y033722D01*
X031738Y034251D01*
X031644Y034345D01*
X031116Y034345D01*
X031098Y034327D01*
X023932Y034327D01*
X023844Y034290D01*
X023777Y034223D01*
X022577Y033023D01*
X022540Y032934D01*
X022540Y029239D01*
X022577Y029151D01*
X022644Y029083D01*
X024950Y026777D01*
X024950Y026581D01*
X025031Y026386D01*
X025180Y026237D01*
X025302Y026187D01*
X025180Y026136D01*
X025031Y025987D01*
X024950Y025792D01*
X024950Y025581D01*
X025031Y025386D01*
X025180Y025237D01*
X025302Y025187D01*
X025180Y025136D01*
X025031Y024987D01*
X024950Y024792D01*
X024950Y024581D01*
X025031Y024386D01*
X025180Y024237D01*
X025302Y024187D01*
X025180Y024136D01*
X025106Y024311D02*
X009854Y024311D01*
X009964Y024469D02*
X024996Y024469D01*
X024950Y024628D02*
X010010Y024628D01*
X010010Y024786D02*
X024950Y024786D01*
X025013Y024945D02*
X009947Y024945D01*
X009813Y025103D02*
X025147Y025103D01*
X025155Y025262D02*
X009805Y025262D01*
X009943Y025420D02*
X025017Y025420D01*
X024951Y025579D02*
X010009Y025579D01*
X010010Y025737D02*
X024950Y025737D01*
X024993Y025896D02*
X009967Y025896D01*
X009862Y026054D02*
X025098Y026054D01*
X025239Y026213D02*
X009721Y026213D01*
X009914Y026371D02*
X025046Y026371D01*
X024971Y026530D02*
X009989Y026530D01*
X010010Y026688D02*
X024950Y026688D01*
X024881Y026847D02*
X009987Y026847D01*
X009911Y027005D02*
X024722Y027005D01*
X024564Y027164D02*
X009713Y027164D01*
X009865Y027322D02*
X024405Y027322D01*
X024247Y027481D02*
X009968Y027481D01*
X010010Y027639D02*
X024088Y027639D01*
X023930Y027798D02*
X010008Y027798D01*
X009942Y027956D02*
X023771Y027956D01*
X023613Y028115D02*
X009801Y028115D01*
X009816Y028273D02*
X023454Y028273D01*
X023296Y028432D02*
X009948Y028432D01*
X010010Y028590D02*
X023137Y028590D01*
X022979Y028749D02*
X010010Y028749D01*
X009962Y028907D02*
X022820Y028907D01*
X022662Y029066D02*
X009850Y029066D01*
X009748Y029224D02*
X022546Y029224D01*
X022540Y029383D02*
X009926Y029383D01*
X009480Y029687D02*
X010680Y029687D01*
X011080Y030087D01*
X011080Y032487D01*
X010580Y032987D01*
X007480Y032987D01*
X007341Y033187D02*
X000800Y033187D01*
X000800Y033345D02*
X022899Y033345D01*
X022741Y033187D02*
X010719Y033187D01*
X010878Y033028D02*
X022582Y033028D01*
X022540Y032870D02*
X011036Y032870D01*
X011195Y032711D02*
X022540Y032711D01*
X022540Y032553D02*
X011312Y032553D01*
X011320Y032394D02*
X022540Y032394D01*
X022540Y032236D02*
X011320Y032236D01*
X011320Y032077D02*
X022540Y032077D01*
X022540Y031919D02*
X011320Y031919D01*
X011320Y031760D02*
X022540Y031760D01*
X022540Y031602D02*
X011320Y031602D01*
X011320Y031443D02*
X022540Y031443D01*
X022540Y031285D02*
X011320Y031285D01*
X011320Y031126D02*
X022540Y031126D01*
X022540Y030968D02*
X011320Y030968D01*
X011320Y030809D02*
X022540Y030809D01*
X022540Y030651D02*
X011320Y030651D01*
X011320Y030492D02*
X022540Y030492D01*
X022540Y030334D02*
X011320Y030334D01*
X011320Y030175D02*
X022540Y030175D01*
X022540Y030017D02*
X011311Y030017D01*
X011191Y029858D02*
X022540Y029858D01*
X022540Y029700D02*
X011032Y029700D01*
X010874Y029541D02*
X022540Y029541D01*
X022780Y029287D02*
X022780Y032887D01*
X023980Y034087D01*
X031280Y034087D01*
X031380Y033987D01*
X031022Y033821D02*
X029685Y033821D01*
X029844Y033662D02*
X031082Y033662D01*
X031678Y033662D02*
X034860Y033662D01*
X034860Y033504D02*
X030002Y033504D01*
X030161Y033345D02*
X034860Y033345D01*
X034860Y033187D02*
X030319Y033187D01*
X030478Y033028D02*
X034860Y033028D01*
X034860Y032870D02*
X033736Y032870D01*
X033895Y032711D02*
X034860Y032711D01*
X034860Y032553D02*
X034053Y032553D01*
X034212Y032394D02*
X034860Y032394D01*
X034860Y032236D02*
X034370Y032236D01*
X034529Y032077D02*
X034860Y032077D01*
X034860Y031919D02*
X034687Y031919D01*
X034809Y031760D02*
X034860Y031760D01*
X034860Y031602D02*
X034820Y031602D01*
X034820Y031443D02*
X034860Y031443D01*
X034860Y031285D02*
X034820Y031285D01*
X034820Y031126D02*
X034860Y031126D01*
X034860Y030968D02*
X034820Y030968D01*
X034820Y030809D02*
X034860Y030809D01*
X034860Y030651D02*
X034820Y030651D01*
X034820Y030492D02*
X034860Y030492D01*
X034860Y030334D02*
X034820Y030334D01*
X034820Y030175D02*
X034860Y030175D01*
X034860Y030017D02*
X034820Y030017D01*
X034820Y029858D02*
X034860Y029858D01*
X034860Y029700D02*
X034820Y029700D01*
X034820Y029541D02*
X034860Y029541D01*
X034860Y029383D02*
X034820Y029383D01*
X034820Y029224D02*
X034860Y029224D01*
X034860Y029066D02*
X034820Y029066D01*
X034820Y028907D02*
X034860Y028907D01*
X034860Y028749D02*
X034820Y028749D01*
X034860Y028590D02*
X034723Y028590D01*
X034860Y028432D02*
X034564Y028432D01*
X034406Y028273D02*
X034860Y028273D01*
X034860Y028115D02*
X033891Y028115D01*
X033749Y027956D02*
X034860Y027956D01*
X034860Y027798D02*
X029920Y027798D01*
X029920Y027956D02*
X033111Y027956D01*
X032969Y028115D02*
X029920Y028115D01*
X029920Y028273D02*
X032903Y028273D01*
X032900Y028432D02*
X029920Y028432D01*
X029920Y028590D02*
X032941Y028590D01*
X032981Y028687D02*
X033130Y028836D01*
X033302Y028907D01*
X033101Y029066D02*
X029920Y029066D01*
X029920Y029224D02*
X033024Y029224D01*
X033000Y029383D02*
X029920Y029383D01*
X029920Y029541D02*
X033020Y029541D01*
X033094Y029700D02*
X029920Y029700D01*
X029920Y029858D02*
X033283Y029858D01*
X033050Y030017D02*
X029920Y030017D01*
X029920Y030175D02*
X030563Y030175D01*
X030394Y030334D02*
X029920Y030334D01*
X029920Y030492D02*
X030235Y030492D01*
X030077Y030651D02*
X029920Y030651D01*
X029920Y030809D02*
X029952Y030809D01*
X029940Y030968D02*
X029920Y030968D01*
X029920Y031126D02*
X029940Y031126D01*
X029940Y031285D02*
X029920Y031285D01*
X029920Y031443D02*
X029940Y031443D01*
X029940Y031602D02*
X029920Y031602D01*
X029920Y031760D02*
X029940Y031760D01*
X029940Y031919D02*
X029920Y031919D01*
X029920Y032077D02*
X029940Y032077D01*
X029940Y032236D02*
X029919Y032236D01*
X029940Y032394D02*
X029812Y032394D01*
X029875Y032553D02*
X029653Y032553D01*
X029716Y032711D02*
X029495Y032711D01*
X029558Y032870D02*
X029336Y032870D01*
X029399Y033028D02*
X029178Y033028D01*
X029241Y033187D02*
X029019Y033187D01*
X028780Y033087D02*
X029680Y032187D01*
X029680Y027087D01*
X030280Y026487D01*
X033080Y026487D01*
X033480Y026087D01*
X033830Y025737D02*
X034860Y025737D01*
X034860Y025579D02*
X033727Y025579D01*
X033946Y025420D02*
X034860Y025420D01*
X034860Y025262D02*
X034031Y025262D01*
X034060Y025103D02*
X034860Y025103D01*
X034860Y025896D02*
X033925Y025896D01*
X033960Y026054D02*
X034860Y026054D01*
X034860Y026213D02*
X033951Y026213D01*
X033886Y026371D02*
X034860Y026371D01*
X034860Y026530D02*
X033736Y026530D01*
X034079Y026688D02*
X034860Y026688D01*
X034860Y026847D02*
X034080Y026847D01*
X034080Y027005D02*
X034860Y027005D01*
X034860Y027164D02*
X034080Y027164D01*
X034080Y027107D02*
X034080Y027480D01*
X034068Y027526D01*
X034044Y027567D01*
X034011Y027601D01*
X033969Y027624D01*
X033924Y027637D01*
X033550Y027637D01*
X033550Y027107D01*
X034080Y027107D01*
X034080Y027322D02*
X034860Y027322D01*
X034860Y027481D02*
X034080Y027481D01*
X033550Y027481D02*
X033510Y027481D01*
X033510Y027322D02*
X033550Y027322D01*
X033550Y027164D02*
X033510Y027164D01*
X032980Y027164D02*
X029942Y027164D01*
X029920Y027322D02*
X032980Y027322D01*
X032980Y027481D02*
X029920Y027481D01*
X029920Y027639D02*
X034860Y027639D01*
X034180Y028387D02*
X033380Y028387D01*
X033658Y028866D02*
X033830Y028937D01*
X033979Y029086D01*
X034060Y029281D01*
X034060Y029492D01*
X033979Y029687D01*
X033830Y029836D01*
X033658Y029907D01*
X033730Y029937D01*
X033879Y030086D01*
X033960Y030281D01*
X033960Y030492D01*
X033879Y030687D01*
X033730Y030836D01*
X033729Y030837D01*
X033924Y030837D01*
X033969Y030849D01*
X034011Y030873D01*
X034044Y030906D01*
X034068Y030947D01*
X034080Y030993D01*
X034080Y031367D01*
X033550Y031367D01*
X033550Y031407D01*
X033510Y031407D01*
X033510Y031937D01*
X033136Y031937D01*
X033091Y031924D01*
X033049Y031901D01*
X033016Y031867D01*
X032992Y031826D01*
X032980Y031780D01*
X032980Y031407D01*
X033510Y031407D01*
X033510Y031367D01*
X032980Y031367D01*
X032980Y030993D01*
X032992Y030947D01*
X033016Y030906D01*
X033049Y030873D01*
X033091Y030849D01*
X033133Y030837D01*
X033130Y030836D01*
X032981Y030687D01*
X032956Y030627D01*
X030779Y030627D01*
X030420Y030986D01*
X030420Y032452D01*
X030432Y032447D01*
X033481Y032447D01*
X034340Y031587D01*
X034340Y028886D01*
X034081Y028627D01*
X033904Y028627D01*
X033879Y028687D01*
X033730Y028836D01*
X033658Y028866D01*
X033757Y028907D02*
X034340Y028907D01*
X034340Y029066D02*
X033959Y029066D01*
X034036Y029224D02*
X034340Y029224D01*
X034340Y029383D02*
X034060Y029383D01*
X034040Y029541D02*
X034340Y029541D01*
X034340Y029700D02*
X033966Y029700D01*
X033777Y029858D02*
X034340Y029858D01*
X034340Y030017D02*
X033810Y030017D01*
X033916Y030175D02*
X034340Y030175D01*
X034340Y030334D02*
X033960Y030334D01*
X033960Y030492D02*
X034340Y030492D01*
X034340Y030651D02*
X033894Y030651D01*
X033757Y030809D02*
X034340Y030809D01*
X034340Y030968D02*
X034073Y030968D01*
X034080Y031126D02*
X034340Y031126D01*
X034340Y031285D02*
X034080Y031285D01*
X034080Y031407D02*
X034080Y031780D01*
X034068Y031826D01*
X034044Y031867D01*
X034011Y031901D01*
X033969Y031924D01*
X033924Y031937D01*
X033550Y031937D01*
X033550Y031407D01*
X034080Y031407D01*
X034080Y031443D02*
X034340Y031443D01*
X034326Y031602D02*
X034080Y031602D01*
X034080Y031760D02*
X034167Y031760D01*
X034009Y031919D02*
X033979Y031919D01*
X033850Y032077D02*
X030420Y032077D01*
X030420Y031919D02*
X033081Y031919D01*
X032980Y031760D02*
X030420Y031760D01*
X030420Y031602D02*
X032980Y031602D01*
X032980Y031443D02*
X030420Y031443D01*
X030420Y031285D02*
X032980Y031285D01*
X032980Y031126D02*
X030420Y031126D01*
X030438Y030968D02*
X032987Y030968D01*
X033103Y030809D02*
X030597Y030809D01*
X030755Y030651D02*
X032966Y030651D01*
X033480Y030387D02*
X030680Y030387D01*
X030180Y030887D01*
X030180Y032587D01*
X029280Y033487D01*
X024280Y033487D01*
X023480Y032687D01*
X023480Y029587D01*
X024380Y028687D01*
X025480Y028687D01*
X025480Y029587D02*
X025480Y029687D01*
X025480Y029587D02*
X024280Y029587D01*
X023880Y029987D01*
X023880Y032487D01*
X024480Y033087D01*
X028780Y033087D01*
X028816Y032711D02*
X024444Y032711D01*
X024285Y032553D02*
X028975Y032553D01*
X029133Y032394D02*
X024127Y032394D01*
X024120Y032236D02*
X029292Y032236D01*
X029440Y032077D02*
X027010Y032077D01*
X027010Y031919D02*
X029440Y031919D01*
X029440Y031760D02*
X027010Y031760D01*
X027010Y031602D02*
X029440Y031602D01*
X029440Y031443D02*
X027010Y031443D01*
X027010Y031285D02*
X029440Y031285D01*
X029440Y031126D02*
X026790Y031126D01*
X026937Y030968D02*
X029440Y030968D01*
X029440Y030809D02*
X027003Y030809D01*
X027010Y030651D02*
X029440Y030651D01*
X029440Y030492D02*
X026973Y030492D01*
X026877Y030334D02*
X029440Y030334D01*
X029440Y030175D02*
X026686Y030175D01*
X026899Y030017D02*
X029440Y030017D01*
X029440Y029858D02*
X026983Y029858D01*
X027010Y029700D02*
X029440Y029700D01*
X029440Y029541D02*
X026993Y029541D01*
X026926Y029383D02*
X029440Y029383D01*
X029440Y029224D02*
X026748Y029224D01*
X026850Y029066D02*
X029440Y029066D01*
X029440Y028907D02*
X026962Y028907D01*
X027010Y028749D02*
X029440Y028749D01*
X029440Y028590D02*
X027010Y028590D01*
X026948Y028432D02*
X029440Y028432D01*
X029440Y028273D02*
X026816Y028273D01*
X026801Y028115D02*
X029440Y028115D01*
X029440Y027956D02*
X026942Y027956D01*
X027008Y027798D02*
X029440Y027798D01*
X029440Y027639D02*
X027010Y027639D01*
X026968Y027481D02*
X029440Y027481D01*
X029440Y027322D02*
X026865Y027322D01*
X026713Y027164D02*
X029440Y027164D01*
X029454Y027005D02*
X026911Y027005D01*
X026480Y026687D02*
X027780Y026687D01*
X025480Y026687D02*
X025380Y026687D01*
X022780Y029287D01*
X023180Y029387D02*
X023180Y032787D01*
X024180Y033787D01*
X029380Y033787D01*
X030480Y032687D01*
X033580Y032687D01*
X034580Y031687D01*
X034580Y028787D01*
X034180Y028387D01*
X034203Y028749D02*
X033817Y028749D01*
X032980Y027005D02*
X030101Y027005D01*
X030259Y026847D02*
X032980Y026847D01*
X033510Y031443D02*
X033550Y031443D01*
X033550Y031602D02*
X033510Y031602D01*
X033510Y031760D02*
X033550Y031760D01*
X033550Y031919D02*
X033510Y031919D01*
X033692Y032236D02*
X030420Y032236D01*
X030420Y032394D02*
X033533Y032394D01*
X034860Y033821D02*
X031738Y033821D01*
X031738Y033979D02*
X034860Y033979D01*
X034860Y034138D02*
X031738Y034138D01*
X031693Y034296D02*
X034860Y034296D01*
X034860Y034455D02*
X000800Y034455D01*
X000800Y034613D02*
X001546Y034613D01*
X001652Y034552D02*
X001934Y034477D01*
X002226Y034477D01*
X002508Y034552D01*
X002762Y034699D01*
X002968Y034905D01*
X003114Y035158D01*
X003190Y035441D01*
X003190Y035733D01*
X003114Y036015D01*
X002968Y036268D01*
X002762Y036475D01*
X002508Y036621D01*
X002226Y036697D01*
X001934Y036697D01*
X001652Y036621D01*
X001398Y036475D01*
X001192Y036268D01*
X001046Y036015D01*
X000970Y035733D01*
X000970Y035441D01*
X001046Y035158D01*
X001192Y034905D01*
X001398Y034699D01*
X001652Y034552D01*
X001325Y034772D02*
X000800Y034772D01*
X000800Y034930D02*
X001177Y034930D01*
X001086Y035089D02*
X000800Y035089D01*
X000800Y035247D02*
X001022Y035247D01*
X000979Y035406D02*
X000800Y035406D01*
X000800Y035564D02*
X000970Y035564D01*
X000970Y035723D02*
X000800Y035723D01*
X000800Y035881D02*
X001010Y035881D01*
X001060Y036040D02*
X000800Y036040D01*
X000800Y036198D02*
X001151Y036198D01*
X001280Y036357D02*
X000800Y036357D01*
X000800Y036515D02*
X001468Y036515D01*
X001849Y036674D02*
X000800Y036674D01*
X000800Y036832D02*
X034860Y036832D01*
X034860Y036674D02*
X034190Y036674D01*
X034108Y036721D02*
X033826Y036797D01*
X033534Y036797D01*
X033252Y036721D01*
X032998Y036575D01*
X032792Y036368D01*
X032646Y036115D01*
X032570Y035833D01*
X032570Y035541D01*
X032646Y035258D01*
X032792Y035005D01*
X032998Y034799D01*
X033252Y034652D01*
X033534Y034577D01*
X033826Y034577D01*
X034108Y034652D01*
X034362Y034799D01*
X034568Y035005D01*
X034714Y035258D01*
X034790Y035541D01*
X034790Y035833D01*
X034714Y036115D01*
X034568Y036368D01*
X034362Y036575D01*
X034108Y036721D01*
X034421Y036515D02*
X034860Y036515D01*
X034860Y036357D02*
X034575Y036357D01*
X034666Y036198D02*
X034860Y036198D01*
X034860Y036040D02*
X034734Y036040D01*
X034777Y035881D02*
X034860Y035881D01*
X034860Y035723D02*
X034790Y035723D01*
X034790Y035564D02*
X034860Y035564D01*
X034860Y035406D02*
X034754Y035406D01*
X034708Y035247D02*
X034860Y035247D01*
X034860Y035089D02*
X034616Y035089D01*
X034493Y034930D02*
X034860Y034930D01*
X034860Y034772D02*
X034315Y034772D01*
X033962Y034613D02*
X034860Y034613D01*
X033398Y034613D02*
X002614Y034613D01*
X002835Y034772D02*
X033045Y034772D01*
X032867Y034930D02*
X002983Y034930D01*
X003074Y035089D02*
X032744Y035089D01*
X032652Y035247D02*
X003138Y035247D01*
X003181Y035406D02*
X032606Y035406D01*
X032570Y035564D02*
X003190Y035564D01*
X003190Y035723D02*
X032570Y035723D01*
X032583Y035881D02*
X003150Y035881D01*
X003100Y036040D02*
X032626Y036040D01*
X032694Y036198D02*
X003009Y036198D01*
X002880Y036357D02*
X032785Y036357D01*
X032939Y036515D02*
X002692Y036515D01*
X002311Y036674D02*
X033170Y036674D01*
X034860Y036991D02*
X000800Y036991D01*
X000800Y037149D02*
X034860Y037149D01*
X034860Y037308D02*
X000800Y037308D01*
X000800Y037466D02*
X034860Y037466D01*
X034860Y037625D02*
X000800Y037625D01*
X000800Y037783D02*
X034860Y037783D01*
X034860Y037942D02*
X000800Y037942D01*
X000800Y038100D02*
X034860Y038100D01*
X034860Y038259D02*
X000800Y038259D01*
X000800Y038417D02*
X034860Y038417D01*
X034860Y038576D02*
X000800Y038576D01*
X000800Y038734D02*
X034860Y038734D01*
X034860Y038893D02*
X000800Y038893D01*
X000800Y039051D02*
X034860Y039051D01*
X034860Y039210D02*
X000800Y039210D01*
X000800Y039368D02*
X034860Y039368D01*
X025149Y031126D02*
X024120Y031126D01*
X024120Y030968D02*
X025006Y030968D01*
X024943Y030809D02*
X024120Y030809D01*
X024120Y030651D02*
X024930Y030651D01*
X024965Y030492D02*
X024120Y030492D01*
X024120Y030334D02*
X025057Y030334D01*
X025180Y030136D02*
X025031Y029987D01*
X024964Y029827D01*
X024379Y029827D01*
X024120Y030086D01*
X024189Y030017D02*
X025061Y030017D01*
X025180Y030136D02*
X025274Y030175D01*
X024977Y029858D02*
X024348Y029858D01*
X023180Y029387D02*
X024880Y027687D01*
X025480Y027687D01*
X024950Y031285D02*
X024120Y031285D01*
X024120Y031443D02*
X024950Y031443D01*
X024950Y031602D02*
X024120Y031602D01*
X024120Y031760D02*
X024950Y031760D01*
X024950Y031919D02*
X024120Y031919D01*
X024120Y032077D02*
X024950Y032077D01*
X023216Y033662D02*
X000800Y033662D01*
X000800Y033504D02*
X023058Y033504D01*
X023375Y033821D02*
X000800Y033821D01*
X000800Y033979D02*
X023533Y033979D01*
X023692Y034138D02*
X000800Y034138D01*
X000800Y034296D02*
X023859Y034296D01*
X025038Y023994D02*
X009922Y023994D01*
X009992Y023835D02*
X024968Y023835D01*
X024950Y023677D02*
X010010Y023677D01*
X009984Y023518D02*
X024976Y023518D01*
X025057Y023360D02*
X009903Y023360D01*
X009693Y023201D02*
X025267Y023201D01*
X025087Y023043D02*
X009873Y023043D01*
X009972Y022884D02*
X024988Y022884D01*
X024950Y022726D02*
X010010Y022726D01*
X010004Y022567D02*
X024956Y022567D01*
X025021Y022409D02*
X009939Y022409D01*
X009793Y022250D02*
X025167Y022250D01*
X025793Y022250D02*
X026167Y022250D01*
X026021Y022409D02*
X025939Y022409D01*
X026903Y023360D02*
X028540Y023360D01*
X017140Y011948D02*
X009752Y011948D01*
X009927Y011789D02*
X017140Y011789D01*
X017140Y011631D02*
X009994Y011631D01*
X010010Y011472D02*
X017140Y011472D01*
X017140Y011314D02*
X009982Y011314D01*
X009898Y011155D02*
X017140Y011155D01*
X017140Y010997D02*
X009682Y010997D01*
X009878Y010838D02*
X017140Y010838D01*
X017140Y010680D02*
X009974Y010680D01*
X010010Y010521D02*
X017140Y010521D01*
X017140Y010363D02*
X010002Y010363D01*
X009937Y010204D02*
X017140Y010204D01*
X017140Y010046D02*
X009789Y010046D01*
X009829Y009887D02*
X017140Y009887D01*
X017140Y009729D02*
X009953Y009729D01*
X010010Y009570D02*
X017140Y009570D01*
X017140Y009412D02*
X010010Y009412D01*
X009957Y009253D02*
X017140Y009253D01*
X017140Y009095D02*
X009838Y009095D01*
X009780Y008936D02*
X017140Y008936D01*
X017140Y008778D02*
X009933Y008778D01*
X009999Y008619D02*
X017140Y008619D01*
X017140Y008461D02*
X010010Y008461D01*
X009977Y008302D02*
X017140Y008302D01*
X017140Y008144D02*
X009887Y008144D01*
X009661Y007985D02*
X017140Y007985D01*
X017140Y007827D02*
X009890Y007827D01*
X009978Y007668D02*
X017140Y007668D01*
X017140Y007510D02*
X010010Y007510D01*
X009998Y007351D02*
X017140Y007351D01*
X017140Y007193D02*
X009932Y007193D01*
X009773Y007034D02*
X017140Y007034D01*
X017140Y006876D02*
X009841Y006876D01*
X008134Y006083D02*
X003028Y006083D01*
X003035Y006242D02*
X008008Y006242D01*
X008168Y005925D02*
X003080Y005925D01*
X003080Y005766D02*
X008022Y005766D01*
X007956Y005608D02*
X003080Y005608D01*
X003080Y005567D02*
X002550Y005567D01*
X002550Y005037D01*
X002924Y005037D01*
X002969Y005049D01*
X003011Y005073D01*
X003044Y005106D01*
X003068Y005147D01*
X003080Y005193D01*
X003080Y005567D01*
X003080Y005449D02*
X007950Y005449D01*
X007988Y005291D02*
X003080Y005291D01*
X003059Y005132D02*
X008085Y005132D01*
X008271Y004974D02*
X000800Y004974D01*
X000800Y005132D02*
X002001Y005132D01*
X001980Y005291D02*
X000800Y005291D01*
X000800Y005449D02*
X001980Y005449D01*
X001980Y005608D02*
X000800Y005608D01*
X000800Y005766D02*
X001980Y005766D01*
X001980Y005925D02*
X000800Y005925D01*
X000800Y006083D02*
X002032Y006083D01*
X002510Y005449D02*
X002550Y005449D01*
X002550Y005291D02*
X002510Y005291D01*
X002510Y005132D02*
X002550Y005132D01*
X002647Y003864D02*
X008108Y003864D01*
X008215Y004023D02*
X000800Y004023D01*
X000800Y004181D02*
X008036Y004181D01*
X007967Y004340D02*
X000800Y004340D01*
X000800Y004498D02*
X007950Y004498D01*
X007977Y004657D02*
X000800Y004657D01*
X000800Y004815D02*
X008059Y004815D01*
X007997Y003706D02*
X003008Y003706D01*
X003189Y003547D02*
X007950Y003547D01*
X007950Y003389D02*
X003314Y003389D01*
X003406Y003230D02*
X008013Y003230D01*
X008145Y003072D02*
X003453Y003072D01*
X003490Y002913D02*
X007950Y002913D01*
X007950Y002755D02*
X003490Y002755D01*
X003478Y002596D02*
X007950Y002596D01*
X007950Y002438D02*
X003436Y002438D01*
X003369Y002279D02*
X007950Y002279D01*
X007950Y002121D02*
X003277Y002121D01*
X003125Y001962D02*
X008038Y001962D01*
X008922Y001962D02*
X009038Y001962D01*
X009993Y004340D02*
X012322Y004340D01*
X012322Y004498D02*
X010010Y004498D01*
X010089Y004657D02*
X012322Y004657D01*
X012322Y004815D02*
X010248Y004815D01*
X010406Y004974D02*
X014022Y004974D01*
X014022Y005132D02*
X010565Y005132D01*
X009033Y011789D02*
X008927Y011789D01*
X008752Y011948D02*
X009208Y011948D01*
X004320Y015752D02*
X015306Y015752D01*
X015464Y015910D02*
X004320Y015910D01*
X004320Y016069D02*
X015623Y016069D01*
X015781Y016227D02*
X004320Y016227D01*
X001980Y013691D02*
X000800Y013691D01*
X000800Y013533D02*
X002001Y013533D01*
X008793Y022250D02*
X009167Y022250D01*
X009021Y022409D02*
X008939Y022409D01*
X008247Y027164D02*
X002957Y027164D01*
X002550Y026530D02*
X002510Y026530D01*
X002510Y026371D02*
X002550Y026371D01*
X002550Y026213D02*
X002510Y026213D01*
X002510Y026054D02*
X002550Y026054D01*
X000800Y030334D02*
X006540Y030334D01*
X006540Y030492D02*
X000800Y030492D01*
X000800Y030651D02*
X006540Y030651D01*
X006540Y030809D02*
X000800Y030809D01*
X000800Y030968D02*
X006540Y030968D01*
X006540Y031126D02*
X000800Y031126D01*
X000800Y031285D02*
X006540Y031285D01*
X006540Y031443D02*
X000800Y031443D01*
X000800Y031602D02*
X006540Y031602D01*
X006540Y031760D02*
X000800Y031760D01*
X000800Y031919D02*
X006540Y031919D01*
X006540Y032077D02*
X000800Y032077D01*
X000800Y032236D02*
X006540Y032236D01*
X006565Y032394D02*
X000800Y032394D01*
X000800Y032553D02*
X006707Y032553D01*
X006865Y032711D02*
X000800Y032711D01*
X000800Y032870D02*
X007024Y032870D01*
X007182Y033028D02*
X000800Y033028D01*
X009790Y031126D02*
X010840Y031126D01*
X010840Y030968D02*
X009937Y030968D01*
X010003Y030809D02*
X010840Y030809D01*
X010840Y030651D02*
X010010Y030651D01*
X009973Y030492D02*
X010840Y030492D01*
X010840Y030334D02*
X009877Y030334D01*
X009686Y030175D02*
X010829Y030175D01*
X010671Y030017D02*
X009899Y030017D01*
X010010Y031285D02*
X010840Y031285D01*
X010840Y031443D02*
X010010Y031443D01*
X010010Y031602D02*
X010840Y031602D01*
X010840Y031760D02*
X010010Y031760D01*
X010010Y031919D02*
X010840Y031919D01*
X010840Y032077D02*
X010010Y032077D01*
X016267Y015435D02*
X017106Y015435D01*
X017022Y015276D02*
X016109Y015276D01*
X015950Y015118D02*
X017022Y015118D01*
X017022Y014959D02*
X015792Y014959D01*
X015633Y014801D02*
X017043Y014801D01*
X029180Y002687D02*
X029080Y002587D01*
X029080Y002487D01*
X029080Y002587D02*
X028980Y002487D01*
X029403Y002913D02*
X029757Y002913D01*
X029617Y002755D02*
X029543Y002755D01*
X030403Y002913D02*
X030731Y002913D01*
X030599Y002755D02*
X030543Y002755D01*
X031060Y002755D02*
X031100Y002755D01*
X031100Y002913D02*
X031060Y002913D01*
X031060Y002596D02*
X031100Y002596D01*
X031429Y002913D02*
X031550Y002913D01*
X032610Y002913D02*
X032770Y002913D01*
X032793Y002755D02*
X032610Y002755D01*
X032610Y002596D02*
X032836Y002596D01*
X032915Y002438D02*
X032610Y002438D01*
X032610Y002279D02*
X033018Y002279D01*
X033176Y002121D02*
X032610Y002121D01*
X002113Y003864D02*
X000800Y003864D01*
X000800Y003706D02*
X001752Y003706D01*
X001571Y003547D02*
X000800Y003547D01*
X000800Y003389D02*
X001446Y003389D01*
X001354Y003230D02*
X000800Y003230D01*
X000800Y003072D02*
X001307Y003072D01*
X001270Y002913D02*
X000800Y002913D01*
X000800Y002755D02*
X001270Y002755D01*
X001282Y002596D02*
X000800Y002596D01*
X000800Y002438D02*
X001324Y002438D01*
X001391Y002279D02*
X000800Y002279D01*
X000800Y002121D02*
X001483Y002121D01*
X001635Y001962D02*
X000800Y001962D01*
D15*
X012680Y004587D03*
X014380Y004887D03*
X014880Y014387D03*
X014180Y015187D03*
X017380Y015087D03*
X014580Y018987D03*
X012180Y018587D03*
X008780Y016787D03*
X006980Y018687D03*
X005680Y019187D03*
X029180Y012187D03*
X030780Y011987D03*
X031380Y010587D03*
X032280Y015087D03*
X031480Y005987D03*
X031380Y033987D03*
M02*
